ISO-10303-21;
HEADER;
/* Generated by software containing ST-Developer
 * from STEP Tools, Inc. (www.steptools.com) 
 */
/* OPTION: using custom renumber hook */

FILE_DESCRIPTION(
/* description */ ('STEP AP242 Edition 2',
'CAx-IF Rec.Pracs.---Representation and Presentation of Product Manufa
cturing Information (PMI)---4.0---2014-10-13',
'CAx-IF Rec.Pracs.---3D Tessellated Geometry---0.4---2014-09-14','2;1',
'CAx-IF Rec.Pracs.---User Defined Attributes---1.5---2016-08-15'),
/* implementation_level */ '2;1');

FILE_NAME(
/* name */ 'NYLON MJF Flex Spline and Wave Generator Copy 1 - CAGE',
/* time_stamp */ '2026-08-09T17:31:06Z',
/* author */ (''),
/* organization */ (''),
/* preprocessor_version */ 'ST-DEVELOPER v20',
/* originating_system */ 'ONSHAPE BY PTC INC, 1.219',
/* authorisation */ '  ');

FILE_SCHEMA (('AP242_MANAGED_MODEL_BASED_3D_ENGINEERING_MIM_LF { 1 0 10303 442 3 1 4 }'));
ENDSEC;

DATA;
#10=SHAPE_REPRESENTATION_RELATIONSHIP('','',#975,#11);
#11=ADVANCED_BREP_SHAPE_REPRESENTATION('',(#973),#1809);
#12=B_SPLINE_CURVE_WITH_KNOTS('',3,(#1330,#1331,#1332,#1333,#1334,#1335,
#1336,#1337,#1338,#1339,#1340),.UNSPECIFIED.,.F.,.F.,(4,1,1,1,1,1,1,1,4),
(0.,0.0014518661408083,0.00290373228161661,0.00435559842242491,0.00580746456323322,
0.00725933070404152,0.00871119684484983,0.0101630629856581,0.0116149291264664),
 .UNSPECIFIED.);
#13=B_SPLINE_CURVE_WITH_KNOTS('',3,(#1341,#1342,#1343,#1344,#1345,#1346,
#1347,#1348,#1349,#1350,#1351),.UNSPECIFIED.,.F.,.F.,(4,1,1,1,1,1,1,1,4),
(0.,0.00145113349842004,0.00290226699684008,0.00435340049526012,0.00580453399368017,
0.00725566749210021,0.00870680099052025,0.0101579344889403,0.0116090679873603),
 .UNSPECIFIED.);
#14=B_SPLINE_CURVE_WITH_KNOTS('',3,(#1374,#1375,#1376,#1377,#1378,#1379,
#1380,#1381,#1382,#1383,#1384),.UNSPECIFIED.,.F.,.F.,(4,1,1,1,1,1,1,1,4),
(0.,0.0014518661408083,0.0029037322816166,0.00435559842242489,0.00580746456323319,
0.00725933070404149,0.00871119684484979,0.0101630629856581,0.0116149291264664),
 .UNSPECIFIED.);
#15=B_SPLINE_CURVE_WITH_KNOTS('',3,(#1385,#1386,#1387,#1388,#1389,#1390,
#1391,#1392,#1393,#1394,#1395),.UNSPECIFIED.,.F.,.F.,(4,1,1,1,1,1,1,1,4),
(0.,0.00145113349842003,0.00290226699684007,0.0043534004952601,0.00580453399368014,
0.00725566749210017,0.00870680099052021,0.0101579344889402,0.0116090679873603),
 .UNSPECIFIED.);
#16=B_SPLINE_CURVE_WITH_KNOTS('',3,(#1418,#1419,#1420,#1421,#1422,#1423,
#1424,#1425,#1426,#1427,#1428),.UNSPECIFIED.,.F.,.F.,(4,1,1,1,1,1,1,1,4),
(0.,0.00145186614080831,0.00290373228161662,0.00435559842242492,0.00580746456323323,
0.00725933070404154,0.00871119684484985,0.0101630629856582,0.0116149291264665),
 .UNSPECIFIED.);
#17=B_SPLINE_CURVE_WITH_KNOTS('',3,(#1429,#1430,#1431,#1432,#1433,#1434,
#1435,#1436,#1437,#1438,#1439),.UNSPECIFIED.,.F.,.F.,(4,1,1,1,1,1,1,1,4),
(1.0842021724855E-19,0.00145113349842004,0.00290226699684009,0.00435340049526013,
0.00580453399368018,0.00725566749210022,0.00870680099052027,0.0101579344889403,
0.0116090679873604),.UNSPECIFIED.);
#18=B_SPLINE_CURVE_WITH_KNOTS('',3,(#1462,#1463,#1464,#1465,#1466,#1467,
#1468,#1469,#1470,#1471,#1472),.UNSPECIFIED.,.F.,.F.,(4,1,1,1,1,1,1,1,4),
(4.98261384108449E-18,0.00145186614080832,0.00290373228161664,0.00435559842242495,
0.00580746456323327,0.00725933070404158,0.0087111968448499,0.0101630629856582,
0.0116149291264665),.UNSPECIFIED.);
#19=B_SPLINE_CURVE_WITH_KNOTS('',3,(#1473,#1474,#1475,#1476,#1477,#1478,
#1479,#1480,#1481,#1482,#1483),.UNSPECIFIED.,.F.,.F.,(4,1,1,1,1,1,1,1,4),
(0.,0.00145113349842005,0.0029022669968401,0.00435340049526014,0.00580453399368019,
0.00725566749210024,0.00870680099052029,0.0101579344889403,0.0116090679873604),
 .UNSPECIFIED.);
#20=B_SPLINE_CURVE_WITH_KNOTS('',3,(#1506,#1507,#1508,#1509,#1510,#1511,
#1512,#1513,#1514,#1515,#1516),.UNSPECIFIED.,.F.,.F.,(4,1,1,1,1,1,1,1,4),
(0.,0.00145186614080832,0.00290373228161663,0.00435559842242495,0.00580746456323327,
0.00725933070404159,0.0087111968448499,0.0101630629856582,0.0116149291264665),
 .UNSPECIFIED.);
#21=B_SPLINE_CURVE_WITH_KNOTS('',3,(#1517,#1518,#1519,#1520,#1521,#1522,
#1523,#1524,#1525,#1526,#1527),.UNSPECIFIED.,.F.,.F.,(4,1,1,1,1,1,1,1,4),
(3.87895961444886E-18,0.00145113349842006,0.00290226699684011,0.00435340049526016,
0.00580453399368022,0.00725566749210027,0.00870680099052032,0.0101579344889404,
0.0116090679873604),.UNSPECIFIED.);
#22=B_SPLINE_CURVE_WITH_KNOTS('',3,(#1550,#1551,#1552,#1553,#1554,#1555,
#1556,#1557,#1558,#1559,#1560),.UNSPECIFIED.,.F.,.F.,(4,1,1,1,1,1,1,1,4),
(9.69739903612216E-19,0.0014518661408083,0.00290373228161661,0.00435559842242491,
0.00580746456323321,0.00725933070404152,0.00871119684484982,0.0101630629856581,
0.0116149291264664),.UNSPECIFIED.);
#23=B_SPLINE_CURVE_WITH_KNOTS('',3,(#1561,#1562,#1563,#1564,#1565,#1566,
#1567,#1568,#1569,#1570,#1571),.UNSPECIFIED.,.F.,.F.,(4,1,1,1,1,1,1,1,4),
(0.,0.00145113349842004,0.00290226699684008,0.00435340049526012,0.00580453399368015,
0.00725566749210019,0.00870680099052023,0.0101579344889403,0.0116090679873603),
 .UNSPECIFIED.);
#24=B_SPLINE_CURVE_WITH_KNOTS('',3,(#1594,#1595,#1596,#1597,#1598,#1599,
#1600,#1601,#1602,#1603,#1604),.UNSPECIFIED.,.F.,.F.,(4,1,1,1,1,1,1,1,4),
(0.,0.00145186614080831,0.00290373228161662,0.00435559842242493,0.00580746456323324,
0.00725933070404155,0.00871119684484986,0.0101630629856582,0.0116149291264665),
 .UNSPECIFIED.);
#25=B_SPLINE_CURVE_WITH_KNOTS('',3,(#1605,#1606,#1607,#1608,#1609,#1610,
#1611,#1612,#1613,#1614,#1615),.UNSPECIFIED.,.F.,.F.,(4,1,1,1,1,1,1,1,4),
(0.,0.00145113349842005,0.0029022669968401,0.00435340049526014,0.00580453399368019,
0.00725566749210024,0.00870680099052029,0.0101579344889403,0.0116090679873604),
 .UNSPECIFIED.);
#26=B_SPLINE_CURVE_WITH_KNOTS('',3,(#1638,#1639,#1640,#1641,#1642,#1643,
#1644,#1645,#1646,#1647,#1648),.UNSPECIFIED.,.F.,.F.,(4,1,1,1,1,1,1,1,4),
(2.90921971083665E-18,0.00145186614080831,0.00290373228161662,0.00435559842242493,
0.00580746456323323,0.00725933070404154,0.00871119684484985,0.0101630629856582,
0.0116149291264665),.UNSPECIFIED.);
#27=B_SPLINE_CURVE_WITH_KNOTS('',3,(#1649,#1650,#1651,#1652,#1653,#1654,
#1655,#1656,#1657,#1658,#1659),.UNSPECIFIED.,.F.,.F.,(4,1,1,1,1,1,1,1,4),
(0.,0.00145113349842004,0.00290226699684009,0.00435340049526013,0.00580453399368018,
0.00725566749210022,0.00870680099052027,0.0101579344889403,0.0116090679873604),
 .UNSPECIFIED.);
#28=B_SPLINE_CURVE_WITH_KNOTS('',3,(#1682,#1683,#1684,#1685,#1686,#1687,
#1688,#1689,#1690,#1691,#1692),.UNSPECIFIED.,.F.,.F.,(4,1,1,1,1,1,1,1,4),
(0.,0.00145186614080829,0.00290373228161658,0.00435559842242488,0.00580746456323317,
0.00725933070404146,0.00871119684484975,0.010163062985658,0.0116149291264663),
 .UNSPECIFIED.);
#29=B_SPLINE_CURVE_WITH_KNOTS('',3,(#1693,#1694,#1695,#1696,#1697,#1698,
#1699,#1700,#1701,#1702,#1703),.UNSPECIFIED.,.F.,.F.,(4,1,1,1,1,1,1,1,4),
(0.,0.00145113349842003,0.00290226699684006,0.00435340049526009,0.00580453399368012,
0.00725566749210014,0.00870680099052017,0.0101579344889402,0.0116090679873602),
 .UNSPECIFIED.);
#30=B_SPLINE_CURVE_WITH_KNOTS('',3,(#1726,#1727,#1728,#1729,#1730,#1731,
#1732,#1733,#1734,#1735,#1736),.UNSPECIFIED.,.F.,.F.,(4,1,1,1,1,1,1,1,4),
(0.,0.00145186614080832,0.00290373228161665,0.00435559842242497,0.00580746456323329,
0.00725933070404161,0.00871119684484994,0.0101630629856583,0.0116149291264666),
 .UNSPECIFIED.);
#31=B_SPLINE_CURVE_WITH_KNOTS('',3,(#1737,#1738,#1739,#1740,#1741,#1742,
#1743,#1744,#1745,#1746,#1747),.UNSPECIFIED.,.F.,.F.,(4,1,1,1,1,1,1,1,4),
(0.,0.00145113349842006,0.00290226699684011,0.00435340049526017,0.00580453399368022,
0.00725566749210028,0.00870680099052033,0.0101579344889404,0.0116090679873604),
 .UNSPECIFIED.);
#32=B_SPLINE_CURVE_WITH_KNOTS('',3,(#1768,#1769,#1770,#1771,#1772,#1773,
#1774,#1775,#1776,#1777,#1778),.UNSPECIFIED.,.F.,.F.,(4,1,1,1,1,1,1,1,4),
(0.,0.0014518661408083,0.00290373228161661,0.00435559842242491,0.00580746456323322,
0.00725933070404152,0.00871119684484983,0.0101630629856581,0.0116149291264664),
 .UNSPECIFIED.);
#33=B_SPLINE_CURVE_WITH_KNOTS('',3,(#1788,#1789,#1790,#1791,#1792,#1793,
#1794,#1795,#1796,#1797,#1798),.UNSPECIFIED.,.F.,.F.,(4,1,1,1,1,1,1,1,4),
(0.,0.00145113349842004,0.00290226699684008,0.00435340049526012,0.00580453399368016,
0.0072556674921002,0.00870680099052024,0.0101579344889403,0.0116090679873603),
 .UNSPECIFIED.);
#34=CYLINDRICAL_SURFACE('',#982,0.00265);
#35=CYLINDRICAL_SURFACE('',#988,0.00265);
#36=CYLINDRICAL_SURFACE('',#994,0.00265);
#37=CYLINDRICAL_SURFACE('',#1000,0.00265);
#38=CYLINDRICAL_SURFACE('',#1006,0.00265);
#39=CYLINDRICAL_SURFACE('',#1012,0.00265);
#40=CYLINDRICAL_SURFACE('',#1018,0.00265);
#41=CYLINDRICAL_SURFACE('',#1024,0.00265);
#42=CYLINDRICAL_SURFACE('',#1030,0.00265);
#43=CYLINDRICAL_SURFACE('',#1036,0.00265);
#44=CYLINDRICAL_SURFACE('',#1040,0.0101801713213178);
#45=CYLINDRICAL_SURFACE('',#1042,0.0147504823057344);
#46=CYLINDRICAL_SURFACE('',#1048,0.0116821183213178);
#47=CYLINDRICAL_SURFACE('',#1050,0.0127504823057344);
#48=CYLINDRICAL_SURFACE('',#1053,0.00265);
#49=LINE('',#1309,#137);
#50=LINE('',#1313,#138);
#51=LINE('',#1315,#139);
#52=LINE('',#1318,#140);
#53=LINE('',#1319,#141);
#54=LINE('',#1321,#142);
#55=LINE('',#1324,#143);
#56=LINE('',#1326,#144);
#57=LINE('',#1328,#145);
#58=LINE('',#1355,#146);
#59=LINE('',#1359,#147);
#60=LINE('',#1362,#148);
#61=LINE('',#1363,#149);
#62=LINE('',#1365,#150);
#63=LINE('',#1368,#151);
#64=LINE('',#1370,#152);
#65=LINE('',#1372,#153);
#66=LINE('',#1399,#154);
#67=LINE('',#1403,#155);
#68=LINE('',#1406,#156);
#69=LINE('',#1407,#157);
#70=LINE('',#1409,#158);
#71=LINE('',#1412,#159);
#72=LINE('',#1414,#160);
#73=LINE('',#1416,#161);
#74=LINE('',#1443,#162);
#75=LINE('',#1447,#163);
#76=LINE('',#1450,#164);
#77=LINE('',#1451,#165);
#78=LINE('',#1453,#166);
#79=LINE('',#1456,#167);
#80=LINE('',#1458,#168);
#81=LINE('',#1460,#169);
#82=LINE('',#1487,#170);
#83=LINE('',#1491,#171);
#84=LINE('',#1494,#172);
#85=LINE('',#1495,#173);
#86=LINE('',#1497,#174);
#87=LINE('',#1500,#175);
#88=LINE('',#1502,#176);
#89=LINE('',#1504,#177);
#90=LINE('',#1531,#178);
#91=LINE('',#1535,#179);
#92=LINE('',#1538,#180);
#93=LINE('',#1539,#181);
#94=LINE('',#1541,#182);
#95=LINE('',#1544,#183);
#96=LINE('',#1546,#184);
#97=LINE('',#1548,#185);
#98=LINE('',#1575,#186);
#99=LINE('',#1579,#187);
#100=LINE('',#1582,#188);
#101=LINE('',#1583,#189);
#102=LINE('',#1585,#190);
#103=LINE('',#1588,#191);
#104=LINE('',#1590,#192);
#105=LINE('',#1592,#193);
#106=LINE('',#1619,#194);
#107=LINE('',#1623,#195);
#108=LINE('',#1626,#196);
#109=LINE('',#1627,#197);
#110=LINE('',#1629,#198);
#111=LINE('',#1632,#199);
#112=LINE('',#1634,#200);
#113=LINE('',#1636,#201);
#114=LINE('',#1663,#202);
#115=LINE('',#1667,#203);
#116=LINE('',#1670,#204);
#117=LINE('',#1671,#205);
#118=LINE('',#1673,#206);
#119=LINE('',#1676,#207);
#120=LINE('',#1678,#208);
#121=LINE('',#1680,#209);
#122=LINE('',#1707,#210);
#123=LINE('',#1711,#211);
#124=LINE('',#1714,#212);
#125=LINE('',#1715,#213);
#126=LINE('',#1717,#214);
#127=LINE('',#1720,#215);
#128=LINE('',#1722,#216);
#129=LINE('',#1724,#217);
#130=LINE('',#1766,#218);
#131=LINE('',#1780,#219);
#132=LINE('',#1786,#220);
#133=LINE('',#1800,#221);
#134=LINE('',#1802,#222);
#135=LINE('',#1804,#223);
#136=LINE('',#1805,#224);
#137=VECTOR('',#1062,1.);
#138=VECTOR('',#1065,1.);
#139=VECTOR('',#1068,1.);
#140=VECTOR('',#1069,1.);
#141=VECTOR('',#1070,1.);
#142=VECTOR('',#1073,1.);
#143=VECTOR('',#1074,1.);
#144=VECTOR('',#1075,1.);
#145=VECTOR('',#1076,1.);
#146=VECTOR('',#1083,1.);
#147=VECTOR('',#1088,1.);
#148=VECTOR('',#1089,1.);
#149=VECTOR('',#1090,1.);
#150=VECTOR('',#1093,1.);
#151=VECTOR('',#1094,1.);
#152=VECTOR('',#1095,1.);
#153=VECTOR('',#1096,1.);
#154=VECTOR('',#1103,1.);
#155=VECTOR('',#1108,1.);
#156=VECTOR('',#1109,1.);
#157=VECTOR('',#1110,1.);
#158=VECTOR('',#1113,1.);
#159=VECTOR('',#1114,1.);
#160=VECTOR('',#1115,1.);
#161=VECTOR('',#1116,1.);
#162=VECTOR('',#1123,1.);
#163=VECTOR('',#1128,1.);
#164=VECTOR('',#1129,1.);
#165=VECTOR('',#1130,1.);
#166=VECTOR('',#1133,1.);
#167=VECTOR('',#1134,1.);
#168=VECTOR('',#1135,1.);
#169=VECTOR('',#1136,1.);
#170=VECTOR('',#1143,1.);
#171=VECTOR('',#1148,1.);
#172=VECTOR('',#1149,1.);
#173=VECTOR('',#1150,1.);
#174=VECTOR('',#1153,1.);
#175=VECTOR('',#1154,1.);
#176=VECTOR('',#1155,1.);
#177=VECTOR('',#1156,1.);
#178=VECTOR('',#1163,1.);
#179=VECTOR('',#1168,1.);
#180=VECTOR('',#1169,1.);
#181=VECTOR('',#1170,1.);
#182=VECTOR('',#1173,1.);
#183=VECTOR('',#1174,1.);
#184=VECTOR('',#1175,1.);
#185=VECTOR('',#1176,1.);
#186=VECTOR('',#1183,1.);
#187=VECTOR('',#1188,1.);
#188=VECTOR('',#1189,1.);
#189=VECTOR('',#1190,1.);
#190=VECTOR('',#1193,1.);
#191=VECTOR('',#1194,1.);
#192=VECTOR('',#1195,1.);
#193=VECTOR('',#1196,1.);
#194=VECTOR('',#1203,1.);
#195=VECTOR('',#1208,1.);
#196=VECTOR('',#1209,1.);
#197=VECTOR('',#1210,1.);
#198=VECTOR('',#1213,1.);
#199=VECTOR('',#1214,1.);
#200=VECTOR('',#1215,1.);
#201=VECTOR('',#1216,1.);
#202=VECTOR('',#1223,1.);
#203=VECTOR('',#1228,1.);
#204=VECTOR('',#1229,1.);
#205=VECTOR('',#1230,1.);
#206=VECTOR('',#1233,1.);
#207=VECTOR('',#1234,1.);
#208=VECTOR('',#1235,1.);
#209=VECTOR('',#1236,1.);
#210=VECTOR('',#1243,1.);
#211=VECTOR('',#1248,1.);
#212=VECTOR('',#1249,1.);
#213=VECTOR('',#1250,1.);
#214=VECTOR('',#1253,1.);
#215=VECTOR('',#1254,1.);
#216=VECTOR('',#1255,1.);
#217=VECTOR('',#1256,1.);
#218=VECTOR('',#1283,1.);
#219=VECTOR('',#1284,1.);
#220=VECTOR('',#1291,1.);
#221=VECTOR('',#1292,1.);
#222=VECTOR('',#1295,1.);
#223=VECTOR('',#1298,1.);
#224=VECTOR('',#1299,1.);
#225=ORIENTED_EDGE('',*,*,#501,.F.);
#226=ORIENTED_EDGE('',*,*,#502,.T.);
#227=ORIENTED_EDGE('',*,*,#503,.T.);
#228=ORIENTED_EDGE('',*,*,#504,.F.);
#229=ORIENTED_EDGE('',*,*,#505,.F.);
#230=ORIENTED_EDGE('',*,*,#506,.T.);
#231=ORIENTED_EDGE('',*,*,#502,.F.);
#232=ORIENTED_EDGE('',*,*,#507,.F.);
#233=ORIENTED_EDGE('',*,*,#508,.T.);
#234=ORIENTED_EDGE('',*,*,#509,.T.);
#235=ORIENTED_EDGE('',*,*,#510,.F.);
#236=ORIENTED_EDGE('',*,*,#511,.T.);
#237=ORIENTED_EDGE('',*,*,#512,.T.);
#238=ORIENTED_EDGE('',*,*,#511,.F.);
#239=ORIENTED_EDGE('',*,*,#513,.F.);
#240=ORIENTED_EDGE('',*,*,#505,.T.);
#241=ORIENTED_EDGE('',*,*,#514,.F.);
#242=ORIENTED_EDGE('',*,*,#515,.T.);
#243=ORIENTED_EDGE('',*,*,#516,.T.);
#244=ORIENTED_EDGE('',*,*,#509,.F.);
#245=ORIENTED_EDGE('',*,*,#517,.F.);
#246=ORIENTED_EDGE('',*,*,#518,.T.);
#247=ORIENTED_EDGE('',*,*,#515,.F.);
#248=ORIENTED_EDGE('',*,*,#519,.F.);
#249=ORIENTED_EDGE('',*,*,#520,.T.);
#250=ORIENTED_EDGE('',*,*,#521,.T.);
#251=ORIENTED_EDGE('',*,*,#522,.F.);
#252=ORIENTED_EDGE('',*,*,#523,.T.);
#253=ORIENTED_EDGE('',*,*,#524,.T.);
#254=ORIENTED_EDGE('',*,*,#523,.F.);
#255=ORIENTED_EDGE('',*,*,#525,.F.);
#256=ORIENTED_EDGE('',*,*,#517,.T.);
#257=ORIENTED_EDGE('',*,*,#526,.F.);
#258=ORIENTED_EDGE('',*,*,#527,.T.);
#259=ORIENTED_EDGE('',*,*,#528,.T.);
#260=ORIENTED_EDGE('',*,*,#521,.F.);
#261=ORIENTED_EDGE('',*,*,#529,.F.);
#262=ORIENTED_EDGE('',*,*,#530,.T.);
#263=ORIENTED_EDGE('',*,*,#527,.F.);
#264=ORIENTED_EDGE('',*,*,#531,.F.);
#265=ORIENTED_EDGE('',*,*,#532,.T.);
#266=ORIENTED_EDGE('',*,*,#533,.T.);
#267=ORIENTED_EDGE('',*,*,#534,.F.);
#268=ORIENTED_EDGE('',*,*,#535,.T.);
#269=ORIENTED_EDGE('',*,*,#536,.T.);
#270=ORIENTED_EDGE('',*,*,#535,.F.);
#271=ORIENTED_EDGE('',*,*,#537,.F.);
#272=ORIENTED_EDGE('',*,*,#529,.T.);
#273=ORIENTED_EDGE('',*,*,#538,.F.);
#274=ORIENTED_EDGE('',*,*,#539,.T.);
#275=ORIENTED_EDGE('',*,*,#540,.T.);
#276=ORIENTED_EDGE('',*,*,#533,.F.);
#277=ORIENTED_EDGE('',*,*,#541,.F.);
#278=ORIENTED_EDGE('',*,*,#542,.T.);
#279=ORIENTED_EDGE('',*,*,#539,.F.);
#280=ORIENTED_EDGE('',*,*,#543,.F.);
#281=ORIENTED_EDGE('',*,*,#544,.T.);
#282=ORIENTED_EDGE('',*,*,#545,.T.);
#283=ORIENTED_EDGE('',*,*,#546,.F.);
#284=ORIENTED_EDGE('',*,*,#547,.T.);
#285=ORIENTED_EDGE('',*,*,#548,.T.);
#286=ORIENTED_EDGE('',*,*,#547,.F.);
#287=ORIENTED_EDGE('',*,*,#549,.F.);
#288=ORIENTED_EDGE('',*,*,#541,.T.);
#289=ORIENTED_EDGE('',*,*,#550,.F.);
#290=ORIENTED_EDGE('',*,*,#551,.T.);
#291=ORIENTED_EDGE('',*,*,#552,.T.);
#292=ORIENTED_EDGE('',*,*,#545,.F.);
#293=ORIENTED_EDGE('',*,*,#553,.F.);
#294=ORIENTED_EDGE('',*,*,#554,.T.);
#295=ORIENTED_EDGE('',*,*,#551,.F.);
#296=ORIENTED_EDGE('',*,*,#555,.F.);
#297=ORIENTED_EDGE('',*,*,#556,.T.);
#298=ORIENTED_EDGE('',*,*,#557,.T.);
#299=ORIENTED_EDGE('',*,*,#558,.F.);
#300=ORIENTED_EDGE('',*,*,#559,.T.);
#301=ORIENTED_EDGE('',*,*,#560,.T.);
#302=ORIENTED_EDGE('',*,*,#559,.F.);
#303=ORIENTED_EDGE('',*,*,#561,.F.);
#304=ORIENTED_EDGE('',*,*,#553,.T.);
#305=ORIENTED_EDGE('',*,*,#562,.F.);
#306=ORIENTED_EDGE('',*,*,#563,.T.);
#307=ORIENTED_EDGE('',*,*,#564,.T.);
#308=ORIENTED_EDGE('',*,*,#557,.F.);
#309=ORIENTED_EDGE('',*,*,#565,.F.);
#310=ORIENTED_EDGE('',*,*,#566,.T.);
#311=ORIENTED_EDGE('',*,*,#563,.F.);
#312=ORIENTED_EDGE('',*,*,#567,.F.);
#313=ORIENTED_EDGE('',*,*,#568,.T.);
#314=ORIENTED_EDGE('',*,*,#569,.T.);
#315=ORIENTED_EDGE('',*,*,#570,.F.);
#316=ORIENTED_EDGE('',*,*,#571,.T.);
#317=ORIENTED_EDGE('',*,*,#572,.T.);
#318=ORIENTED_EDGE('',*,*,#571,.F.);
#319=ORIENTED_EDGE('',*,*,#573,.F.);
#320=ORIENTED_EDGE('',*,*,#565,.T.);
#321=ORIENTED_EDGE('',*,*,#574,.F.);
#322=ORIENTED_EDGE('',*,*,#575,.T.);
#323=ORIENTED_EDGE('',*,*,#576,.T.);
#324=ORIENTED_EDGE('',*,*,#569,.F.);
#325=ORIENTED_EDGE('',*,*,#577,.F.);
#326=ORIENTED_EDGE('',*,*,#578,.T.);
#327=ORIENTED_EDGE('',*,*,#575,.F.);
#328=ORIENTED_EDGE('',*,*,#579,.F.);
#329=ORIENTED_EDGE('',*,*,#580,.T.);
#330=ORIENTED_EDGE('',*,*,#581,.T.);
#331=ORIENTED_EDGE('',*,*,#582,.F.);
#332=ORIENTED_EDGE('',*,*,#583,.T.);
#333=ORIENTED_EDGE('',*,*,#584,.T.);
#334=ORIENTED_EDGE('',*,*,#583,.F.);
#335=ORIENTED_EDGE('',*,*,#585,.F.);
#336=ORIENTED_EDGE('',*,*,#577,.T.);
#337=ORIENTED_EDGE('',*,*,#586,.F.);
#338=ORIENTED_EDGE('',*,*,#587,.T.);
#339=ORIENTED_EDGE('',*,*,#588,.T.);
#340=ORIENTED_EDGE('',*,*,#581,.F.);
#341=ORIENTED_EDGE('',*,*,#589,.F.);
#342=ORIENTED_EDGE('',*,*,#590,.T.);
#343=ORIENTED_EDGE('',*,*,#587,.F.);
#344=ORIENTED_EDGE('',*,*,#591,.F.);
#345=ORIENTED_EDGE('',*,*,#592,.T.);
#346=ORIENTED_EDGE('',*,*,#593,.T.);
#347=ORIENTED_EDGE('',*,*,#594,.F.);
#348=ORIENTED_EDGE('',*,*,#595,.T.);
#349=ORIENTED_EDGE('',*,*,#596,.T.);
#350=ORIENTED_EDGE('',*,*,#595,.F.);
#351=ORIENTED_EDGE('',*,*,#597,.F.);
#352=ORIENTED_EDGE('',*,*,#589,.T.);
#353=ORIENTED_EDGE('',*,*,#598,.F.);
#354=ORIENTED_EDGE('',*,*,#599,.T.);
#355=ORIENTED_EDGE('',*,*,#600,.T.);
#356=ORIENTED_EDGE('',*,*,#593,.F.);
#357=ORIENTED_EDGE('',*,*,#601,.F.);
#358=ORIENTED_EDGE('',*,*,#602,.T.);
#359=ORIENTED_EDGE('',*,*,#599,.F.);
#360=ORIENTED_EDGE('',*,*,#603,.F.);
#361=ORIENTED_EDGE('',*,*,#604,.T.);
#362=ORIENTED_EDGE('',*,*,#605,.T.);
#363=ORIENTED_EDGE('',*,*,#606,.F.);
#364=ORIENTED_EDGE('',*,*,#607,.T.);
#365=ORIENTED_EDGE('',*,*,#608,.T.);
#366=ORIENTED_EDGE('',*,*,#607,.F.);
#367=ORIENTED_EDGE('',*,*,#609,.F.);
#368=ORIENTED_EDGE('',*,*,#601,.T.);
#369=ORIENTED_EDGE('',*,*,#610,.F.);
#370=ORIENTED_EDGE('',*,*,#611,.T.);
#371=ORIENTED_EDGE('',*,*,#612,.T.);
#372=ORIENTED_EDGE('',*,*,#605,.F.);
#373=ORIENTED_EDGE('',*,*,#613,.F.);
#374=ORIENTED_EDGE('',*,*,#614,.T.);
#375=ORIENTED_EDGE('',*,*,#611,.F.);
#376=ORIENTED_EDGE('',*,*,#615,.F.);
#377=ORIENTED_EDGE('',*,*,#616,.T.);
#378=ORIENTED_EDGE('',*,*,#617,.T.);
#379=ORIENTED_EDGE('',*,*,#618,.F.);
#380=ORIENTED_EDGE('',*,*,#619,.T.);
#381=ORIENTED_EDGE('',*,*,#620,.T.);
#382=ORIENTED_EDGE('',*,*,#619,.F.);
#383=ORIENTED_EDGE('',*,*,#621,.F.);
#384=ORIENTED_EDGE('',*,*,#613,.T.);
#385=ORIENTED_EDGE('',*,*,#622,.F.);
#386=ORIENTED_EDGE('',*,*,#623,.T.);
#387=ORIENTED_EDGE('',*,*,#622,.T.);
#388=ORIENTED_EDGE('',*,*,#624,.F.);
#389=ORIENTED_EDGE('',*,*,#625,.F.);
#390=ORIENTED_EDGE('',*,*,#626,.T.);
#391=ORIENTED_EDGE('',*,*,#627,.F.);
#392=ORIENTED_EDGE('',*,*,#625,.T.);
#393=ORIENTED_EDGE('',*,*,#624,.T.);
#394=ORIENTED_EDGE('',*,*,#626,.F.);
#395=ORIENTED_EDGE('',*,*,#514,.T.);
#396=ORIENTED_EDGE('',*,*,#508,.F.);
#397=ORIENTED_EDGE('',*,*,#512,.F.);
#398=ORIENTED_EDGE('',*,*,#507,.T.);
#399=ORIENTED_EDGE('',*,*,#501,.T.);
#400=ORIENTED_EDGE('',*,*,#628,.F.);
#401=ORIENTED_EDGE('',*,*,#629,.F.);
#402=ORIENTED_EDGE('',*,*,#630,.T.);
#403=ORIENTED_EDGE('',*,*,#631,.T.);
#404=ORIENTED_EDGE('',*,*,#616,.F.);
#405=ORIENTED_EDGE('',*,*,#620,.F.);
#406=ORIENTED_EDGE('',*,*,#615,.T.);
#407=ORIENTED_EDGE('',*,*,#610,.T.);
#408=ORIENTED_EDGE('',*,*,#604,.F.);
#409=ORIENTED_EDGE('',*,*,#608,.F.);
#410=ORIENTED_EDGE('',*,*,#603,.T.);
#411=ORIENTED_EDGE('',*,*,#598,.T.);
#412=ORIENTED_EDGE('',*,*,#592,.F.);
#413=ORIENTED_EDGE('',*,*,#596,.F.);
#414=ORIENTED_EDGE('',*,*,#591,.T.);
#415=ORIENTED_EDGE('',*,*,#586,.T.);
#416=ORIENTED_EDGE('',*,*,#580,.F.);
#417=ORIENTED_EDGE('',*,*,#584,.F.);
#418=ORIENTED_EDGE('',*,*,#579,.T.);
#419=ORIENTED_EDGE('',*,*,#574,.T.);
#420=ORIENTED_EDGE('',*,*,#568,.F.);
#421=ORIENTED_EDGE('',*,*,#572,.F.);
#422=ORIENTED_EDGE('',*,*,#567,.T.);
#423=ORIENTED_EDGE('',*,*,#562,.T.);
#424=ORIENTED_EDGE('',*,*,#556,.F.);
#425=ORIENTED_EDGE('',*,*,#560,.F.);
#426=ORIENTED_EDGE('',*,*,#555,.T.);
#427=ORIENTED_EDGE('',*,*,#550,.T.);
#428=ORIENTED_EDGE('',*,*,#544,.F.);
#429=ORIENTED_EDGE('',*,*,#548,.F.);
#430=ORIENTED_EDGE('',*,*,#543,.T.);
#431=ORIENTED_EDGE('',*,*,#538,.T.);
#432=ORIENTED_EDGE('',*,*,#532,.F.);
#433=ORIENTED_EDGE('',*,*,#536,.F.);
#434=ORIENTED_EDGE('',*,*,#531,.T.);
#435=ORIENTED_EDGE('',*,*,#526,.T.);
#436=ORIENTED_EDGE('',*,*,#520,.F.);
#437=ORIENTED_EDGE('',*,*,#524,.F.);
#438=ORIENTED_EDGE('',*,*,#519,.T.);
#439=ORIENTED_EDGE('',*,*,#623,.F.);
#440=ORIENTED_EDGE('',*,*,#516,.F.);
#441=ORIENTED_EDGE('',*,*,#518,.F.);
#442=ORIENTED_EDGE('',*,*,#525,.T.);
#443=ORIENTED_EDGE('',*,*,#522,.T.);
#444=ORIENTED_EDGE('',*,*,#528,.F.);
#445=ORIENTED_EDGE('',*,*,#530,.F.);
#446=ORIENTED_EDGE('',*,*,#537,.T.);
#447=ORIENTED_EDGE('',*,*,#534,.T.);
#448=ORIENTED_EDGE('',*,*,#540,.F.);
#449=ORIENTED_EDGE('',*,*,#542,.F.);
#450=ORIENTED_EDGE('',*,*,#549,.T.);
#451=ORIENTED_EDGE('',*,*,#546,.T.);
#452=ORIENTED_EDGE('',*,*,#552,.F.);
#453=ORIENTED_EDGE('',*,*,#554,.F.);
#454=ORIENTED_EDGE('',*,*,#561,.T.);
#455=ORIENTED_EDGE('',*,*,#558,.T.);
#456=ORIENTED_EDGE('',*,*,#564,.F.);
#457=ORIENTED_EDGE('',*,*,#566,.F.);
#458=ORIENTED_EDGE('',*,*,#573,.T.);
#459=ORIENTED_EDGE('',*,*,#570,.T.);
#460=ORIENTED_EDGE('',*,*,#576,.F.);
#461=ORIENTED_EDGE('',*,*,#578,.F.);
#462=ORIENTED_EDGE('',*,*,#585,.T.);
#463=ORIENTED_EDGE('',*,*,#582,.T.);
#464=ORIENTED_EDGE('',*,*,#588,.F.);
#465=ORIENTED_EDGE('',*,*,#590,.F.);
#466=ORIENTED_EDGE('',*,*,#597,.T.);
#467=ORIENTED_EDGE('',*,*,#594,.T.);
#468=ORIENTED_EDGE('',*,*,#600,.F.);
#469=ORIENTED_EDGE('',*,*,#602,.F.);
#470=ORIENTED_EDGE('',*,*,#609,.T.);
#471=ORIENTED_EDGE('',*,*,#606,.T.);
#472=ORIENTED_EDGE('',*,*,#612,.F.);
#473=ORIENTED_EDGE('',*,*,#614,.F.);
#474=ORIENTED_EDGE('',*,*,#621,.T.);
#475=ORIENTED_EDGE('',*,*,#618,.T.);
#476=ORIENTED_EDGE('',*,*,#632,.F.);
#477=ORIENTED_EDGE('',*,*,#633,.F.);
#478=ORIENTED_EDGE('',*,*,#634,.T.);
#479=ORIENTED_EDGE('',*,*,#635,.T.);
#480=ORIENTED_EDGE('',*,*,#503,.F.);
#481=ORIENTED_EDGE('',*,*,#506,.F.);
#482=ORIENTED_EDGE('',*,*,#513,.T.);
#483=ORIENTED_EDGE('',*,*,#510,.T.);
#484=ORIENTED_EDGE('',*,*,#627,.T.);
#485=ORIENTED_EDGE('',*,*,#631,.F.);
#486=ORIENTED_EDGE('',*,*,#636,.T.);
#487=ORIENTED_EDGE('',*,*,#632,.T.);
#488=ORIENTED_EDGE('',*,*,#617,.F.);
#489=ORIENTED_EDGE('',*,*,#629,.T.);
#490=ORIENTED_EDGE('',*,*,#637,.F.);
#491=ORIENTED_EDGE('',*,*,#634,.F.);
#492=ORIENTED_EDGE('',*,*,#638,.T.);
#493=ORIENTED_EDGE('',*,*,#628,.T.);
#494=ORIENTED_EDGE('',*,*,#504,.T.);
#495=ORIENTED_EDGE('',*,*,#635,.F.);
#496=ORIENTED_EDGE('',*,*,#637,.T.);
#497=ORIENTED_EDGE('',*,*,#638,.F.);
#498=ORIENTED_EDGE('',*,*,#633,.T.);
#499=ORIENTED_EDGE('',*,*,#636,.F.);
#500=ORIENTED_EDGE('',*,*,#630,.F.);
#501=EDGE_CURVE('',#639,#640,#733,.T.);
#502=EDGE_CURVE('',#639,#641,#49,.T.);
#503=EDGE_CURVE('',#641,#642,#734,.T.);
#504=EDGE_CURVE('',#640,#642,#50,.T.);
#505=EDGE_CURVE('',#643,#644,#51,.T.);
#506=EDGE_CURVE('',#643,#641,#52,.F.);
#507=EDGE_CURVE('',#644,#639,#53,.F.);
#508=EDGE_CURVE('',#645,#646,#54,.F.);
#509=EDGE_CURVE('',#646,#647,#55,.T.);
#510=EDGE_CURVE('',#648,#647,#56,.F.);
#511=EDGE_CURVE('',#648,#645,#57,.T.);
#512=EDGE_CURVE('',#644,#645,#12,.T.);
#513=EDGE_CURVE('',#643,#648,#13,.T.);
#514=EDGE_CURVE('',#649,#646,#735,.T.);
#515=EDGE_CURVE('',#649,#650,#58,.T.);
#516=EDGE_CURVE('',#650,#647,#736,.T.);
#517=EDGE_CURVE('',#651,#652,#59,.T.);
#518=EDGE_CURVE('',#651,#650,#60,.F.);
#519=EDGE_CURVE('',#652,#649,#61,.F.);
#520=EDGE_CURVE('',#653,#654,#62,.F.);
#521=EDGE_CURVE('',#654,#655,#63,.T.);
#522=EDGE_CURVE('',#656,#655,#64,.F.);
#523=EDGE_CURVE('',#656,#653,#65,.T.);
#524=EDGE_CURVE('',#652,#653,#14,.T.);
#525=EDGE_CURVE('',#651,#656,#15,.T.);
#526=EDGE_CURVE('',#657,#654,#737,.T.);
#527=EDGE_CURVE('',#657,#658,#66,.T.);
#528=EDGE_CURVE('',#658,#655,#738,.T.);
#529=EDGE_CURVE('',#659,#660,#67,.T.);
#530=EDGE_CURVE('',#659,#658,#68,.F.);
#531=EDGE_CURVE('',#660,#657,#69,.F.);
#532=EDGE_CURVE('',#661,#662,#70,.F.);
#533=EDGE_CURVE('',#662,#663,#71,.T.);
#534=EDGE_CURVE('',#664,#663,#72,.F.);
#535=EDGE_CURVE('',#664,#661,#73,.T.);
#536=EDGE_CURVE('',#660,#661,#16,.T.);
#537=EDGE_CURVE('',#659,#664,#17,.T.);
#538=EDGE_CURVE('',#665,#662,#739,.T.);
#539=EDGE_CURVE('',#665,#666,#74,.T.);
#540=EDGE_CURVE('',#666,#663,#740,.T.);
#541=EDGE_CURVE('',#667,#668,#75,.T.);
#542=EDGE_CURVE('',#667,#666,#76,.F.);
#543=EDGE_CURVE('',#668,#665,#77,.F.);
#544=EDGE_CURVE('',#669,#670,#78,.F.);
#545=EDGE_CURVE('',#670,#671,#79,.T.);
#546=EDGE_CURVE('',#672,#671,#80,.F.);
#547=EDGE_CURVE('',#672,#669,#81,.T.);
#548=EDGE_CURVE('',#668,#669,#18,.T.);
#549=EDGE_CURVE('',#667,#672,#19,.T.);
#550=EDGE_CURVE('',#673,#670,#741,.T.);
#551=EDGE_CURVE('',#673,#674,#82,.T.);
#552=EDGE_CURVE('',#674,#671,#742,.T.);
#553=EDGE_CURVE('',#675,#676,#83,.T.);
#554=EDGE_CURVE('',#675,#674,#84,.F.);
#555=EDGE_CURVE('',#676,#673,#85,.F.);
#556=EDGE_CURVE('',#677,#678,#86,.F.);
#557=EDGE_CURVE('',#678,#679,#87,.T.);
#558=EDGE_CURVE('',#680,#679,#88,.F.);
#559=EDGE_CURVE('',#680,#677,#89,.T.);
#560=EDGE_CURVE('',#676,#677,#20,.T.);
#561=EDGE_CURVE('',#675,#680,#21,.T.);
#562=EDGE_CURVE('',#681,#678,#743,.T.);
#563=EDGE_CURVE('',#681,#682,#90,.T.);
#564=EDGE_CURVE('',#682,#679,#744,.T.);
#565=EDGE_CURVE('',#683,#684,#91,.T.);
#566=EDGE_CURVE('',#683,#682,#92,.F.);
#567=EDGE_CURVE('',#684,#681,#93,.F.);
#568=EDGE_CURVE('',#685,#686,#94,.F.);
#569=EDGE_CURVE('',#686,#687,#95,.T.);
#570=EDGE_CURVE('',#688,#687,#96,.F.);
#571=EDGE_CURVE('',#688,#685,#97,.T.);
#572=EDGE_CURVE('',#684,#685,#22,.T.);
#573=EDGE_CURVE('',#683,#688,#23,.T.);
#574=EDGE_CURVE('',#689,#686,#745,.T.);
#575=EDGE_CURVE('',#689,#690,#98,.T.);
#576=EDGE_CURVE('',#690,#687,#746,.T.);
#577=EDGE_CURVE('',#691,#692,#99,.T.);
#578=EDGE_CURVE('',#691,#690,#100,.F.);
#579=EDGE_CURVE('',#692,#689,#101,.F.);
#580=EDGE_CURVE('',#693,#694,#102,.F.);
#581=EDGE_CURVE('',#694,#695,#103,.T.);
#582=EDGE_CURVE('',#696,#695,#104,.F.);
#583=EDGE_CURVE('',#696,#693,#105,.T.);
#584=EDGE_CURVE('',#692,#693,#24,.T.);
#585=EDGE_CURVE('',#691,#696,#25,.T.);
#586=EDGE_CURVE('',#697,#694,#747,.T.);
#587=EDGE_CURVE('',#697,#698,#106,.T.);
#588=EDGE_CURVE('',#698,#695,#748,.T.);
#589=EDGE_CURVE('',#699,#700,#107,.T.);
#590=EDGE_CURVE('',#699,#698,#108,.F.);
#591=EDGE_CURVE('',#700,#697,#109,.F.);
#592=EDGE_CURVE('',#701,#702,#110,.F.);
#593=EDGE_CURVE('',#702,#703,#111,.T.);
#594=EDGE_CURVE('',#704,#703,#112,.F.);
#595=EDGE_CURVE('',#704,#701,#113,.T.);
#596=EDGE_CURVE('',#700,#701,#26,.T.);
#597=EDGE_CURVE('',#699,#704,#27,.T.);
#598=EDGE_CURVE('',#705,#702,#749,.T.);
#599=EDGE_CURVE('',#705,#706,#114,.T.);
#600=EDGE_CURVE('',#706,#703,#750,.T.);
#601=EDGE_CURVE('',#707,#708,#115,.T.);
#602=EDGE_CURVE('',#707,#706,#116,.F.);
#603=EDGE_CURVE('',#708,#705,#117,.F.);
#604=EDGE_CURVE('',#709,#710,#118,.F.);
#605=EDGE_CURVE('',#710,#711,#119,.T.);
#606=EDGE_CURVE('',#712,#711,#120,.F.);
#607=EDGE_CURVE('',#712,#709,#121,.T.);
#608=EDGE_CURVE('',#708,#709,#28,.T.);
#609=EDGE_CURVE('',#707,#712,#29,.T.);
#610=EDGE_CURVE('',#713,#710,#751,.T.);
#611=EDGE_CURVE('',#713,#714,#122,.T.);
#612=EDGE_CURVE('',#714,#711,#752,.T.);
#613=EDGE_CURVE('',#715,#716,#123,.T.);
#614=EDGE_CURVE('',#715,#714,#124,.F.);
#615=EDGE_CURVE('',#716,#713,#125,.F.);
#616=EDGE_CURVE('',#717,#718,#126,.F.);
#617=EDGE_CURVE('',#718,#719,#127,.T.);
#618=EDGE_CURVE('',#720,#719,#128,.F.);
#619=EDGE_CURVE('',#720,#717,#129,.T.);
#620=EDGE_CURVE('',#716,#717,#30,.T.);
#621=EDGE_CURVE('',#715,#720,#31,.T.);
#622=EDGE_CURVE('',#721,#721,#753,.T.);
#623=EDGE_CURVE('',#722,#722,#754,.T.);
#624=EDGE_CURVE('',#723,#723,#755,.T.);
#625=EDGE_CURVE('',#724,#724,#756,.T.);
#626=EDGE_CURVE('',#725,#725,#757,.T.);
#627=EDGE_CURVE('',#726,#726,#758,.T.);
#628=EDGE_CURVE('',#727,#640,#130,.F.);
#629=EDGE_CURVE('',#728,#727,#32,.T.);
#630=EDGE_CURVE('',#728,#729,#131,.F.);
#631=EDGE_CURVE('',#729,#718,#759,.T.);
#632=EDGE_CURVE('',#730,#719,#760,.T.);
#633=EDGE_CURVE('',#731,#730,#132,.F.);
#634=EDGE_CURVE('',#731,#732,#33,.T.);
#635=EDGE_CURVE('',#732,#642,#133,.F.);
#636=EDGE_CURVE('',#729,#730,#134,.T.);
#637=EDGE_CURVE('',#732,#727,#135,.T.);
#638=EDGE_CURVE('',#731,#728,#136,.T.);
#639=VERTEX_POINT('',#1307);
#640=VERTEX_POINT('',#1308);
#641=VERTEX_POINT('',#1310);
#642=VERTEX_POINT('',#1312);
#643=VERTEX_POINT('',#1316);
#644=VERTEX_POINT('',#1317);
#645=VERTEX_POINT('',#1322);
#646=VERTEX_POINT('',#1323);
#647=VERTEX_POINT('',#1325);
#648=VERTEX_POINT('',#1327);
#649=VERTEX_POINT('',#1354);
#650=VERTEX_POINT('',#1356);
#651=VERTEX_POINT('',#1360);
#652=VERTEX_POINT('',#1361);
#653=VERTEX_POINT('',#1366);
#654=VERTEX_POINT('',#1367);
#655=VERTEX_POINT('',#1369);
#656=VERTEX_POINT('',#1371);
#657=VERTEX_POINT('',#1398);
#658=VERTEX_POINT('',#1400);
#659=VERTEX_POINT('',#1404);
#660=VERTEX_POINT('',#1405);
#661=VERTEX_POINT('',#1410);
#662=VERTEX_POINT('',#1411);
#663=VERTEX_POINT('',#1413);
#664=VERTEX_POINT('',#1415);
#665=VERTEX_POINT('',#1442);
#666=VERTEX_POINT('',#1444);
#667=VERTEX_POINT('',#1448);
#668=VERTEX_POINT('',#1449);
#669=VERTEX_POINT('',#1454);
#670=VERTEX_POINT('',#1455);
#671=VERTEX_POINT('',#1457);
#672=VERTEX_POINT('',#1459);
#673=VERTEX_POINT('',#1486);
#674=VERTEX_POINT('',#1488);
#675=VERTEX_POINT('',#1492);
#676=VERTEX_POINT('',#1493);
#677=VERTEX_POINT('',#1498);
#678=VERTEX_POINT('',#1499);
#679=VERTEX_POINT('',#1501);
#680=VERTEX_POINT('',#1503);
#681=VERTEX_POINT('',#1530);
#682=VERTEX_POINT('',#1532);
#683=VERTEX_POINT('',#1536);
#684=VERTEX_POINT('',#1537);
#685=VERTEX_POINT('',#1542);
#686=VERTEX_POINT('',#1543);
#687=VERTEX_POINT('',#1545);
#688=VERTEX_POINT('',#1547);
#689=VERTEX_POINT('',#1574);
#690=VERTEX_POINT('',#1576);
#691=VERTEX_POINT('',#1580);
#692=VERTEX_POINT('',#1581);
#693=VERTEX_POINT('',#1586);
#694=VERTEX_POINT('',#1587);
#695=VERTEX_POINT('',#1589);
#696=VERTEX_POINT('',#1591);
#697=VERTEX_POINT('',#1618);
#698=VERTEX_POINT('',#1620);
#699=VERTEX_POINT('',#1624);
#700=VERTEX_POINT('',#1625);
#701=VERTEX_POINT('',#1630);
#702=VERTEX_POINT('',#1631);
#703=VERTEX_POINT('',#1633);
#704=VERTEX_POINT('',#1635);
#705=VERTEX_POINT('',#1662);
#706=VERTEX_POINT('',#1664);
#707=VERTEX_POINT('',#1668);
#708=VERTEX_POINT('',#1669);
#709=VERTEX_POINT('',#1674);
#710=VERTEX_POINT('',#1675);
#711=VERTEX_POINT('',#1677);
#712=VERTEX_POINT('',#1679);
#713=VERTEX_POINT('',#1706);
#714=VERTEX_POINT('',#1708);
#715=VERTEX_POINT('',#1712);
#716=VERTEX_POINT('',#1713);
#717=VERTEX_POINT('',#1718);
#718=VERTEX_POINT('',#1719);
#719=VERTEX_POINT('',#1721);
#720=VERTEX_POINT('',#1723);
#721=VERTEX_POINT('',#1750);
#722=VERTEX_POINT('',#1752);
#723=VERTEX_POINT('',#1755);
#724=VERTEX_POINT('',#1758);
#725=VERTEX_POINT('',#1760);
#726=VERTEX_POINT('',#1763);
#727=VERTEX_POINT('',#1767);
#728=VERTEX_POINT('',#1779);
#729=VERTEX_POINT('',#1781);
#730=VERTEX_POINT('',#1785);
#731=VERTEX_POINT('',#1787);
#732=VERTEX_POINT('',#1799);
#733=CIRCLE('',#978,0.0116821183213178);
#734=CIRCLE('',#979,0.0127504823057344);
#735=CIRCLE('',#984,0.0116821183213178);
#736=CIRCLE('',#985,0.0127504823057344);
#737=CIRCLE('',#990,0.0116821183213178);
#738=CIRCLE('',#991,0.0127504823057344);
#739=CIRCLE('',#996,0.0116821183213178);
#740=CIRCLE('',#997,0.0127504823057344);
#741=CIRCLE('',#1002,0.0116821183213178);
#742=CIRCLE('',#1003,0.0127504823057344);
#743=CIRCLE('',#1008,0.0116821183213178);
#744=CIRCLE('',#1009,0.0127504823057344);
#745=CIRCLE('',#1014,0.0116821183213178);
#746=CIRCLE('',#1015,0.0127504823057344);
#747=CIRCLE('',#1020,0.0116821183213178);
#748=CIRCLE('',#1021,0.0127504823057344);
#749=CIRCLE('',#1026,0.0116821183213178);
#750=CIRCLE('',#1027,0.0127504823057344);
#751=CIRCLE('',#1032,0.0116821183213178);
#752=CIRCLE('',#1033,0.0127504823057344);
#753=CIRCLE('',#1038,0.0101801713213178);
#754=CIRCLE('',#1039,0.0116821183213178);
#755=CIRCLE('',#1041,0.0101801713213178);
#756=CIRCLE('',#1043,0.0147504823057344);
#757=CIRCLE('',#1044,0.0147504823057344);
#758=CIRCLE('',#1046,0.0127504823057344);
#759=CIRCLE('',#1049,0.0116821183213178);
#760=CIRCLE('',#1051,0.0127504823057344);
#761=EDGE_LOOP('',(#225,#226,#227,#228));
#762=EDGE_LOOP('',(#229,#230,#231,#232));
#763=EDGE_LOOP('',(#233,#234,#235,#236));
#764=EDGE_LOOP('',(#237,#238,#239,#240));
#765=EDGE_LOOP('',(#241,#242,#243,#244));
#766=EDGE_LOOP('',(#245,#246,#247,#248));
#767=EDGE_LOOP('',(#249,#250,#251,#252));
#768=EDGE_LOOP('',(#253,#254,#255,#256));
#769=EDGE_LOOP('',(#257,#258,#259,#260));
#770=EDGE_LOOP('',(#261,#262,#263,#264));
#771=EDGE_LOOP('',(#265,#266,#267,#268));
#772=EDGE_LOOP('',(#269,#270,#271,#272));
#773=EDGE_LOOP('',(#273,#274,#275,#276));
#774=EDGE_LOOP('',(#277,#278,#279,#280));
#775=EDGE_LOOP('',(#281,#282,#283,#284));
#776=EDGE_LOOP('',(#285,#286,#287,#288));
#777=EDGE_LOOP('',(#289,#290,#291,#292));
#778=EDGE_LOOP('',(#293,#294,#295,#296));
#779=EDGE_LOOP('',(#297,#298,#299,#300));
#780=EDGE_LOOP('',(#301,#302,#303,#304));
#781=EDGE_LOOP('',(#305,#306,#307,#308));
#782=EDGE_LOOP('',(#309,#310,#311,#312));
#783=EDGE_LOOP('',(#313,#314,#315,#316));
#784=EDGE_LOOP('',(#317,#318,#319,#320));
#785=EDGE_LOOP('',(#321,#322,#323,#324));
#786=EDGE_LOOP('',(#325,#326,#327,#328));
#787=EDGE_LOOP('',(#329,#330,#331,#332));
#788=EDGE_LOOP('',(#333,#334,#335,#336));
#789=EDGE_LOOP('',(#337,#338,#339,#340));
#790=EDGE_LOOP('',(#341,#342,#343,#344));
#791=EDGE_LOOP('',(#345,#346,#347,#348));
#792=EDGE_LOOP('',(#349,#350,#351,#352));
#793=EDGE_LOOP('',(#353,#354,#355,#356));
#794=EDGE_LOOP('',(#357,#358,#359,#360));
#795=EDGE_LOOP('',(#361,#362,#363,#364));
#796=EDGE_LOOP('',(#365,#366,#367,#368));
#797=EDGE_LOOP('',(#369,#370,#371,#372));
#798=EDGE_LOOP('',(#373,#374,#375,#376));
#799=EDGE_LOOP('',(#377,#378,#379,#380));
#800=EDGE_LOOP('',(#381,#382,#383,#384));
#801=EDGE_LOOP('',(#385));
#802=EDGE_LOOP('',(#386));
#803=EDGE_LOOP('',(#387));
#804=EDGE_LOOP('',(#388));
#805=EDGE_LOOP('',(#389));
#806=EDGE_LOOP('',(#390));
#807=EDGE_LOOP('',(#391));
#808=EDGE_LOOP('',(#392));
#809=EDGE_LOOP('',(#393));
#810=EDGE_LOOP('',(#394));
#811=EDGE_LOOP('',(#395,#396,#397,#398,#399,#400,#401,#402,#403,#404,#405,
#406,#407,#408,#409,#410,#411,#412,#413,#414,#415,#416,#417,#418,#419,#420,
#421,#422,#423,#424,#425,#426,#427,#428,#429,#430,#431,#432,#433,#434,#435,
#436,#437,#438));
#812=EDGE_LOOP('',(#439));
#813=EDGE_LOOP('',(#440,#441,#442,#443,#444,#445,#446,#447,#448,#449,#450,
#451,#452,#453,#454,#455,#456,#457,#458,#459,#460,#461,#462,#463,#464,#465,
#466,#467,#468,#469,#470,#471,#472,#473,#474,#475,#476,#477,#478,#479,#480,
#481,#482,#483));
#814=EDGE_LOOP('',(#484));
#815=EDGE_LOOP('',(#485,#486,#487,#488));
#816=EDGE_LOOP('',(#489,#490,#491,#492));
#817=EDGE_LOOP('',(#493,#494,#495,#496));
#818=EDGE_LOOP('',(#497,#498,#499,#500));
#819=FACE_BOUND('',#761,.T.);
#820=FACE_BOUND('',#762,.T.);
#821=FACE_BOUND('',#763,.T.);
#822=FACE_BOUND('',#764,.T.);
#823=FACE_BOUND('',#765,.T.);
#824=FACE_BOUND('',#766,.T.);
#825=FACE_BOUND('',#767,.T.);
#826=FACE_BOUND('',#768,.T.);
#827=FACE_BOUND('',#769,.T.);
#828=FACE_BOUND('',#770,.T.);
#829=FACE_BOUND('',#771,.T.);
#830=FACE_BOUND('',#772,.T.);
#831=FACE_BOUND('',#773,.T.);
#832=FACE_BOUND('',#774,.T.);
#833=FACE_BOUND('',#775,.T.);
#834=FACE_BOUND('',#776,.T.);
#835=FACE_BOUND('',#777,.T.);
#836=FACE_BOUND('',#778,.T.);
#837=FACE_BOUND('',#779,.T.);
#838=FACE_BOUND('',#780,.T.);
#839=FACE_BOUND('',#781,.T.);
#840=FACE_BOUND('',#782,.T.);
#841=FACE_BOUND('',#783,.T.);
#842=FACE_BOUND('',#784,.T.);
#843=FACE_BOUND('',#785,.T.);
#844=FACE_BOUND('',#786,.T.);
#845=FACE_BOUND('',#787,.T.);
#846=FACE_BOUND('',#788,.T.);
#847=FACE_BOUND('',#789,.T.);
#848=FACE_BOUND('',#790,.T.);
#849=FACE_BOUND('',#791,.T.);
#850=FACE_BOUND('',#792,.T.);
#851=FACE_BOUND('',#793,.T.);
#852=FACE_BOUND('',#794,.T.);
#853=FACE_BOUND('',#795,.T.);
#854=FACE_BOUND('',#796,.T.);
#855=FACE_BOUND('',#797,.T.);
#856=FACE_BOUND('',#798,.T.);
#857=FACE_BOUND('',#799,.T.);
#858=FACE_BOUND('',#800,.T.);
#859=FACE_BOUND('',#801,.T.);
#860=FACE_BOUND('',#802,.T.);
#861=FACE_BOUND('',#803,.T.);
#862=FACE_BOUND('',#804,.T.);
#863=FACE_BOUND('',#805,.T.);
#864=FACE_BOUND('',#806,.T.);
#865=FACE_BOUND('',#807,.T.);
#866=FACE_BOUND('',#808,.T.);
#867=FACE_BOUND('',#809,.T.);
#868=FACE_BOUND('',#810,.T.);
#869=FACE_BOUND('',#811,.T.);
#870=FACE_BOUND('',#812,.T.);
#871=FACE_BOUND('',#813,.T.);
#872=FACE_BOUND('',#814,.T.);
#873=FACE_BOUND('',#815,.T.);
#874=FACE_BOUND('',#816,.T.);
#875=FACE_BOUND('',#817,.T.);
#876=FACE_BOUND('',#818,.T.);
#877=PLANE('',#977);
#878=PLANE('',#980);
#879=PLANE('',#981);
#880=PLANE('',#983);
#881=PLANE('',#986);
#882=PLANE('',#987);
#883=PLANE('',#989);
#884=PLANE('',#992);
#885=PLANE('',#993);
#886=PLANE('',#995);
#887=PLANE('',#998);
#888=PLANE('',#999);
#889=PLANE('',#1001);
#890=PLANE('',#1004);
#891=PLANE('',#1005);
#892=PLANE('',#1007);
#893=PLANE('',#1010);
#894=PLANE('',#1011);
#895=PLANE('',#1013);
#896=PLANE('',#1016);
#897=PLANE('',#1017);
#898=PLANE('',#1019);
#899=PLANE('',#1022);
#900=PLANE('',#1023);
#901=PLANE('',#1025);
#902=PLANE('',#1028);
#903=PLANE('',#1029);
#904=PLANE('',#1031);
#905=PLANE('',#1034);
#906=PLANE('',#1035);
#907=PLANE('',#1037);
#908=PLANE('',#1045);
#909=PLANE('',#1047);
#910=PLANE('',#1052);
#911=PLANE('',#1054);
#912=PLANE('',#1055);
#913=ADVANCED_FACE('',(#819),#877,.T.);
#914=ADVANCED_FACE('',(#820),#878,.T.);
#915=ADVANCED_FACE('',(#821),#879,.F.);
#916=ADVANCED_FACE('',(#822),#34,.F.);
#917=ADVANCED_FACE('',(#823),#880,.T.);
#918=ADVANCED_FACE('',(#824),#881,.T.);
#919=ADVANCED_FACE('',(#825),#882,.F.);
#920=ADVANCED_FACE('',(#826),#35,.F.);
#921=ADVANCED_FACE('',(#827),#883,.T.);
#922=ADVANCED_FACE('',(#828),#884,.T.);
#923=ADVANCED_FACE('',(#829),#885,.F.);
#924=ADVANCED_FACE('',(#830),#36,.F.);
#925=ADVANCED_FACE('',(#831),#886,.T.);
#926=ADVANCED_FACE('',(#832),#887,.T.);
#927=ADVANCED_FACE('',(#833),#888,.F.);
#928=ADVANCED_FACE('',(#834),#37,.F.);
#929=ADVANCED_FACE('',(#835),#889,.T.);
#930=ADVANCED_FACE('',(#836),#890,.T.);
#931=ADVANCED_FACE('',(#837),#891,.F.);
#932=ADVANCED_FACE('',(#838),#38,.F.);
#933=ADVANCED_FACE('',(#839),#892,.T.);
#934=ADVANCED_FACE('',(#840),#893,.T.);
#935=ADVANCED_FACE('',(#841),#894,.F.);
#936=ADVANCED_FACE('',(#842),#39,.F.);
#937=ADVANCED_FACE('',(#843),#895,.T.);
#938=ADVANCED_FACE('',(#844),#896,.T.);
#939=ADVANCED_FACE('',(#845),#897,.F.);
#940=ADVANCED_FACE('',(#846),#40,.F.);
#941=ADVANCED_FACE('',(#847),#898,.T.);
#942=ADVANCED_FACE('',(#848),#899,.T.);
#943=ADVANCED_FACE('',(#849),#900,.F.);
#944=ADVANCED_FACE('',(#850),#41,.F.);
#945=ADVANCED_FACE('',(#851),#901,.T.);
#946=ADVANCED_FACE('',(#852),#902,.T.);
#947=ADVANCED_FACE('',(#853),#903,.F.);
#948=ADVANCED_FACE('',(#854),#42,.F.);
#949=ADVANCED_FACE('',(#855),#904,.T.);
#950=ADVANCED_FACE('',(#856),#905,.T.);
#951=ADVANCED_FACE('',(#857),#906,.F.);
#952=ADVANCED_FACE('',(#858),#43,.F.);
#953=ADVANCED_FACE('',(#859,#860),#907,.T.);
#954=ADVANCED_FACE('',(#861,#862),#44,.F.);
#955=ADVANCED_FACE('',(#863,#864),#45,.T.);
#956=ADVANCED_FACE('',(#865,#866),#908,.T.);
#957=ADVANCED_FACE('',(#867,#868),#909,.F.);
#958=ADVANCED_FACE('',(#869,#870),#46,.F.);
#959=ADVANCED_FACE('',(#871,#872),#47,.T.);
#960=ADVANCED_FACE('',(#873),#910,.T.);
#961=ADVANCED_FACE('',(#874),#48,.F.);
#962=ADVANCED_FACE('',(#875),#911,.F.);
#963=ADVANCED_FACE('',(#876),#912,.T.);
#964=CLOSED_SHELL('',(#913,#914,#915,#916,#917,#918,#919,#920,#921,#922,
#923,#924,#925,#926,#927,#928,#929,#930,#931,#932,#933,#934,#935,#936,#937,
#938,#939,#940,#941,#942,#943,#944,#945,#946,#947,#948,#949,#950,#951,#952,
#953,#954,#955,#956,#957,#958,#959,#960,#961,#962,#963));
#965=STYLED_ITEM('',(#966),#973);
#966=PRESENTATION_STYLE_ASSIGNMENT((#967));
#967=SURFACE_STYLE_USAGE(.BOTH.,#968);
#968=SURFACE_SIDE_STYLE('',(#969));
#969=SURFACE_STYLE_FILL_AREA(#970);
#970=FILL_AREA_STYLE('',(#971));
#971=FILL_AREA_STYLE_COLOUR('',#972);
#972=COLOUR_RGB('',0.231372549019608,0.380392156862745,0.705882352941177);
#973=MANIFOLD_SOLID_BREP('CAGE',#964);
#974=SHAPE_DEFINITION_REPRESENTATION(#1814,#975);
#975=SHAPE_REPRESENTATION('CAGE',(#976),#1809);
#976=AXIS2_PLACEMENT_3D('',#1304,#1056,#1057);
#977=AXIS2_PLACEMENT_3D('',#1305,#1058,#1059);
#978=AXIS2_PLACEMENT_3D('',#1306,#1060,#1061);
#979=AXIS2_PLACEMENT_3D('',#1311,#1063,#1064);
#980=AXIS2_PLACEMENT_3D('',#1314,#1066,#1067);
#981=AXIS2_PLACEMENT_3D('',#1320,#1071,#1072);
#982=AXIS2_PLACEMENT_3D('',#1329,#1077,#1078);
#983=AXIS2_PLACEMENT_3D('',#1352,#1079,#1080);
#984=AXIS2_PLACEMENT_3D('',#1353,#1081,#1082);
#985=AXIS2_PLACEMENT_3D('',#1357,#1084,#1085);
#986=AXIS2_PLACEMENT_3D('',#1358,#1086,#1087);
#987=AXIS2_PLACEMENT_3D('',#1364,#1091,#1092);
#988=AXIS2_PLACEMENT_3D('',#1373,#1097,#1098);
#989=AXIS2_PLACEMENT_3D('',#1396,#1099,#1100);
#990=AXIS2_PLACEMENT_3D('',#1397,#1101,#1102);
#991=AXIS2_PLACEMENT_3D('',#1401,#1104,#1105);
#992=AXIS2_PLACEMENT_3D('',#1402,#1106,#1107);
#993=AXIS2_PLACEMENT_3D('',#1408,#1111,#1112);
#994=AXIS2_PLACEMENT_3D('',#1417,#1117,#1118);
#995=AXIS2_PLACEMENT_3D('',#1440,#1119,#1120);
#996=AXIS2_PLACEMENT_3D('',#1441,#1121,#1122);
#997=AXIS2_PLACEMENT_3D('',#1445,#1124,#1125);
#998=AXIS2_PLACEMENT_3D('',#1446,#1126,#1127);
#999=AXIS2_PLACEMENT_3D('',#1452,#1131,#1132);
#1000=AXIS2_PLACEMENT_3D('',#1461,#1137,#1138);
#1001=AXIS2_PLACEMENT_3D('',#1484,#1139,#1140);
#1002=AXIS2_PLACEMENT_3D('',#1485,#1141,#1142);
#1003=AXIS2_PLACEMENT_3D('',#1489,#1144,#1145);
#1004=AXIS2_PLACEMENT_3D('',#1490,#1146,#1147);
#1005=AXIS2_PLACEMENT_3D('',#1496,#1151,#1152);
#1006=AXIS2_PLACEMENT_3D('',#1505,#1157,#1158);
#1007=AXIS2_PLACEMENT_3D('',#1528,#1159,#1160);
#1008=AXIS2_PLACEMENT_3D('',#1529,#1161,#1162);
#1009=AXIS2_PLACEMENT_3D('',#1533,#1164,#1165);
#1010=AXIS2_PLACEMENT_3D('',#1534,#1166,#1167);
#1011=AXIS2_PLACEMENT_3D('',#1540,#1171,#1172);
#1012=AXIS2_PLACEMENT_3D('',#1549,#1177,#1178);
#1013=AXIS2_PLACEMENT_3D('',#1572,#1179,#1180);
#1014=AXIS2_PLACEMENT_3D('',#1573,#1181,#1182);
#1015=AXIS2_PLACEMENT_3D('',#1577,#1184,#1185);
#1016=AXIS2_PLACEMENT_3D('',#1578,#1186,#1187);
#1017=AXIS2_PLACEMENT_3D('',#1584,#1191,#1192);
#1018=AXIS2_PLACEMENT_3D('',#1593,#1197,#1198);
#1019=AXIS2_PLACEMENT_3D('',#1616,#1199,#1200);
#1020=AXIS2_PLACEMENT_3D('',#1617,#1201,#1202);
#1021=AXIS2_PLACEMENT_3D('',#1621,#1204,#1205);
#1022=AXIS2_PLACEMENT_3D('',#1622,#1206,#1207);
#1023=AXIS2_PLACEMENT_3D('',#1628,#1211,#1212);
#1024=AXIS2_PLACEMENT_3D('',#1637,#1217,#1218);
#1025=AXIS2_PLACEMENT_3D('',#1660,#1219,#1220);
#1026=AXIS2_PLACEMENT_3D('',#1661,#1221,#1222);
#1027=AXIS2_PLACEMENT_3D('',#1665,#1224,#1225);
#1028=AXIS2_PLACEMENT_3D('',#1666,#1226,#1227);
#1029=AXIS2_PLACEMENT_3D('',#1672,#1231,#1232);
#1030=AXIS2_PLACEMENT_3D('',#1681,#1237,#1238);
#1031=AXIS2_PLACEMENT_3D('',#1704,#1239,#1240);
#1032=AXIS2_PLACEMENT_3D('',#1705,#1241,#1242);
#1033=AXIS2_PLACEMENT_3D('',#1709,#1244,#1245);
#1034=AXIS2_PLACEMENT_3D('',#1710,#1246,#1247);
#1035=AXIS2_PLACEMENT_3D('',#1716,#1251,#1252);
#1036=AXIS2_PLACEMENT_3D('',#1725,#1257,#1258);
#1037=AXIS2_PLACEMENT_3D('',#1748,#1259,#1260);
#1038=AXIS2_PLACEMENT_3D('',#1749,#1261,#1262);
#1039=AXIS2_PLACEMENT_3D('',#1751,#1263,#1264);
#1040=AXIS2_PLACEMENT_3D('',#1753,#1265,#1266);
#1041=AXIS2_PLACEMENT_3D('',#1754,#1267,#1268);
#1042=AXIS2_PLACEMENT_3D('',#1756,#1269,#1270);
#1043=AXIS2_PLACEMENT_3D('',#1757,#1271,#1272);
#1044=AXIS2_PLACEMENT_3D('',#1759,#1273,#1274);
#1045=AXIS2_PLACEMENT_3D('',#1761,#1275,#1276);
#1046=AXIS2_PLACEMENT_3D('',#1762,#1277,#1278);
#1047=AXIS2_PLACEMENT_3D('',#1764,#1279,#1280);
#1048=AXIS2_PLACEMENT_3D('',#1765,#1281,#1282);
#1049=AXIS2_PLACEMENT_3D('',#1782,#1285,#1286);
#1050=AXIS2_PLACEMENT_3D('',#1783,#1287,#1288);
#1051=AXIS2_PLACEMENT_3D('',#1784,#1289,#1290);
#1052=AXIS2_PLACEMENT_3D('',#1801,#1293,#1294);
#1053=AXIS2_PLACEMENT_3D('',#1803,#1296,#1297);
#1054=AXIS2_PLACEMENT_3D('',#1806,#1300,#1301);
#1055=AXIS2_PLACEMENT_3D('',#1807,#1302,#1303);
#1056=DIRECTION('',(0.,0.,1.));
#1057=DIRECTION('',(1.,0.,0.));
#1058=DIRECTION('',(0.,0.,1.));
#1059=DIRECTION('',(1.,0.,0.));
#1060=DIRECTION('',(0.,0.,1.));
#1061=DIRECTION('',(1.,0.,0.));
#1062=DIRECTION('',(0.540640817455597,0.841253532831181,0.));
#1063=DIRECTION('',(0.,0.,1.));
#1064=DIRECTION('',(1.,0.,0.));
#1065=DIRECTION('',(0.,1.,0.));
#1066=DIRECTION('',(0.841253532831181,-0.540640817455597,1.7347234759768E-16));
#1067=DIRECTION('',(1.45934225265068E-16,-9.37862318111517E-17,-1.));
#1068=DIRECTION('',(-0.540640817455597,-0.841253532831181,0.));
#1069=DIRECTION('',(0.,0.,-1.));
#1070=DIRECTION('',(0.,0.,-1.));
#1071=DIRECTION('',(0.841253532831181,-0.540640817455597,1.7347234759768E-16));
#1072=DIRECTION('',(1.45934225265068E-16,-9.37862318111517E-17,-1.));
#1073=DIRECTION('',(0.,0.,-1.));
#1074=DIRECTION('',(0.540640817455597,0.841253532831181,0.));
#1075=DIRECTION('',(0.,0.,-1.));
#1076=DIRECTION('',(-0.540640817455597,-0.841253532831181,0.));
#1077=DIRECTION('',(-0.540640817455597,-0.841253532831181,0.));
#1078=DIRECTION('',(0.,0.,-1.));
#1079=DIRECTION('',(0.,0.,1.));
#1080=DIRECTION('',(1.,0.,0.));
#1081=DIRECTION('',(0.,0.,1.));
#1082=DIRECTION('',(1.,0.,0.));
#1083=DIRECTION('',(0.909631995354519,0.415415013001886,0.));
#1084=DIRECTION('',(0.,0.,1.));
#1085=DIRECTION('',(1.,0.,0.));
#1086=DIRECTION('',(0.415415013001886,-0.909631995354519,1.7347234759768E-16));
#1087=DIRECTION('',(7.20630175327582E-17,-1.57795997684111E-16,-1.));
#1088=DIRECTION('',(-0.909631995354519,-0.415415013001886,0.));
#1089=DIRECTION('',(0.,0.,-1.));
#1090=DIRECTION('',(0.,0.,-1.));
#1091=DIRECTION('',(0.415415013001886,-0.909631995354519,1.7347234759768E-16));
#1092=DIRECTION('',(7.20630175327582E-17,-1.57795997684111E-16,-1.));
#1093=DIRECTION('',(0.,0.,-1.));
#1094=DIRECTION('',(0.909631995354519,0.415415013001886,0.));
#1095=DIRECTION('',(0.,0.,-1.));
#1096=DIRECTION('',(-0.909631995354519,-0.415415013001886,0.));
#1097=DIRECTION('',(-0.909631995354519,-0.415415013001886,0.));
#1098=DIRECTION('',(0.,0.,-1.));
#1099=DIRECTION('',(0.,0.,1.));
#1100=DIRECTION('',(1.,0.,0.));
#1101=DIRECTION('',(0.,0.,1.));
#1102=DIRECTION('',(1.,0.,0.));
#1103=DIRECTION('',(0.989821441880933,-0.142314838273285,0.));
#1104=DIRECTION('',(0.,0.,1.));
#1105=DIRECTION('',(1.,0.,0.));
#1106=DIRECTION('',(-0.142314838273285,-0.989821441880933,1.7347234759768E-16));
#1107=DIRECTION('',(-2.4687689093251E-17,-1.71706649225606E-16,-1.));
#1108=DIRECTION('',(-0.989821441880933,0.142314838273285,0.));
#1109=DIRECTION('',(0.,0.,-1.));
#1110=DIRECTION('',(0.,0.,-1.));
#1111=DIRECTION('',(-0.142314838273285,-0.989821441880933,1.7347234759768E-16));
#1112=DIRECTION('',(-2.4687689093251E-17,-1.71706649225606E-16,-1.));
#1113=DIRECTION('',(0.,0.,-1.));
#1114=DIRECTION('',(0.989821441880933,-0.142314838273285,0.));
#1115=DIRECTION('',(0.,0.,-1.));
#1116=DIRECTION('',(-0.989821441880933,0.142314838273285,0.));
#1117=DIRECTION('',(-0.989821441880933,0.142314838273285,0.));
#1118=DIRECTION('',(0.,0.,-1.));
#1119=DIRECTION('',(0.,0.,1.));
#1120=DIRECTION('',(1.,0.,0.));
#1121=DIRECTION('',(0.,0.,1.));
#1122=DIRECTION('',(1.,0.,0.));
#1123=DIRECTION('',(0.755749574354258,-0.654860733945285,0.));
#1124=DIRECTION('',(0.,0.,1.));
#1125=DIRECTION('',(1.,0.,0.));
#1126=DIRECTION('',(-0.654860733945285,-0.755749574354258,1.7347234759768E-16));
#1127=DIRECTION('',(-1.13600228867029E-16,-1.31101652859181E-16,-1.));
#1128=DIRECTION('',(-0.755749574354258,0.654860733945285,0.));
#1129=DIRECTION('',(0.,0.,-1.));
#1130=DIRECTION('',(0.,0.,-1.));
#1131=DIRECTION('',(-0.654860733945285,-0.755749574354258,1.7347234759768E-16));
#1132=DIRECTION('',(-1.13600228867029E-16,-1.31101652859181E-16,-1.));
#1133=DIRECTION('',(0.,0.,-1.));
#1134=DIRECTION('',(0.755749574354258,-0.654860733945285,0.));
#1135=DIRECTION('',(0.,0.,-1.));
#1136=DIRECTION('',(-0.755749574354258,0.654860733945285,0.));
#1137=DIRECTION('',(-0.755749574354258,0.654860733945285,0.));
#1138=DIRECTION('',(0.,0.,-1.));
#1139=DIRECTION('',(0.,0.,1.));
#1140=DIRECTION('',(1.,0.,0.));
#1141=DIRECTION('',(0.,0.,1.));
#1142=DIRECTION('',(1.,0.,0.));
#1143=DIRECTION('',(0.28173255684143,-0.959492973614497,0.));
#1144=DIRECTION('',(0.,0.,1.));
#1145=DIRECTION('',(1.,0.,0.));
#1146=DIRECTION('',(-0.959492973614497,-0.28173255684143,1.7347234759768E-16));
#1147=DIRECTION('',(-1.66445498636386E-16,-4.88728080299798E-17,-1.));
#1148=DIRECTION('',(-0.28173255684143,0.959492973614497,0.));
#1149=DIRECTION('',(0.,0.,-1.));
#1150=DIRECTION('',(0.,0.,-1.));
#1151=DIRECTION('',(-0.959492973614497,-0.28173255684143,1.7347234759768E-16));
#1152=DIRECTION('',(-1.66445498636386E-16,-4.88728080299798E-17,-1.));
#1153=DIRECTION('',(0.,0.,-1.));
#1154=DIRECTION('',(0.28173255684143,-0.959492973614497,0.));
#1155=DIRECTION('',(0.,0.,-1.));
#1156=DIRECTION('',(-0.28173255684143,0.959492973614497,0.));
#1157=DIRECTION('',(-0.28173255684143,0.959492973614497,0.));
#1158=DIRECTION('',(0.,0.,-1.));
#1159=DIRECTION('',(0.,0.,1.));
#1160=DIRECTION('',(1.,0.,0.));
#1161=DIRECTION('',(0.,0.,1.));
#1162=DIRECTION('',(1.,0.,0.));
#1163=DIRECTION('',(-0.28173255684143,-0.959492973614497,0.));
#1164=DIRECTION('',(0.,0.,1.));
#1165=DIRECTION('',(1.,0.,0.));
#1166=DIRECTION('',(-0.959492973614497,0.28173255684143,1.7347234759768E-16));
#1167=DIRECTION('',(-1.66445498636386E-16,4.88728080299798E-17,-1.));
#1168=DIRECTION('',(0.28173255684143,0.959492973614497,0.));
#1169=DIRECTION('',(0.,0.,-1.));
#1170=DIRECTION('',(0.,0.,-1.));
#1171=DIRECTION('',(-0.959492973614497,0.28173255684143,1.7347234759768E-16));
#1172=DIRECTION('',(-1.66445498636386E-16,4.88728080299798E-17,-1.));
#1173=DIRECTION('',(0.,0.,-1.));
#1174=DIRECTION('',(-0.28173255684143,-0.959492973614497,0.));
#1175=DIRECTION('',(0.,0.,-1.));
#1176=DIRECTION('',(0.28173255684143,0.959492973614497,0.));
#1177=DIRECTION('',(0.28173255684143,0.959492973614497,0.));
#1178=DIRECTION('',(0.,0.,-1.));
#1179=DIRECTION('',(0.,0.,1.));
#1180=DIRECTION('',(1.,0.,0.));
#1181=DIRECTION('',(0.,0.,1.));
#1182=DIRECTION('',(1.,0.,0.));
#1183=DIRECTION('',(-0.755749574354258,-0.654860733945285,0.));
#1184=DIRECTION('',(0.,0.,1.));
#1185=DIRECTION('',(1.,0.,0.));
#1186=DIRECTION('',(-0.654860733945285,0.755749574354258,1.7347234759768E-16));
#1187=DIRECTION('',(-1.13600228867029E-16,1.31101652859181E-16,-1.));
#1188=DIRECTION('',(0.755749574354258,0.654860733945285,0.));
#1189=DIRECTION('',(0.,0.,-1.));
#1190=DIRECTION('',(0.,0.,-1.));
#1191=DIRECTION('',(-0.654860733945285,0.755749574354258,1.7347234759768E-16));
#1192=DIRECTION('',(-1.13600228867029E-16,1.31101652859181E-16,-1.));
#1193=DIRECTION('',(0.,0.,-1.));
#1194=DIRECTION('',(-0.755749574354258,-0.654860733945285,0.));
#1195=DIRECTION('',(0.,0.,-1.));
#1196=DIRECTION('',(0.755749574354258,0.654860733945285,0.));
#1197=DIRECTION('',(0.755749574354258,0.654860733945285,0.));
#1198=DIRECTION('',(0.,0.,-1.));
#1199=DIRECTION('',(0.,0.,1.));
#1200=DIRECTION('',(1.,0.,0.));
#1201=DIRECTION('',(0.,0.,1.));
#1202=DIRECTION('',(1.,0.,0.));
#1203=DIRECTION('',(-0.989821441880933,-0.142314838273285,0.));
#1204=DIRECTION('',(0.,0.,1.));
#1205=DIRECTION('',(1.,0.,0.));
#1206=DIRECTION('',(-0.142314838273285,0.989821441880933,1.7347234759768E-16));
#1207=DIRECTION('',(-2.4687689093251E-17,1.71706649225606E-16,-1.));
#1208=DIRECTION('',(0.989821441880933,0.142314838273285,0.));
#1209=DIRECTION('',(0.,0.,-1.));
#1210=DIRECTION('',(0.,0.,-1.));
#1211=DIRECTION('',(-0.142314838273285,0.989821441880933,1.7347234759768E-16));
#1212=DIRECTION('',(-2.4687689093251E-17,1.71706649225606E-16,-1.));
#1213=DIRECTION('',(0.,0.,-1.));
#1214=DIRECTION('',(-0.989821441880933,-0.142314838273285,0.));
#1215=DIRECTION('',(0.,0.,-1.));
#1216=DIRECTION('',(0.989821441880933,0.142314838273285,0.));
#1217=DIRECTION('',(0.989821441880933,0.142314838273285,0.));
#1218=DIRECTION('',(0.,0.,-1.));
#1219=DIRECTION('',(0.,0.,1.));
#1220=DIRECTION('',(1.,0.,0.));
#1221=DIRECTION('',(0.,0.,1.));
#1222=DIRECTION('',(1.,0.,0.));
#1223=DIRECTION('',(-0.909631995354518,0.415415013001886,0.));
#1224=DIRECTION('',(0.,0.,1.));
#1225=DIRECTION('',(1.,0.,0.));
#1226=DIRECTION('',(0.415415013001886,0.909631995354518,1.7347234759768E-16));
#1227=DIRECTION('',(7.20630175327583E-17,1.57795997684111E-16,-1.));
#1228=DIRECTION('',(0.909631995354518,-0.415415013001886,0.));
#1229=DIRECTION('',(0.,0.,-1.));
#1230=DIRECTION('',(0.,0.,-1.));
#1231=DIRECTION('',(0.415415013001886,0.909631995354518,1.7347234759768E-16));
#1232=DIRECTION('',(7.20630175327583E-17,1.57795997684111E-16,-1.));
#1233=DIRECTION('',(0.,0.,-1.));
#1234=DIRECTION('',(-0.909631995354518,0.415415013001886,0.));
#1235=DIRECTION('',(0.,0.,-1.));
#1236=DIRECTION('',(0.909631995354518,-0.415415013001886,0.));
#1237=DIRECTION('',(0.909631995354518,-0.415415013001886,0.));
#1238=DIRECTION('',(0.,0.,-1.));
#1239=DIRECTION('',(0.,0.,1.));
#1240=DIRECTION('',(1.,0.,0.));
#1241=DIRECTION('',(0.,0.,1.));
#1242=DIRECTION('',(1.,0.,0.));
#1243=DIRECTION('',(-0.540640817455598,0.841253532831181,0.));
#1244=DIRECTION('',(0.,0.,1.));
#1245=DIRECTION('',(1.,0.,0.));
#1246=DIRECTION('',(0.841253532831181,0.540640817455598,1.7347234759768E-16));
#1247=DIRECTION('',(1.45934225265068E-16,9.37862318111517E-17,-1.));
#1248=DIRECTION('',(0.540640817455598,-0.841253532831181,0.));
#1249=DIRECTION('',(0.,0.,-1.));
#1250=DIRECTION('',(0.,0.,-1.));
#1251=DIRECTION('',(0.841253532831181,0.540640817455598,1.7347234759768E-16));
#1252=DIRECTION('',(1.45934225265068E-16,9.37862318111517E-17,-1.));
#1253=DIRECTION('',(0.,0.,-1.));
#1254=DIRECTION('',(-0.540640817455598,0.841253532831181,0.));
#1255=DIRECTION('',(0.,0.,-1.));
#1256=DIRECTION('',(0.540640817455598,-0.841253532831181,0.));
#1257=DIRECTION('',(0.540640817455598,-0.841253532831181,0.));
#1258=DIRECTION('',(0.,0.,-1.));
#1259=DIRECTION('',(0.,0.,1.));
#1260=DIRECTION('',(1.,0.,0.));
#1261=DIRECTION('',(0.,0.,1.));
#1262=DIRECTION('',(1.,0.,0.));
#1263=DIRECTION('',(0.,0.,1.));
#1264=DIRECTION('',(1.,0.,0.));
#1265=DIRECTION('',(0.,0.,-1.));
#1266=DIRECTION('',(-1.,0.,0.));
#1267=DIRECTION('',(0.,0.,1.));
#1268=DIRECTION('',(1.,0.,0.));
#1269=DIRECTION('',(0.,0.,-1.));
#1270=DIRECTION('',(-1.,0.,0.));
#1271=DIRECTION('',(0.,0.,1.));
#1272=DIRECTION('',(1.,0.,0.));
#1273=DIRECTION('',(0.,0.,1.));
#1274=DIRECTION('',(1.,0.,0.));
#1275=DIRECTION('',(0.,0.,1.));
#1276=DIRECTION('',(1.,0.,0.));
#1277=DIRECTION('',(0.,0.,1.));
#1278=DIRECTION('',(1.,0.,0.));
#1279=DIRECTION('',(0.,0.,1.));
#1280=DIRECTION('',(1.,0.,0.));
#1281=DIRECTION('',(0.,0.,-1.));
#1282=DIRECTION('',(-1.,0.,0.));
#1283=DIRECTION('',(0.,0.,-1.));
#1284=DIRECTION('',(0.,0.,-1.));
#1285=DIRECTION('',(0.,0.,1.));
#1286=DIRECTION('',(1.,0.,0.));
#1287=DIRECTION('',(0.,0.,-1.));
#1288=DIRECTION('',(-1.,0.,0.));
#1289=DIRECTION('',(0.,0.,1.));
#1290=DIRECTION('',(1.,0.,0.));
#1291=DIRECTION('',(0.,0.,-1.));
#1292=DIRECTION('',(0.,0.,-1.));
#1293=DIRECTION('',(0.,0.,1.));
#1294=DIRECTION('',(1.,0.,0.));
#1295=DIRECTION('',(0.,1.,0.));
#1296=DIRECTION('',(0.,-1.,0.));
#1297=DIRECTION('',(0.,0.,-1.));
#1298=DIRECTION('',(0.,-1.,0.));
#1299=DIRECTION('',(0.,-1.,0.));
#1300=DIRECTION('',(1.,0.,1.7347234759768E-16));
#1301=DIRECTION('',(1.7347234759768E-16,0.,-1.));
#1302=DIRECTION('',(1.,0.,1.7347234759768E-16));
#1303=DIRECTION('',(1.7347234759768E-16,0.,-1.));
#1304=CARTESIAN_POINT('',(0.,0.,0.));
#1305=CARTESIAN_POINT('',(0.,3.46944695195361E-18,0.00675));
#1306=CARTESIAN_POINT('',(0.,7.15323440473126E-19,0.00675));
#1307=CARTESIAN_POINT('',(0.00439925033935178,0.0108221294080686,0.00675));
#1308=CARTESIAN_POINT('',(0.00215,0.0114825688969529,0.00675));
#1309=CARTESIAN_POINT('',(-0.00180869509558704,0.00116237775752954,0.00675));
#1310=CARTESIAN_POINT('',(0.00498602869107643,0.0117351743455566,0.00675));
#1311=CARTESIAN_POINT('',(0.,7.80741867165133E-19,0.00675));
#1312=CARTESIAN_POINT('',(0.00215,0.01256790750399,0.00675));
#1313=CARTESIAN_POINT('',(0.00215,3.46944695195361E-18,0.00675));
#1314=CARTESIAN_POINT('',(0.0246058557277435,0.0422642211271354,0.00829919333848297));
#1315=CARTESIAN_POINT('',(0.0246058557277435,0.0422642211271354,0.00579919333848297));
#1316=CARTESIAN_POINT('',(0.00498602869107643,0.0117351743455566,0.00579919333848297));
#1317=CARTESIAN_POINT('',(0.00439925033935178,0.0108221294080686,0.00579919333848297));
#1318=CARTESIAN_POINT('',(0.00498602869107643,0.0117351743455566,0.00675));
#1319=CARTESIAN_POINT('',(0.00439925033935178,0.0108221294080686,0.00675));
#1320=CARTESIAN_POINT('',(0.0282232459189176,0.0399394656120763,0.00829919333848297));
#1321=CARTESIAN_POINT('',(0.00801664053052585,0.0084973738930095,0.00675));
#1322=CARTESIAN_POINT('',(0.00801664053052585,0.0084973738930095,0.00579919333848297));
#1323=CARTESIAN_POINT('',(0.00801664053052585,0.0084973738930095,0.00675));
#1324=CARTESIAN_POINT('',(0.00180869509558704,-0.00116237775752953,0.00675));
#1325=CARTESIAN_POINT('',(0.00860341888225051,0.00941041883049754,0.00675));
#1326=CARTESIAN_POINT('',(0.00860341888225051,0.00941041883049754,0.00675));
#1327=CARTESIAN_POINT('',(0.00860341888225051,0.00941041883049754,0.00579919333848297));
#1328=CARTESIAN_POINT('',(0.0282232459189176,0.0399394656120763,0.00579919333848297));
#1329=CARTESIAN_POINT('',(0.0264145508233306,0.0411018433696059,0.00425));
#1330=CARTESIAN_POINT('',(0.00439925033935178,0.0108221294080686,0.00579919333848297));
#1331=CARTESIAN_POINT('',(0.0041304499338327,0.0109313981324211,0.0054033812118083));
#1332=CARTESIAN_POINT('',(0.00379666946205482,0.0110466755599038,0.00446419719308598));
#1333=CARTESIAN_POINT('',(0.00409130936768369,0.0109485674490802,0.00297425184707156));
#1334=CARTESIAN_POINT('',(0.00505436314676474,0.0105588077649658,0.00187634898175439));
#1335=CARTESIAN_POINT('',(0.00633234224857195,0.00985674969805825,0.00146192105474738));
#1336=CARTESIAN_POINT('',(0.00750526079864169,0.00898378051150548,0.00187596839189392));
#1337=CARTESIAN_POINT('',(0.00825876345851221,0.00827053807470821,0.00297358561157274));
#1338=CARTESIAN_POINT('',(0.0084716512335577,0.00804210234335157,0.00446050916427067));
#1339=CARTESIAN_POINT('',(0.0082277155534167,0.00829824030129119,0.00540334938456149));
#1340=CARTESIAN_POINT('',(0.00801664053052586,0.0084973738930095,0.00579919333848297));
#1341=CARTESIAN_POINT('',(0.00498602869107643,0.0117351743455566,0.00579919333848297));
#1342=CARTESIAN_POINT('',(0.00471958194833825,0.0118483819609543,0.00540317373543738));
#1343=CARTESIAN_POINT('',(0.0043900642448011,0.0119697084945464,0.00446409650684518));
#1344=CARTESIAN_POINT('',(0.00468053767114507,0.0118660957606121,0.00297484314201884));
#1345=CARTESIAN_POINT('',(0.00563526647277188,0.0114621359936104,0.00187598259851819));
#1346=CARTESIAN_POINT('',(0.00690865816172244,0.0107530022551069,0.00146208621713));
#1347=CARTESIAN_POINT('',(0.00808560239653603,0.00988745269284205,0.00187567368209904));
#1348=CARTESIAN_POINT('',(0.00884869364984305,0.00918757038565217,0.00297422112421337));
#1349=CARTESIAN_POINT('',(0.00906471414761189,0.00896537864285547,0.00446096805818698));
#1350=CARTESIAN_POINT('',(0.00881709427187068,0.00921506738920221,0.00540315122787237));
#1351=CARTESIAN_POINT('',(0.00860341888225051,0.00941041883049754,0.00579919333848297));
#1352=CARTESIAN_POINT('',(0.,3.46944695195361E-18,0.00675));
#1353=CARTESIAN_POINT('',(0.,7.15323440473126E-19,0.00675));
#1354=CARTESIAN_POINT('',(0.00955176977957691,0.00672574029763494,0.00675));
#1355=CARTESIAN_POINT('',(-0.000893142277954052,0.00195570879001221,0.00675));
#1356=CARTESIAN_POINT('',(0.0105390285023314,0.00717660624918871,0.00675));
#1357=CARTESIAN_POINT('',(0.,7.80741867165133E-19,0.00675));
#1358=CARTESIAN_POINT('',(0.0435495261185972,0.0222519953807191,0.00829919333848297));
#1359=CARTESIAN_POINT('',(0.0435495261185972,0.0222519953807191,0.00579919333848297));
#1360=CARTESIAN_POINT('',(0.0105390285023314,0.00717660624918871,0.00579919333848297));
#1361=CARTESIAN_POINT('',(0.00955176977957691,0.00672574029763494,0.00579919333848297));
#1362=CARTESIAN_POINT('',(0.0105390285023314,0.00717660624918871,0.00675));
#1363=CARTESIAN_POINT('',(0.00955176977957691,0.00672574029763494,0.00675));
#1364=CARTESIAN_POINT('',(0.0453358106745054,0.0183405778006947,0.00829919333848297));
#1365=CARTESIAN_POINT('',(0.011338054335485,0.00281432271761051,0.00675));
#1366=CARTESIAN_POINT('',(0.011338054335485,0.00281432271761051,0.00579919333848297));
#1367=CARTESIAN_POINT('',(0.011338054335485,0.00281432271761051,0.00675));
#1368=CARTESIAN_POINT('',(0.000893142277954058,-0.00195570879001221,0.00675));
#1369=CARTESIAN_POINT('',(0.0123253130582395,0.00326518866916428,0.00675));
#1370=CARTESIAN_POINT('',(0.0123253130582395,0.00326518866916428,0.00675));
#1371=CARTESIAN_POINT('',(0.0123253130582395,0.00326518866916428,0.00579919333848297));
#1372=CARTESIAN_POINT('',(0.0453358106745054,0.0183405778006947,0.00579919333848297));
#1373=CARTESIAN_POINT('',(0.0444426683965513,0.0202962865907069,0.00425));
#1374=CARTESIAN_POINT('',(0.00955176977957691,0.00672574029763494,0.00579919333848297));
#1375=CARTESIAN_POINT('',(0.00938471562126382,0.0069629874689967,0.00540338121180831));
#1376=CARTESIAN_POINT('',(0.00916624530281905,0.00724042035923496,0.00446419719308599));
#1377=CARTESIAN_POINT('',(0.00936107091510768,0.00699859220497097,0.00297425184707157));
#1378=CARTESIAN_POINT('',(0.00996052331483519,0.0061500393113785,0.0018763489817544));
#1379=CARTESIAN_POINT('',(0.0106560665019207,0.00486850281604764,0.00146192105474738));
#1380=CARTESIAN_POINT('',(0.0111708256012587,0.00349998676008883,0.00187596839189392));
#1381=CARTESIAN_POINT('',(0.0114191044017983,0.00249259474638062,0.00297358561157273));
#1382=CARTESIAN_POINT('',(0.0114746953141152,0.00218532655962509,0.00446050916427066));
#1383=CARTESIAN_POINT('',(0.0114079621963749,0.00253268510715196,0.0054033493845615));
#1384=CARTESIAN_POINT('',(0.011338054335485,0.00281432271761051,0.00579919333848297));
#1385=CARTESIAN_POINT('',(0.0105390285023314,0.00717660624918871,0.00579919333848297));
#1386=CARTESIAN_POINT('',(0.0103760838964223,0.00741589454038775,0.00540317373543738));
#1387=CARTESIAN_POINT('',(0.0101644700404916,0.00769611163600475,0.00446409650684519));
#1388=CARTESIAN_POINT('',(0.0103528145634239,0.00745190526686843,0.00297484314201885));
#1389=CARTESIAN_POINT('',(0.0109375864020372,0.00659590732599674,0.0018759825985182));
#1390=CARTESIAN_POINT('',(0.0116254450149748,0.00531089853957544,0.00146208621713));
#1391=CARTESIAN_POINT('',(0.0121476020875659,0.00394644781927039,0.00187567368209904));
#1392=CARTESIAN_POINT('',(0.0124111703576011,0.00294511107679973,0.00297422112421337));
#1393=CARTESIAN_POINT('',(0.0124727724390556,0.0026414019897052,0.00446096805818696));
#1394=CARTESIAN_POINT('',(0.0123994532717235,0.00298532694171652,0.00540315122787237));
#1395=CARTESIAN_POINT('',(0.0123253130582395,0.00326518866916428,0.00579919333848297));
#1396=CARTESIAN_POINT('',(0.,3.46944695195361E-18,0.00675));
#1397=CARTESIAN_POINT('',(0.,7.15323440473126E-19,0.00675));
#1398=CARTESIAN_POINT('',(0.0116716698043666,0.000493976164512303,0.00675));
#1399=CARTESIAN_POINT('',(0.000305976902287567,0.002128116100044,0.00675));
#1400=CARTESIAN_POINT('',(0.0127459612293131,0.000339516376180066,0.00675));
#1401=CARTESIAN_POINT('',(0.,7.80741867165133E-19,0.00675));
#1402=CARTESIAN_POINT('',(0.0486665296730439,-0.00482508167398923,0.00829919333848297));
#1403=CARTESIAN_POINT('',(0.0486665296730439,-0.00482508167398923,0.00579919333848297));
#1404=CARTESIAN_POINT('',(0.0127459612293131,0.000339516376180067,0.00579919333848297));
#1405=CARTESIAN_POINT('',(0.0116716698043666,0.000493976164512304,0.00579919333848297));
#1406=CARTESIAN_POINT('',(0.0127459612293131,0.000339516376180066,0.00675));
#1407=CARTESIAN_POINT('',(0.0116716698043666,0.000493976164512303,0.00675));
#1408=CARTESIAN_POINT('',(0.0480545758684688,-0.00908131387407724,0.00829919333848297));
#1409=CARTESIAN_POINT('',(0.0110597159997915,-0.00376225603557571,0.00675));
#1410=CARTESIAN_POINT('',(0.0110597159997915,-0.00376225603557571,0.00579919333848297));
#1411=CARTESIAN_POINT('',(0.0110597159997915,-0.00376225603557571,0.00675));
#1412=CARTESIAN_POINT('',(-0.00030597690228756,-0.002128116100044,0.00675));
#1413=CARTESIAN_POINT('',(0.012134007424738,-0.00391671582390794,0.00675));
#1414=CARTESIAN_POINT('',(0.012134007424738,-0.00391671582390794,0.00675));
#1415=CARTESIAN_POINT('',(0.012134007424738,-0.00391671582390794,0.00579919333848297));
#1416=CARTESIAN_POINT('',(0.0480545758684688,-0.00908131387407724,0.00579919333848297));
#1417=CARTESIAN_POINT('',(0.0483605527707563,-0.00695319777403323,0.00425));
#1418=CARTESIAN_POINT('',(0.0116716698043666,0.000493976164512304,0.00579919333848297));
#1419=CARTESIAN_POINT('',(0.0116594004081756,0.000783877482284333,0.0054033812118083));
#1420=CARTESIAN_POINT('',(0.0116256030255327,0.00113538285287457,0.00446419719308597));
#1421=CARTESIAN_POINT('',(0.0116587585891514,0.000826613385472939,0.00297425184707156));
#1422=CARTESIAN_POINT('',(0.0117042877081402,-0.000211323169470268,0.00187634898175439));
#1423=CARTESIAN_POINT('',(0.0115965649330777,-0.00166545931086102,0.00146192105474738));
#1424=CARTESIAN_POINT('',(0.011289732204758,-0.00309502805793135,0.00187596839189392));
#1425=CARTESIAN_POINT('',(0.0109539603810497,-0.00407672980208995,0.00297358561157274));
#1426=CARTESIAN_POINT('',(0.0108346047087639,-0.00436527496600278,0.00446050916427066));
#1427=CARTESIAN_POINT('',(0.0109662614467932,-0.00403697971341018,0.0054033493845615));
#1428=CARTESIAN_POINT('',(0.0110597159997915,-0.00376225603557571,0.00579919333848297));
#1429=CARTESIAN_POINT('',(0.0127459612293131,0.000339516376180067,0.00579919333848297));
#1430=CARTESIAN_POINT('',(0.0127382525212977,0.000628913001455048,0.00540317373543738));
#1431=CARTESIAN_POINT('',(0.0127117284170394,0.000979053711157835,0.00446409650684517));
#1432=CARTESIAN_POINT('',(0.0127381459813079,0.000671787503540603,0.00297484314201884));
#1433=CARTESIAN_POINT('',(0.0127672999299483,-0.000364475313166843,0.00187598259851819));
#1434=CARTESIAN_POINT('',(0.012651235217442,-0.00181737793725534,0.00146208621713));
#1435=CARTESIAN_POINT('',(0.0123528239466484,-0.00324752635265184,0.00187567368209904));
#1436=CARTESIAN_POINT('',(0.0120331881699601,-0.00423240018977616,0.00297422112421338));
#1437=CARTESIAN_POINT('',(0.011920813609498,-0.0045212011319219,0.00446096805818698));
#1438=CARTESIAN_POINT('',(0.0120450734681544,-0.00419223371645193,0.00540315122787237));
#1439=CARTESIAN_POINT('',(0.012134007424738,-0.00391671582390794,0.00579919333848297));
#1440=CARTESIAN_POINT('',(0.,3.46944695195361E-18,0.00675));
#1441=CARTESIAN_POINT('',(0.,7.15323440473126E-19,0.00675));
#1442=CARTESIAN_POINT('',(0.0100858971343479,-0.0058946219105742,0.00675));
#1443=CARTESIAN_POINT('',(0.00140795057798237,0.00162486158486165,0.00675));
#1444=CARTESIAN_POINT('',(0.0109061413246465,-0.00660536754735767,0.00675));
#1445=CARTESIAN_POINT('',(0.,7.80741867165133E-19,0.00675));
#1446=CARTESIAN_POINT('',(0.0383322539175662,-0.030370229389604,0.00829919333848297));
#1447=CARTESIAN_POINT('',(0.0383322539175662,-0.030370229389604,0.00579919333848297));
#1448=CARTESIAN_POINT('',(0.0109061413246465,-0.00660536754735767,0.00579919333848297));
#1449=CARTESIAN_POINT('',(0.0100858971343479,-0.0058946219105742,0.00579919333848297));
#1450=CARTESIAN_POINT('',(0.0109061413246465,-0.00660536754735767,0.00675));
#1451=CARTESIAN_POINT('',(0.0100858971343479,-0.0058946219105742,0.00675));
#1452=CARTESIAN_POINT('',(0.0355163527616014,-0.0336199525593273,0.00829919333848297));
#1453=CARTESIAN_POINT('',(0.00726999597838321,-0.00914434508029751,0.00675));
#1454=CARTESIAN_POINT('',(0.00726999597838321,-0.00914434508029751,0.00579919333848297));
#1455=CARTESIAN_POINT('',(0.00726999597838321,-0.00914434508029751,0.00675));
#1456=CARTESIAN_POINT('',(-0.00140795057798236,-0.00162486158486165,0.00675));
#1457=CARTESIAN_POINT('',(0.00809024016868174,-0.00985509071708098,0.00675));
#1458=CARTESIAN_POINT('',(0.00809024016868174,-0.00985509071708098,0.00675));
#1459=CARTESIAN_POINT('',(0.00809024016868174,-0.00985509071708098,0.00579919333848297));
#1460=CARTESIAN_POINT('',(0.0355163527616014,-0.0336199525593273,0.00579919333848297));
#1461=CARTESIAN_POINT('',(0.0369243033395838,-0.0319950909744657,0.00425));
#1462=CARTESIAN_POINT('',(0.0100858971343479,-0.0058946219105742,0.00579919333848297));
#1463=CARTESIAN_POINT('',(0.0102323079468783,-0.00564410806643969,0.0054033812118083));
#1464=CARTESIAN_POINT('',(0.0103939139302254,-0.0053301306870416,0.00446419719308595));
#1465=CARTESIAN_POINT('',(0.0102548727879913,-0.00560780934334166,0.00297425184707155));
#1466=CARTESIAN_POINT('',(0.00973202345265577,-0.00650559203715038,0.00187634898175438));
#1467=CARTESIAN_POINT('',(0.00885523593539484,-0.00767064987414448,0.00146192105474738));
#1468=CARTESIAN_POINT('',(0.00782422860268264,-0.00870739333598158,0.00187596839189392));
#1469=CARTESIAN_POINT('',(0.00701101133630333,-0.00935172144319328,0.00297358561157274));
#1470=CARTESIAN_POINT('',(0.00675460366203881,-0.00952993253348377,0.00446050916427069));
#1471=CARTESIAN_POINT('',(0.00704285017175543,-0.00932493199890021,0.0054033493845615));
#1472=CARTESIAN_POINT('',(0.00726999597838321,-0.00914434508029752,0.00579919333848297));
#1473=CARTESIAN_POINT('',(0.0109061413246465,-0.00660536754735767,0.00579919333848297));
#1474=CARTESIAN_POINT('',(0.0110561159748525,-0.00635774397175271,0.00540317373543737));
#1475=CARTESIAN_POINT('',(0.0112231028379582,-0.00604884684931873,0.00446409650684516));
#1476=CARTESIAN_POINT('',(0.0110792060535652,-0.00632161804553768,0.00297484314201884));
#1477=CARTESIAN_POINT('',(0.0105434859395314,-0.00720913961565944,0.00187598259851818));
#1478=CARTESIAN_POINT('',(0.00966034762772786,-0.00836864975998641,0.00146208621713));
#1479=CARTESIAN_POINT('',(0.00863611148355329,-0.0094104338535318,0.00187567368209904));
#1480=CARTESIAN_POINT('',(0.00783475376080151,-0.0100661543008088,0.00297422112421338));
#1481=CARTESIAN_POINT('',(0.00758408068736876,-0.0102483548394444,0.00446096805818698));
#1482=CARTESIAN_POINT('',(0.0078664679448685,-0.0100387897905549,0.00540315122787237));
#1483=CARTESIAN_POINT('',(0.00809024016868174,-0.00985509071708098,0.00579919333848297));
#1484=CARTESIAN_POINT('',(0.,3.46944695195361E-18,0.00675));
#1485=CARTESIAN_POINT('',(0.,7.15323440473126E-19,0.00675));
#1486=CARTESIAN_POINT('',(0.00529792338771757,-0.0104117191784616,0.00675));
#1487=CARTESIAN_POINT('',(0.00206290989327117,0.00060572499720907,0.00675));
#1488=CARTESIAN_POINT('',(0.00560369860851685,-0.0114530939459062,0.00675));
#1489=CARTESIAN_POINT('',(0.,7.80741867165133E-19,0.00675));
#1490=CARTESIAN_POINT('',(0.0158277583860249,-0.0462730438598062,0.00829919333848297));
#1491=CARTESIAN_POINT('',(0.0158277583860249,-0.0462730438598062,0.00579919333848297));
#1492=CARTESIAN_POINT('',(0.00560369860851685,-0.0114530939459062,0.00579919333848297));
#1493=CARTESIAN_POINT('',(0.00529792338771757,-0.0104117191784616,0.00579919333848297));
#1494=CARTESIAN_POINT('',(0.00560369860851685,-0.0114530939459062,0.00675));
#1495=CARTESIAN_POINT('',(0.00529792338771757,-0.0104117191784616,0.00675));
#1496=CARTESIAN_POINT('',(0.0117019385994825,-0.0474844938542244,0.00829919333848297));
#1497=CARTESIAN_POINT('',(0.00117210360117523,-0.0116231691728797,0.00675));
#1498=CARTESIAN_POINT('',(0.00117210360117523,-0.0116231691728797,0.00579919333848297));
#1499=CARTESIAN_POINT('',(0.00117210360117523,-0.0116231691728797,0.00675));
#1500=CARTESIAN_POINT('',(-0.00206290989327117,-0.000605724997209077,0.00675));
#1501=CARTESIAN_POINT('',(0.00147787882197451,-0.0126645439403244,0.00675));
#1502=CARTESIAN_POINT('',(0.00147787882197451,-0.0126645439403244,0.00675));
#1503=CARTESIAN_POINT('',(0.00147787882197451,-0.0126645439403244,0.00579919333848297));
#1504=CARTESIAN_POINT('',(0.0117019385994825,-0.0474844938542244,0.00579919333848297));
#1505=CARTESIAN_POINT('',(0.0137648484927537,-0.0468787688570153,0.00425));
#1506=CARTESIAN_POINT('',(0.00529792338771757,-0.0104117191784616,0.00579919333848297));
#1507=CARTESIAN_POINT('',(0.00555653001048024,-0.010280129183431,0.0054033812118083));
#1508=CARTESIAN_POINT('',(0.00586223060195802,-0.0101033653947258,0.00446419719308595));
#1509=CARTESIAN_POINT('',(0.00559513733411268,-0.0102617922285327,0.00297425184707155));
#1510=CARTESIAN_POINT('',(0.00466991051414497,-0.010734381399352,0.00187634898175438));
#1511=CARTESIAN_POINT('',(0.00330243209633139,-0.0112404633006091,0.00146192105474738));
#1512=CARTESIAN_POINT('',(0.00187458770261303,-0.011555222753359,0.00187596839189393));
#1513=CARTESIAN_POINT('',(0.000842115729719577,-0.011657607602189,0.00297358561157274));
#1514=CARTESIAN_POINT('',(0.00053006367836522,-0.0116689038568693,0.00446050916427069));
#1515=CARTESIAN_POINT('',(0.000883383729586677,-0.0116522842615605,0.0054033493845615));
#1516=CARTESIAN_POINT('',(0.00117210360117523,-0.0116231691728797,0.00579919333848297));
#1517=CARTESIAN_POINT('',(0.00560369860851685,-0.0114530939459062,0.00579919333848297));
#1518=CARTESIAN_POINT('',(0.00586374072517416,-0.0113258621556013,0.00540317373543737));
#1519=CARTESIAN_POINT('',(0.0061712214064806,-0.0111562812742461,0.00446409650684515));
#1520=CARTESIAN_POINT('',(0.0059026964857448,-0.0113079545315764,0.00297484314201883));
#1521=CARTESIAN_POINT('',(0.00497218966002503,-0.0117649530275266,0.00187598259851818));
#1522=CARTESIAN_POINT('',(0.00360236792296473,-0.0122629344139754,0.00146208621713));
#1523=CARTESIAN_POINT('',(0.00217749464427786,-0.0125855950968637,0.00187567368209905));
#1524=CARTESIAN_POINT('',(0.00114884039031319,-0.0127039755453823,0.00297422112421338));
#1525=CARTESIAN_POINT('',(0.000839455733553419,-0.0127217282968584,0.00446096805818697));
#1526=CARTESIAN_POINT('',(0.00119031443089336,-0.0126981010368559,0.00540315122787237));
#1527=CARTESIAN_POINT('',(0.00147787882197451,-0.0126645439403244,0.00579919333848297));
#1528=CARTESIAN_POINT('',(0.,3.46944695195361E-18,0.00675));
#1529=CARTESIAN_POINT('',(0.,7.15323440473126E-19,0.00675));
#1530=CARTESIAN_POINT('',(-0.00117210360117524,-0.0116231691728797,0.00675));
#1531=CARTESIAN_POINT('',(0.00206290989327117,-0.000605724997209077,0.00675));
#1532=CARTESIAN_POINT('',(-0.00147787882197451,-0.0126645439403244,0.00675));
#1533=CARTESIAN_POINT('',(0.,7.80741867165133E-19,0.00675));
#1534=CARTESIAN_POINT('',(-0.0117019385994825,-0.0474844938542244,0.00829919333848297));
#1535=CARTESIAN_POINT('',(-0.0117019385994825,-0.0474844938542244,0.00579919333848297));
#1536=CARTESIAN_POINT('',(-0.00147787882197451,-0.0126645439403244,0.00579919333848297));
#1537=CARTESIAN_POINT('',(-0.00117210360117524,-0.0116231691728797,0.00579919333848297));
#1538=CARTESIAN_POINT('',(-0.00147787882197451,-0.0126645439403244,0.00675));
#1539=CARTESIAN_POINT('',(-0.00117210360117524,-0.0116231691728797,0.00675));
#1540=CARTESIAN_POINT('',(-0.0158277583860249,-0.0462730438598062,0.00829919333848297));
#1541=CARTESIAN_POINT('',(-0.00529792338771758,-0.0104117191784616,0.00675));
#1542=CARTESIAN_POINT('',(-0.00529792338771758,-0.0104117191784616,0.00579919333848297));
#1543=CARTESIAN_POINT('',(-0.00529792338771758,-0.0104117191784616,0.00675));
#1544=CARTESIAN_POINT('',(-0.00206290989327117,0.00060572499720907,0.00675));
#1545=CARTESIAN_POINT('',(-0.00560369860851685,-0.0114530939459062,0.00675));
#1546=CARTESIAN_POINT('',(-0.00560369860851685,-0.0114530939459062,0.00675));
#1547=CARTESIAN_POINT('',(-0.00560369860851685,-0.0114530939459062,0.00579919333848297));
#1548=CARTESIAN_POINT('',(-0.0158277583860249,-0.0462730438598062,0.00579919333848297));
#1549=CARTESIAN_POINT('',(-0.0137648484927537,-0.0468787688570153,0.00425));
#1550=CARTESIAN_POINT('',(-0.00117210360117523,-0.0116231691728797,0.00579919333848297));
#1551=CARTESIAN_POINT('',(-0.000883406943680313,-0.0116522819206049,0.0054033812118083));
#1552=CARTESIAN_POINT('',(-0.000530669521888886,-0.0116688529765532,0.00446419719308598));
#1553=CARTESIAN_POINT('',(-0.000841014689995445,-0.0116577285875237,0.00297425184707156));
#1554=CARTESIAN_POINT('',(-0.00187486601659586,-0.011555080512774,0.0018763489817544));
#1555=CARTESIAN_POINT('',(-0.00329887059944706,-0.0112415090504489,0.00146192105474738));
#1556=CARTESIAN_POINT('',(-0.00467022154783239,-0.0107343505918474,0.00187596839189392));
#1557=CARTESIAN_POINT('',(-0.00559414567094469,-0.0102622857162089,0.00297358561157273));
#1558=CARTESIAN_POINT('',(-0.00586276777793831,-0.0101030806542336,0.00446050916427066));
#1559=CARTESIAN_POINT('',(-0.00555655080503467,-0.0102801186022816,0.0054033493845615));
#1560=CARTESIAN_POINT('',(-0.00529792338771758,-0.0104117191784616,0.00579919333848297));
#1561=CARTESIAN_POINT('',(-0.00147787882197451,-0.0126645439403244,0.00579919333848297));
#1562=CARTESIAN_POINT('',(-0.00119033077353485,-0.0126980991297644,0.00540317373543738));
#1563=CARTESIAN_POINT('',(-0.000839979217787739,-0.012721675221117,0.00446409650684518));
#1564=CARTESIAN_POINT('',(-0.00114787750983916,-0.0127040953520284,0.00297484314201885));
#1565=CARTESIAN_POINT('',(-0.00217774170472591,-0.0125854769803399,0.00187598259851819));
#1566=CARTESIAN_POINT('',(-0.0035993381442242,-0.0122638240372814,0.00146208621713));
#1567=CARTESIAN_POINT('',(-0.00497246135911378,-0.011764918822507,0.00187567368209904));
#1568=CARTESIAN_POINT('',(-0.00590182168678123,-0.0113083743162987,0.00297422112421337));
#1569=CARTESIAN_POINT('',(-0.00617169048435431,-0.0111560429074567,0.00446096805818696));
#1570=CARTESIAN_POINT('',(-0.00586375550453054,-0.0113258549244496,0.00540315122787236));
#1571=CARTESIAN_POINT('',(-0.00560369860851685,-0.0114530939459062,0.00579919333848297));
#1572=CARTESIAN_POINT('',(0.,3.46944695195361E-18,0.00675));
#1573=CARTESIAN_POINT('',(0.,7.15323440473126E-19,0.00675));
#1574=CARTESIAN_POINT('',(-0.00726999597838321,-0.00914434508029751,0.00675));
#1575=CARTESIAN_POINT('',(0.00140795057798236,-0.00162486158486166,0.00675));
#1576=CARTESIAN_POINT('',(-0.00809024016868174,-0.00985509071708098,0.00675));
#1577=CARTESIAN_POINT('',(0.,7.80741867165133E-19,0.00675));
#1578=CARTESIAN_POINT('',(-0.0355163527616014,-0.0336199525593273,0.00829919333848297));
#1579=CARTESIAN_POINT('',(-0.0355163527616014,-0.0336199525593273,0.00579919333848297));
#1580=CARTESIAN_POINT('',(-0.00809024016868174,-0.00985509071708098,0.00579919333848297));
#1581=CARTESIAN_POINT('',(-0.00726999597838321,-0.00914434508029751,0.00579919333848297));
#1582=CARTESIAN_POINT('',(-0.00809024016868174,-0.00985509071708098,0.00675));
#1583=CARTESIAN_POINT('',(-0.00726999597838321,-0.00914434508029751,0.00675));
#1584=CARTESIAN_POINT('',(-0.0383322539175662,-0.030370229389604,0.00829919333848297));
#1585=CARTESIAN_POINT('',(-0.0100858971343479,-0.0058946219105742,0.00675));
#1586=CARTESIAN_POINT('',(-0.0100858971343479,-0.0058946219105742,0.00579919333848297));
#1587=CARTESIAN_POINT('',(-0.0100858971343479,-0.0058946219105742,0.00675));
#1588=CARTESIAN_POINT('',(-0.00140795057798236,0.00162486158486165,0.00675));
#1589=CARTESIAN_POINT('',(-0.0109061413246465,-0.00660536754735767,0.00675));
#1590=CARTESIAN_POINT('',(-0.0109061413246465,-0.00660536754735767,0.00675));
#1591=CARTESIAN_POINT('',(-0.0109061413246465,-0.00660536754735767,0.00579919333848297));
#1592=CARTESIAN_POINT('',(-0.0383322539175662,-0.030370229389604,0.00579919333848297));
#1593=CARTESIAN_POINT('',(-0.0369243033395838,-0.0319950909744657,0.00425));
#1594=CARTESIAN_POINT('',(-0.00726999597838321,-0.00914434508029751,0.00579919333848297));
#1595=CARTESIAN_POINT('',(-0.00704286843507757,-0.00932491747907649,0.0054033812118083));
#1596=CARTESIAN_POINT('',(-0.00675508582206778,-0.00952956218650023,0.00446419719308597));
#1597=CARTESIAN_POINT('',(-0.00701015049235591,-0.00935241848955006,0.00297425184707156));
#1598=CARTESIAN_POINT('',(-0.00782438583423781,-0.00870712320768777,0.00187634898175439));
#1599=CARTESIAN_POINT('',(-0.00885280518860697,-0.00767345510547852,0.00146192105474738));
#1600=CARTESIAN_POINT('',(-0.0097322684550497,-0.00650539796272127,0.00187596839189392));
#1601=CARTESIAN_POINT('',(-0.0102543053474286,-0.00560876062517847,0.00297358561157275));
#1602=CARTESIAN_POINT('',(-0.0103942118890841,-0.00532960072883543,0.00446050916427066));
#1603=CARTESIAN_POINT('',(-0.0102323197197694,-0.00564408792262547,0.0054033493845615));
#1604=CARTESIAN_POINT('',(-0.0100858971343479,-0.0058946219105742,0.00579919333848297));
#1605=CARTESIAN_POINT('',(-0.00809024016868174,-0.00985509071708098,0.00579919333848297));
#1606=CARTESIAN_POINT('',(-0.00786648066212189,-0.0100387793507084,0.00540317373543737));
#1607=CARTESIAN_POINT('',(-0.00758449237541806,-0.0102480271723451,0.00446409650684516));
#1608=CARTESIAN_POINT('',(-0.00783400850656416,-0.0100667756610597,0.00297484314201884));
#1609=CARTESIAN_POINT('',(-0.00863625546541404,-0.00941020091662623,0.00187598259851819));
#1610=CARTESIAN_POINT('',(-0.00965827978233006,-0.00837103618079042,0.00146208621713));
#1611=CARTESIAN_POINT('',(-0.0105436960147199,-0.00720896394894838,0.00187567368209904));
#1612=CARTESIAN_POINT('',(-0.011078697078602,-0.00632244414294508,0.00297422112421338));
#1613=CARTESIAN_POINT('',(-0.0112233685805608,-0.00604839271976991,0.00446096805818698));
#1614=CARTESIAN_POINT('',(-0.0110561244985826,-0.00635772989819756,0.00540315122787237));
#1615=CARTESIAN_POINT('',(-0.0109061413246465,-0.00660536754735767,0.00579919333848297));
#1616=CARTESIAN_POINT('',(0.,3.46944695195361E-18,0.00675));
#1617=CARTESIAN_POINT('',(0.,7.15323440473126E-19,0.00675));
#1618=CARTESIAN_POINT('',(-0.0110597159997915,-0.0037622560355757,0.00675));
#1619=CARTESIAN_POINT('',(0.00030597690228756,-0.002128116100044,0.00675));
#1620=CARTESIAN_POINT('',(-0.012134007424738,-0.00391671582390794,0.00675));
#1621=CARTESIAN_POINT('',(0.,7.80741867165133E-19,0.00675));
#1622=CARTESIAN_POINT('',(-0.0480545758684688,-0.00908131387407723,0.00829919333848297));
#1623=CARTESIAN_POINT('',(-0.0480545758684688,-0.00908131387407723,0.00579919333848297));
#1624=CARTESIAN_POINT('',(-0.012134007424738,-0.00391671582390794,0.00579919333848297));
#1625=CARTESIAN_POINT('',(-0.0110597159997915,-0.0037622560355757,0.00579919333848297));
#1626=CARTESIAN_POINT('',(-0.012134007424738,-0.00391671582390794,0.00675));
#1627=CARTESIAN_POINT('',(-0.0110597159997915,-0.0037622560355757,0.00675));
#1628=CARTESIAN_POINT('',(-0.0486665296730439,-0.00482508167398922,0.00829919333848297));
#1629=CARTESIAN_POINT('',(-0.0116716698043666,0.000493976164512306,0.00675));
#1630=CARTESIAN_POINT('',(-0.0116716698043666,0.000493976164512306,0.00579919333848297));
#1631=CARTESIAN_POINT('',(-0.0116716698043666,0.000493976164512306,0.00675));
#1632=CARTESIAN_POINT('',(-0.000305976902287566,0.002128116100044,0.00675));
#1633=CARTESIAN_POINT('',(-0.0127459612293131,0.000339516376180069,0.00675));
#1634=CARTESIAN_POINT('',(-0.0127459612293131,0.000339516376180069,0.00675));
#1635=CARTESIAN_POINT('',(-0.0127459612293131,0.000339516376180069,0.00579919333848297));
#1636=CARTESIAN_POINT('',(-0.0486665296730439,-0.00482508167398922,0.00579919333848297));
#1637=CARTESIAN_POINT('',(-0.0483605527707564,-0.00695319777403322,0.00425));
#1638=CARTESIAN_POINT('',(-0.0110597159997915,-0.0037622560355757,0.00579919333848297));
#1639=CARTESIAN_POINT('',(-0.0109662689608681,-0.00403695762465976,0.0054033812118083));
#1640=CARTESIAN_POINT('',(-0.0108348101028958,-0.00436470273490232,0.00446419719308597));
#1641=CARTESIAN_POINT('',(-0.0109536130447498,-0.00407778160217559,0.00297425184707156));
#1642=CARTESIAN_POINT('',(-0.0112897184339777,-0.00309471580575338,0.00187634898175439));
#1643=CARTESIAN_POINT('',(-0.0115960366813166,-0.00166913338256164,0.00146192105474738));
#1644=CARTESIAN_POINT('',(-0.0117043888927116,-0.000211027445376655,0.00187596839189392));
#1645=CARTESIAN_POINT('',(-0.0116587955295632,0.000825506334737277,0.00297358561157274));
#1646=CARTESIAN_POINT('',(-0.0116255671674374,0.00113598977080867,0.00446050916427067));
#1647=CARTESIAN_POINT('',(-0.0116593994215937,0.000783900793244683,0.0054033493845615));
#1648=CARTESIAN_POINT('',(-0.0116716698043666,0.000493976164512307,0.00579919333848297));
#1649=CARTESIAN_POINT('',(-0.012134007424738,-0.00391671582390794,0.00579919333848297));
#1650=CARTESIAN_POINT('',(-0.0120450785223816,-0.00419221805842792,0.00540317373543737));
#1651=CARTESIAN_POINT('',(-0.0119209827933154,-0.0045207029054535,0.00446409650684517));
#1652=CARTESIAN_POINT('',(-0.0120328971549141,-0.0042333258261425,0.00297484314201884));
#1653=CARTESIAN_POINT('',(-0.0123528191366984,-0.00324725255118623,0.00187598259851819));
#1654=CARTESIAN_POINT('',(-0.0126507858316901,-0.00182050348381378,0.00146208621713));
#1655=CARTESIAN_POINT('',(-0.0127673816838486,-0.000364213957703946,0.00187567368209904));
#1656=CARTESIAN_POINT('',(-0.0127381644262996,0.000670817373537975,0.00297422112421337));
#1657=CARTESIAN_POINT('',(-0.0127117064529721,0.000979579420542993,0.00446096805818698));
#1658=CARTESIAN_POINT('',(-0.0127382520831774,0.000628929449159424,0.00540315122787237));
#1659=CARTESIAN_POINT('',(-0.0127459612293131,0.00033951637618007,0.00579919333848297));
#1660=CARTESIAN_POINT('',(0.,3.46944695195361E-18,0.00675));
#1661=CARTESIAN_POINT('',(0.,7.15323440473126E-19,0.00675));
#1662=CARTESIAN_POINT('',(-0.011338054335485,0.00281432271761052,0.00675));
#1663=CARTESIAN_POINT('',(-0.000893142277954059,-0.00195570879001221,0.00675));
#1664=CARTESIAN_POINT('',(-0.0123253130582395,0.00326518866916428,0.00675));
#1665=CARTESIAN_POINT('',(0.,7.80741867165133E-19,0.00675));
#1666=CARTESIAN_POINT('',(-0.0453358106745054,0.0183405778006947,0.00829919333848297));
#1667=CARTESIAN_POINT('',(-0.0453358106745054,0.0183405778006947,0.00579919333848297));
#1668=CARTESIAN_POINT('',(-0.0123253130582395,0.00326518866916428,0.00579919333848297));
#1669=CARTESIAN_POINT('',(-0.011338054335485,0.00281432271761052,0.00579919333848297));
#1670=CARTESIAN_POINT('',(-0.0123253130582395,0.00326518866916428,0.00675));
#1671=CARTESIAN_POINT('',(-0.011338054335485,0.00281432271761052,0.00675));
#1672=CARTESIAN_POINT('',(-0.0435495261185972,0.0222519953807192,0.00829919333848297));
#1673=CARTESIAN_POINT('',(-0.00955176977957691,0.00672574029763495,0.00675));
#1674=CARTESIAN_POINT('',(-0.00955176977957691,0.00672574029763495,0.00579919333848297));
#1675=CARTESIAN_POINT('',(-0.00955176977957691,0.00672574029763495,0.00675));
#1676=CARTESIAN_POINT('',(0.000893142277954053,0.00195570879001221,0.00675));
#1677=CARTESIAN_POINT('',(-0.0105390285023314,0.00717660624918871,0.00675));
#1678=CARTESIAN_POINT('',(-0.0105390285023314,0.00717660624918871,0.00675));
#1679=CARTESIAN_POINT('',(-0.0105390285023314,0.00717660624918871,0.00579919333848297));
#1680=CARTESIAN_POINT('',(-0.0435495261185972,0.0222519953807192,0.00579919333848297));
#1681=CARTESIAN_POINT('',(-0.0444426683965513,0.0202962865907069,0.00425));
#1682=CARTESIAN_POINT('',(-0.011338054335485,0.00281432271761052,0.00579919333848297));
#1683=CARTESIAN_POINT('',(-0.0114079565755369,0.00253270775180689,0.00540338121180831));
#1684=CARTESIAN_POINT('',(-0.0114745587311643,0.00218591899551122,0.004464197193086));
#1685=CARTESIAN_POINT('',(-0.0114193808499671,0.0024915221316616,0.00297425184707157));
#1686=CARTESIAN_POINT('',(-0.0111706452002684,0.00350024199829066,0.00187634898175441));
#1687=CARTESIAN_POINT('',(-0.0106576084613881,0.00486512639578559,0.00146192105474738));
#1688=CARTESIAN_POINT('',(-0.00996044855619772,0.00615034279482633,0.0018759683918939));
#1689=CARTESIAN_POINT('',(-0.00936170050817433,0.00699768086612295,0.00297358561157272));
#1690=CARTESIAN_POINT('',(-0.00916588701246173,0.00724091154474116,0.00446050916427064));
#1691=CARTESIAN_POINT('',(-0.00938470218844161,0.00696300654603798,0.00540334938456149));
#1692=CARTESIAN_POINT('',(-0.00955176977957691,0.00672574029763495,0.00579919333848297));
#1693=CARTESIAN_POINT('',(-0.0123253130582395,0.00326518866916428,0.00579919333848297));
#1694=CARTESIAN_POINT('',(-0.0123994490582431,0.00298534284660607,0.00540317373543738));
#1695=CARTESIAN_POINT('',(-0.0124726454039746,0.00264191259215918,0.0044640965068452));
#1696=CARTESIAN_POINT('',(-0.0124114259769673,0.00294417504732399,0.00297484314201885));
#1697=CARTESIAN_POINT('',(-0.0121474500129302,0.00394667555526523,0.0018759825985182));
#1698=CARTESIAN_POINT('',(-0.0116267567656698,0.00530802620621075,0.00146208621713));
#1699=CARTESIAN_POINT('',(-0.0109375138783636,0.0065961713916986,0.00187567368209903));
#1700=CARTESIAN_POINT('',(-0.0103533545722161,0.00745109911369176,0.00297422112421336));
#1701=CARTESIAN_POINT('',(-0.0101641673431907,0.00769654201621092,0.00446096805818696));
#1702=CARTESIAN_POINT('',(-0.0103760746355517,0.00741590814021141,0.00540315122787237));
#1703=CARTESIAN_POINT('',(-0.0105390285023314,0.00717660624918871,0.00579919333848297));
#1704=CARTESIAN_POINT('',(0.,3.46944695195361E-18,0.00675));
#1705=CARTESIAN_POINT('',(0.,7.15323440473126E-19,0.00675));
#1706=CARTESIAN_POINT('',(-0.00801664053052586,0.0084973738930095,0.00675));
#1707=CARTESIAN_POINT('',(-0.00180869509558704,-0.00116237775752953,0.00675));
#1708=CARTESIAN_POINT('',(-0.00860341888225051,0.00941041883049754,0.00675));
#1709=CARTESIAN_POINT('',(0.,7.80741867165133E-19,0.00675));
#1710=CARTESIAN_POINT('',(-0.0282232459189176,0.0399394656120763,0.00829919333848297));
#1711=CARTESIAN_POINT('',(-0.0282232459189176,0.0399394656120763,0.00579919333848297));
#1712=CARTESIAN_POINT('',(-0.00860341888225051,0.00941041883049754,0.00579919333848297));
#1713=CARTESIAN_POINT('',(-0.00801664053052586,0.0084973738930095,0.00579919333848297));
#1714=CARTESIAN_POINT('',(-0.00860341888225051,0.00941041883049754,0.00675));
#1715=CARTESIAN_POINT('',(-0.00801664053052586,0.0084973738930095,0.00675));
#1716=CARTESIAN_POINT('',(-0.0246058557277435,0.0422642211271354,0.00829919333848297));
#1717=CARTESIAN_POINT('',(-0.00439925033935178,0.0108221294080686,0.00675));
#1718=CARTESIAN_POINT('',(-0.00439925033935178,0.0108221294080686,0.00579919333848297));
#1719=CARTESIAN_POINT('',(-0.00439925033935178,0.0108221294080686,0.00675));
#1720=CARTESIAN_POINT('',(0.00180869509558704,0.00116237775752954,0.00675));
#1721=CARTESIAN_POINT('',(-0.00498602869107643,0.0117351743455566,0.00675));
#1722=CARTESIAN_POINT('',(-0.00498602869107643,0.0117351743455566,0.00675));
#1723=CARTESIAN_POINT('',(-0.00498602869107643,0.0117351743455566,0.00579919333848297));
#1724=CARTESIAN_POINT('',(-0.0246058557277435,0.0422642211271354,0.00579919333848297));
#1725=CARTESIAN_POINT('',(-0.0264145508233306,0.0411018433696059,0.00425));
#1726=CARTESIAN_POINT('',(-0.00801664053052586,0.0084973738930095,0.00579919333848297));
#1727=CARTESIAN_POINT('',(-0.00822769858224212,0.00829825631233269,0.0054033812118083));
#1728=CARTESIAN_POINT('',(-0.00847121603764592,0.0080425268898156,0.00446419719308594));
#1729=CARTESIAN_POINT('',(-0.00825957592080929,0.00826978519295047,0.00297425184707155));
#1730=CARTESIAN_POINT('',(-0.00750497104348108,0.00898389769940569,0.00187634898175438));
#1731=CARTESIAN_POINT('',(-0.00633546485803182,0.00985474291881146,0.00146192105474738));
#1732=CARTESIAN_POINT('',(-0.00505413618025743,0.0105590226539177,0.00187596839189393));
#1733=CARTESIAN_POINT('',(-0.00409233172205495,0.010948141165765,0.00297358561157275));
#1734=CARTESIAN_POINT('',(-0.00379610249409226,0.0110468950650546,0.00446050916427069));
#1735=CARTESIAN_POINT('',(-0.00413042831959637,0.0109314069187175,0.0054033493845615));
#1736=CARTESIAN_POINT('',(-0.00439925033935178,0.0108221294080686,0.00579919333848297));
#1737=CARTESIAN_POINT('',(-0.00860341888225051,0.00941041883049754,0.00579919333848297));
#1738=CARTESIAN_POINT('',(-0.00881708212843291,0.00921507849126724,0.00540317373543737));
#1739=CARTESIAN_POINT('',(-0.00906433122637302,0.00896573950862379,0.00446409650684515));
#1740=CARTESIAN_POINT('',(-0.00884941474627879,0.009186921145812,0.00297484314201883));
#1741=CARTESIAN_POINT('',(-0.00808535133983706,0.00988756205879702,0.00187598259851818));
#1742=CARTESIAN_POINT('',(-0.00691131457728696,0.0107512950804844,0.00146208621713));
#1743=CARTESIAN_POINT('',(-0.00563506269727817,0.0114623189305569,0.00187567368209905));
#1744=CARTESIAN_POINT('',(-0.00468142779476158,0.011865709532199,0.00297422112421339));
#1745=CARTESIAN_POINT('',(-0.00438957691852079,0.0119699069028992,0.00446096805818698));
#1746=CARTESIAN_POINT('',(-0.00471956680497833,0.0118483883950493,0.00540315122787237));
#1747=CARTESIAN_POINT('',(-0.00498602869107643,0.0117351743455566,0.00579919333848297));
#1748=CARTESIAN_POINT('',(0.,0.,0.00075));
#1749=CARTESIAN_POINT('',(1.94700000000041E-6,6.23355711171177E-19,0.00075));
#1750=CARTESIAN_POINT('',(0.0101821183213178,6.23355711171177E-19,0.00075));
#1751=CARTESIAN_POINT('',(0.,7.15323440473126E-19,0.00075));
#1752=CARTESIAN_POINT('',(0.0116821183213178,7.15323440473126E-19,0.00075));
#1753=CARTESIAN_POINT('',(1.94700000000041E-6,6.23355711171177E-19,0.00075));
#1754=CARTESIAN_POINT('',(1.94700000000041E-6,6.23355711171177E-19,0.));
#1755=CARTESIAN_POINT('',(0.0101821183213178,6.23355711171177E-19,0.));
#1756=CARTESIAN_POINT('',(0.,9.03206547079868E-19,0.00075));
#1757=CARTESIAN_POINT('',(0.,9.03206547079868E-19,0.00075));
#1758=CARTESIAN_POINT('',(0.0147504823057344,9.03206547079868E-19,0.00075));
#1759=CARTESIAN_POINT('',(0.,9.03206547079868E-19,0.));
#1760=CARTESIAN_POINT('',(0.0147504823057344,9.03206547079868E-19,0.));
#1761=CARTESIAN_POINT('',(0.,0.,0.00075));
#1762=CARTESIAN_POINT('',(0.,7.80741867165133E-19,0.00075));
#1763=CARTESIAN_POINT('',(0.0127504823057344,7.80741867165133E-19,0.00075));
#1764=CARTESIAN_POINT('',(0.,0.,0.));
#1765=CARTESIAN_POINT('',(0.,7.15323440473126E-19,0.00675));
#1766=CARTESIAN_POINT('',(0.00215,0.0114825688969529,0.00675));
#1767=CARTESIAN_POINT('',(0.00215,0.0114825688969529,0.00579919333848297));
#1768=CARTESIAN_POINT('',(-0.00215,0.0114825688969529,0.00579919333848297));
#1769=CARTESIAN_POINT('',(-0.00243520442322566,0.0114291671263702,0.0054033812118083));
#1770=CARTESIAN_POINT('',(-0.0027783221069273,0.011345689322383,0.00446419719308598));
#1771=CARTESIAN_POINT('',(-0.00247741399616927,0.0114224498869875,0.00297425184707156));
#1772=CARTESIAN_POINT('',(-0.00145652160798007,0.0116152293581472,0.00187634898175439));
#1773=CARTESIAN_POINT('',(-1.85592650613511E-6,0.0117155481954007,0.00146192105474738));
#1774=CARTESIAN_POINT('',(0.0014568287220947,0.011615287426879,0.00187596839189392));
#1775=CARTESIAN_POINT('',(0.00247632347078257,0.0114226440011455,0.00297358561157274));
#1776=CARTESIAN_POINT('',(0.00277891774417288,0.0113455674558438,0.00446050916427066));
#1777=CARTESIAN_POINT('',(0.0024352273565088,0.0114291628323346,0.00540334938456149));
#1778=CARTESIAN_POINT('',(0.00215,0.0114825688969529,0.00579919333848297));
#1779=CARTESIAN_POINT('',(-0.00215,0.0114825688969529,0.00579919333848297));
#1780=CARTESIAN_POINT('',(-0.00215,0.0114825688969529,0.00675));
#1781=CARTESIAN_POINT('',(-0.00215,0.0114825688969529,0.00675));
#1782=CARTESIAN_POINT('',(0.,7.15323440473126E-19,0.00675));
#1783=CARTESIAN_POINT('',(0.,7.80741867165133E-19,0.00675));
#1784=CARTESIAN_POINT('',(0.,7.80741867165133E-19,0.00675));
#1785=CARTESIAN_POINT('',(-0.00215,0.01256790750399,0.00675));
#1786=CARTESIAN_POINT('',(-0.00215,0.01256790750399,0.00675));
#1787=CARTESIAN_POINT('',(-0.00215,0.01256790750399,0.00579919333848297));
#1788=CARTESIAN_POINT('',(-0.00215,0.01256790750399,0.00579919333848297));
#1789=CARTESIAN_POINT('',(-0.00243535392137065,0.0125190918255843,0.00540317373543738));
#1790=CARTESIAN_POINT('',(-0.00277815592990202,0.0124430074799885,0.00446409650684518));
#1791=CARTESIAN_POINT('',(-0.0024777768606235,0.0125128846921876,0.00297484314201885));
#1792=CARTESIAN_POINT('',(-0.00145621074470833,0.0126892174708357,0.00187598259851819));
#1793=CARTESIAN_POINT('',(-1.57884363090189E-6,0.0127811037317252,0.00146208621713));
#1794=CARTESIAN_POINT('',(0.00145648107474252,0.0126892611978387,0.00187567368209904));
#1795=CARTESIAN_POINT('',(0.00247681923014148,0.0125130410133303,0.00297422112421338));
#1796=CARTESIAN_POINT('',(0.00277867316251095,0.0124429109232376,0.00446096805818695));
#1797=CARTESIAN_POINT('',(0.00243537013931008,0.012519089051171,0.00540315122787237));
#1798=CARTESIAN_POINT('',(0.00215,0.01256790750399,0.00579919333848297));
#1799=CARTESIAN_POINT('',(0.00215,0.01256790750399,0.00579919333848297));
#1800=CARTESIAN_POINT('',(0.00215,0.01256790750399,0.00675));
#1801=CARTESIAN_POINT('',(0.,3.46944695195361E-18,0.00675));
#1802=CARTESIAN_POINT('',(-0.00215,3.46944695195361E-18,0.00675));
#1803=CARTESIAN_POINT('',(-4.44251402127582E-19,0.0488578552904027,0.00425));
#1804=CARTESIAN_POINT('',(0.00215,0.0488578552904027,0.00579919333848297));
#1805=CARTESIAN_POINT('',(-0.00215,0.0488578552904027,0.00579919333848297));
#1806=CARTESIAN_POINT('',(0.00215,0.0488578552904027,0.00829919333848297));
#1807=CARTESIAN_POINT('',(-0.00215,0.0488578552904027,0.00829919333848297));
#1808=MECHANICAL_DESIGN_GEOMETRIC_PRESENTATION_REPRESENTATION('',(#965),
#1809);
#1809=(
GEOMETRIC_REPRESENTATION_CONTEXT(3)
GLOBAL_UNCERTAINTY_ASSIGNED_CONTEXT((#1810))
GLOBAL_UNIT_ASSIGNED_CONTEXT((#1813,#1812,#1811))
REPRESENTATION_CONTEXT('CAGE','TOP_LEVEL_ASSEMBLY_PART')
);
#1810=UNCERTAINTY_MEASURE_WITH_UNIT(LENGTH_MEASURE(2.E-5),#1813,
'DISTANCE_ACCURACY_VALUE','Maximum Tolerance applied to model');
#1811=(
NAMED_UNIT(*)
SI_UNIT($,.STERADIAN.)
SOLID_ANGLE_UNIT()
);
#1812=(
NAMED_UNIT(*)
PLANE_ANGLE_UNIT()
SI_UNIT($,.RADIAN.)
);
#1813=(
LENGTH_UNIT()
NAMED_UNIT(*)
SI_UNIT($,.METRE.)
);
#1814=PRODUCT_DEFINITION_SHAPE('','',#1815);
#1815=PRODUCT_DEFINITION('','',#1817,#1816);
#1816=PRODUCT_DEFINITION_CONTEXT('',#1823,'design');
#1817=PRODUCT_DEFINITION_FORMATION_WITH_SPECIFIED_SOURCE('','',#1819,
 .NOT_KNOWN.);
#1818=PRODUCT_RELATED_PRODUCT_CATEGORY('','',(#1819));
#1819=PRODUCT('CAGE','CAGE','CAGE',(#1821));
#1820=PRODUCT_CATEGORY('','');
#1821=PRODUCT_CONTEXT('',#1823,'mechanical');
#1822=APPLICATION_PROTOCOL_DEFINITION('international standard',
'ap242_managed_model_based_3d_engineering',2020,#1823);
#1823=APPLICATION_CONTEXT('managed model based 3d engineering');
ENDSEC;
END-ISO-10303-21;
