ISO-10303-21;
HEADER;
/* Generated by software containing ST-Developer
 * from STEP Tools, Inc. (www.steptools.com) 
 */
/* OPTION: using custom renumber hook */

FILE_DESCRIPTION(
/* description */ ('STEP AP242 Edition 2',
'CAx-IF Rec.Pracs.---Representation and Presentation of Product Manufa
cturing Information (PMI)---4.0---2014-10-13',
'CAx-IF Rec.Pracs.---3D Tessellated Geometry---0.4---2014-09-14','2;1',
'CAx-IF Rec.Pracs.---User Defined Attributes---1.5---2016-08-15'),
/* implementation_level */ '2;1');

FILE_NAME(
/* name */ 'NYLON MJF Flex Spline and Wave Generator Copy 1 - WG',
/* time_stamp */ '2026-08-09T17:31:06Z',
/* author */ (''),
/* organization */ (''),
/* preprocessor_version */ 'ST-DEVELOPER v20',
/* originating_system */ 'ONSHAPE BY PTC INC, 1.219',
/* authorisation */ '  ');

FILE_SCHEMA (('AP242_MANAGED_MODEL_BASED_3D_ENGINEERING_MIM_LF { 1 0 10303 442 3 1 4 }'));
ENDSEC;

DATA;
#10=SHAPE_REPRESENTATION_RELATIONSHIP('','',#253,#11);
#11=ADVANCED_BREP_SHAPE_REPRESENTATION('',(#251),#1142);
#12=CONICAL_SURFACE('',#269,0.00365,0.785398163397449);
#13=LINE('',#828,#23);
#14=LINE('',#936,#24);
#15=LINE('',#956,#25);
#16=LINE('',#961,#26);
#17=LINE('',#1008,#27);
#18=LINE('',#1121,#28);
#19=LINE('',#1122,#29);
#20=LINE('',#1124,#30);
#21=LINE('',#1126,#31);
#22=LINE('',#1128,#32);
#23=VECTOR('',#285,1.);
#24=VECTOR('',#286,1.);
#25=VECTOR('',#287,1.);
#26=VECTOR('',#292,1.);
#27=VECTOR('',#295,1.);
#28=VECTOR('',#300,1.);
#29=VECTOR('',#301,1.);
#30=VECTOR('',#304,1.);
#31=VECTOR('',#305,1.);
#32=VECTOR('',#306,1.);
#33=PLANE('',#259);
#34=PLANE('',#261);
#35=PLANE('',#263);
#36=PLANE('',#264);
#37=PLANE('',#265);
#38=PLANE('',#266);
#39=PLANE('',#270);
#40=B_SPLINE_SURFACE_WITH_KNOTS('',3,1,((#716,#717),(#718,#719),(#720,#721),
(#722,#723),(#724,#725),(#726,#727),(#728,#729),(#730,#731),(#732,#733),
(#734,#735),(#736,#737),(#738,#739),(#740,#741),(#742,#743),(#744,#745),
(#746,#747),(#748,#749),(#750,#751),(#752,#753)),
 .SURF_OF_LINEAR_EXTRUSION.,.T.,.F.,.F.,(1,1,1,1,1,1,1,1,1,1,1,1,1,1,1,
1,1,1,1,1,1,1,1),(2,2),(-0.1875,-0.125,-0.0625,0.,0.0625,0.125,0.1875,0.25,
0.3125,0.375,0.4375,0.5,0.5625,0.625,0.6875,0.75,0.8125,0.875,0.9375,1.,
1.0625,1.125,1.1875),(0.,1.),.UNSPECIFIED.);
#41=B_SPLINE_SURFACE_WITH_KNOTS('',3,1,((#864,#865),(#866,#867),(#868,#869),
(#870,#871),(#872,#873),(#874,#875),(#876,#877),(#878,#879),(#880,#881),
(#882,#883),(#884,#885),(#886,#887),(#888,#889),(#890,#891),(#892,#893),
(#894,#895),(#896,#897),(#898,#899),(#900,#901)),
 .SURF_OF_LINEAR_EXTRUSION.,.T.,.F.,.F.,(1,1,1,1,1,1,1,1,1,1,1,1,1,1,1,
1,1,1,1,1,1,1,1),(2,2),(-0.1875,-0.125,-0.0625,0.,0.0625,0.125,0.1875,0.25,
0.3125,0.375,0.4375,0.5,0.5625,0.625,0.6875,0.75,0.8125,0.875,0.9375,1.,
1.0625,1.125,1.1875),(0.,1.),.UNSPECIFIED.);
#42=B_SPLINE_SURFACE_WITH_KNOTS('',3,1,((#902,#903),(#904,#905),(#906,#907),
(#908,#909),(#910,#911),(#912,#913),(#914,#915),(#916,#917),(#918,#919),
(#920,#921),(#922,#923),(#924,#925),(#926,#927),(#928,#929),(#930,#931),
(#932,#933),(#934,#935)),.SURF_OF_LINEAR_EXTRUSION.,.F.,.F.,.F.,(4,1,1,
1,1,1,1,1,1,1,1,1,1,1,4),(2,2),(0.732192878892377,0.830708767657503,0.879966712040066,
0.92922465642263,0.978482600805193,1.02774054518776,1.07699848957032,1.12625643395288,
1.17551437833545,1.22477232271801,1.27403026710057,1.32328821148313,1.3725461558657,
1.42180410024826,1.52031998901339),(0.,1.),.UNSPECIFIED.);
#43=B_SPLINE_SURFACE_WITH_KNOTS('',1,3,((#1032,#1033,#1034,#1035,#1036,
#1037,#1038,#1039,#1040,#1041,#1042,#1043,#1044,#1045,#1046,#1047,#1048,
#1049,#1050,#1051,#1052,#1053,#1054,#1055,#1056,#1057,#1058,#1059,#1060,
#1061,#1062,#1063,#1064,#1065,#1066,#1067,#1068,#1069,#1070,#1071,#1072,
#1073,#1074,#1075),(#1076,#1077,#1078,#1079,#1080,#1081,#1082,#1083,#1084,
#1085,#1086,#1087,#1088,#1089,#1090,#1091,#1092,#1093,#1094,#1095,#1096,
#1097,#1098,#1099,#1100,#1101,#1102,#1103,#1104,#1105,#1106,#1107,#1108,
#1109,#1110,#1111,#1112,#1113,#1114,#1115,#1116,#1117,#1118,#1119)),
 .RULED_SURF.,.F.,.T.,.F.,(2,2),(2,2,2,2,2,2,2,2,2,2,2,2,2,2,2,2,2,2,2,
2,2,2,2,2),(0.,1.),(-0.0020360922893202,0.000854855760224254,0.00374580380976871,
0.00663675185931316,0.00808222588408539,0.00952769990885761,0.0109731739336298,
0.0124186479584021,0.0153095960079465,0.018200544057491,0.0210914921070354,
0.0239824401565799,0.0254279141813521,0.0268733882061244,0.0283188622308965,
0.0297643362556688,0.031209810280441,0.0326552843052133,0.0355462323547577,
0.0384371804043021,0.0413281284538466,0.0442190765033911,0.0471100245529355,
0.05000097260248),.UNSPECIFIED.);
#44=(
BOUNDED_SURFACE()
B_SPLINE_SURFACE(3,3,((#339,#340,#341,#342,#343,#344,#345,#346,#347,#348,
#349,#350,#351,#352,#353,#354,#355,#356,#357,#358,#359,#360,#361,#362,#363,
#364,#365,#366,#367,#368,#369,#370,#371,#372),(#373,#374,#375,#376,#377,
#378,#379,#380,#381,#382,#383,#384,#385,#386,#387,#388,#389,#390,#391,#392,
#393,#394,#395,#396,#397,#398,#399,#400,#401,#402,#403,#404,#405,#406),
(#407,#408,#409,#410,#411,#412,#413,#414,#415,#416,#417,#418,#419,#420,
#421,#422,#423,#424,#425,#426,#427,#428,#429,#430,#431,#432,#433,#434,#435,
#436,#437,#438,#439,#440),(#441,#442,#443,#444,#445,#446,#447,#448,#449,
#450,#451,#452,#453,#454,#455,#456,#457,#458,#459,#460,#461,#462,#463,#464,
#465,#466,#467,#468,#469,#470,#471,#472,#473,#474)),.UNSPECIFIED.,.F.,.T.,
 .F.)
B_SPLINE_SURFACE_WITH_KNOTS((4,4),(2,2,2,2,2,2,2,2,2,2,2,2,2,2,2,2,2,2,
2),(0.,1.),(-0.0625,0.,0.0625,0.125,0.1875,0.25,0.3125,0.375,0.4375,0.5,
0.5625,0.625,0.6875,0.75,0.8125,0.875,0.9375,1.,1.0625),.UNSPECIFIED.)
GEOMETRIC_REPRESENTATION_ITEM()
RATIONAL_B_SPLINE_SURFACE(((1.,1.,1.,1.,1.,1.,1.,1.,1.,1.,1.,1.,1.,1.,1.,
1.,1.,1.,1.,1.,1.,1.,1.,1.,1.,1.,1.,1.,1.,1.,1.,1.,1.,1.),(0.855726500307202,
0.855726500307202,0.855726500307202,0.855726500307202,0.855726500307202,
0.855726500307202,0.855726500307202,0.855726500307202,0.855726500307202,
0.855726500307202,0.855726500307202,0.855726500307202,0.855726500307202,
0.855726500307202,0.855726500307202,0.855726500307202,0.855726500307202,
0.855726500307202,0.855726500307202,0.855726500307202,0.855726500307202,
0.855726500307202,0.855726500307202,0.855726500307202,0.855726500307202,
0.855726500307202,0.855726500307202,0.855726500307202,0.855726500307202,
0.855726500307202,0.855726500307202,0.855726500307202,0.855726500307202,
0.855726500307202),(0.855726500307202,0.855726500307202,0.855726500307202,
0.855726500307202,0.855726500307202,0.855726500307202,0.855726500307202,
0.855726500307202,0.855726500307202,0.855726500307202,0.855726500307202,
0.855726500307202,0.855726500307202,0.855726500307202,0.855726500307202,
0.855726500307202,0.855726500307202,0.855726500307202,0.855726500307202,
0.855726500307202,0.855726500307202,0.855726500307202,0.855726500307202,
0.855726500307202,0.855726500307202,0.855726500307202,0.855726500307202,
0.855726500307202,0.855726500307202,0.855726500307202,0.855726500307202,
0.855726500307202,0.855726500307202,0.855726500307202),(1.,1.,1.,1.,1.,
1.,1.,1.,1.,1.,1.,1.,1.,1.,1.,1.,1.,1.,1.,1.,1.,1.,1.,1.,1.,1.,1.,1.,1.,
1.,1.,1.,1.,1.)))
REPRESENTATION_ITEM('')
SURFACE()
);
#45=(
BOUNDED_SURFACE()
B_SPLINE_SURFACE(3,3,((#545,#546,#547,#548,#549,#550,#551,#552,#553,#554,
#555,#556,#557,#558,#559,#560,#561,#562,#563,#564,#565,#566,#567,#568,#569,
#570,#571,#572,#573,#574,#575,#576,#577,#578),(#579,#580,#581,#582,#583,
#584,#585,#586,#587,#588,#589,#590,#591,#592,#593,#594,#595,#596,#597,#598,
#599,#600,#601,#602,#603,#604,#605,#606,#607,#608,#609,#610,#611,#612),
(#613,#614,#615,#616,#617,#618,#619,#620,#621,#622,#623,#624,#625,#626,
#627,#628,#629,#630,#631,#632,#633,#634,#635,#636,#637,#638,#639,#640,#641,
#642,#643,#644,#645,#646),(#647,#648,#649,#650,#651,#652,#653,#654,#655,
#656,#657,#658,#659,#660,#661,#662,#663,#664,#665,#666,#667,#668,#669,#670,
#671,#672,#673,#674,#675,#676,#677,#678,#679,#680)),.UNSPECIFIED.,.F.,.T.,
 .F.)
B_SPLINE_SURFACE_WITH_KNOTS((4,4),(2,2,2,2,2,2,2,2,2,2,2,2,2,2,2,2,2,2,
2),(0.,1.),(-0.0625,0.,0.0625,0.125,0.1875,0.25,0.3125,0.375,0.4375,0.5,
0.5625,0.625,0.6875,0.75,0.8125,0.875,0.9375,1.,1.0625),.UNSPECIFIED.)
GEOMETRIC_REPRESENTATION_ITEM()
RATIONAL_B_SPLINE_SURFACE(((1.,1.,1.,1.,1.,1.,1.,1.,1.,1.,1.,1.,1.,1.,1.,
1.,1.,1.,1.,1.,1.,1.,1.,1.,1.,1.,1.,1.,1.,1.,1.,1.,1.,1.),(0.68739236973073,
0.68739236973073,0.68739236973073,0.68739236973073,0.68739236973073,0.68739236973073,
0.68739236973073,0.68739236973073,0.68739236973073,0.68739236973073,0.68739236973073,
0.68739236973073,0.68739236973073,0.68739236973073,0.68739236973073,0.68739236973073,
0.68739236973073,0.68739236973073,0.68739236973073,0.68739236973073,0.68739236973073,
0.68739236973073,0.68739236973073,0.68739236973073,0.68739236973073,0.68739236973073,
0.68739236973073,0.68739236973073,0.68739236973073,0.68739236973073,0.68739236973073,
0.68739236973073,0.68739236973073,0.68739236973073),(0.68739236973073,0.68739236973073,
0.68739236973073,0.68739236973073,0.68739236973073,0.68739236973073,0.68739236973073,
0.68739236973073,0.68739236973073,0.68739236973073,0.68739236973073,0.68739236973073,
0.68739236973073,0.68739236973073,0.68739236973073,0.68739236973073,0.68739236973073,
0.68739236973073,0.68739236973073,0.68739236973073,0.68739236973073,0.68739236973073,
0.68739236973073,0.68739236973073,0.68739236973073,0.68739236973073,0.68739236973073,
0.68739236973073,0.68739236973073,0.68739236973073,0.68739236973073,0.68739236973073,
0.68739236973073,0.68739236973073),(1.,1.,1.,1.,1.,1.,1.,1.,1.,1.,1.,1.,
1.,1.,1.,1.,1.,1.,1.,1.,1.,1.,1.,1.,1.,1.,1.,1.,1.,1.,1.,1.,1.,1.)))
REPRESENTATION_ITEM('')
SURFACE()
);
#46=B_SPLINE_CURVE_WITH_KNOTS('',3,(#322,#323,#324,#325,#326,#327,#328),
 .UNSPECIFIED.,.F.,.F.,(4,1,1,1,4),(0.,0.000991225884243144,0.00198245176848629,
0.00297367765272943,0.00396490353697257),.UNSPECIFIED.);
#47=B_SPLINE_CURVE_WITH_KNOTS('',3,(#332,#333,#334,#335,#336,#337,#338),
 .UNSPECIFIED.,.F.,.F.,(4,1,1,1,4),(0.,0.00099112328525483,0.00198224657050966,
0.00297336985576449,0.00396449314101932),.UNSPECIFIED.);
#48=B_SPLINE_CURVE_WITH_KNOTS('',3,(#475,#476,#477,#478,#479,#480,#481,
#482,#483,#484,#485,#486,#487,#488,#489,#490,#491,#492,#493,#494,#495,#496,
#497,#498,#499,#500,#501,#502,#503,#504,#505,#506,#507,#508),
 .UNSPECIFIED.,.T.,.F.,(2,2,2,2,2,2,2,2,2,2,2,2,2,2,2,2,2,2,2),(-0.0625,
0.,0.0625,0.125,0.1875,0.25,0.3125,0.375,0.4375,0.5,0.5625,0.625,0.6875,
0.75,0.8125,0.875,0.9375,1.,1.0625),.UNSPECIFIED.);
#49=B_SPLINE_CURVE_WITH_KNOTS('',3,(#510,#511,#512,#513,#514,#515,#516,
#517,#518,#519,#520,#521,#522,#523,#524,#525,#526,#527,#528,#529,#530,#531,
#532,#533,#534,#535,#536,#537,#538,#539,#540,#541,#542,#543),
 .UNSPECIFIED.,.T.,.F.,(2,2,2,2,2,2,2,2,2,2,2,2,2,2,2,2,2,2,2),(-0.0625,
0.,0.0625,0.125,0.1875,0.25,0.3125,0.375,0.4375,0.5,0.5625,0.625,0.6875,
0.75,0.8125,0.875,0.9375,1.,1.0625),.UNSPECIFIED.);
#50=B_SPLINE_CURVE_WITH_KNOTS('',3,(#681,#682,#683,#684,#685,#686,#687,
#688,#689,#690,#691,#692,#693,#694,#695,#696,#697,#698,#699,#700,#701,#702,
#703,#704,#705,#706,#707,#708,#709,#710,#711,#712,#713,#714),
 .UNSPECIFIED.,.T.,.F.,(2,2,2,2,2,2,2,2,2,2,2,2,2,2,2,2,2,2,2),(-0.0625,
0.,0.0625,0.125,0.1875,0.25,0.3125,0.375,0.4375,0.5,0.5625,0.625,0.6875,
0.75,0.8125,0.875,0.9375,1.,1.0625),.UNSPECIFIED.);
#51=B_SPLINE_CURVE_WITH_KNOTS('',3,(#754,#755,#756,#757,#758,#759,#760,
#761,#762,#763,#764,#765,#766,#767,#768,#769,#770,#771,#772,#773,#774,#775,
#776,#777,#778,#779,#780,#781,#782,#783,#784,#785,#786,#787),
 .UNSPECIFIED.,.T.,.F.,(2,2,2,2,2,2,2,2,2,2,2,2,2,2,2,2,2,2,2),(-0.0625,
0.,0.0625,0.125,0.1875,0.25,0.3125,0.375,0.4375,0.5,0.5625,0.625,0.6875,
0.75,0.8125,0.875,0.9375,1.,1.0625),.UNSPECIFIED.);
#52=B_SPLINE_CURVE_WITH_KNOTS('',3,(#790,#791,#792,#793,#794,#795,#796,
#797,#798,#799,#800,#801,#802,#803,#804,#805,#806,#807,#808,#809,#810,#811,
#812,#813,#814,#815,#816,#817,#818,#819,#820,#821,#822,#823),
 .UNSPECIFIED.,.T.,.F.,(2,2,2,2,2,2,2,2,2,2,2,2,2,2,2,2,2,2,2),(-0.0625,
0.,0.0625,0.125,0.1875,0.25,0.3125,0.375,0.4375,0.5,0.5625,0.625,0.6875,
0.75,0.8125,0.875,0.9375,1.,1.0625),.UNSPECIFIED.);
#53=B_SPLINE_CURVE_WITH_KNOTS('',3,(#829,#830,#831,#832,#833,#834,#835,
#836,#837,#838,#839,#840,#841,#842,#843,#844,#845,#846,#847,#848,#849,#850,
#851,#852,#853,#854,#855,#856,#857,#858,#859,#860,#861,#862),
 .UNSPECIFIED.,.T.,.F.,(2,2,2,2,2,2,2,2,2,2,2,2,2,2,2,2,2,2,2),(-0.0625,
0.,0.0625,0.125,0.1875,0.25,0.3125,0.375,0.4375,0.5,0.5625,0.625,0.6875,
0.75,0.8125,0.875,0.9375,1.,1.0625),.UNSPECIFIED.);
#54=B_SPLINE_CURVE_WITH_KNOTS('',3,(#938,#939,#940,#941,#942,#943,#944,
#945,#946,#947,#948,#949,#950,#951,#952,#953,#954),.UNSPECIFIED.,.F.,.F.,
(4,1,1,1,1,1,1,1,1,1,1,1,1,1,4),(0.,0.125,0.1875,0.25,0.3125,0.375,0.4375,
0.5,0.5625,0.625,0.6875,0.75,0.8125,0.875,1.),.UNSPECIFIED.);
#55=B_SPLINE_CURVE_WITH_KNOTS('',3,(#962,#963,#964,#965,#966,#967,#968,
#969,#970,#971,#972,#973,#974,#975,#976,#977,#978,#979,#980,#981,#982,#983,
#984,#985,#986,#987,#988,#989,#990,#991,#992,#993,#994,#995,#996,#997,#998,
#999,#1000,#1001,#1002,#1003,#1004,#1005),.UNSPECIFIED.,.T.,.F.,(2,2,2,
2,2,2,2,2,2,2,2,2,2,2,2,2,2,2,2,2,2,2,2,2),(-0.0020360922893202,0.000854855760224254,
0.00374580380976871,0.00663675185931316,0.00808222588408539,0.00952769990885761,
0.0109731739336298,0.0124186479584021,0.0153095960079465,0.018200544057491,
0.0210914921070354,0.0239824401565799,0.0254279141813521,0.0268733882061244,
0.0283188622308965,0.0297643362556688,0.031209810280441,0.0326552843052133,
0.0355462323547577,0.0384371804043021,0.0413281284538466,0.0442190765033911,
0.0471100245529355,0.05000097260248),.UNSPECIFIED.);
#56=B_SPLINE_CURVE_WITH_KNOTS('',3,(#1010,#1011,#1012,#1013,#1014,#1015,
#1016,#1017,#1018,#1019,#1020),.UNSPECIFIED.,.F.,.F.,(4,1,1,1,1,1,1,1,4),
(0.,0.25,0.375,0.4375,0.5,0.5625,0.625,0.75,1.),.UNSPECIFIED.);
#57=B_SPLINE_CURVE_WITH_KNOTS('',3,(#1021,#1022,#1023,#1024,#1025,#1026,
#1027,#1028,#1029,#1030,#1031),.UNSPECIFIED.,.F.,.F.,(4,1,1,1,1,1,1,1,4),
(0.,0.25,0.375,0.4375,0.5,0.5625,0.625,0.75,1.),.UNSPECIFIED.);
#58=B_SPLINE_CURVE_WITH_KNOTS('',3,(#1132,#1133,#1134,#1135),
 .UNSPECIFIED.,.F.,.F.,(4,4),(0.,0.00144459588022593),.UNSPECIFIED.);
#59=B_SPLINE_CURVE_WITH_KNOTS('',3,(#1136,#1137,#1138,#1139),
 .UNSPECIFIED.,.F.,.F.,(4,4),(0.,0.00144459588022593),.UNSPECIFIED.);
#60=ORIENTED_EDGE('',*,*,#120,.F.);
#61=ORIENTED_EDGE('',*,*,#121,.T.);
#62=ORIENTED_EDGE('',*,*,#122,.T.);
#63=ORIENTED_EDGE('',*,*,#123,.T.);
#64=ORIENTED_EDGE('',*,*,#124,.T.);
#65=ORIENTED_EDGE('',*,*,#125,.T.);
#66=ORIENTED_EDGE('',*,*,#126,.F.);
#67=ORIENTED_EDGE('',*,*,#126,.T.);
#68=ORIENTED_EDGE('',*,*,#127,.F.);
#69=ORIENTED_EDGE('',*,*,#127,.T.);
#70=ORIENTED_EDGE('',*,*,#128,.F.);
#71=ORIENTED_EDGE('',*,*,#129,.F.);
#72=ORIENTED_EDGE('',*,*,#130,.T.);
#73=ORIENTED_EDGE('',*,*,#131,.T.);
#74=ORIENTED_EDGE('',*,*,#132,.F.);
#75=ORIENTED_EDGE('',*,*,#132,.T.);
#76=ORIENTED_EDGE('',*,*,#125,.F.);
#77=ORIENTED_EDGE('',*,*,#133,.T.);
#78=ORIENTED_EDGE('',*,*,#134,.T.);
#79=ORIENTED_EDGE('',*,*,#135,.T.);
#80=ORIENTED_EDGE('',*,*,#129,.T.);
#81=ORIENTED_EDGE('',*,*,#136,.T.);
#82=ORIENTED_EDGE('',*,*,#137,.T.);
#83=ORIENTED_EDGE('',*,*,#138,.F.);
#84=ORIENTED_EDGE('',*,*,#128,.T.);
#85=ORIENTED_EDGE('',*,*,#139,.T.);
#86=ORIENTED_EDGE('',*,*,#120,.T.);
#87=ORIENTED_EDGE('',*,*,#140,.T.);
#88=ORIENTED_EDGE('',*,*,#141,.T.);
#89=ORIENTED_EDGE('',*,*,#133,.F.);
#90=ORIENTED_EDGE('',*,*,#139,.F.);
#91=ORIENTED_EDGE('',*,*,#135,.F.);
#92=ORIENTED_EDGE('',*,*,#140,.F.);
#93=ORIENTED_EDGE('',*,*,#134,.F.);
#94=ORIENTED_EDGE('',*,*,#141,.F.);
#95=ORIENTED_EDGE('',*,*,#138,.T.);
#96=ORIENTED_EDGE('',*,*,#142,.T.);
#97=ORIENTED_EDGE('',*,*,#121,.F.);
#98=ORIENTED_EDGE('',*,*,#143,.F.);
#99=ORIENTED_EDGE('',*,*,#137,.F.);
#100=ORIENTED_EDGE('',*,*,#144,.T.);
#101=ORIENTED_EDGE('',*,*,#145,.T.);
#102=ORIENTED_EDGE('',*,*,#146,.F.);
#103=ORIENTED_EDGE('',*,*,#123,.F.);
#104=ORIENTED_EDGE('',*,*,#146,.T.);
#105=ORIENTED_EDGE('',*,*,#147,.T.);
#106=ORIENTED_EDGE('',*,*,#144,.F.);
#107=ORIENTED_EDGE('',*,*,#122,.F.);
#108=ORIENTED_EDGE('',*,*,#142,.F.);
#109=ORIENTED_EDGE('',*,*,#136,.F.);
#110=ORIENTED_EDGE('',*,*,#143,.T.);
#111=ORIENTED_EDGE('',*,*,#124,.F.);
#112=ORIENTED_EDGE('',*,*,#148,.F.);
#113=ORIENTED_EDGE('',*,*,#147,.F.);
#114=ORIENTED_EDGE('',*,*,#149,.F.);
#115=ORIENTED_EDGE('',*,*,#130,.F.);
#116=ORIENTED_EDGE('',*,*,#149,.T.);
#117=ORIENTED_EDGE('',*,*,#145,.F.);
#118=ORIENTED_EDGE('',*,*,#148,.T.);
#119=ORIENTED_EDGE('',*,*,#131,.F.);
#120=EDGE_CURVE('',#150,#150,#170,.T.);
#121=EDGE_CURVE('',#151,#152,#171,.T.);
#122=EDGE_CURVE('',#152,#153,#46,.T.);
#123=EDGE_CURVE('',#153,#154,#172,.T.);
#124=EDGE_CURVE('',#154,#151,#47,.T.);
#125=EDGE_CURVE('',#155,#155,#48,.T.);
#126=EDGE_CURVE('',#156,#156,#49,.T.);
#127=EDGE_CURVE('',#157,#157,#50,.T.);
#128=EDGE_CURVE('',#158,#159,#51,.T.);
#129=EDGE_CURVE('',#159,#158,#52,.T.);
#130=EDGE_CURVE('',#160,#161,#173,.T.);
#131=EDGE_CURVE('',#161,#160,#13,.F.);
#132=EDGE_CURVE('',#162,#162,#53,.T.);
#133=EDGE_CURVE('',#158,#163,#14,.F.);
#134=EDGE_CURVE('',#163,#164,#54,.T.);
#135=EDGE_CURVE('',#164,#159,#15,.T.);
#136=EDGE_CURVE('',#165,#166,#174,.F.);
#137=EDGE_CURVE('',#166,#165,#16,.T.);
#138=EDGE_CURVE('',#167,#167,#55,.F.);
#139=EDGE_CURVE('',#159,#158,#17,.T.);
#140=EDGE_CURVE('',#164,#167,#56,.T.);
#141=EDGE_CURVE('',#167,#163,#57,.T.);
#142=EDGE_CURVE('',#166,#152,#18,.T.);
#143=EDGE_CURVE('',#165,#151,#19,.T.);
#144=EDGE_CURVE('',#153,#168,#20,.T.);
#145=EDGE_CURVE('',#168,#169,#21,.T.);
#146=EDGE_CURVE('',#154,#169,#22,.T.);
#147=EDGE_CURVE('',#169,#168,#175,.T.);
#148=EDGE_CURVE('',#168,#160,#58,.F.);
#149=EDGE_CURVE('',#161,#169,#59,.F.);
#150=VERTEX_POINT('',#318);
#151=VERTEX_POINT('',#320);
#152=VERTEX_POINT('',#321);
#153=VERTEX_POINT('',#329);
#154=VERTEX_POINT('',#331);
#155=VERTEX_POINT('',#509);
#156=VERTEX_POINT('',#544);
#157=VERTEX_POINT('',#715);
#158=VERTEX_POINT('',#788);
#159=VERTEX_POINT('',#789);
#160=VERTEX_POINT('',#826);
#161=VERTEX_POINT('',#827);
#162=VERTEX_POINT('',#863);
#163=VERTEX_POINT('',#937);
#164=VERTEX_POINT('',#955);
#165=VERTEX_POINT('',#959);
#166=VERTEX_POINT('',#960);
#167=VERTEX_POINT('',#1006);
#168=VERTEX_POINT('',#1125);
#169=VERTEX_POINT('',#1127);
#170=CIRCLE('',#256,0.00225);
#171=CIRCLE('',#257,0.00225);
#172=CIRCLE('',#258,0.00225);
#173=CIRCLE('',#260,0.00365);
#174=CIRCLE('',#262,0.00265);
#175=CIRCLE('',#268,0.00265);
#176=EDGE_LOOP('',(#60));
#177=EDGE_LOOP('',(#61,#62,#63,#64));
#178=EDGE_LOOP('',(#65));
#179=EDGE_LOOP('',(#66));
#180=EDGE_LOOP('',(#67));
#181=EDGE_LOOP('',(#68));
#182=EDGE_LOOP('',(#69));
#183=EDGE_LOOP('',(#70,#71));
#184=EDGE_LOOP('',(#72,#73));
#185=EDGE_LOOP('',(#74));
#186=EDGE_LOOP('',(#75));
#187=EDGE_LOOP('',(#76));
#188=EDGE_LOOP('',(#77,#78,#79,#80));
#189=EDGE_LOOP('',(#81,#82));
#190=EDGE_LOOP('',(#83));
#191=EDGE_LOOP('',(#84,#85));
#192=EDGE_LOOP('',(#86));
#193=EDGE_LOOP('',(#87,#88,#89,#90,#91));
#194=EDGE_LOOP('',(#92,#93,#94,#95));
#195=EDGE_LOOP('',(#96,#97,#98,#99));
#196=EDGE_LOOP('',(#100,#101,#102,#103));
#197=EDGE_LOOP('',(#104,#105,#106,#107,#108,#109,#110,#111));
#198=EDGE_LOOP('',(#112,#113,#114,#115));
#199=EDGE_LOOP('',(#116,#117,#118,#119));
#200=FACE_BOUND('',#176,.T.);
#201=FACE_BOUND('',#177,.T.);
#202=FACE_BOUND('',#178,.T.);
#203=FACE_BOUND('',#179,.T.);
#204=FACE_BOUND('',#180,.T.);
#205=FACE_BOUND('',#181,.T.);
#206=FACE_BOUND('',#182,.T.);
#207=FACE_BOUND('',#183,.T.);
#208=FACE_BOUND('',#184,.T.);
#209=FACE_BOUND('',#185,.T.);
#210=FACE_BOUND('',#186,.T.);
#211=FACE_BOUND('',#187,.T.);
#212=FACE_BOUND('',#188,.T.);
#213=FACE_BOUND('',#189,.T.);
#214=FACE_BOUND('',#190,.T.);
#215=FACE_BOUND('',#191,.T.);
#216=FACE_BOUND('',#192,.T.);
#217=FACE_BOUND('',#193,.T.);
#218=FACE_BOUND('',#194,.T.);
#219=FACE_BOUND('',#195,.T.);
#220=FACE_BOUND('',#196,.T.);
#221=FACE_BOUND('',#197,.T.);
#222=FACE_BOUND('',#198,.T.);
#223=FACE_BOUND('',#199,.T.);
#224=CYLINDRICAL_SURFACE('',#255,0.00225);
#225=CYLINDRICAL_SURFACE('',#267,0.00265);
#226=ADVANCED_FACE('',(#200,#201),#224,.F.);
#227=ADVANCED_FACE('',(#202,#203),#44,.T.);
#228=ADVANCED_FACE('',(#204,#205),#45,.T.);
#229=ADVANCED_FACE('',(#206,#207),#40,.T.);
#230=ADVANCED_FACE('',(#208,#209),#33,.F.);
#231=ADVANCED_FACE('',(#210,#211),#41,.T.);
#232=ADVANCED_FACE('',(#212),#42,.F.);
#233=ADVANCED_FACE('',(#213,#214),#34,.T.);
#234=ADVANCED_FACE('',(#215),#35,.T.);
#235=ADVANCED_FACE('',(#216,#217),#36,.F.);
#236=ADVANCED_FACE('',(#218),#43,.T.);
#237=ADVANCED_FACE('',(#219),#37,.T.);
#238=ADVANCED_FACE('',(#220),#38,.T.);
#239=ADVANCED_FACE('',(#221),#225,.F.);
#240=ADVANCED_FACE('',(#222),#12,.F.);
#241=ADVANCED_FACE('',(#223),#39,.T.);
#242=CLOSED_SHELL('',(#226,#227,#228,#229,#230,#231,#232,#233,#234,#235,
#236,#237,#238,#239,#240,#241));
#243=STYLED_ITEM('',(#244),#251);
#244=PRESENTATION_STYLE_ASSIGNMENT((#245));
#245=SURFACE_STYLE_USAGE(.BOTH.,#246);
#246=SURFACE_SIDE_STYLE('',(#247));
#247=SURFACE_STYLE_FILL_AREA(#248);
#248=FILL_AREA_STYLE('',(#249));
#249=FILL_AREA_STYLE_COLOUR('',#250);
#250=COLOUR_RGB('',0.647058823529412,0.647058823529412,0.647058823529412);
#251=MANIFOLD_SOLID_BREP('WG',#242);
#252=SHAPE_DEFINITION_REPRESENTATION(#1147,#253);
#253=SHAPE_REPRESENTATION('WG',(#254),#1142);
#254=AXIS2_PLACEMENT_3D('',#315,#271,#272);
#255=AXIS2_PLACEMENT_3D('',#316,#273,#274);
#256=AXIS2_PLACEMENT_3D('',#317,#275,#276);
#257=AXIS2_PLACEMENT_3D('',#319,#277,#278);
#258=AXIS2_PLACEMENT_3D('',#330,#279,#280);
#259=AXIS2_PLACEMENT_3D('',#824,#281,#282);
#260=AXIS2_PLACEMENT_3D('',#825,#283,#284);
#261=AXIS2_PLACEMENT_3D('',#957,#288,#289);
#262=AXIS2_PLACEMENT_3D('',#958,#290,#291);
#263=AXIS2_PLACEMENT_3D('',#1007,#293,#294);
#264=AXIS2_PLACEMENT_3D('',#1009,#296,#297);
#265=AXIS2_PLACEMENT_3D('',#1120,#298,#299);
#266=AXIS2_PLACEMENT_3D('',#1123,#302,#303);
#267=AXIS2_PLACEMENT_3D('',#1129,#307,#308);
#268=AXIS2_PLACEMENT_3D('',#1130,#309,#310);
#269=AXIS2_PLACEMENT_3D('',#1131,#311,#312);
#270=AXIS2_PLACEMENT_3D('',#1140,#313,#314);
#271=DIRECTION('',(0.,0.,1.));
#272=DIRECTION('',(1.,0.,0.));
#273=DIRECTION('',(1.,1.7347234759768E-16,0.));
#274=DIRECTION('',(-1.7347234759768E-16,1.,0.));
#275=DIRECTION('',(1.,1.7347234759768E-16,0.));
#276=DIRECTION('',(-1.7347234759768E-16,1.,0.));
#277=DIRECTION('',(1.,0.,0.));
#278=DIRECTION('',(0.,0.,-1.));
#279=DIRECTION('',(1.,0.,0.));
#280=DIRECTION('',(0.,0.,-1.));
#281=DIRECTION('',(0.,0.,1.));
#282=DIRECTION('',(1.,0.,0.));
#283=DIRECTION('',(0.,0.,1.));
#284=DIRECTION('',(1.,0.,0.));
#285=DIRECTION('',(0.,1.,0.));
#286=DIRECTION('',(0.,0.,-1.));
#287=DIRECTION('',(0.,0.,-1.));
#288=DIRECTION('',(0.,0.,1.));
#289=DIRECTION('',(1.,0.,0.));
#290=DIRECTION('',(0.,0.,1.));
#291=DIRECTION('',(1.,0.,0.));
#292=DIRECTION('',(0.,1.,0.));
#293=DIRECTION('',(0.,0.,1.));
#294=DIRECTION('',(1.,0.,0.));
#295=DIRECTION('',(-1.7347234759768E-16,1.,0.));
#296=DIRECTION('',(1.,1.7347234759768E-16,0.));
#297=DIRECTION('',(-1.7347234759768E-16,1.,0.));
#298=DIRECTION('',(1.,0.,0.));
#299=DIRECTION('',(0.,0.,-1.));
#300=DIRECTION('',(0.,0.,-1.));
#301=DIRECTION('',(0.,0.,-1.));
#302=DIRECTION('',(1.,0.,0.));
#303=DIRECTION('',(0.,0.,-1.));
#304=DIRECTION('',(0.,0.,-1.));
#305=DIRECTION('',(0.,1.,0.));
#306=DIRECTION('',(0.,0.,-1.));
#307=DIRECTION('',(0.,0.,-1.));
#308=DIRECTION('',(-1.,0.,0.));
#309=DIRECTION('',(0.,0.,-1.));
#310=DIRECTION('',(-1.,0.,0.));
#311=DIRECTION('',(0.,0.,-1.));
#312=DIRECTION('',(-1.,0.,0.));
#313=DIRECTION('',(0.707106781186547,0.,-0.707106781186548));
#314=DIRECTION('',(0.,1.,0.));
#315=CARTESIAN_POINT('',(0.,0.,0.));
#316=CARTESIAN_POINT('',(-0.00818211966902949,-5.25510774615077E-8,0.0104367161647632));
#317=CARTESIAN_POINT('',(-0.00818211966902949,-5.25510774615077E-8,0.0104367161647632));
#318=CARTESIAN_POINT('',(-0.00818211966902949,0.00224994744892254,0.0104367161647632));
#319=CARTESIAN_POINT('',(-0.00215,-5.25510774604613E-8,0.0104367161647632));
#320=CARTESIAN_POINT('',(-0.00215,0.00154919333848297,0.0120683831570383));
#321=CARTESIAN_POINT('',(-0.00215,-0.00154919333848297,0.0120684829436862));
#322=CARTESIAN_POINT('',(-0.00215,-0.00154919333848297,0.0120684829436862));
#323=CARTESIAN_POINT('',(-0.0019948971042671,-0.00176444808916004,0.011864127812632));
#324=CARTESIAN_POINT('',(-0.00165488421185211,-0.00209788959595762,0.011405720876209));
#325=CARTESIAN_POINT('',(-0.00127199144948882,-0.00232648378536269,0.0104339635655425));
#326=CARTESIAN_POINT('',(-0.00165665280711395,-0.00209648460825219,0.00946603557109184));
#327=CARTESIAN_POINT('',(-0.00199506031250203,-0.00176422158566553,0.00900908948260991));
#328=CARTESIAN_POINT('',(-0.00215000000000009,-0.00154919333848301,0.00880494938584029));
#329=CARTESIAN_POINT('',(-0.00215,-0.00154919333848297,0.00880494938584025));
#330=CARTESIAN_POINT('',(-0.00215,-5.25510774604613E-8,0.0104367161647632));
#331=CARTESIAN_POINT('',(-0.00215,0.00154919333848297,0.00880504917248811));
#332=CARTESIAN_POINT('',(-0.00215,0.00154919333848297,0.00880504917248811));
#333=CARTESIAN_POINT('',(-0.00199492083490131,0.00176441515533423,0.00900939939632614));
#334=CARTESIAN_POINT('',(-0.00165496802458229,0.00209781150362996,0.00946779177196466));
#335=CARTESIAN_POINT('',(-0.00127220552292169,0.00232636309169178,0.0104394622463769));
#336=CARTESIAN_POINT('',(-0.00165672612249028,0.00209641490068266,0.0114073016359376));
#337=CARTESIAN_POINT('',(-0.00199508379138041,0.00176418900123126,0.0118642476634829));
#338=CARTESIAN_POINT('',(-0.00215000000000009,0.00154919333848301,0.0120683831570383));
#339=CARTESIAN_POINT('',(0.00656791958753661,-0.00695541496437158,0.00542690271475598));
#340=CARTESIAN_POINT('',(0.00847891572151065,-0.00527687218817077,0.00542690271475598));
#341=CARTESIAN_POINT('',(0.00921483395401892,-0.00429778084716389,0.00542690271475598));
#342=CARTESIAN_POINT('',(0.0101945838716467,-0.00223334199450762,0.00542690271475598));
#343=CARTESIAN_POINT('',(0.0104422563961117,-0.0011486699169006,0.00542690271475598));
#344=CARTESIAN_POINT('',(0.0104614044723962,0.00101814176127512,0.00542690271475598));
#345=CARTESIAN_POINT('',(0.0102330228838818,0.00210439493356252,0.00542690271475598));
#346=CARTESIAN_POINT('',(0.00929209492294798,0.00417748252079126,0.00542690271475598));
#347=CARTESIAN_POINT('',(0.00857566371393799,0.00516389362952393,0.00542690271475598));
#348=CARTESIAN_POINT('',(0.00669932103587786,0.0068648119457157,0.00542690271475598));
#349=CARTESIAN_POINT('',(0.00553918890315606,0.00757565342263985,0.00542690271475598));
#350=CARTESIAN_POINT('',(0.00294792372761734,0.00855484794617482,0.00542690271475598));
#351=CARTESIAN_POINT('',(0.00151925172721134,0.00882118949773961,0.00542690271475598));
#352=CARTESIAN_POINT('',(-0.00134661042938885,0.00884135472795697,0.00542690271475598));
#353=CARTESIAN_POINT('',(-0.00278088132153763,0.00859514214612082,0.00542690271475598));
#354=CARTESIAN_POINT('',(-0.00539278954246701,0.00765121051176934,0.00542690271475598));
#355=CARTESIAN_POINT('',(-0.0065679196551522,0.00695541490453851,0.00542690271475598));
#356=CARTESIAN_POINT('',(-0.00847891565389505,0.00527687224800385,0.00542690271475598));
#357=CARTESIAN_POINT('',(-0.00921483395401956,0.00429778084715771,0.00542690271475598));
#358=CARTESIAN_POINT('',(-0.0101945838716461,0.00223334199451379,0.00542690271475598));
#359=CARTESIAN_POINT('',(-0.0104422563961116,0.0011486699168999,0.00542690271475598));
#360=CARTESIAN_POINT('',(-0.0104614044723962,-0.00101814176127441,0.00542690271475598));
#361=CARTESIAN_POINT('',(-0.0102330228838857,-0.00210439493355971,0.00542690271475598));
#362=CARTESIAN_POINT('',(-0.00929209492294402,-0.00417748252079408,0.00542690271475598));
#363=CARTESIAN_POINT('',(-0.00857566371393395,-0.00516389362952717,0.00542690271475598));
#364=CARTESIAN_POINT('',(-0.0066993210358819,-0.00686481194571247,0.00542690271475598));
#365=CARTESIAN_POINT('',(-0.00553918890314933,-0.00757565342264321,0.00542690271475598));
#366=CARTESIAN_POINT('',(-0.00294792372762407,-0.00855484794617146,0.00542690271475598));
#367=CARTESIAN_POINT('',(-0.00151925172721213,-0.00882118949773795,0.00542690271475598));
#368=CARTESIAN_POINT('',(0.00134661042938968,-0.00884135472795863,0.00542690271475598));
#369=CARTESIAN_POINT('',(0.00278088132153845,-0.00859514214611914,0.00542690271475598));
#370=CARTESIAN_POINT('',(0.00539278954246616,-0.00765121051177103,0.00542690271475598));
#371=CARTESIAN_POINT('',(0.00656791958753661,-0.00695541496437158,0.00542690271475598));
#372=CARTESIAN_POINT('',(0.00847891572151065,-0.00527687218817077,0.00542690271475598));
#373=CARTESIAN_POINT('',(0.00624755704201153,-0.00647862690675159,0.00425074264836143));
#374=CARTESIAN_POINT('',(0.00804742910063636,-0.00489769108570014,0.00425074264836143));
#375=CARTESIAN_POINT('',(0.00873469369497429,-0.00398088181837566,0.00425074264836143));
#376=CARTESIAN_POINT('',(0.00964547173034957,-0.00206177416829714,0.00425074264836143));
#377=CARTESIAN_POINT('',(0.00987337672792272,-0.00106007716108409,0.00425074264836143));
#378=CARTESIAN_POINT('',(0.0098910479845119,0.000939616415108965,0.00425074264836143));
#379=CARTESIAN_POINT('',(0.00968097631598504,0.00194240747618376,0.00425074264836143));
#380=CARTESIAN_POINT('',(0.00880671773311456,0.00386860660208444,0.00425074264836143));
#381=CARTESIAN_POINT('',(0.00813809262331684,0.00479169767861151,0.00425074264836143));
#382=CARTESIAN_POINT('',(0.00637172381316033,0.00639292388167219,0.00425074264836143));
#383=CARTESIAN_POINT('',(0.00527359744694507,0.00706706119625976,0.00425074264836143));
#384=CARTESIAN_POINT('',(0.00281079481936072,0.00799771193323461,0.00425074264836143));
#385=CARTESIAN_POINT('',(0.00144870773487973,0.00825203145013148,0.00425074264836143));
#386=CARTESIAN_POINT('',(-0.00128408262429983,0.00827126033963012,0.00425074264836143));
#387=CARTESIAN_POINT('',(-0.00265169692316664,0.00803613031006045,0.00425074264836143));
#388=CARTESIAN_POINT('',(-0.00513475412009804,0.00713876484402111,0.00425074264836143));
#389=CARTESIAN_POINT('',(-0.00624755710566454,0.00647862685034494,0.00425074264836143));
#390=CARTESIAN_POINT('',(-0.00804742903698335,0.00489769114210678,0.00425074264836143));
#391=CARTESIAN_POINT('',(-0.00873469369497478,0.00398088181836981,0.00425074264836143));
#392=CARTESIAN_POINT('',(-0.00964547173034908,0.00206177416830298,0.00425074264836143));
#393=CARTESIAN_POINT('',(-0.00987337672792269,0.00106007716108168,0.00425074264836143));
#394=CARTESIAN_POINT('',(-0.00989104798451191,-0.000939616415106533,0.00425074264836143));
#395=CARTESIAN_POINT('',(-0.00968097631598917,-0.00194240747617981,0.00425074264836143));
#396=CARTESIAN_POINT('',(-0.00880671773311044,-0.00386860660208838,0.00425074264836143));
#397=CARTESIAN_POINT('',(-0.00813809262331361,-0.00479169767861394,0.00425074264836143));
#398=CARTESIAN_POINT('',(-0.00637172381316357,-0.00639292388166976,0.00425074264836143));
#399=CARTESIAN_POINT('',(-0.00527359744693834,-0.00706706119626481,0.00425074264836143));
#400=CARTESIAN_POINT('',(-0.00281079481936744,-0.00799771193322956,0.00425074264836143));
#401=CARTESIAN_POINT('',(-0.00144870773488129,-0.00825203145012984,0.00425074264836143));
#402=CARTESIAN_POINT('',(0.00128408262430144,-0.00827126033963178,0.00425074264836143));
#403=CARTESIAN_POINT('',(0.00265169692316578,-0.00803613031005877,0.00425074264836143));
#404=CARTESIAN_POINT('',(0.00513475412009887,-0.00713876484402279,0.00425074264836143));
#405=CARTESIAN_POINT('',(0.00624755704201153,-0.00647862690675159,0.00425074264836143));
#406=CARTESIAN_POINT('',(0.00804742910063636,-0.00489769108570014,0.00425074264836143));
#407=CARTESIAN_POINT('',(0.00640747883074129,-0.00671663475156568,0.00297521033364765));
#408=CARTESIAN_POINT('',(0.00826282291987973,-0.00508697451163946,0.00297521033364765));
#409=CARTESIAN_POINT('',(0.00897437492531779,-0.00413907465408159,0.00297521033364765));
#410=CARTESIAN_POINT('',(0.00991958303666879,-0.0021474191166198,0.00297521033364765));
#411=CARTESIAN_POINT('',(0.0101573557865841,-0.00110430178152262,0.00297521033364765));
#412=CARTESIAN_POINT('',(0.0101757642568426,0.00097881548502154,0.00297521033364765));
#413=CARTESIAN_POINT('',(0.00995655245880874,0.00202326999990088,0.00297521033364765));
#414=CARTESIAN_POINT('',(0.0090490131870939,0.00402279438122815,0.00297521033364765));
#415=CARTESIAN_POINT('',(0.00835652374919525,0.00497749418653529,0.00297521033364765));
#416=CARTESIAN_POINT('',(0.00653525708061603,0.00662848569854479,0.00297521033364765));
#417=CARTESIAN_POINT('',(0.00540617805395404,0.00732094536503393,0.00297521033364765));
#418=CARTESIAN_POINT('',(0.00287924820319485,0.00827582867627921,0.00297521033364765));
#419=CARTESIAN_POINT('',(0.00148392259253306,0.0085361494730234,0.00297521033364765));
#420=CARTESIAN_POINT('',(-0.00131529588120259,0.00855584577447496,0.00297521033364765));
#421=CARTESIAN_POINT('',(-0.00271618448687254,0.00831518344530478,0.00297521033364765));
#422=CARTESIAN_POINT('',(-0.00526356283034594,0.00739457261230766,0.00297521033364765));
#423=CARTESIAN_POINT('',(-0.00640747889637221,0.00671663469344934,0.00297521033364765));
#424=CARTESIAN_POINT('',(-0.00826282285424882,0.00508697456975579,0.00297521033364765));
#425=CARTESIAN_POINT('',(-0.00897437492531835,0.0041390746540748,0.00297521033364765));
#426=CARTESIAN_POINT('',(-0.00991958303666823,0.00214741911662658,0.00297521033364765));
#427=CARTESIAN_POINT('',(-0.0101573557865856,0.00110430178152106,0.00297521033364765));
#428=CARTESIAN_POINT('',(-0.0101757642568411,-0.000978815485019967,0.00297521033364765));
#429=CARTESIAN_POINT('',(-0.00995655245880969,-0.00202326999989866,0.00297521033364765));
#430=CARTESIAN_POINT('',(-0.00904901318709295,-0.00402279438123038,0.00297521033364765));
#431=CARTESIAN_POINT('',(-0.00835652374919282,-0.00497749418653691,0.00297521033364765));
#432=CARTESIAN_POINT('',(-0.00653525708061846,-0.00662848569854316,0.00297521033364765));
#433=CARTESIAN_POINT('',(-0.00540617805394731,-0.0073209453650373,0.00297521033364765));
#434=CARTESIAN_POINT('',(-0.00287924820320158,-0.00827582867627584,0.00297521033364765));
#435=CARTESIAN_POINT('',(-0.00148392259253317,-0.00853614947302346,0.00297521033364765));
#436=CARTESIAN_POINT('',(0.00131529588120274,-0.0085558457744749,0.00297521033364765));
#437=CARTESIAN_POINT('',(0.00271618448687253,-0.0083151834453031,0.00297521033364765));
#438=CARTESIAN_POINT('',(0.00526356283034591,-0.00739457261230935,0.00297521033364765));
#439=CARTESIAN_POINT('',(0.00640747883074129,-0.00671663475156568,0.00297521033364765));
#440=CARTESIAN_POINT('',(0.00826282291987973,-0.00508697451163946,0.00297521033364765));
#441=CARTESIAN_POINT('',(0.00697846752531437,-0.00756642382463683,0.0021523823036597));
#442=CARTESIAN_POINT('',(0.00903187031889746,-0.0057627967191064,0.0021523823036597));
#443=CARTESIAN_POINT('',(0.00983013869531411,-0.00470389025218212,0.0021523823036597));
#444=CARTESIAN_POINT('',(0.0108982767981986,-0.00245320795019775,0.0021523823036597));
#445=CARTESIAN_POINT('',(0.0111712816142022,-0.00126220245592829,0.0021523823036597));
#446=CARTESIAN_POINT('',(0.0111923222502984,0.00111877281001174,0.0021523823036597));
#447=CARTESIAN_POINT('',(0.0109404763086767,0.00231198354684431,0.0021523823036597));
#448=CARTESIAN_POINT('',(0.00991411084557536,0.00457331022669925,0.0021523823036597));
#449=CARTESIAN_POINT('',(0.00913641562265722,0.00564086661601024,0.0021523823036597));
#450=CARTESIAN_POINT('',(0.00711914028780791,0.00746954141318933,0.0021523823036597));
#451=CARTESIAN_POINT('',(0.00587954711968974,0.00822741965632233,0.0021523823036597));
#452=CARTESIAN_POINT('',(0.00312365585136455,0.00926882354778506,0.0021523823036597));
#453=CARTESIAN_POINT('',(0.00160965458790436,0.0095505714619489,0.0021523823036597));
#454=CARTESIAN_POINT('',(-0.00142674046266414,0.00957193662255269,0.0021523823036597));
#455=CARTESIAN_POINT('',(-0.00294643247315038,0.00931152163458747,0.0021523823036597));
#456=CARTESIAN_POINT('',(-0.005723464622953,0.00830791497069159,0.0021523823036597));
#457=CARTESIAN_POINT('',(-0.00697846759800953,0.00756642376041158,0.0021523823036597));
#458=CARTESIAN_POINT('',(-0.0090318702462023,0.00576279678333165,0.0021523823036597));
#459=CARTESIAN_POINT('',(-0.00983013869531494,0.00470389025217474,0.0021523823036597));
#460=CARTESIAN_POINT('',(-0.0108982767981978,0.00245320795020512,0.0021523823036597));
#461=CARTESIAN_POINT('',(-0.0111712816142037,0.00126220245592632,0.0021523823036597));
#462=CARTESIAN_POINT('',(-0.0111923222502969,-0.00111877281000975,0.0021523823036597));
#463=CARTESIAN_POINT('',(-0.0109404763086804,-0.00231198354684039,0.0021523823036597));
#464=CARTESIAN_POINT('',(-0.0099141108455716,-0.00457331022670318,0.0021523823036597));
#465=CARTESIAN_POINT('',(-0.00913641562265398,-0.00564086661601509,0.0021523823036597));
#466=CARTESIAN_POINT('',(-0.00711914028781114,-0.00746954141318448,0.0021523823036597));
#467=CARTESIAN_POINT('',(-0.00587954711968133,-0.00822741965632738,0.0021523823036597));
#468=CARTESIAN_POINT('',(-0.00312365585137296,-0.00926882354778002,0.0021523823036597));
#469=CARTESIAN_POINT('',(-0.00160965458790641,-0.00955057146194896,0.0021523823036597));
#470=CARTESIAN_POINT('',(0.00142674046266623,-0.00957193662255264,0.0021523823036597));
#471=CARTESIAN_POINT('',(0.00294643247315121,-0.00931152163458748,0.0021523823036597));
#472=CARTESIAN_POINT('',(0.00572346462295214,-0.00830791497069159,0.0021523823036597));
#473=CARTESIAN_POINT('',(0.00697846752531437,-0.00756642382463683,0.0021523823036597));
#474=CARTESIAN_POINT('',(0.00903187031889746,-0.0057627967191064,0.0021523823036597));
#475=CARTESIAN_POINT('',(0.00697846752531437,-0.00756642382463683,0.0021523823036597));
#476=CARTESIAN_POINT('',(0.00903187031889746,-0.0057627967191064,0.0021523823036597));
#477=CARTESIAN_POINT('',(0.00983013869531411,-0.00470389025218212,0.0021523823036597));
#478=CARTESIAN_POINT('',(0.0108982767981986,-0.00245320795019775,0.0021523823036597));
#479=CARTESIAN_POINT('',(0.0111712816142022,-0.00126220245592829,0.0021523823036597));
#480=CARTESIAN_POINT('',(0.0111923222502984,0.00111877281001174,0.0021523823036597));
#481=CARTESIAN_POINT('',(0.0109404763086782,0.00231198354684431,0.0021523823036597));
#482=CARTESIAN_POINT('',(0.00991411084557381,0.00457331022669925,0.0021523823036597));
#483=CARTESIAN_POINT('',(0.00913641562265883,0.00564086661601024,0.0021523823036597));
#484=CARTESIAN_POINT('',(0.00711914028780629,0.00746954141318933,0.0021523823036597));
#485=CARTESIAN_POINT('',(0.0058795471196889,0.00822741965632402,0.0021523823036597));
#486=CARTESIAN_POINT('',(0.00312365585136538,0.00926882354778338,0.0021523823036597));
#487=CARTESIAN_POINT('',(0.00160965458790351,0.00955057146195061,0.0021523823036597));
#488=CARTESIAN_POINT('',(-0.00142674046266328,0.00957193662255098,0.0021523823036597));
#489=CARTESIAN_POINT('',(-0.00294643247315038,0.00931152163458916,0.0021523823036597));
#490=CARTESIAN_POINT('',(-0.005723464622953,0.0083079149706899,0.0021523823036597));
#491=CARTESIAN_POINT('',(-0.00697846759800953,0.00756642376041158,0.0021523823036597));
#492=CARTESIAN_POINT('',(-0.0090318702462023,0.00576279678333165,0.0021523823036597));
#493=CARTESIAN_POINT('',(-0.00983013869531494,0.00470389025217474,0.0021523823036597));
#494=CARTESIAN_POINT('',(-0.0108982767981978,0.00245320795020512,0.0021523823036597));
#495=CARTESIAN_POINT('',(-0.0111712816142021,0.00126220245592708,0.0021523823036597));
#496=CARTESIAN_POINT('',(-0.0111923222502985,-0.00111877281001051,0.0021523823036597));
#497=CARTESIAN_POINT('',(-0.0109404763086804,-0.00231198354684039,0.0021523823036597));
#498=CARTESIAN_POINT('',(-0.00991411084557159,-0.00457331022670318,0.0021523823036597));
#499=CARTESIAN_POINT('',(-0.00913641562265236,-0.00564086661601347,0.0021523823036597));
#500=CARTESIAN_POINT('',(-0.00711914028781276,-0.00746954141318609,0.0021523823036597));
#501=CARTESIAN_POINT('',(-0.00587954711968133,-0.0082274196563257,0.0021523823036597));
#502=CARTESIAN_POINT('',(-0.00312365585137296,-0.0092688235477817,0.0021523823036597));
#503=CARTESIAN_POINT('',(-0.00160965458790641,-0.00955057146194896,0.0021523823036597));
#504=CARTESIAN_POINT('',(0.00142674046266623,-0.00957193662255264,0.0021523823036597));
#505=CARTESIAN_POINT('',(0.00294643247315037,-0.00931152163458748,0.0021523823036597));
#506=CARTESIAN_POINT('',(0.00572346462295298,-0.00830791497069159,0.0021523823036597));
#507=CARTESIAN_POINT('',(0.00697846752531437,-0.00756642382463683,0.0021523823036597));
#508=CARTESIAN_POINT('',(0.00903187031889746,-0.0057627967191064,0.0021523823036597));
#509=CARTESIAN_POINT('',(0.00800516892210591,-0.00666461027187162,0.0021523823036597));
#510=CARTESIAN_POINT('',(0.00656791958753661,-0.00695541496437158,0.00542690271475598));
#511=CARTESIAN_POINT('',(0.00847891572151065,-0.00527687218817077,0.00542690271475598));
#512=CARTESIAN_POINT('',(0.00921483395401892,-0.00429778084716466,0.00542690271475598));
#513=CARTESIAN_POINT('',(0.0101945838716467,-0.00223334199450684,0.00542690271475598));
#514=CARTESIAN_POINT('',(0.0104422563961132,-0.0011486699169006,0.00542690271475598));
#515=CARTESIAN_POINT('',(0.0104614044723947,0.00101814176127512,0.00542690271475598));
#516=CARTESIAN_POINT('',(0.0102330228838833,0.00210439493356252,0.00542690271475598));
#517=CARTESIAN_POINT('',(0.00929209492294643,0.00417748252079126,0.00542690271475598));
#518=CARTESIAN_POINT('',(0.00857566371393799,0.00516389362952555,0.00542690271475598));
#519=CARTESIAN_POINT('',(0.00669932103587786,0.00686481194571408,0.00542690271475598));
#520=CARTESIAN_POINT('',(0.0055391889031569,0.00757565342264153,0.00542690271475598));
#521=CARTESIAN_POINT('',(0.0029479237276165,0.00855484794617314,0.00542690271475598));
#522=CARTESIAN_POINT('',(0.00151925172721048,0.00882118949773789,0.00542690271475598));
#523=CARTESIAN_POINT('',(-0.001346610429388,0.00884135472795868,0.00542690271475598));
#524=CARTESIAN_POINT('',(-0.00278088132153763,0.00859514214612081,0.00542690271475598));
#525=CARTESIAN_POINT('',(-0.00539278954246701,0.00765121051176934,0.00542690271475598));
#526=CARTESIAN_POINT('',(-0.0065679196551522,0.0069554149045385,0.00542690271475598));
#527=CARTESIAN_POINT('',(-0.00847891565389505,0.00527687224800385,0.00542690271475598));
#528=CARTESIAN_POINT('',(-0.00921483395401956,0.00429778084715771,0.00542690271475598));
#529=CARTESIAN_POINT('',(-0.0101945838716461,0.00223334199451379,0.00542690271475598));
#530=CARTESIAN_POINT('',(-0.0104422563961116,0.00114866991689914,0.00542690271475598));
#531=CARTESIAN_POINT('',(-0.0104614044723962,-0.00101814176127365,0.00542690271475598));
#532=CARTESIAN_POINT('',(-0.0102330228838857,-0.00210439493355892,0.00542690271475598));
#533=CARTESIAN_POINT('',(-0.00929209492294402,-0.00417748252079485,0.00542690271475598));
#534=CARTESIAN_POINT('',(-0.00857566371393475,-0.00516389362952716,0.00542690271475598));
#535=CARTESIAN_POINT('',(-0.00669932103588109,-0.00686481194571246,0.00542690271475598));
#536=CARTESIAN_POINT('',(-0.00553918890315017,-0.00757565342264321,0.00542690271475598));
#537=CARTESIAN_POINT('',(-0.00294792372762322,-0.00855484794617146,0.00542690271475598));
#538=CARTESIAN_POINT('',(-0.00151925172721383,-0.00882118949773795,0.00542690271475598));
#539=CARTESIAN_POINT('',(0.00134661042939139,-0.00884135472795862,0.00542690271475598));
#540=CARTESIAN_POINT('',(0.00278088132153845,-0.00859514214611745,0.00542690271475598));
#541=CARTESIAN_POINT('',(0.00539278954246616,-0.00765121051177272,0.00542690271475598));
#542=CARTESIAN_POINT('',(0.00656791958753661,-0.00695541496437158,0.00542690271475598));
#543=CARTESIAN_POINT('',(0.00847891572151065,-0.00527687218817077,0.00542690271475598));
#544=CARTESIAN_POINT('',(0.00752341765452363,-0.00611614357627117,0.00542690271475598));
#545=CARTESIAN_POINT('',(0.00641607309000237,-0.00672942538591731,0.0058576696830622));
#546=CARTESIAN_POINT('',(0.00827439826768265,-0.00509714667672883,0.0058576696830622));
#547=CARTESIAN_POINT('',(0.00898725548806008,-0.00414757599873374,0.0058576696830622));
#548=CARTESIAN_POINT('',(0.00993431388511418,-0.00215202170952509,0.0058576696830622));
#549=CARTESIAN_POINT('',(0.0101726169318892,-0.00110667842986323,0.0058576696830622));
#550=CARTESIAN_POINT('',(0.0101910650202926,0.000980922058318016,0.0058576696830622));
#551=CARTESIAN_POINT('',(0.00997136202813817,0.00202761558344516,0.0058576696830622));
#552=CARTESIAN_POINT('',(0.00906203423923402,0.00403108049257815,0.0058576696830622));
#553=CARTESIAN_POINT('',(0.00836826232304087,0.00498747896329171,0.0058576696830622));
#554=CARTESIAN_POINT('',(0.00654404542215128,0.0066411448824011,0.0058576696830622));
#555=CARTESIAN_POINT('',(0.00541330298745303,0.00733458919922283,0.0058576696830622));
#556=CARTESIAN_POINT('',(0.00288292691472332,0.00829077477845617,0.0058576696830622));
#557=CARTESIAN_POINT('',(0.00148581505270786,0.00855141808631493,0.0058576696830622));
#558=CARTESIAN_POINT('',(-0.00131697329379331,0.00857113950667294,0.0058576696830622));
#559=CARTESIAN_POINT('',(-0.0027196500736817,0.00833017986956232,0.0058576696830622));
#560=CARTESIAN_POINT('',(-0.00527048506064259,0.00740831982148536,0.0058576696830622));
#561=CARTESIAN_POINT('',(-0.00641607315574007,0.00672942532770848,0.0058576696830622));
#562=CARTESIAN_POINT('',(-0.00827439820194495,0.00509714673493765,0.0058576696830622));
#563=CARTESIAN_POINT('',(-0.00898725548806065,0.00414757599872694,0.0058576696830622));
#564=CARTESIAN_POINT('',(-0.00993431388511361,0.00215202170953188,0.0058576696830622));
#565=CARTESIAN_POINT('',(-0.0101726169318876,0.00110667842986168,0.0058576696830622));
#566=CARTESIAN_POINT('',(-0.0101910650202942,-0.000980922058316448,0.0058576696830622));
#567=CARTESIAN_POINT('',(-0.00997136202814066,-0.0020276155834414,0.0058576696830622));
#568=CARTESIAN_POINT('',(-0.00906203423923153,-0.00403108049258191,0.0058576696830622));
#569=CARTESIAN_POINT('',(-0.00836826232303844,-0.00498747896329332,0.0058576696830622));
#570=CARTESIAN_POINT('',(-0.00654404542215371,-0.00664114488239948,0.0058576696830622));
#571=CARTESIAN_POINT('',(-0.00541330298744546,-0.00733458919922788,0.0058576696830622));
#572=CARTESIAN_POINT('',(-0.00288292691473089,-0.00829077477845112,0.0058576696830622));
#573=CARTESIAN_POINT('',(-0.00148581505271052,-0.0085514180863184,0.0058576696830622));
#574=CARTESIAN_POINT('',(0.00131697329379601,-0.00857113950666947,0.0058576696830622));
#575=CARTESIAN_POINT('',(0.00271965007368253,-0.00833017986956233,0.0058576696830622));
#576=CARTESIAN_POINT('',(0.00527048506064173,-0.00740831982148537,0.0058576696830622));
#577=CARTESIAN_POINT('',(0.00641607309000237,-0.00672942538591731,0.0058576696830622));
#578=CARTESIAN_POINT('',(0.00827439826768265,-0.00509714667672883,0.0058576696830622));
#579=CARTESIAN_POINT('',(0.00655472053639413,-0.00693577112633698,0.00585766968306221));
#580=CARTESIAN_POINT('',(0.00846113831882808,-0.00526124979150275,0.00585766968306221));
#581=CARTESIAN_POINT('',(0.00919505200409001,-0.00428472449414653,0.00585766968306221));
#582=CARTESIAN_POINT('',(0.010171960255568,-0.00222627333887279,0.00585766968306221));
#583=CARTESIAN_POINT('',(0.0104188183508752,-0.00114501986376194,0.00585766968306221));
#584=CARTESIAN_POINT('',(0.01043790558166,0.00101490648900491,0.00585766968306221));
#585=CARTESIAN_POINT('',(0.0102102783683815,0.00209772099254059,0.00585766968306221));
#586=CARTESIAN_POINT('',(0.00927209720960168,0.00416475672277101,0.00585766968306221));
#587=CARTESIAN_POINT('',(0.00855763562893188,0.00514855902359243,0.00585766968306221));
#588=CARTESIAN_POINT('',(0.00668582391345435,0.00684536998916333,0.00585766968306221));
#589=CARTESIAN_POINT('',(0.00552824644043011,0.00755469924150874,0.00585766968306221));
#590=CARTESIAN_POINT('',(0.00294227396768501,0.00853189374372222,0.00585766968306221));
#591=CARTESIAN_POINT('',(0.0015163452895648,0.00879773998317037,0.00585766968306221));
#592=CARTESIAN_POINT('',(-0.00134403426151592,0.00881786663581738,0.00585766968306221));
#593=CARTESIAN_POINT('',(-0.00277555887824896,0.00857211065908669,0.00585766968306221));
#594=CARTESIAN_POINT('',(-0.00538215839102772,0.00763009756747934,0.00585766968306221));
#595=CARTESIAN_POINT('',(-0.0065547206038468,0.00693577106664502,0.00585766968306221));
#596=CARTESIAN_POINT('',(-0.0084611382513754,0.00526124985119471,0.00585766968306221));
#597=CARTESIAN_POINT('',(-0.00919505200409064,0.00428472449413958,0.00585766968306221));
#598=CARTESIAN_POINT('',(-0.0101719602555674,0.00222627333887972,0.00585766968306221));
#599=CARTESIAN_POINT('',(-0.0104188183508752,0.00114501986376048,0.00585766968306221));
#600=CARTESIAN_POINT('',(-0.01043790558166,-0.00101490648900342,0.00585766968306221));
#601=CARTESIAN_POINT('',(-0.0102102783683839,-0.00209772099253776,0.00585766968306221));
#602=CARTESIAN_POINT('',(-0.00927209720959927,-0.00416475672277384,0.00585766968306221));
#603=CARTESIAN_POINT('',(-0.00855763562892865,-0.00514855902359405,0.00585766968306221));
#604=CARTESIAN_POINT('',(-0.00668582391345758,-0.0068453699891617,0.00585766968306221));
#605=CARTESIAN_POINT('',(-0.00552824644042338,-0.00755469924151041,0.00585766968306221));
#606=CARTESIAN_POINT('',(-0.00294227396769174,-0.00853189374372054,0.00585766968306221));
#607=CARTESIAN_POINT('',(-0.00151634528956646,-0.00879773998316871,0.00585766968306221));
#608=CARTESIAN_POINT('',(0.00134403426151762,-0.00881786663581904,0.00585766968306221));
#609=CARTESIAN_POINT('',(0.00277555887824894,-0.00857211065908333,0.00585766968306221));
#610=CARTESIAN_POINT('',(0.0053821583910277,-0.00763009756748271,0.00585766968306221));
#611=CARTESIAN_POINT('',(0.00655472053639413,-0.00693577112633698,0.00585766968306221));
#612=CARTESIAN_POINT('',(0.00846113831882808,-0.00526124979150275,0.00585766968306221));
#613=CARTESIAN_POINT('',(0.00662835460829677,-0.00704535898736352,0.00564878026886685));
#614=CARTESIAN_POINT('',(0.0085603138226761,-0.00534840307753275,0.00564878026886685));
#615=CARTESIAN_POINT('',(0.0093054103554375,-0.00435756249034093,0.00564878026886685));
#616=CARTESIAN_POINT('',(0.0102981715229583,-0.00226570752937885,0.00564878026886685));
#617=CARTESIAN_POINT('',(0.0105495731066264,-0.00116538256047219,0.00564878026886685));
#618=CARTESIAN_POINT('',(0.0105689997786098,0.00103295523117702,0.00564878026886685));
#619=CARTESIAN_POINT('',(0.0103371641021926,0.00213495317292734,0.00564878026886685));
#620=CARTESIAN_POINT('',(0.00938365924890651,0.00423575063864711,0.00564878026886685));
#621=CARTESIAN_POINT('',(0.00865820962423615,0.00523410679999275,0.00564878026886685));
#622=CARTESIAN_POINT('',(0.00676112084747379,0.00695383160592495,0.00564878026886685));
#623=CARTESIAN_POINT('',(0.00558929159273149,0.00767159716571659,0.00564878026886685));
#624=CARTESIAN_POINT('',(0.00297379250826247,0.00865994926647294,0.00564878026886685));
#625=CARTESIAN_POINT('',(0.00153255954892919,0.00892855872333342,0.00564878026886685));
#626=CARTESIAN_POINT('',(-0.00135840603175026,0.00894890059021761,0.00564878026886685));
#627=CARTESIAN_POINT('',(-0.00280525140445337,0.00870059733240719,0.00564878026886685));
#628=CARTESIAN_POINT('',(-0.0054414668186513,0.00774788119004111,0.00564878026886685));
#629=CARTESIAN_POINT('',(-0.00662835467666117,0.00704535892688318,0.00564878026886685));
#630=CARTESIAN_POINT('',(-0.00856031375431171,0.00534840313801308,0.00564878026886685));
#631=CARTESIAN_POINT('',(-0.00930541035543817,0.00435756249033392,0.00564878026886685));
#632=CARTESIAN_POINT('',(-0.0102981715229577,0.00226570752938586,0.00564878026886685));
#633=CARTESIAN_POINT('',(-0.0105495731066234,0.00116538256047001,0.00564878026886685));
#634=CARTESIAN_POINT('',(-0.0105689997786129,-0.00103295523117482,0.00564878026886685));
#635=CARTESIAN_POINT('',(-0.010337164102195,-0.00213495317292381,0.00564878026886685));
#636=CARTESIAN_POINT('',(-0.00938365924890413,-0.00423575063865064,0.00564878026886685));
#637=CARTESIAN_POINT('',(-0.0086582096242329,-0.00523410679999437,0.00564878026886685));
#638=CARTESIAN_POINT('',(-0.00676112084747703,-0.00695383160592332,0.00564878026886685));
#639=CARTESIAN_POINT('',(-0.00558929159272392,-0.00767159716572331,0.00564878026886685));
#640=CARTESIAN_POINT('',(-0.00297379250827004,-0.0086599492664662,0.00564878026886685));
#641=CARTESIAN_POINT('',(-0.00153255954893076,-0.00892855872333348,0.00564878026886685));
#642=CARTESIAN_POINT('',(0.00135840603175188,-0.00894890059021756,0.00564878026886685));
#643=CARTESIAN_POINT('',(0.00280525140445419,-0.00870059733240552,0.00564878026886685));
#644=CARTESIAN_POINT('',(0.00544146681865044,-0.00774788119004282,0.00564878026886685));
#645=CARTESIAN_POINT('',(0.00662835460829677,-0.00704535898736352,0.00564878026886685));
#646=CARTESIAN_POINT('',(0.0085603138226761,-0.00534840307753275,0.00564878026886685));
#647=CARTESIAN_POINT('',(0.00656791958753661,-0.00695541496437158,0.00542690271475598));
#648=CARTESIAN_POINT('',(0.00847891572151065,-0.00527687218817077,0.00542690271475598));
#649=CARTESIAN_POINT('',(0.00921483395401892,-0.00429778084716466,0.00542690271475598));
#650=CARTESIAN_POINT('',(0.0101945838716467,-0.00223334199450684,0.00542690271475598));
#651=CARTESIAN_POINT('',(0.0104422563961132,-0.0011486699169006,0.00542690271475598));
#652=CARTESIAN_POINT('',(0.0104614044723947,0.00101814176127512,0.00542690271475598));
#653=CARTESIAN_POINT('',(0.0102330228838833,0.00210439493356252,0.00542690271475598));
#654=CARTESIAN_POINT('',(0.00929209492294643,0.00417748252079126,0.00542690271475598));
#655=CARTESIAN_POINT('',(0.00857566371393799,0.00516389362952555,0.00542690271475598));
#656=CARTESIAN_POINT('',(0.00669932103587786,0.00686481194571408,0.00542690271475598));
#657=CARTESIAN_POINT('',(0.0055391889031569,0.00757565342264153,0.00542690271475598));
#658=CARTESIAN_POINT('',(0.0029479237276165,0.00855484794617314,0.00542690271475598));
#659=CARTESIAN_POINT('',(0.00151925172721048,0.00882118949773789,0.00542690271475598));
#660=CARTESIAN_POINT('',(-0.001346610429388,0.00884135472795868,0.00542690271475598));
#661=CARTESIAN_POINT('',(-0.00278088132153763,0.00859514214612081,0.00542690271475598));
#662=CARTESIAN_POINT('',(-0.00539278954246701,0.00765121051176934,0.00542690271475598));
#663=CARTESIAN_POINT('',(-0.0065679196551522,0.0069554149045385,0.00542690271475598));
#664=CARTESIAN_POINT('',(-0.00847891565389505,0.00527687224800385,0.00542690271475598));
#665=CARTESIAN_POINT('',(-0.00921483395401956,0.00429778084715771,0.00542690271475598));
#666=CARTESIAN_POINT('',(-0.0101945838716461,0.00223334199451379,0.00542690271475598));
#667=CARTESIAN_POINT('',(-0.0104422563961116,0.00114866991689914,0.00542690271475598));
#668=CARTESIAN_POINT('',(-0.0104614044723962,-0.00101814176127365,0.00542690271475598));
#669=CARTESIAN_POINT('',(-0.0102330228838857,-0.00210439493355892,0.00542690271475598));
#670=CARTESIAN_POINT('',(-0.00929209492294402,-0.00417748252079485,0.00542690271475598));
#671=CARTESIAN_POINT('',(-0.00857566371393475,-0.00516389362952716,0.00542690271475598));
#672=CARTESIAN_POINT('',(-0.00669932103588109,-0.00686481194571246,0.00542690271475598));
#673=CARTESIAN_POINT('',(-0.00553918890315017,-0.00757565342264321,0.00542690271475598));
#674=CARTESIAN_POINT('',(-0.00294792372762322,-0.00855484794617146,0.00542690271475598));
#675=CARTESIAN_POINT('',(-0.00151925172721383,-0.00882118949773795,0.00542690271475598));
#676=CARTESIAN_POINT('',(0.00134661042939139,-0.00884135472795862,0.00542690271475598));
#677=CARTESIAN_POINT('',(0.00278088132153845,-0.00859514214611745,0.00542690271475598));
#678=CARTESIAN_POINT('',(0.00539278954246616,-0.00765121051177272,0.00542690271475598));
#679=CARTESIAN_POINT('',(0.00656791958753661,-0.00695541496437158,0.00542690271475598));
#680=CARTESIAN_POINT('',(0.00847891572151065,-0.00527687218817077,0.00542690271475598));
#681=CARTESIAN_POINT('',(0.00641607309000237,-0.00672942538591731,0.0058576696830622));
#682=CARTESIAN_POINT('',(0.00827439826768265,-0.00509714667672883,0.0058576696830622));
#683=CARTESIAN_POINT('',(0.00898725548806008,-0.00414757599873374,0.0058576696830622));
#684=CARTESIAN_POINT('',(0.00993431388511418,-0.00215202170952509,0.0058576696830622));
#685=CARTESIAN_POINT('',(0.0101726169318892,-0.00110667842986323,0.0058576696830622));
#686=CARTESIAN_POINT('',(0.0101910650202926,0.000980922058318016,0.0058576696830622));
#687=CARTESIAN_POINT('',(0.00997136202813817,0.00202761558344516,0.0058576696830622));
#688=CARTESIAN_POINT('',(0.00906203423923402,0.00403108049257815,0.0058576696830622));
#689=CARTESIAN_POINT('',(0.00836826232304087,0.00498747896329171,0.0058576696830622));
#690=CARTESIAN_POINT('',(0.00654404542215128,0.0066411448824011,0.0058576696830622));
#691=CARTESIAN_POINT('',(0.00541330298745303,0.00733458919922283,0.0058576696830622));
#692=CARTESIAN_POINT('',(0.00288292691472332,0.00829077477845617,0.0058576696830622));
#693=CARTESIAN_POINT('',(0.00148581505270786,0.00855141808631493,0.0058576696830622));
#694=CARTESIAN_POINT('',(-0.00131697329379331,0.00857113950667294,0.0058576696830622));
#695=CARTESIAN_POINT('',(-0.0027196500736817,0.00833017986956232,0.0058576696830622));
#696=CARTESIAN_POINT('',(-0.00527048506064259,0.00740831982148536,0.0058576696830622));
#697=CARTESIAN_POINT('',(-0.00641607315574007,0.00672942532770848,0.0058576696830622));
#698=CARTESIAN_POINT('',(-0.00827439820194495,0.00509714673493765,0.0058576696830622));
#699=CARTESIAN_POINT('',(-0.00898725548806065,0.00414757599872694,0.0058576696830622));
#700=CARTESIAN_POINT('',(-0.00993431388511361,0.00215202170953188,0.0058576696830622));
#701=CARTESIAN_POINT('',(-0.0101726169318876,0.00110667842986168,0.0058576696830622));
#702=CARTESIAN_POINT('',(-0.0101910650202942,-0.000980922058316448,0.0058576696830622));
#703=CARTESIAN_POINT('',(-0.00997136202814066,-0.0020276155834414,0.0058576696830622));
#704=CARTESIAN_POINT('',(-0.00906203423923153,-0.00403108049258191,0.0058576696830622));
#705=CARTESIAN_POINT('',(-0.00836826232303844,-0.00498747896329332,0.0058576696830622));
#706=CARTESIAN_POINT('',(-0.00654404542215371,-0.00664114488239948,0.0058576696830622));
#707=CARTESIAN_POINT('',(-0.00541330298744546,-0.00733458919922788,0.0058576696830622));
#708=CARTESIAN_POINT('',(-0.00288292691473089,-0.00829077477845112,0.0058576696830622));
#709=CARTESIAN_POINT('',(-0.00148581505271052,-0.0085514180863184,0.0058576696830622));
#710=CARTESIAN_POINT('',(0.00131697329379601,-0.00857113950666947,0.0058576696830622));
#711=CARTESIAN_POINT('',(0.00271965007368253,-0.00833017986956233,0.0058576696830622));
#712=CARTESIAN_POINT('',(0.00527048506064173,-0.00740831982148537,0.0058576696830622));
#713=CARTESIAN_POINT('',(0.00641607309000237,-0.00672942538591731,0.0058576696830622));
#714=CARTESIAN_POINT('',(0.00827439826768265,-0.00509714667672883,0.0058576696830622));
#715=CARTESIAN_POINT('',(0.00734523567884251,-0.00591328603132307,0.0058576696830622));
#716=CARTESIAN_POINT('',(0.00412381093635468,-0.00808862635655682,0.0058576696830622));
#717=CARTESIAN_POINT('',(0.00412381093635468,-0.00808862635655682,0.00743671616476322));
#718=CARTESIAN_POINT('',(0.00756236633235706,-0.00604860560528448,0.0058576696830622));
#719=CARTESIAN_POINT('',(0.00756236633235706,-0.00604860560528448,0.00743671616476322));
#720=CARTESIAN_POINT('',(0.00969813780727214,-0.0031966674102437,0.0058576696830622));
#721=CARTESIAN_POINT('',(0.00969813780727214,-0.0031966674102437,0.00743671616476322));
#722=CARTESIAN_POINT('',(0.0104097905580772,-6.35178785171748E-5,0.0058576696830622));
#723=CARTESIAN_POINT('',(0.0104097905580772,-6.35178785171748E-5,0.00743671616476322));
#724=CARTESIAN_POINT('',(0.00975374581696448,0.00307346980967676,0.0058576696830622));
#725=CARTESIAN_POINT('',(0.00975374581696448,0.00307346980967676,0.00743671616476322));
#726=CARTESIAN_POINT('',(0.00767541497618146,0.00594572686788007,0.0058576696830622));
#727=CARTESIAN_POINT('',(0.00767541497618146,0.00594572686788007,0.00743671616476322));
#728=CARTESIAN_POINT('',(0.00428151751388614,0.0080294942558814,0.0058576696830622));
#729=CARTESIAN_POINT('',(0.00428151751388614,0.0080294942558814,0.00743671616476322));
#730=CARTESIAN_POINT('',(8.72046748030616E-5,0.00881238804163135,0.0058576696830622));
#731=CARTESIAN_POINT('',(8.72046748030616E-5,0.00881238804163135,0.00743671616476322));
#732=CARTESIAN_POINT('',(-0.00412381093635472,0.0080886263565568,0.0058576696830622));
#733=CARTESIAN_POINT('',(-0.00412381093635472,0.0080886263565568,0.00743671616476322));
#734=CARTESIAN_POINT('',(-0.00756236633235705,0.00604860560528447,0.0058576696830622));
#735=CARTESIAN_POINT('',(-0.00756236633235705,0.00604860560528447,0.00743671616476322));
#736=CARTESIAN_POINT('',(-0.00969813780727213,0.0031966674102437,0.0058576696830622));
#737=CARTESIAN_POINT('',(-0.00969813780727213,0.0031966674102437,0.00743671616476322));
#738=CARTESIAN_POINT('',(-0.0104097905580772,6.35178785171917E-5,0.0058576696830622));
#739=CARTESIAN_POINT('',(-0.0104097905580772,6.35178785171917E-5,0.00743671616476322));
#740=CARTESIAN_POINT('',(-0.00975374581696448,-0.00307346980967677,0.0058576696830622));
#741=CARTESIAN_POINT('',(-0.00975374581696448,-0.00307346980967677,0.00743671616476322));
#742=CARTESIAN_POINT('',(-0.00767541497618146,-0.00594572686788006,0.0058576696830622));
#743=CARTESIAN_POINT('',(-0.00767541497618146,-0.00594572686788006,0.00743671616476322));
#744=CARTESIAN_POINT('',(-0.00428151751388614,-0.0080294942558814,0.0058576696830622));
#745=CARTESIAN_POINT('',(-0.00428151751388614,-0.0080294942558814,0.00743671616476322));
#746=CARTESIAN_POINT('',(-8.72046748030185E-5,-0.00881238804163135,0.0058576696830622));
#747=CARTESIAN_POINT('',(-8.72046748030185E-5,-0.00881238804163135,0.00743671616476322));
#748=CARTESIAN_POINT('',(0.00412381093635468,-0.00808862635655682,0.0058576696830622));
#749=CARTESIAN_POINT('',(0.00412381093635468,-0.00808862635655682,0.00743671616476322));
#750=CARTESIAN_POINT('',(0.00756236633235706,-0.00604860560528448,0.0058576696830622));
#751=CARTESIAN_POINT('',(0.00756236633235706,-0.00604860560528448,0.00743671616476322));
#752=CARTESIAN_POINT('',(0.00969813780727214,-0.0031966674102437,0.0058576696830622));
#753=CARTESIAN_POINT('',(0.00969813780727214,-0.0031966674102437,0.00743671616476322));
#754=CARTESIAN_POINT('',(0.00641607309000237,-0.00672942538591731,0.00743671616476322));
#755=CARTESIAN_POINT('',(0.00827439826768265,-0.00509714667672883,0.00743671616476322));
#756=CARTESIAN_POINT('',(0.00898725548806008,-0.00414757599873374,0.00743671616476322));
#757=CARTESIAN_POINT('',(0.00993431388511418,-0.00215202170952509,0.00743671616476322));
#758=CARTESIAN_POINT('',(0.0101726169318892,-0.00110667842986323,0.00743671616476322));
#759=CARTESIAN_POINT('',(0.0101910650202926,0.000980922058318016,0.00743671616476322));
#760=CARTESIAN_POINT('',(0.00997136202813817,0.00202761558344516,0.00743671616476322));
#761=CARTESIAN_POINT('',(0.00906203423923402,0.00403108049257815,0.00743671616476322));
#762=CARTESIAN_POINT('',(0.00836826232304087,0.00498747896329171,0.00743671616476322));
#763=CARTESIAN_POINT('',(0.00654404542215128,0.0066411448824011,0.00743671616476322));
#764=CARTESIAN_POINT('',(0.00541330298745303,0.00733458919922283,0.00743671616476322));
#765=CARTESIAN_POINT('',(0.00288292691472332,0.00829077477845617,0.00743671616476322));
#766=CARTESIAN_POINT('',(0.00148581505270786,0.00855141808631493,0.00743671616476322));
#767=CARTESIAN_POINT('',(-0.00131697329379331,0.00857113950667294,0.00743671616476322));
#768=CARTESIAN_POINT('',(-0.0027196500736817,0.00833017986956232,0.00743671616476322));
#769=CARTESIAN_POINT('',(-0.00527048506064259,0.00740831982148536,0.00743671616476322));
#770=CARTESIAN_POINT('',(-0.00641607315574007,0.00672942532770848,0.00743671616476322));
#771=CARTESIAN_POINT('',(-0.00827439820194495,0.00509714673493765,0.00743671616476322));
#772=CARTESIAN_POINT('',(-0.00898725548806065,0.00414757599872694,0.00743671616476322));
#773=CARTESIAN_POINT('',(-0.00993431388511361,0.00215202170953188,0.00743671616476322));
#774=CARTESIAN_POINT('',(-0.0101726169318876,0.00110667842986168,0.00743671616476322));
#775=CARTESIAN_POINT('',(-0.0101910650202942,-0.000980922058316448,0.00743671616476322));
#776=CARTESIAN_POINT('',(-0.00997136202814066,-0.0020276155834414,0.00743671616476322));
#777=CARTESIAN_POINT('',(-0.00906203423923153,-0.00403108049258191,0.00743671616476322));
#778=CARTESIAN_POINT('',(-0.00836826232303844,-0.00498747896329332,0.00743671616476322));
#779=CARTESIAN_POINT('',(-0.00654404542215371,-0.00664114488239948,0.00743671616476322));
#780=CARTESIAN_POINT('',(-0.00541330298744546,-0.00733458919922788,0.00743671616476322));
#781=CARTESIAN_POINT('',(-0.00288292691473089,-0.00829077477845112,0.00743671616476322));
#782=CARTESIAN_POINT('',(-0.00148581505271052,-0.0085514180863184,0.00743671616476322));
#783=CARTESIAN_POINT('',(0.00131697329379601,-0.00857113950666947,0.00743671616476322));
#784=CARTESIAN_POINT('',(0.00271965007368253,-0.00833017986956233,0.00743671616476322));
#785=CARTESIAN_POINT('',(0.00527048506064173,-0.00740831982148537,0.00743671616476322));
#786=CARTESIAN_POINT('',(0.00641607309000237,-0.00672942538591731,0.00743671616476322));
#787=CARTESIAN_POINT('',(0.00827439826768265,-0.00509714667672883,0.00743671616476322));
#788=CARTESIAN_POINT('',(-0.00818211966902949,0.00507787340905573,0.00743671616476322));
#789=CARTESIAN_POINT('',(-0.00818211968463376,-0.0050779785112105,0.00743671616476322));
#790=CARTESIAN_POINT('',(0.00641607309000237,-0.00672942538591731,0.00743671616476322));
#791=CARTESIAN_POINT('',(0.00827439826768265,-0.00509714667672883,0.00743671616476322));
#792=CARTESIAN_POINT('',(0.00898725548806008,-0.00414757599873374,0.00743671616476322));
#793=CARTESIAN_POINT('',(0.00993431388511418,-0.00215202170952509,0.00743671616476322));
#794=CARTESIAN_POINT('',(0.0101726169318892,-0.00110667842986323,0.00743671616476322));
#795=CARTESIAN_POINT('',(0.0101910650202926,0.000980922058318016,0.00743671616476322));
#796=CARTESIAN_POINT('',(0.00997136202813817,0.00202761558344516,0.00743671616476322));
#797=CARTESIAN_POINT('',(0.00906203423923402,0.00403108049257815,0.00743671616476322));
#798=CARTESIAN_POINT('',(0.00836826232304087,0.00498747896329171,0.00743671616476322));
#799=CARTESIAN_POINT('',(0.00654404542215128,0.0066411448824011,0.00743671616476322));
#800=CARTESIAN_POINT('',(0.00541330298745303,0.00733458919922283,0.00743671616476322));
#801=CARTESIAN_POINT('',(0.00288292691472332,0.00829077477845617,0.00743671616476322));
#802=CARTESIAN_POINT('',(0.00148581505270786,0.00855141808631493,0.00743671616476322));
#803=CARTESIAN_POINT('',(-0.00131697329379331,0.00857113950667294,0.00743671616476322));
#804=CARTESIAN_POINT('',(-0.0027196500736817,0.00833017986956232,0.00743671616476322));
#805=CARTESIAN_POINT('',(-0.00527048506064259,0.00740831982148536,0.00743671616476322));
#806=CARTESIAN_POINT('',(-0.00641607315574007,0.00672942532770848,0.00743671616476322));
#807=CARTESIAN_POINT('',(-0.00827439820194495,0.00509714673493765,0.00743671616476322));
#808=CARTESIAN_POINT('',(-0.00898725548806065,0.00414757599872694,0.00743671616476322));
#809=CARTESIAN_POINT('',(-0.00993431388511361,0.00215202170953188,0.00743671616476322));
#810=CARTESIAN_POINT('',(-0.0101726169318876,0.00110667842986168,0.00743671616476322));
#811=CARTESIAN_POINT('',(-0.0101910650202942,-0.000980922058316448,0.00743671616476322));
#812=CARTESIAN_POINT('',(-0.00997136202814066,-0.0020276155834414,0.00743671616476322));
#813=CARTESIAN_POINT('',(-0.00906203423923153,-0.00403108049258191,0.00743671616476322));
#814=CARTESIAN_POINT('',(-0.00836826232303844,-0.00498747896329332,0.00743671616476322));
#815=CARTESIAN_POINT('',(-0.00654404542215371,-0.00664114488239948,0.00743671616476322));
#816=CARTESIAN_POINT('',(-0.00541330298744546,-0.00733458919922788,0.00743671616476322));
#817=CARTESIAN_POINT('',(-0.00288292691473089,-0.00829077477845112,0.00743671616476322));
#818=CARTESIAN_POINT('',(-0.00148581505271052,-0.0085514180863184,0.00743671616476322));
#819=CARTESIAN_POINT('',(0.00131697329379601,-0.00857113950666947,0.00743671616476322));
#820=CARTESIAN_POINT('',(0.00271965007368253,-0.00833017986956233,0.00743671616476322));
#821=CARTESIAN_POINT('',(0.00527048506064173,-0.00740831982148537,0.00743671616476322));
#822=CARTESIAN_POINT('',(0.00641607309000237,-0.00672942538591731,0.00743671616476322));
#823=CARTESIAN_POINT('',(0.00827439826768265,-0.00509714667672883,0.00743671616476322));
#824=CARTESIAN_POINT('',(0.00701526905721081,-0.0055376239110488,0.00125));
#825=CARTESIAN_POINT('',(0.,9.63549187631342E-21,0.00125));
#826=CARTESIAN_POINT('',(-0.00315,-0.00184390889145858,0.00125));
#827=CARTESIAN_POINT('',(-0.00315,0.00184390889145858,0.00125));
#828=CARTESIAN_POINT('',(-0.00315,-0.0055376239110488,0.00125));
#829=CARTESIAN_POINT('',(0.00697846752531437,-0.00756642382463683,0.00125));
#830=CARTESIAN_POINT('',(0.00903187031889746,-0.0057627967191064,0.00125));
#831=CARTESIAN_POINT('',(0.00983013869531411,-0.00470389025218212,0.00125));
#832=CARTESIAN_POINT('',(0.0108982767981986,-0.00245320795019775,0.00125));
#833=CARTESIAN_POINT('',(0.0111712816142022,-0.00126220245592829,0.00125));
#834=CARTESIAN_POINT('',(0.0111923222502984,0.00111877281001174,0.00125));
#835=CARTESIAN_POINT('',(0.0109404763086782,0.00231198354684431,0.00125));
#836=CARTESIAN_POINT('',(0.00991411084557381,0.00457331022669925,0.00125));
#837=CARTESIAN_POINT('',(0.00913641562265883,0.00564086661601024,0.00125));
#838=CARTESIAN_POINT('',(0.00711914028780629,0.00746954141318933,0.00125));
#839=CARTESIAN_POINT('',(0.0058795471196889,0.00822741965632402,0.00125));
#840=CARTESIAN_POINT('',(0.00312365585136538,0.00926882354778338,0.00125));
#841=CARTESIAN_POINT('',(0.00160965458790351,0.00955057146195061,0.00125));
#842=CARTESIAN_POINT('',(-0.00142674046266328,0.00957193662255098,0.00125));
#843=CARTESIAN_POINT('',(-0.00294643247315038,0.00931152163458916,0.00125));
#844=CARTESIAN_POINT('',(-0.005723464622953,0.0083079149706899,0.00125));
#845=CARTESIAN_POINT('',(-0.00697846759800953,0.00756642376041158,0.00125));
#846=CARTESIAN_POINT('',(-0.0090318702462023,0.00576279678333165,0.00125));
#847=CARTESIAN_POINT('',(-0.00983013869531494,0.00470389025217474,0.00125));
#848=CARTESIAN_POINT('',(-0.0108982767981978,0.00245320795020512,0.00125));
#849=CARTESIAN_POINT('',(-0.0111712816142021,0.00126220245592708,0.00125));
#850=CARTESIAN_POINT('',(-0.0111923222502985,-0.00111877281001051,0.00125));
#851=CARTESIAN_POINT('',(-0.0109404763086804,-0.00231198354684039,0.00125));
#852=CARTESIAN_POINT('',(-0.00991411084557159,-0.00457331022670318,0.00125));
#853=CARTESIAN_POINT('',(-0.00913641562265236,-0.00564086661601347,0.00125));
#854=CARTESIAN_POINT('',(-0.00711914028781276,-0.00746954141318609,0.00125));
#855=CARTESIAN_POINT('',(-0.00587954711968133,-0.0082274196563257,0.00125));
#856=CARTESIAN_POINT('',(-0.00312365585137296,-0.0092688235477817,0.00125));
#857=CARTESIAN_POINT('',(-0.00160965458790641,-0.00955057146194896,0.00125));
#858=CARTESIAN_POINT('',(0.00142674046266623,-0.00957193662255264,0.00125));
#859=CARTESIAN_POINT('',(0.00294643247315037,-0.00931152163458748,0.00125));
#860=CARTESIAN_POINT('',(0.00572346462295298,-0.00830791497069159,0.00125));
#861=CARTESIAN_POINT('',(0.00697846752531437,-0.00756642382463683,0.00125));
#862=CARTESIAN_POINT('',(0.00903187031889746,-0.0057627967191064,0.00125));
#863=CARTESIAN_POINT('',(0.00800516892210591,-0.00666461027187162,0.00125));
#864=CARTESIAN_POINT('',(0.00446745902679914,-0.00905059868695033,0.00125));
#865=CARTESIAN_POINT('',(0.00446745902679914,-0.00905059868695033,0.0021523823036597));
#866=CARTESIAN_POINT('',(0.00823415884338348,-0.00682331644060586,0.00125));
#867=CARTESIAN_POINT('',(0.00823415884338348,-0.00682331644060586,0.0021523823036597));
#868=CARTESIAN_POINT('',(0.0106269191323024,-0.00364379718185592,0.00125));
#869=CARTESIAN_POINT('',(0.0106269191323024,-0.00364379718185592,0.0021523823036597));
#870=CARTESIAN_POINT('',(0.011443411107945,-7.27894391100767E-5,0.00125));
#871=CARTESIAN_POINT('',(0.011443411107945,-7.27894391100767E-5,0.0021523823036597));
#872=CARTESIAN_POINT('',(0.0106902480294192,0.00350466600054658,0.00125));
#873=CARTESIAN_POINT('',(0.0106902480294192,0.00350466600054658,0.0021523823036597));
#874=CARTESIAN_POINT('',(0.00835935823713411,0.00671000675755442,0.00125));
#875=CARTESIAN_POINT('',(0.00835935823713411,0.00671000675755442,0.0021523823036597));
#876=CARTESIAN_POINT('',(0.00463898675343967,0.00898653105683445,0.00125));
#877=CARTESIAN_POINT('',(0.00463898675343967,0.00898653105683445,0.0021523823036597));
#878=CARTESIAN_POINT('',(9.4303662270046E-5,0.00983259862743,0.00125));
#879=CARTESIAN_POINT('',(9.4303662270046E-5,0.00983259862743,0.0021523823036597));
#880=CARTESIAN_POINT('',(-0.00446745902679918,0.00905059868695033,0.00125));
#881=CARTESIAN_POINT('',(-0.00446745902679918,0.00905059868695033,0.0021523823036597));
#882=CARTESIAN_POINT('',(-0.00823415884338348,0.00682331644060586,0.00125));
#883=CARTESIAN_POINT('',(-0.00823415884338348,0.00682331644060586,0.0021523823036597));
#884=CARTESIAN_POINT('',(-0.0106269191323024,0.00364379718185591,0.00125));
#885=CARTESIAN_POINT('',(-0.0106269191323024,0.00364379718185591,0.0021523823036597));
#886=CARTESIAN_POINT('',(-0.011443411107945,7.27894391101003E-5,0.00125));
#887=CARTESIAN_POINT('',(-0.011443411107945,7.27894391101003E-5,0.0021523823036597));
#888=CARTESIAN_POINT('',(-0.0106902480294192,-0.0035046660005466,0.00125));
#889=CARTESIAN_POINT('',(-0.0106902480294192,-0.0035046660005466,0.0021523823036597));
#890=CARTESIAN_POINT('',(-0.00835935823713411,-0.00671000675755441,0.00125));
#891=CARTESIAN_POINT('',(-0.00835935823713411,-0.00671000675755441,0.0021523823036597));
#892=CARTESIAN_POINT('',(-0.00463898675343969,-0.00898653105683445,0.00125));
#893=CARTESIAN_POINT('',(-0.00463898675343969,-0.00898653105683445,0.0021523823036597));
#894=CARTESIAN_POINT('',(-9.43036622699983E-5,-0.00983259862743001,0.00125));
#895=CARTESIAN_POINT('',(-9.43036622699983E-5,-0.00983259862743001,0.0021523823036597));
#896=CARTESIAN_POINT('',(0.00446745902679914,-0.00905059868695033,0.00125));
#897=CARTESIAN_POINT('',(0.00446745902679914,-0.00905059868695033,0.0021523823036597));
#898=CARTESIAN_POINT('',(0.00823415884338348,-0.00682331644060586,0.00125));
#899=CARTESIAN_POINT('',(0.00823415884338348,-0.00682331644060586,0.0021523823036597));
#900=CARTESIAN_POINT('',(0.0106269191323024,-0.00364379718185592,0.00125));
#901=CARTESIAN_POINT('',(0.0106269191323024,-0.00364379718185592,0.0021523823036597));
#902=CARTESIAN_POINT('',(-0.00818211966903073,-0.00507797852895381,0.0114367161647632));
#903=CARTESIAN_POINT('',(-0.00818211966903073,-0.00507797852895381,0.00743671616476322));
#904=CARTESIAN_POINT('',(-0.00694317114458485,-0.00648687462742418,0.0114367161647632));
#905=CARTESIAN_POINT('',(-0.00694317114458485,-0.00648687462742418,0.00743671616476322));
#906=CARTESIAN_POINT('',(-0.00418605747854704,-0.00818853338338902,0.0114367161647632));
#907=CARTESIAN_POINT('',(-0.00418605747854704,-0.00818853338338902,0.00743671616476322));
#908=CARTESIAN_POINT('',(0.000255519170660292,-0.00871320276029915,0.0114367161647632));
#909=CARTESIAN_POINT('',(0.000255519170660292,-0.00871320276029915,0.00743671616476322));
#910=CARTESIAN_POINT('',(0.00355139264426357,-0.00818084774057453,0.0114367161647632));
#911=CARTESIAN_POINT('',(0.00355139264426357,-0.00818084774057453,0.00743671616476322));
#912=CARTESIAN_POINT('',(0.00643124655315688,-0.00680759546458176,0.0114367161647632));
#913=CARTESIAN_POINT('',(0.00643124655315688,-0.00680759546458176,0.00743671616476322));
#914=CARTESIAN_POINT('',(0.00859646351562371,-0.00481353622929092,0.0114367161647632));
#915=CARTESIAN_POINT('',(0.00859646351562371,-0.00481353622929092,0.00743671616476323));
#916=CARTESIAN_POINT('',(0.00989854689885601,-0.00246917272205939,0.0114367161647632));
#917=CARTESIAN_POINT('',(0.00989854689885601,-0.00246917272205939,0.00743671616476323));
#918=CARTESIAN_POINT('',(0.0103239222264713,1.13048171804383E-7,0.0114367161647632));
#919=CARTESIAN_POINT('',(0.0103239222264713,1.13048171804383E-7,0.00743671616476322));
#920=CARTESIAN_POINT('',(0.00989848221934649,0.00246917235590863,0.0114367161647632));
#921=CARTESIAN_POINT('',(0.00989848221934649,0.00246917235590863,0.00743671616476323));
#922=CARTESIAN_POINT('',(0.00859649331203188,0.00481370892080311,0.0114367161647632));
#923=CARTESIAN_POINT('',(0.00859649331203188,0.00481370892080311,0.00743671616476322));
#924=CARTESIAN_POINT('',(0.00643094574607461,0.00680771034201107,0.0114367161647632));
#925=CARTESIAN_POINT('',(0.00643094574607461,0.00680771034201107,0.00743671616476323));
#926=CARTESIAN_POINT('',(0.00355114828352713,0.00818071191385685,0.0114367161647632));
#927=CARTESIAN_POINT('',(0.00355114828352713,0.00818071191385685,0.00743671616476322));
#928=CARTESIAN_POINT('',(0.000255392745876611,0.0087133228878051,0.0114367161647632));
#929=CARTESIAN_POINT('',(0.000255392745876611,0.0087133228878051,0.00743671616476322));
#930=CARTESIAN_POINT('',(-0.00418644282361663,0.00818856500168108,0.0114367161647632));
#931=CARTESIAN_POINT('',(-0.00418644282361663,0.00818856500168108,0.00743671616476322));
#932=CARTESIAN_POINT('',(-0.00694305980107,0.00648687631079072,0.0114367161647632));
#933=CARTESIAN_POINT('',(-0.00694305980107,0.00648687631079072,0.00743671616476322));
#934=CARTESIAN_POINT('',(-0.00818211966903078,0.00507787341979686,0.0114367161647632));
#935=CARTESIAN_POINT('',(-0.00818211966903078,0.00507787341979686,0.00743671616476322));
#936=CARTESIAN_POINT('',(-0.00818211966902949,0.00507787341979832,0.0134367161647632));
#937=CARTESIAN_POINT('',(-0.00818222234567906,0.00507796369476508,0.011436755827251));
#938=CARTESIAN_POINT('',(-0.00818211969067518,0.00507787339518382,0.0114367161647632));
#939=CARTESIAN_POINT('',(-0.00694305982527754,0.00648687629368538,0.0114367161647632));
#940=CARTESIAN_POINT('',(-0.00418644284460265,0.00818856499651024,0.0114367161647632));
#941=CARTESIAN_POINT('',(0.000255392738584196,0.00871332288894697,0.0114367161647632));
#942=CARTESIAN_POINT('',(0.00355114828706247,0.00818071191379175,0.0114367161647632));
#943=CARTESIAN_POINT('',(0.00643094575746294,0.00680771033551953,0.0114367161647632));
#944=CARTESIAN_POINT('',(0.00859649332567041,0.00481370890499932,0.0114367161647632));
#945=CARTESIAN_POINT('',(0.00989848222924005,0.00246917233060027,0.0114367161647632));
#946=CARTESIAN_POINT('',(0.0103239222273633,1.13014329109334E-7,0.0114367161647632));
#947=CARTESIAN_POINT('',(0.00989854688539105,-0.00246917276297405,0.0114367161647632));
#948=CARTESIAN_POINT('',(0.00859646348182045,-0.0048135362737896,0.0114367161647632));
#949=CARTESIAN_POINT('',(0.00643124649472684,-0.00680759550513128,0.0114367161647632));
#950=CARTESIAN_POINT('',(0.00355139256205592,-0.0081808477670726,0.0114367161647632));
#951=CARTESIAN_POINT('',(0.000255519071403321,-0.008713202763465,0.0114367161647632));
#952=CARTESIAN_POINT('',(-0.00418605758544726,-0.00818853334669471,0.0114367161647632));
#953=CARTESIAN_POINT('',(-0.0069431712345709,-0.00648687455991938,0.0114367161647632));
#954=CARTESIAN_POINT('',(-0.00818211974127023,-0.00507797844680515,0.0114367161647632));
#955=CARTESIAN_POINT('',(-0.00818211966902949,-0.00507787834899093,0.0114366408163382));
#956=CARTESIAN_POINT('',(-0.00818211966902949,-0.00507797852895521,0.0134367161647632));
#957=CARTESIAN_POINT('',(0.00668530243557911,-0.00516196179077452,0.0134367161647632));
#958=CARTESIAN_POINT('',(0.,9.63549187631342E-21,0.0134367161647632));
#959=CARTESIAN_POINT('',(-0.00215,0.00154919333848297,0.0134367161647632));
#960=CARTESIAN_POINT('',(-0.00215,-0.00154919333848297,0.0134367161647632));
#961=CARTESIAN_POINT('',(-0.00215,-0.00516196179077452,0.0134367161647632));
#962=CARTESIAN_POINT('',(-0.00743155368596487,0.00287057054632661,0.0134367161647632));
#963=CARTESIAN_POINT('',(-0.00815700595049988,0.00107326556815924,0.0134367161647632));
#964=CARTESIAN_POINT('',(-0.00827235303467284,7.45382220074562E-5,0.0134367161647632));
#965=CARTESIAN_POINT('',(-0.00793931822150644,-0.00183975823738179,0.0134367161647632));
#966=CARTESIAN_POINT('',(-0.00750041287656104,-0.00273907823003193,0.0134367161647632));
#967=CARTESIAN_POINT('',(-0.00659936543214219,-0.00387255476397442,0.0134367161647632));
#968=CARTESIAN_POINT('',(-0.00625357864095816,-0.00422361397311976,0.0134367161647632));
#969=CARTESIAN_POINT('',(-0.0055113990037794,-0.00484209491063825,0.0134367161647632));
#970=CARTESIAN_POINT('',(-0.0051140241164099,-0.00511442474648592,0.0134367161647632));
#971=CARTESIAN_POINT('',(-0.00427399944075608,-0.0055930391286272,0.0134367161647632));
#972=CARTESIAN_POINT('',(-0.00382807304058007,-0.00579937004354521,0.0134367161647632));
#973=CARTESIAN_POINT('',(-0.00292637941799763,-0.00613198736756513,0.0134367161647632));
#974=CARTESIAN_POINT('',(-0.0024637412687219,-0.00626245307916168,0.0134367161647632));
#975=CARTESIAN_POINT('',(-0.00105198107428923,-0.0065520365894379,0.0134367161647632));
#976=CARTESIAN_POINT('',(-6.62931885357347E-5,-0.00660829271769037,0.0134367161647632));
#977=CARTESIAN_POINT('',(0.00184393854271814,-0.00643433609346867,0.0134367161647632));
#978=CARTESIAN_POINT('',(0.00280641685682822,-0.00620940804399139,0.0134367161647632));
#979=CARTESIAN_POINT('',(0.00458600804202667,-0.00547232014478819,0.0134367161647632));
#980=CARTESIAN_POINT('',(0.00542833802422463,-0.00496170167194733,0.0134367161647632));
#981=CARTESIAN_POINT('',(0.00685865884660049,-0.0036475299791543,0.0134367161647632));
#982=CARTESIAN_POINT('',(0.00744049699004892,-0.00285860384373989,0.0134367161647632));
#983=CARTESIAN_POINT('',(0.00798518696962082,-0.00149348765982136,0.0134367161647632));
#984=CARTESIAN_POINT('',(0.00810257569809397,-0.00101931148962508,0.0134367161647632));
#985=CARTESIAN_POINT('',(0.00820444072225901,-6.31466422801981E-5,0.0134367161647632));
#986=CARTESIAN_POINT('',(0.0081863168994476,0.000434712842382775,0.0134367161647632));
#987=CARTESIAN_POINT('',(0.00801709030874422,0.00137742994789888,0.0134367161647632));
#988=CARTESIAN_POINT('',(0.00786856483590257,0.00183744581333115,0.0134367161647632));
#989=CARTESIAN_POINT('',(0.00745178853347902,0.00272073358151532,0.0134367161647632));
#990=CARTESIAN_POINT('',(0.00719337062663378,0.00312588680350673,0.0134367161647632));
#991=CARTESIAN_POINT('',(0.00659188170867105,0.00388139267172349,0.0134367161647632));
#992=CARTESIAN_POINT('',(0.0062456250685861,0.00423091191100563,0.0134367161647632));
#993=CARTESIAN_POINT('',(0.00550735175029162,0.00484479658643099,0.0134367161647632));
#994=CARTESIAN_POINT('',(0.00511037320257083,0.00511704731043988,0.0134367161647632));
#995=CARTESIAN_POINT('',(0.00384576510836451,0.00583593247794815,0.0134367161647632));
#996=CARTESIAN_POINT('',(0.00294070543469448,0.00616424620630679,0.0134367161647632));
#997=CARTESIAN_POINT('',(0.00105228374211696,0.0065523446717125,0.0134367161647632));
#998=CARTESIAN_POINT('',(7.79290962033825E-5,0.00660826543919042,0.0134367161647632));
#999=CARTESIAN_POINT('',(-0.00183487954926654,0.00643622036107339,0.0134367161647632));
#1000=CARTESIAN_POINT('',(-0.00279021426522779,0.00621426270592434,0.0134367161647632));
#1001=CARTESIAN_POINT('',(-0.00457152385049886,0.00548011559332259,0.0134367161647632));
#1002=CARTESIAN_POINT('',(-0.00541215619911902,0.00497071341691648,0.0134367161647632));
#1003=CARTESIAN_POINT('',(-0.00684278663049709,0.00366782798599277,0.0134367161647632));
#1004=CARTESIAN_POINT('',(-0.00743155368596487,0.00287057054632661,0.0134367161647632));
#1005=CARTESIAN_POINT('',(-0.00815700595049988,0.00107326556815924,0.0134367161647632));
#1006=CARTESIAN_POINT('',(-0.00818167718370465,-1.98770090359016E-7,0.0134361364479826));
#1007=CARTESIAN_POINT('',(-0.00149552732436843,0.,0.00743671616476322));
#1008=CARTESIAN_POINT('',(-0.00818211966902949,0.,0.00743671616476322));
#1009=CARTESIAN_POINT('',(-0.00818211966902949,0.,0.00743671616476322));
#1010=CARTESIAN_POINT('',(-0.00818211966902949,-0.00507772537085708,0.0114366081941482));
#1011=CARTESIAN_POINT('',(-0.00818211966902949,-0.00463332384483678,0.0117302169144837));
#1012=CARTESIAN_POINT('',(-0.00818211966902949,-0.00399577623744006,0.012121594129695));
#1013=CARTESIAN_POINT('',(-0.00818211966902949,-0.00331840885651043,0.0124858546104139));
#1014=CARTESIAN_POINT('',(-0.00818211966902949,-0.00293250414978964,0.0126750856719789));
#1015=CARTESIAN_POINT('',(-0.00818211966902949,-0.00269266170377309,0.0127870161995577));
#1016=CARTESIAN_POINT('',(-0.00818211966902949,-0.00230193075096985,0.0129529561798295));
#1017=CARTESIAN_POINT('',(-0.00818211966902949,-0.00184520420431845,0.0131214979455139));
#1018=CARTESIAN_POINT('',(-0.00818211966902949,-0.00104426456064875,0.0133581095657655));
#1019=CARTESIAN_POINT('',(-0.00818211966902949,-0.000407971663441215,0.013435969320372));
#1020=CARTESIAN_POINT('',(-0.00818211966902949,-2.00914514591474E-7,0.0134351140463932));
#1021=CARTESIAN_POINT('',(-0.00818211966902949,-2.00914514591582E-7,0.0134351140463932));
#1022=CARTESIAN_POINT('',(-0.00818211966902949,0.00041311876189077,0.0134342471338814));
#1023=CARTESIAN_POINT('',(-0.00818211966902949,0.00105371254042216,0.0133551875515102));
#1024=CARTESIAN_POINT('',(-0.00818211966902949,0.00185192048271732,0.0131198954757348));
#1025=CARTESIAN_POINT('',(-0.00818211966902949,0.00230568337701106,0.0129525437735209));
#1026=CARTESIAN_POINT('',(-0.00818211966902949,0.00269125880952809,0.0127886518822902));
#1027=CARTESIAN_POINT('',(-0.00818211966902949,0.00293214157629288,0.0126760896662389));
#1028=CARTESIAN_POINT('',(-0.00818211966902949,0.0033174376528042,0.0124869285366641));
#1029=CARTESIAN_POINT('',(-0.00818211966902949,0.00399508263008042,0.0121223069019074));
#1030=CARTESIAN_POINT('',(-0.00818211966902949,0.00463311857809853,0.0117306882529081));
#1031=CARTESIAN_POINT('',(-0.00818211966902949,0.00507818488372942,0.011436849183744));
#1032=CARTESIAN_POINT('',(-0.00743155368596487,0.00287057054632661,0.0134367161647632));
#1033=CARTESIAN_POINT('',(-0.00815700595049988,0.00107326556815924,0.0134367161647632));
#1034=CARTESIAN_POINT('',(-0.00827235303467284,7.45382220074562E-5,0.0134367161647632));
#1035=CARTESIAN_POINT('',(-0.00793931822150644,-0.00183975823738179,0.0134367161647632));
#1036=CARTESIAN_POINT('',(-0.00750041287656104,-0.00273907823003193,0.0134367161647632));
#1037=CARTESIAN_POINT('',(-0.00659936543214219,-0.00387255476397442,0.0134367161647632));
#1038=CARTESIAN_POINT('',(-0.00625357864095816,-0.00422361397311976,0.0134367161647632));
#1039=CARTESIAN_POINT('',(-0.0055113990037794,-0.00484209491063825,0.0134367161647632));
#1040=CARTESIAN_POINT('',(-0.0051140241164099,-0.00511442474648592,0.0134367161647632));
#1041=CARTESIAN_POINT('',(-0.00427399944075608,-0.0055930391286272,0.0134367161647632));
#1042=CARTESIAN_POINT('',(-0.00382807304058007,-0.00579937004354521,0.0134367161647632));
#1043=CARTESIAN_POINT('',(-0.00292637941799763,-0.00613198736756513,0.0134367161647632));
#1044=CARTESIAN_POINT('',(-0.0024637412687219,-0.00626245307916168,0.0134367161647632));
#1045=CARTESIAN_POINT('',(-0.00105198107428923,-0.0065520365894379,0.0134367161647632));
#1046=CARTESIAN_POINT('',(-6.62931885357347E-5,-0.00660829271769037,0.0134367161647632));
#1047=CARTESIAN_POINT('',(0.00184393854271814,-0.00643433609346867,0.0134367161647632));
#1048=CARTESIAN_POINT('',(0.00280641685682822,-0.00620940804399139,0.0134367161647632));
#1049=CARTESIAN_POINT('',(0.00458600804202667,-0.00547232014478819,0.0134367161647632));
#1050=CARTESIAN_POINT('',(0.00542833802422463,-0.00496170167194733,0.0134367161647632));
#1051=CARTESIAN_POINT('',(0.00685865884660049,-0.0036475299791543,0.0134367161647632));
#1052=CARTESIAN_POINT('',(0.00744049699004892,-0.00285860384373989,0.0134367161647632));
#1053=CARTESIAN_POINT('',(0.00798518696962082,-0.00149348765982136,0.0134367161647632));
#1054=CARTESIAN_POINT('',(0.00810257569809397,-0.00101931148962508,0.0134367161647632));
#1055=CARTESIAN_POINT('',(0.00820444072225901,-6.31466422801981E-5,0.0134367161647632));
#1056=CARTESIAN_POINT('',(0.0081863168994476,0.000434712842382775,0.0134367161647632));
#1057=CARTESIAN_POINT('',(0.00801709030874422,0.00137742994789888,0.0134367161647632));
#1058=CARTESIAN_POINT('',(0.00786856483590257,0.00183744581333115,0.0134367161647632));
#1059=CARTESIAN_POINT('',(0.00745178853347902,0.00272073358151532,0.0134367161647632));
#1060=CARTESIAN_POINT('',(0.00719337062663378,0.00312588680350673,0.0134367161647632));
#1061=CARTESIAN_POINT('',(0.00659188170867105,0.00388139267172349,0.0134367161647632));
#1062=CARTESIAN_POINT('',(0.0062456250685861,0.00423091191100563,0.0134367161647632));
#1063=CARTESIAN_POINT('',(0.00550735175029162,0.00484479658643099,0.0134367161647632));
#1064=CARTESIAN_POINT('',(0.00511037320257083,0.00511704731043988,0.0134367161647632));
#1065=CARTESIAN_POINT('',(0.00384576510836451,0.00583593247794815,0.0134367161647632));
#1066=CARTESIAN_POINT('',(0.00294070543469448,0.00616424620630679,0.0134367161647632));
#1067=CARTESIAN_POINT('',(0.00105228374211696,0.0065523446717125,0.0134367161647632));
#1068=CARTESIAN_POINT('',(7.79290962033825E-5,0.00660826543919042,0.0134367161647632));
#1069=CARTESIAN_POINT('',(-0.00183487954926654,0.00643622036107339,0.0134367161647632));
#1070=CARTESIAN_POINT('',(-0.00279021426522779,0.00621426270592434,0.0134367161647632));
#1071=CARTESIAN_POINT('',(-0.00457152385049886,0.00548011559332259,0.0134367161647632));
#1072=CARTESIAN_POINT('',(-0.00541215619911902,0.00497071341691648,0.0134367161647632));
#1073=CARTESIAN_POINT('',(-0.00684278663049709,0.00366782798599277,0.0134367161647632));
#1074=CARTESIAN_POINT('',(-0.00743155368596487,0.00287057054632661,0.0134367161647632));
#1075=CARTESIAN_POINT('',(-0.00815700595049988,0.00107326556815924,0.0134367161647632));
#1076=CARTESIAN_POINT('',(-0.00915655340208418,0.00393590218740437,0.0114367161647632));
#1077=CARTESIAN_POINT('',(-0.0101432961552807,0.00150002210243345,0.0114367161647632));
#1078=CARTESIAN_POINT('',(-0.0103080015955308,0.000100508624308632,0.0114367161647632));
#1079=CARTESIAN_POINT('',(-0.00984461452788506,-0.00255053047481616,0.0114367161647632));
#1080=CARTESIAN_POINT('',(-0.00924484391226441,-0.00375916648298505,0.0114367161647632));
#1081=CARTESIAN_POINT('',(-0.00807646565856661,-0.00522817822141961,0.0114367161647632));
#1082=CARTESIAN_POINT('',(-0.00763317711678276,-0.00567737672244143,0.0114367161647632));
#1083=CARTESIAN_POINT('',(-0.00669396085968891,-0.00646003111051197,0.0114367161647632));
#1084=CARTESIAN_POINT('',(-0.00620100009557278,-0.00679693395038115,0.0114367161647632));
#1085=CARTESIAN_POINT('',(-0.00516611163951999,-0.00738662111801077,0.0114367161647632));
#1086=CARTESIAN_POINT('',(-0.00462073570428397,-0.00763871038298161,0.0114367161647632));
#1087=CARTESIAN_POINT('',(-0.00351926542423778,-0.00804501359913646,0.0114367161647632));
#1088=CARTESIAN_POINT('',(-0.00296003815693999,-0.00820227623059894,0.0114367161647632));
#1089=CARTESIAN_POINT('',(-0.00126460765509272,-0.00855009765342804,0.0114367161647632));
#1090=CARTESIAN_POINT('',(-7.7830550342196E-5,-0.00861772602675959,0.0114367161647632));
#1091=CARTESIAN_POINT('',(0.00221503701276272,-0.00840870948270229,0.0114367161647632));
#1092=CARTESIAN_POINT('',(0.00337114762225621,-0.00814044429607015,0.0114367161647632));
#1093=CARTESIAN_POINT('',(0.0055491594694653,-0.00723798187938904,0.0114367161647632));
#1094=CARTESIAN_POINT('',(0.00658453522844379,-0.00661512371161388,0.0114367161647632));
#1095=CARTESIAN_POINT('',(0.00840604997514575,-0.00494209201796241,0.0114367161647632));
#1096=CARTESIAN_POINT('',(0.00916908865571661,-0.00391989605336397,0.0114367161647632));
#1097=CARTESIAN_POINT('',(0.00990932622533223,-0.00206947146467634,0.0114367161647632));
#1098=CARTESIAN_POINT('',(0.0100716939417953,-0.00141537146609223,0.0114367161647632));
#1099=CARTESIAN_POINT('',(0.0102130733588618,-8.83917028582381E-5,0.0114367161647632));
#1100=CARTESIAN_POINT('',(0.0101877500077113,0.000605093894183625,0.0114367161647632));
#1101=CARTESIAN_POINT('',(0.00995343281064737,0.00190984562629464,0.0114367161647632));
#1102=CARTESIAN_POINT('',(0.00974957279194738,0.00253802000242031,0.0114367161647632));
#1103=CARTESIAN_POINT('',(0.0091884092553855,0.00372684118715663,0.0114367161647632));
#1104=CARTESIAN_POINT('',(0.008846857891308,0.00425998619444189,0.0114367161647632));
#1105=CARTESIAN_POINT('',(0.00806660000731325,0.00524014906354758,0.0114367161647632));
#1106=CARTESIAN_POINT('',(0.00762303059569693,0.0056866769853989,0.0114367161647632));
#1107=CARTESIAN_POINT('',(0.00668893615870422,0.00646337217466601,0.0114367161647632));
#1108=CARTESIAN_POINT('',(0.00619567802440356,0.00680060396236089,0.0114367161647632));
#1109=CARTESIAN_POINT('',(0.00464018798474014,0.007685003809939,0.0114367161647632));
#1110=CARTESIAN_POINT('',(0.00353206403298002,0.00808450186821188,0.0114367161647632));
#1111=CARTESIAN_POINT('',(0.00126575954067481,0.00855028267445159,0.0114367161647632));
#1112=CARTESIAN_POINT('',(9.18766219143267E-5,0.00861770506631852,0.0114367161647632));
#1113=CARTESIAN_POINT('',(-0.0022042469100935,0.00841095903577945,0.0114367161647632));
#1114=CARTESIAN_POINT('',(-0.00335139373304243,0.00814636997566041,0.0114367161647632));
#1115=CARTESIAN_POINT('',(-0.0055314226497079,0.00724751111525843,0.0114367161647632));
#1116=CARTESIAN_POINT('',(-0.00656441247748844,0.00662611346646371,0.0114367161647632));
#1117=CARTESIAN_POINT('',(-0.00838541305765445,0.00496837232080948,0.0114367161647632));
#1118=CARTESIAN_POINT('',(-0.00915655340208418,0.00393590218740437,0.0114367161647632));
#1119=CARTESIAN_POINT('',(-0.0101432961552807,0.00150002210243345,0.0114367161647632));
#1120=CARTESIAN_POINT('',(-0.00215,-2.16840434497101E-19,0.0619643281841136));
#1121=CARTESIAN_POINT('',(-0.00215,-0.00154919333848297,0.0619643281841136));
#1122=CARTESIAN_POINT('',(-0.00215,0.00154919333848297,0.0619643281841136));
#1123=CARTESIAN_POINT('',(-0.00215,-2.16840434497101E-19,0.0619643281841136));
#1124=CARTESIAN_POINT('',(-0.00215,-0.00154919333848297,0.0619643281841136));
#1125=CARTESIAN_POINT('',(-0.00215,-0.00154919333848297,0.00225));
#1126=CARTESIAN_POINT('',(-0.00215,-2.16840434497101E-19,0.00225));
#1127=CARTESIAN_POINT('',(-0.00215,0.00154919333848297,0.00225));
#1128=CARTESIAN_POINT('',(-0.00215,0.00154919333848297,0.0619643281841136));
#1129=CARTESIAN_POINT('',(0.,9.63549187631342E-21,0.0619643281841136));
#1130=CARTESIAN_POINT('',(0.,9.63549187631342E-21,0.00225));
#1131=CARTESIAN_POINT('',(0.,9.63549187631342E-21,0.00125));
#1132=CARTESIAN_POINT('',(-0.00315,-0.00184390889145858,0.00125));
#1133=CARTESIAN_POINT('',(-0.00281555423673228,-0.00175321955078211,0.00158444576326772));
#1134=CARTESIAN_POINT('',(-0.00248201888478167,-0.00165635197276511,0.00191798111521833));
#1135=CARTESIAN_POINT('',(-0.00215,-0.00154919333848297,0.00225));
#1136=CARTESIAN_POINT('',(-0.00215,0.00154919333848297,0.00225));
#1137=CARTESIAN_POINT('',(-0.00248201888478167,0.00165635197276511,0.00191798111521833));
#1138=CARTESIAN_POINT('',(-0.00281555423673228,0.00175321955078211,0.00158444576326772));
#1139=CARTESIAN_POINT('',(-0.00315,0.00184390889145858,0.00125));
#1140=CARTESIAN_POINT('',(-0.00315,-0.0055376239110488,0.00125));
#1141=MECHANICAL_DESIGN_GEOMETRIC_PRESENTATION_REPRESENTATION('',(#243),
#1142);
#1142=(
GEOMETRIC_REPRESENTATION_CONTEXT(3)
GLOBAL_UNCERTAINTY_ASSIGNED_CONTEXT((#1143))
GLOBAL_UNIT_ASSIGNED_CONTEXT((#1146,#1145,#1144))
REPRESENTATION_CONTEXT('WG','TOP_LEVEL_ASSEMBLY_PART')
);
#1143=UNCERTAINTY_MEASURE_WITH_UNIT(LENGTH_MEASURE(2.E-5),#1146,
'DISTANCE_ACCURACY_VALUE','Maximum Tolerance applied to model');
#1144=(
NAMED_UNIT(*)
SI_UNIT($,.STERADIAN.)
SOLID_ANGLE_UNIT()
);
#1145=(
NAMED_UNIT(*)
PLANE_ANGLE_UNIT()
SI_UNIT($,.RADIAN.)
);
#1146=(
LENGTH_UNIT()
NAMED_UNIT(*)
SI_UNIT($,.METRE.)
);
#1147=PRODUCT_DEFINITION_SHAPE('','',#1148);
#1148=PRODUCT_DEFINITION('','',#1150,#1149);
#1149=PRODUCT_DEFINITION_CONTEXT('',#1156,'design');
#1150=PRODUCT_DEFINITION_FORMATION_WITH_SPECIFIED_SOURCE('','',#1152,
 .NOT_KNOWN.);
#1151=PRODUCT_RELATED_PRODUCT_CATEGORY('','',(#1152));
#1152=PRODUCT('WG','WG','WG',(#1154));
#1153=PRODUCT_CATEGORY('','');
#1154=PRODUCT_CONTEXT('',#1156,'mechanical');
#1155=APPLICATION_PROTOCOL_DEFINITION('international standard',
'ap242_managed_model_based_3d_engineering',2020,#1156);
#1156=APPLICATION_CONTEXT('managed model based 3d engineering');
ENDSEC;
END-ISO-10303-21;
