ISO-10303-21;
HEADER;
/* Generated by software containing ST-Developer
 * from STEP Tools, Inc. (www.steptools.com) 
 */
/* OPTION: using custom renumber hook */

FILE_DESCRIPTION(
/* description */ ('STEP AP242 Edition 2',
'CAx-IF Rec.Pracs.---Representation and Presentation of Product Manufa
cturing Information (PMI)---4.0---2014-10-13',
'CAx-IF Rec.Pracs.---3D Tessellated Geometry---0.4---2014-09-14','2;1',
'CAx-IF Rec.Pracs.---User Defined Attributes---1.5---2016-08-15'),
/* implementation_level */ '2;1');

FILE_NAME(
/* name */ 'Single Bearing Version - WG',
/* time_stamp */ '2026-08-09T17:32:26Z',
/* author */ (''),
/* organization */ (''),
/* preprocessor_version */ 'ST-DEVELOPER v20',
/* originating_system */ 'ONSHAPE BY PTC INC, 1.219',
/* authorisation */ '  ');

FILE_SCHEMA (('AP242_MANAGED_MODEL_BASED_3D_ENGINEERING_MIM_LF { 1 0 10303 442 3 1 4 }'));
ENDSEC;

DATA;
#10=SHAPE_REPRESENTATION_RELATIONSHIP('','',#253,#11);
#11=ADVANCED_BREP_SHAPE_REPRESENTATION('',(#251),#1142);
#12=CONICAL_SURFACE('',#269,0.00365,0.785398163397449);
#13=LINE('',#828,#23);
#14=LINE('',#936,#24);
#15=LINE('',#956,#25);
#16=LINE('',#961,#26);
#17=LINE('',#1008,#27);
#18=LINE('',#1121,#28);
#19=LINE('',#1122,#29);
#20=LINE('',#1124,#30);
#21=LINE('',#1126,#31);
#22=LINE('',#1128,#32);
#23=VECTOR('',#285,1.);
#24=VECTOR('',#286,1.);
#25=VECTOR('',#287,1.);
#26=VECTOR('',#292,1.);
#27=VECTOR('',#295,1.);
#28=VECTOR('',#300,1.);
#29=VECTOR('',#301,1.);
#30=VECTOR('',#304,1.);
#31=VECTOR('',#305,1.);
#32=VECTOR('',#306,1.);
#33=PLANE('',#259);
#34=PLANE('',#261);
#35=PLANE('',#263);
#36=PLANE('',#264);
#37=PLANE('',#265);
#38=PLANE('',#266);
#39=PLANE('',#270);
#40=B_SPLINE_SURFACE_WITH_KNOTS('',3,1,((#716,#717),(#718,#719),(#720,#721),
(#722,#723),(#724,#725),(#726,#727),(#728,#729),(#730,#731),(#732,#733),
(#734,#735),(#736,#737),(#738,#739),(#740,#741),(#742,#743),(#744,#745),
(#746,#747),(#748,#749),(#750,#751),(#752,#753)),
 .SURF_OF_LINEAR_EXTRUSION.,.T.,.F.,.F.,(1,1,1,1,1,1,1,1,1,1,1,1,1,1,1,
1,1,1,1,1,1,1,1),(2,2),(-0.1875,-0.125,-0.0625,0.,0.0625,0.125,0.1875,0.25,
0.3125,0.375,0.4375,0.5,0.5625,0.625,0.6875,0.75,0.8125,0.875,0.9375,1.,
1.0625,1.125,1.1875),(0.,1.),.UNSPECIFIED.);
#41=B_SPLINE_SURFACE_WITH_KNOTS('',3,1,((#864,#865),(#866,#867),(#868,#869),
(#870,#871),(#872,#873),(#874,#875),(#876,#877),(#878,#879),(#880,#881),
(#882,#883),(#884,#885),(#886,#887),(#888,#889),(#890,#891),(#892,#893),
(#894,#895),(#896,#897),(#898,#899),(#900,#901)),
 .SURF_OF_LINEAR_EXTRUSION.,.T.,.F.,.F.,(1,1,1,1,1,1,1,1,1,1,1,1,1,1,1,
1,1,1,1,1,1,1,1),(2,2),(-0.1875,-0.125,-0.0625,0.,0.0625,0.125,0.1875,0.25,
0.3125,0.375,0.4375,0.5,0.5625,0.625,0.6875,0.75,0.8125,0.875,0.9375,1.,
1.0625,1.125,1.1875),(0.,1.),.UNSPECIFIED.);
#42=B_SPLINE_SURFACE_WITH_KNOTS('',3,1,((#902,#903),(#904,#905),(#906,#907),
(#908,#909),(#910,#911),(#912,#913),(#914,#915),(#916,#917),(#918,#919),
(#920,#921),(#922,#923),(#924,#925),(#926,#927),(#928,#929),(#930,#931),
(#932,#933),(#934,#935)),.SURF_OF_LINEAR_EXTRUSION.,.F.,.F.,.F.,(4,1,1,
1,1,1,1,1,1,1,1,1,1,1,4),(2,2),(0.733536144825311,0.831716242991388,0.880806292074427,
0.929896341157466,0.978986390240505,1.02807643932354,1.07716648840658,1.12625653748962,
1.17534658657266,1.2244366356557,1.27352668473874,1.32261673382178,1.37170678290482,
1.42079683198786,1.51897693015393),(0.,1.),.UNSPECIFIED.);
#43=B_SPLINE_SURFACE_WITH_KNOTS('',1,3,((#1032,#1033,#1034,#1035,#1036,
#1037,#1038,#1039,#1040,#1041,#1042,#1043,#1044,#1045,#1046,#1047,#1048,
#1049,#1050,#1051,#1052,#1053,#1054,#1055,#1056,#1057,#1058,#1059,#1060,
#1061,#1062,#1063,#1064,#1065,#1066,#1067,#1068,#1069,#1070,#1071,#1072,
#1073,#1074,#1075),(#1076,#1077,#1078,#1079,#1080,#1081,#1082,#1083,#1084,
#1085,#1086,#1087,#1088,#1089,#1090,#1091,#1092,#1093,#1094,#1095,#1096,
#1097,#1098,#1099,#1100,#1101,#1102,#1103,#1104,#1105,#1106,#1107,#1108,
#1109,#1110,#1111,#1112,#1113,#1114,#1115,#1116,#1117,#1118,#1119)),
 .RULED_SURF.,.F.,.T.,.F.,(2,2),(2,2,2,2,2,2,2,2,2,2,2,2,2,2,2,2,2,2,2,
2,2,2,2,2),(0.,1.),(-0.00192099936470387,0.000891523765595915,0.00370404689589569,
0.00651657002619548,0.00792283159134537,0.00932909315649525,0.0107353547216451,
0.012141616286795,0.0149541394170948,0.0177666625473946,0.0205791856776943,
0.0233917088079942,0.024797970373144,0.026204231938294,0.0276104935034438,
0.0290167550685937,0.0304230166337436,0.0318292781988935,0.0346418013291933,
0.0374543244594931,0.0402668475897928,0.0430793707200926,0.0458918938503924,
0.0487044169806922),.UNSPECIFIED.);
#44=(
BOUNDED_SURFACE()
B_SPLINE_SURFACE(3,3,((#339,#340,#341,#342,#343,#344,#345,#346,#347,#348,
#349,#350,#351,#352,#353,#354,#355,#356,#357,#358,#359,#360,#361,#362,#363,
#364,#365,#366,#367,#368,#369,#370,#371,#372),(#373,#374,#375,#376,#377,
#378,#379,#380,#381,#382,#383,#384,#385,#386,#387,#388,#389,#390,#391,#392,
#393,#394,#395,#396,#397,#398,#399,#400,#401,#402,#403,#404,#405,#406),
(#407,#408,#409,#410,#411,#412,#413,#414,#415,#416,#417,#418,#419,#420,
#421,#422,#423,#424,#425,#426,#427,#428,#429,#430,#431,#432,#433,#434,#435,
#436,#437,#438,#439,#440),(#441,#442,#443,#444,#445,#446,#447,#448,#449,
#450,#451,#452,#453,#454,#455,#456,#457,#458,#459,#460,#461,#462,#463,#464,
#465,#466,#467,#468,#469,#470,#471,#472,#473,#474)),.UNSPECIFIED.,.F.,.T.,
 .F.)
B_SPLINE_SURFACE_WITH_KNOTS((4,4),(2,2,2,2,2,2,2,2,2,2,2,2,2,2,2,2,2,2,
2),(0.,1.),(-0.0625,0.,0.0625,0.125,0.1875,0.25,0.3125,0.375,0.4375,0.5,
0.5625,0.625,0.6875,0.75,0.8125,0.875,0.9375,1.,1.0625),.UNSPECIFIED.)
GEOMETRIC_REPRESENTATION_ITEM()
RATIONAL_B_SPLINE_SURFACE(((1.,1.,1.,1.,1.,1.,1.,1.,1.,1.,1.,1.,1.,1.,1.,
1.,1.,1.,1.,1.,1.,1.,1.,1.,1.,1.,1.,1.,1.,1.,1.,1.,1.,1.),(0.871373707351093,
0.871373707351093,0.871373707351093,0.871373707351093,0.871373707351093,
0.871373707351093,0.871373707351093,0.871373707351093,0.871373707351093,
0.871373707351093,0.871373707351093,0.871373707351093,0.871373707351093,
0.871373707351093,0.871373707351093,0.871373707351093,0.871373707351093,
0.871373707351093,0.871373707351093,0.871373707351093,0.871373707351093,
0.871373707351093,0.871373707351093,0.871373707351093,0.871373707351093,
0.871373707351093,0.871373707351093,0.871373707351093,0.871373707351093,
0.871373707351093,0.871373707351093,0.871373707351093,0.871373707351093,
0.871373707351093),(0.871373707351093,0.871373707351093,0.871373707351093,
0.871373707351093,0.871373707351093,0.871373707351093,0.871373707351093,
0.871373707351093,0.871373707351093,0.871373707351093,0.871373707351093,
0.871373707351093,0.871373707351093,0.871373707351093,0.871373707351093,
0.871373707351093,0.871373707351093,0.871373707351093,0.871373707351093,
0.871373707351093,0.871373707351093,0.871373707351093,0.871373707351093,
0.871373707351093,0.871373707351093,0.871373707351093,0.871373707351093,
0.871373707351093,0.871373707351093,0.871373707351093,0.871373707351093,
0.871373707351093,0.871373707351093,0.871373707351093),(1.,1.,1.,1.,1.,
1.,1.,1.,1.,1.,1.,1.,1.,1.,1.,1.,1.,1.,1.,1.,1.,1.,1.,1.,1.,1.,1.,1.,1.,
1.,1.,1.,1.,1.)))
REPRESENTATION_ITEM('')
SURFACE()
);
#45=(
BOUNDED_SURFACE()
B_SPLINE_SURFACE(3,3,((#545,#546,#547,#548,#549,#550,#551,#552,#553,#554,
#555,#556,#557,#558,#559,#560,#561,#562,#563,#564,#565,#566,#567,#568,#569,
#570,#571,#572,#573,#574,#575,#576,#577,#578),(#579,#580,#581,#582,#583,
#584,#585,#586,#587,#588,#589,#590,#591,#592,#593,#594,#595,#596,#597,#598,
#599,#600,#601,#602,#603,#604,#605,#606,#607,#608,#609,#610,#611,#612),
(#613,#614,#615,#616,#617,#618,#619,#620,#621,#622,#623,#624,#625,#626,
#627,#628,#629,#630,#631,#632,#633,#634,#635,#636,#637,#638,#639,#640,#641,
#642,#643,#644,#645,#646),(#647,#648,#649,#650,#651,#652,#653,#654,#655,
#656,#657,#658,#659,#660,#661,#662,#663,#664,#665,#666,#667,#668,#669,#670,
#671,#672,#673,#674,#675,#676,#677,#678,#679,#680)),.UNSPECIFIED.,.F.,.T.,
 .F.)
B_SPLINE_SURFACE_WITH_KNOTS((4,4),(2,2,2,2,2,2,2,2,2,2,2,2,2,2,2,2,2,2,
2),(0.,1.),(-0.0625,0.,0.0625,0.125,0.1875,0.25,0.3125,0.375,0.4375,0.5,
0.5625,0.625,0.6875,0.75,0.8125,0.875,0.9375,1.,1.0625),.UNSPECIFIED.)
GEOMETRIC_REPRESENTATION_ITEM()
RATIONAL_B_SPLINE_SURFACE(((1.,1.,1.,1.,1.,1.,1.,1.,1.,1.,1.,1.,1.,1.,1.,
1.,1.,1.,1.,1.,1.,1.,1.,1.,1.,1.,1.,1.,1.,1.,1.,1.,1.,1.),(0.709001267279951,
0.709001267279951,0.709001267279951,0.709001267279951,0.709001267279951,
0.709001267279951,0.709001267279951,0.709001267279951,0.709001267279951,
0.709001267279951,0.709001267279951,0.709001267279951,0.709001267279951,
0.709001267279951,0.709001267279951,0.709001267279951,0.709001267279951,
0.709001267279951,0.709001267279951,0.709001267279951,0.709001267279951,
0.709001267279951,0.709001267279951,0.709001267279951,0.709001267279951,
0.709001267279951,0.709001267279951,0.709001267279951,0.709001267279951,
0.709001267279951,0.709001267279951,0.709001267279951,0.709001267279951,
0.709001267279951),(0.709001267279951,0.709001267279951,0.709001267279951,
0.709001267279951,0.709001267279951,0.709001267279951,0.709001267279951,
0.709001267279951,0.709001267279951,0.709001267279951,0.709001267279951,
0.709001267279951,0.709001267279951,0.709001267279951,0.709001267279951,
0.709001267279951,0.709001267279951,0.709001267279951,0.709001267279951,
0.709001267279951,0.709001267279951,0.709001267279951,0.709001267279951,
0.709001267279951,0.709001267279951,0.709001267279951,0.709001267279951,
0.709001267279951,0.709001267279951,0.709001267279951,0.709001267279951,
0.709001267279951,0.709001267279951,0.709001267279951),(1.,1.,1.,1.,1.,
1.,1.,1.,1.,1.,1.,1.,1.,1.,1.,1.,1.,1.,1.,1.,1.,1.,1.,1.,1.,1.,1.,1.,1.,
1.,1.,1.,1.,1.)))
REPRESENTATION_ITEM('')
SURFACE()
);
#46=B_SPLINE_CURVE_WITH_KNOTS('',3,(#322,#323,#324,#325,#326,#327,#328),
 .UNSPECIFIED.,.F.,.F.,(4,1,1,1,4),(0.,0.000991225089633566,0.00198245017926713,
0.0029736752689007,0.00396490035853426),.UNSPECIFIED.);
#47=B_SPLINE_CURVE_WITH_KNOTS('',3,(#332,#333,#334,#335,#336,#337,#338),
 .UNSPECIFIED.,.F.,.F.,(4,1,1,1,4),(0.,0.000991124079806653,0.00198224815961331,
0.00297337223941996,0.00396449631922661),.UNSPECIFIED.);
#48=B_SPLINE_CURVE_WITH_KNOTS('',3,(#475,#476,#477,#478,#479,#480,#481,
#482,#483,#484,#485,#486,#487,#488,#489,#490,#491,#492,#493,#494,#495,#496,
#497,#498,#499,#500,#501,#502,#503,#504,#505,#506,#507,#508),
 .UNSPECIFIED.,.T.,.F.,(2,2,2,2,2,2,2,2,2,2,2,2,2,2,2,2,2,2,2),(-0.0625,
0.,0.0625,0.125,0.1875,0.25,0.3125,0.375,0.4375,0.5,0.5625,0.625,0.6875,
0.75,0.8125,0.875,0.9375,1.,1.0625),.UNSPECIFIED.);
#49=B_SPLINE_CURVE_WITH_KNOTS('',3,(#510,#511,#512,#513,#514,#515,#516,
#517,#518,#519,#520,#521,#522,#523,#524,#525,#526,#527,#528,#529,#530,#531,
#532,#533,#534,#535,#536,#537,#538,#539,#540,#541,#542,#543),
 .UNSPECIFIED.,.T.,.F.,(2,2,2,2,2,2,2,2,2,2,2,2,2,2,2,2,2,2,2),(-0.0625,
0.,0.0625,0.125,0.1875,0.25,0.3125,0.375,0.4375,0.5,0.5625,0.625,0.6875,
0.75,0.8125,0.875,0.9375,1.,1.0625),.UNSPECIFIED.);
#50=B_SPLINE_CURVE_WITH_KNOTS('',3,(#681,#682,#683,#684,#685,#686,#687,
#688,#689,#690,#691,#692,#693,#694,#695,#696,#697,#698,#699,#700,#701,#702,
#703,#704,#705,#706,#707,#708,#709,#710,#711,#712,#713,#714),
 .UNSPECIFIED.,.T.,.F.,(2,2,2,2,2,2,2,2,2,2,2,2,2,2,2,2,2,2,2),(-0.0625,
0.,0.0625,0.125,0.1875,0.25,0.3125,0.375,0.4375,0.5,0.5625,0.625,0.6875,
0.75,0.8125,0.875,0.9375,1.,1.0625),.UNSPECIFIED.);
#51=B_SPLINE_CURVE_WITH_KNOTS('',3,(#754,#755,#756,#757,#758,#759,#760,
#761,#762,#763,#764,#765,#766,#767,#768,#769,#770,#771,#772,#773,#774,#775,
#776,#777,#778,#779,#780,#781,#782,#783,#784,#785,#786,#787),
 .UNSPECIFIED.,.T.,.F.,(2,2,2,2,2,2,2,2,2,2,2,2,2,2,2,2,2,2,2),(-0.0625,
0.,0.0625,0.125,0.1875,0.25,0.3125,0.375,0.4375,0.5,0.5625,0.625,0.6875,
0.75,0.8125,0.875,0.9375,1.,1.0625),.UNSPECIFIED.);
#52=B_SPLINE_CURVE_WITH_KNOTS('',3,(#790,#791,#792,#793,#794,#795,#796,
#797,#798,#799,#800,#801,#802,#803,#804,#805,#806,#807,#808,#809,#810,#811,
#812,#813,#814,#815,#816,#817,#818,#819,#820,#821,#822,#823),
 .UNSPECIFIED.,.T.,.F.,(2,2,2,2,2,2,2,2,2,2,2,2,2,2,2,2,2,2,2),(-0.0625,
0.,0.0625,0.125,0.1875,0.25,0.3125,0.375,0.4375,0.5,0.5625,0.625,0.6875,
0.75,0.8125,0.875,0.9375,1.,1.0625),.UNSPECIFIED.);
#53=B_SPLINE_CURVE_WITH_KNOTS('',3,(#829,#830,#831,#832,#833,#834,#835,
#836,#837,#838,#839,#840,#841,#842,#843,#844,#845,#846,#847,#848,#849,#850,
#851,#852,#853,#854,#855,#856,#857,#858,#859,#860,#861,#862),
 .UNSPECIFIED.,.T.,.F.,(2,2,2,2,2,2,2,2,2,2,2,2,2,2,2,2,2,2,2),(-0.0625,
0.,0.0625,0.125,0.1875,0.25,0.3125,0.375,0.4375,0.5,0.5625,0.625,0.6875,
0.75,0.8125,0.875,0.9375,1.,1.0625),.UNSPECIFIED.);
#54=B_SPLINE_CURVE_WITH_KNOTS('',3,(#938,#939,#940,#941,#942,#943,#944,
#945,#946,#947,#948,#949,#950,#951,#952,#953,#954),.UNSPECIFIED.,.F.,.F.,
(4,1,1,1,1,1,1,1,1,1,1,1,1,1,4),(0.,0.125,0.1875,0.25,0.3125,0.375,0.4375,
0.5,0.5625,0.625,0.6875,0.75,0.8125,0.875,1.),.UNSPECIFIED.);
#55=B_SPLINE_CURVE_WITH_KNOTS('',3,(#962,#963,#964,#965,#966,#967,#968,
#969,#970,#971,#972,#973,#974,#975,#976,#977,#978,#979,#980,#981,#982,#983,
#984,#985,#986,#987,#988,#989,#990,#991,#992,#993,#994,#995,#996,#997,#998,
#999,#1000,#1001,#1002,#1003,#1004,#1005),.UNSPECIFIED.,.T.,.F.,(2,2,2,
2,2,2,2,2,2,2,2,2,2,2,2,2,2,2,2,2,2,2,2,2),(-0.00192099936470387,0.000891523765595915,
0.00370404689589569,0.00651657002619548,0.00792283159134537,0.00932909315649525,
0.0107353547216451,0.012141616286795,0.0149541394170948,0.0177666625473946,
0.0205791856776943,0.0233917088079942,0.024797970373144,0.026204231938294,
0.0276104935034438,0.0290167550685937,0.0304230166337436,0.0318292781988935,
0.0346418013291933,0.0374543244594931,0.0402668475897928,0.0430793707200926,
0.0458918938503924,0.0487044169806922),.UNSPECIFIED.);
#56=B_SPLINE_CURVE_WITH_KNOTS('',3,(#1010,#1011,#1012,#1013,#1014,#1015,
#1016,#1017,#1018,#1019,#1020),.UNSPECIFIED.,.F.,.F.,(4,1,1,1,1,1,1,1,4),
(0.,0.25,0.375,0.4375,0.5,0.5625,0.625,0.75,1.),.UNSPECIFIED.);
#57=B_SPLINE_CURVE_WITH_KNOTS('',3,(#1021,#1022,#1023,#1024,#1025,#1026,
#1027,#1028,#1029,#1030,#1031),.UNSPECIFIED.,.F.,.F.,(4,1,1,1,1,1,1,1,4),
(0.,0.25,0.375,0.4375,0.5,0.5625,0.625,0.75,1.),.UNSPECIFIED.);
#58=B_SPLINE_CURVE_WITH_KNOTS('',3,(#1132,#1133,#1134,#1135),
 .UNSPECIFIED.,.F.,.F.,(4,4),(0.,0.00144459588022593),.UNSPECIFIED.);
#59=B_SPLINE_CURVE_WITH_KNOTS('',3,(#1136,#1137,#1138,#1139),
 .UNSPECIFIED.,.F.,.F.,(4,4),(0.,0.00144459588022593),.UNSPECIFIED.);
#60=ORIENTED_EDGE('',*,*,#120,.F.);
#61=ORIENTED_EDGE('',*,*,#121,.T.);
#62=ORIENTED_EDGE('',*,*,#122,.T.);
#63=ORIENTED_EDGE('',*,*,#123,.T.);
#64=ORIENTED_EDGE('',*,*,#124,.T.);
#65=ORIENTED_EDGE('',*,*,#125,.T.);
#66=ORIENTED_EDGE('',*,*,#126,.F.);
#67=ORIENTED_EDGE('',*,*,#126,.T.);
#68=ORIENTED_EDGE('',*,*,#127,.F.);
#69=ORIENTED_EDGE('',*,*,#127,.T.);
#70=ORIENTED_EDGE('',*,*,#128,.F.);
#71=ORIENTED_EDGE('',*,*,#129,.F.);
#72=ORIENTED_EDGE('',*,*,#130,.T.);
#73=ORIENTED_EDGE('',*,*,#131,.T.);
#74=ORIENTED_EDGE('',*,*,#132,.F.);
#75=ORIENTED_EDGE('',*,*,#132,.T.);
#76=ORIENTED_EDGE('',*,*,#125,.F.);
#77=ORIENTED_EDGE('',*,*,#133,.T.);
#78=ORIENTED_EDGE('',*,*,#134,.T.);
#79=ORIENTED_EDGE('',*,*,#135,.T.);
#80=ORIENTED_EDGE('',*,*,#129,.T.);
#81=ORIENTED_EDGE('',*,*,#136,.T.);
#82=ORIENTED_EDGE('',*,*,#137,.T.);
#83=ORIENTED_EDGE('',*,*,#138,.F.);
#84=ORIENTED_EDGE('',*,*,#128,.T.);
#85=ORIENTED_EDGE('',*,*,#139,.T.);
#86=ORIENTED_EDGE('',*,*,#120,.T.);
#87=ORIENTED_EDGE('',*,*,#140,.T.);
#88=ORIENTED_EDGE('',*,*,#141,.T.);
#89=ORIENTED_EDGE('',*,*,#133,.F.);
#90=ORIENTED_EDGE('',*,*,#139,.F.);
#91=ORIENTED_EDGE('',*,*,#135,.F.);
#92=ORIENTED_EDGE('',*,*,#140,.F.);
#93=ORIENTED_EDGE('',*,*,#134,.F.);
#94=ORIENTED_EDGE('',*,*,#141,.F.);
#95=ORIENTED_EDGE('',*,*,#138,.T.);
#96=ORIENTED_EDGE('',*,*,#142,.T.);
#97=ORIENTED_EDGE('',*,*,#121,.F.);
#98=ORIENTED_EDGE('',*,*,#143,.F.);
#99=ORIENTED_EDGE('',*,*,#137,.F.);
#100=ORIENTED_EDGE('',*,*,#144,.T.);
#101=ORIENTED_EDGE('',*,*,#145,.T.);
#102=ORIENTED_EDGE('',*,*,#146,.F.);
#103=ORIENTED_EDGE('',*,*,#123,.F.);
#104=ORIENTED_EDGE('',*,*,#146,.T.);
#105=ORIENTED_EDGE('',*,*,#147,.T.);
#106=ORIENTED_EDGE('',*,*,#144,.F.);
#107=ORIENTED_EDGE('',*,*,#122,.F.);
#108=ORIENTED_EDGE('',*,*,#142,.F.);
#109=ORIENTED_EDGE('',*,*,#136,.F.);
#110=ORIENTED_EDGE('',*,*,#143,.T.);
#111=ORIENTED_EDGE('',*,*,#124,.F.);
#112=ORIENTED_EDGE('',*,*,#148,.F.);
#113=ORIENTED_EDGE('',*,*,#147,.F.);
#114=ORIENTED_EDGE('',*,*,#149,.F.);
#115=ORIENTED_EDGE('',*,*,#130,.F.);
#116=ORIENTED_EDGE('',*,*,#149,.T.);
#117=ORIENTED_EDGE('',*,*,#145,.F.);
#118=ORIENTED_EDGE('',*,*,#148,.T.);
#119=ORIENTED_EDGE('',*,*,#131,.F.);
#120=EDGE_CURVE('',#150,#150,#170,.T.);
#121=EDGE_CURVE('',#151,#152,#171,.T.);
#122=EDGE_CURVE('',#152,#153,#46,.T.);
#123=EDGE_CURVE('',#153,#154,#172,.T.);
#124=EDGE_CURVE('',#154,#151,#47,.T.);
#125=EDGE_CURVE('',#155,#155,#48,.T.);
#126=EDGE_CURVE('',#156,#156,#49,.T.);
#127=EDGE_CURVE('',#157,#157,#50,.T.);
#128=EDGE_CURVE('',#158,#159,#51,.T.);
#129=EDGE_CURVE('',#159,#158,#52,.T.);
#130=EDGE_CURVE('',#160,#161,#173,.T.);
#131=EDGE_CURVE('',#161,#160,#13,.F.);
#132=EDGE_CURVE('',#162,#162,#53,.T.);
#133=EDGE_CURVE('',#158,#163,#14,.F.);
#134=EDGE_CURVE('',#163,#164,#54,.T.);
#135=EDGE_CURVE('',#164,#159,#15,.T.);
#136=EDGE_CURVE('',#165,#166,#174,.F.);
#137=EDGE_CURVE('',#166,#165,#16,.T.);
#138=EDGE_CURVE('',#167,#167,#55,.F.);
#139=EDGE_CURVE('',#159,#158,#17,.T.);
#140=EDGE_CURVE('',#164,#167,#56,.T.);
#141=EDGE_CURVE('',#167,#163,#57,.T.);
#142=EDGE_CURVE('',#166,#152,#18,.T.);
#143=EDGE_CURVE('',#165,#151,#19,.T.);
#144=EDGE_CURVE('',#153,#168,#20,.T.);
#145=EDGE_CURVE('',#168,#169,#21,.T.);
#146=EDGE_CURVE('',#154,#169,#22,.T.);
#147=EDGE_CURVE('',#169,#168,#175,.T.);
#148=EDGE_CURVE('',#168,#160,#58,.F.);
#149=EDGE_CURVE('',#161,#169,#59,.F.);
#150=VERTEX_POINT('',#318);
#151=VERTEX_POINT('',#320);
#152=VERTEX_POINT('',#321);
#153=VERTEX_POINT('',#329);
#154=VERTEX_POINT('',#331);
#155=VERTEX_POINT('',#509);
#156=VERTEX_POINT('',#544);
#157=VERTEX_POINT('',#715);
#158=VERTEX_POINT('',#788);
#159=VERTEX_POINT('',#789);
#160=VERTEX_POINT('',#826);
#161=VERTEX_POINT('',#827);
#162=VERTEX_POINT('',#863);
#163=VERTEX_POINT('',#937);
#164=VERTEX_POINT('',#955);
#165=VERTEX_POINT('',#959);
#166=VERTEX_POINT('',#960);
#167=VERTEX_POINT('',#1006);
#168=VERTEX_POINT('',#1125);
#169=VERTEX_POINT('',#1127);
#170=CIRCLE('',#256,0.00225);
#171=CIRCLE('',#257,0.00225);
#172=CIRCLE('',#258,0.00225);
#173=CIRCLE('',#260,0.00365);
#174=CIRCLE('',#262,0.00265);
#175=CIRCLE('',#268,0.00265);
#176=EDGE_LOOP('',(#60));
#177=EDGE_LOOP('',(#61,#62,#63,#64));
#178=EDGE_LOOP('',(#65));
#179=EDGE_LOOP('',(#66));
#180=EDGE_LOOP('',(#67));
#181=EDGE_LOOP('',(#68));
#182=EDGE_LOOP('',(#69));
#183=EDGE_LOOP('',(#70,#71));
#184=EDGE_LOOP('',(#72,#73));
#185=EDGE_LOOP('',(#74));
#186=EDGE_LOOP('',(#75));
#187=EDGE_LOOP('',(#76));
#188=EDGE_LOOP('',(#77,#78,#79,#80));
#189=EDGE_LOOP('',(#81,#82));
#190=EDGE_LOOP('',(#83));
#191=EDGE_LOOP('',(#84,#85));
#192=EDGE_LOOP('',(#86));
#193=EDGE_LOOP('',(#87,#88,#89,#90,#91));
#194=EDGE_LOOP('',(#92,#93,#94,#95));
#195=EDGE_LOOP('',(#96,#97,#98,#99));
#196=EDGE_LOOP('',(#100,#101,#102,#103));
#197=EDGE_LOOP('',(#104,#105,#106,#107,#108,#109,#110,#111));
#198=EDGE_LOOP('',(#112,#113,#114,#115));
#199=EDGE_LOOP('',(#116,#117,#118,#119));
#200=FACE_BOUND('',#176,.T.);
#201=FACE_BOUND('',#177,.T.);
#202=FACE_BOUND('',#178,.T.);
#203=FACE_BOUND('',#179,.T.);
#204=FACE_BOUND('',#180,.T.);
#205=FACE_BOUND('',#181,.T.);
#206=FACE_BOUND('',#182,.T.);
#207=FACE_BOUND('',#183,.T.);
#208=FACE_BOUND('',#184,.T.);
#209=FACE_BOUND('',#185,.T.);
#210=FACE_BOUND('',#186,.T.);
#211=FACE_BOUND('',#187,.T.);
#212=FACE_BOUND('',#188,.T.);
#213=FACE_BOUND('',#189,.T.);
#214=FACE_BOUND('',#190,.T.);
#215=FACE_BOUND('',#191,.T.);
#216=FACE_BOUND('',#192,.T.);
#217=FACE_BOUND('',#193,.T.);
#218=FACE_BOUND('',#194,.T.);
#219=FACE_BOUND('',#195,.T.);
#220=FACE_BOUND('',#196,.T.);
#221=FACE_BOUND('',#197,.T.);
#222=FACE_BOUND('',#198,.T.);
#223=FACE_BOUND('',#199,.T.);
#224=CYLINDRICAL_SURFACE('',#255,0.00225);
#225=CYLINDRICAL_SURFACE('',#267,0.00265);
#226=ADVANCED_FACE('',(#200,#201),#224,.F.);
#227=ADVANCED_FACE('',(#202,#203),#44,.T.);
#228=ADVANCED_FACE('',(#204,#205),#45,.T.);
#229=ADVANCED_FACE('',(#206,#207),#40,.T.);
#230=ADVANCED_FACE('',(#208,#209),#33,.F.);
#231=ADVANCED_FACE('',(#210,#211),#41,.T.);
#232=ADVANCED_FACE('',(#212),#42,.F.);
#233=ADVANCED_FACE('',(#213,#214),#34,.T.);
#234=ADVANCED_FACE('',(#215),#35,.T.);
#235=ADVANCED_FACE('',(#216,#217),#36,.F.);
#236=ADVANCED_FACE('',(#218),#43,.T.);
#237=ADVANCED_FACE('',(#219),#37,.T.);
#238=ADVANCED_FACE('',(#220),#38,.T.);
#239=ADVANCED_FACE('',(#221),#225,.F.);
#240=ADVANCED_FACE('',(#222),#12,.F.);
#241=ADVANCED_FACE('',(#223),#39,.T.);
#242=CLOSED_SHELL('',(#226,#227,#228,#229,#230,#231,#232,#233,#234,#235,
#236,#237,#238,#239,#240,#241));
#243=STYLED_ITEM('',(#244),#251);
#244=PRESENTATION_STYLE_ASSIGNMENT((#245));
#245=SURFACE_STYLE_USAGE(.BOTH.,#246);
#246=SURFACE_SIDE_STYLE('',(#247));
#247=SURFACE_STYLE_FILL_AREA(#248);
#248=FILL_AREA_STYLE('',(#249));
#249=FILL_AREA_STYLE_COLOUR('',#250);
#250=COLOUR_RGB('',0.647058823529412,0.647058823529412,0.647058823529412);
#251=MANIFOLD_SOLID_BREP('WG',#242);
#252=SHAPE_DEFINITION_REPRESENTATION(#1147,#253);
#253=SHAPE_REPRESENTATION('WG',(#254),#1142);
#254=AXIS2_PLACEMENT_3D('',#315,#271,#272);
#255=AXIS2_PLACEMENT_3D('',#316,#273,#274);
#256=AXIS2_PLACEMENT_3D('',#317,#275,#276);
#257=AXIS2_PLACEMENT_3D('',#319,#277,#278);
#258=AXIS2_PLACEMENT_3D('',#330,#279,#280);
#259=AXIS2_PLACEMENT_3D('',#824,#281,#282);
#260=AXIS2_PLACEMENT_3D('',#825,#283,#284);
#261=AXIS2_PLACEMENT_3D('',#957,#288,#289);
#262=AXIS2_PLACEMENT_3D('',#958,#290,#291);
#263=AXIS2_PLACEMENT_3D('',#1007,#293,#294);
#264=AXIS2_PLACEMENT_3D('',#1009,#296,#297);
#265=AXIS2_PLACEMENT_3D('',#1120,#298,#299);
#266=AXIS2_PLACEMENT_3D('',#1123,#302,#303);
#267=AXIS2_PLACEMENT_3D('',#1129,#307,#308);
#268=AXIS2_PLACEMENT_3D('',#1130,#309,#310);
#269=AXIS2_PLACEMENT_3D('',#1131,#311,#312);
#270=AXIS2_PLACEMENT_3D('',#1140,#313,#314);
#271=DIRECTION('',(0.,0.,1.));
#272=DIRECTION('',(1.,0.,0.));
#273=DIRECTION('',(1.,0.,0.));
#274=DIRECTION('',(0.,0.,-1.));
#275=DIRECTION('',(1.,0.,0.));
#276=DIRECTION('',(0.,0.,-1.));
#277=DIRECTION('',(1.,0.,0.));
#278=DIRECTION('',(0.,0.,-1.));
#279=DIRECTION('',(1.,0.,0.));
#280=DIRECTION('',(0.,0.,-1.));
#281=DIRECTION('',(0.,0.,1.));
#282=DIRECTION('',(1.,0.,0.));
#283=DIRECTION('',(0.,0.,1.));
#284=DIRECTION('',(1.,0.,0.));
#285=DIRECTION('',(0.,1.,0.));
#286=DIRECTION('',(0.,0.,-1.));
#287=DIRECTION('',(0.,0.,-1.));
#288=DIRECTION('',(0.,0.,1.));
#289=DIRECTION('',(1.,0.,0.));
#290=DIRECTION('',(0.,0.,1.));
#291=DIRECTION('',(1.,0.,0.));
#292=DIRECTION('',(0.,1.,0.));
#293=DIRECTION('',(0.,0.,1.));
#294=DIRECTION('',(1.,0.,0.));
#295=DIRECTION('',(0.,1.,0.));
#296=DIRECTION('',(1.,0.,0.));
#297=DIRECTION('',(0.,0.,-1.));
#298=DIRECTION('',(1.,0.,0.));
#299=DIRECTION('',(0.,0.,-1.));
#300=DIRECTION('',(0.,0.,-1.));
#301=DIRECTION('',(0.,0.,-1.));
#302=DIRECTION('',(1.,0.,0.));
#303=DIRECTION('',(0.,0.,-1.));
#304=DIRECTION('',(0.,0.,-1.));
#305=DIRECTION('',(0.,1.,0.));
#306=DIRECTION('',(0.,0.,-1.));
#307=DIRECTION('',(0.,0.,-1.));
#308=DIRECTION('',(-1.,0.,0.));
#309=DIRECTION('',(0.,0.,-1.));
#310=DIRECTION('',(-1.,0.,0.));
#311=DIRECTION('',(0.,0.,-1.));
#312=DIRECTION('',(-1.,0.,0.));
#313=DIRECTION('',(0.707106781186547,0.,-0.707106781186548));
#314=DIRECTION('',(0.,1.,0.));
#315=CARTESIAN_POINT('',(0.,0.,0.));
#316=CARTESIAN_POINT('',(-0.00798211993856167,-5.17371109266557E-8,0.010444799389565));
#317=CARTESIAN_POINT('',(-0.00798211993856167,-5.17371109266557E-8,0.010444799389565));
#318=CARTESIAN_POINT('',(-0.00798211993856167,-5.17371109266557E-8,0.00819479938956502));
#319=CARTESIAN_POINT('',(-0.00215,-5.17371109266557E-8,0.010444799389565));
#320=CARTESIAN_POINT('',(-0.00215,0.00154919333848297,0.01207646715469));
#321=CARTESIAN_POINT('',(-0.00215,-0.00154919333848297,0.012076565395737));
#322=CARTESIAN_POINT('',(-0.00215,-0.00154919333848297,0.012076565395737));
#323=CARTESIAN_POINT('',(-0.00199489728805548,-0.00176444783409503,0.0118722103026822));
#324=CARTESIAN_POINT('',(-0.00165488486096,-0.00209788899116276,0.011413803479018));
#325=CARTESIAN_POINT('',(-0.00127199310754622,-0.0023264828506473,0.0104420468408469));
#326=CARTESIAN_POINT('',(-0.00165665337490059,-0.00209648406840699,0.00947411953253759));
#327=CARTESIAN_POINT('',(-0.00199506049433935,-0.00176422133330825,0.00901717344451915));
#328=CARTESIAN_POINT('',(-0.0021500000000001,-0.00154919333848301,0.00881303338339307));
#329=CARTESIAN_POINT('',(-0.00215,-0.00154919333848297,0.00881303338339304));
#330=CARTESIAN_POINT('',(-0.00215,-5.17371109266557E-8,0.010444799389565));
#331=CARTESIAN_POINT('',(-0.00215,0.00154919333848297,0.00881313162444001));
#332=CARTESIAN_POINT('',(-0.00215,0.00154919333848297,0.00881313162444001));
#333=CARTESIAN_POINT('',(-0.00199492065112458,0.00176441541038307,0.00901748188628686));
#334=CARTESIAN_POINT('',(-0.00165496737551018,0.00209781210841147,0.00947587437469929));
#335=CARTESIAN_POINT('',(-0.00127220386518386,0.0023263640264073,0.0104475455216277));
#336=CARTESIAN_POINT('',(-0.00165672555469102,0.00209641544054184,0.011415385597453));
#337=CARTESIAN_POINT('',(-0.00199508360955209,0.00176418925357607,0.0118723316254787));
#338=CARTESIAN_POINT('',(-0.00215000000000009,0.00154919333848301,0.01207646715469));
#339=CARTESIAN_POINT('',(0.00640831592537737,-0.006717880579866,0.00523531428136199));
#340=CARTESIAN_POINT('',(0.00826395037732107,-0.00508796529683396,0.00523531428136199));
#341=CARTESIAN_POINT('',(0.00897562951278851,-0.00413990269868543,0.00523531428136199));
#342=CARTESIAN_POINT('',(0.0099210178449328,-0.00214786741655103,0.00523531428136199));
#343=CARTESIAN_POINT('',(0.0101588422466163,-0.00110453327088279,0.00523531428136199));
#344=CARTESIAN_POINT('',(0.0101772545757404,0.000979020668639251,0.00523531428136199));
#345=CARTESIAN_POINT('',(0.0099579949346118,0.00202369326670842,0.00523531428136199));
#346=CARTESIAN_POINT('',(0.0090502814584586,0.00402360146176288,0.00523531428136199));
#347=CARTESIAN_POINT('',(0.00835766710511594,0.00497846671980532,0.00523531428136199));
#348=CARTESIAN_POINT('',(0.00653611307917589,0.00662971872335636,0.00523531428136199));
#349=CARTESIAN_POINT('',(0.00540687203390445,0.00732227429636728,0.00523531428136199));
#350=CARTESIAN_POINT('',(0.00287960651559773,0.00827728445060235,0.00523531428136199));
#351=CARTESIAN_POINT('',(0.00148410692118892,0.00853763666044942,0.00523531428136199));
#352=CARTESIAN_POINT('',(-0.00131545926387885,0.00855733540851757,0.00523531428136199));
#353=CARTESIAN_POINT('',(-0.00271652204058551,0.008316644121081,0.00523531428136199));
#354=CARTESIAN_POINT('',(-0.00526423706667976,0.007395911612529,0.00523531428136199));
#355=CARTESIAN_POINT('',(-0.00640831599101926,0.00671788052173986,0.00523531428136199));
#356=CARTESIAN_POINT('',(-0.00826395031167918,0.0050879653549601,0.00523531428136199));
#357=CARTESIAN_POINT('',(-0.00897562951278907,0.00413990269867941,0.00523531428136199));
#358=CARTESIAN_POINT('',(-0.00992101784493224,0.00214786741655703,0.00523531428136199));
#359=CARTESIAN_POINT('',(-0.0101588422466132,0.00110453327088123,0.00523531428136199));
#360=CARTESIAN_POINT('',(-0.0101772545757434,-0.00097902066863768,0.00523531428136199));
#361=CARTESIAN_POINT('',(-0.00995799493461429,-0.00202369326670543,0.00523531428136199));
#362=CARTESIAN_POINT('',(-0.0090502814584561,-0.00402360146176587,0.00523531428136199));
#363=CARTESIAN_POINT('',(-0.00835766710511189,-0.00497846671980694,0.00523531428136199));
#364=CARTESIAN_POINT('',(-0.00653611307917993,-0.00662971872335474,0.00523531428136199));
#365=CARTESIAN_POINT('',(-0.00540687203389772,-0.00732227429637064,0.00523531428136199));
#366=CARTESIAN_POINT('',(-0.00287960651560445,-0.00827728445059899,0.00523531428136199));
#367=CARTESIAN_POINT('',(-0.00148410692118902,-0.00853763666044605,0.00523531428136199));
#368=CARTESIAN_POINT('',(0.001315459263879,-0.00855733540852093,0.00523531428136199));
#369=CARTESIAN_POINT('',(0.0027165220405855,-0.00831664412107764,0.00523531428136199));
#370=CARTESIAN_POINT('',(0.00526423706667974,-0.00739591161253237,0.00523531428136199));
#371=CARTESIAN_POINT('',(0.00640831592537737,-0.006717880579866,0.00523531428136199));
#372=CARTESIAN_POINT('',(0.00826395037732107,-0.00508796529683396,0.00523531428136199));
#373=CARTESIAN_POINT('',(0.00615798359553678,-0.00634531684864531,0.00409970043457503));
#374=CARTESIAN_POINT('',(0.00792678533537939,-0.00479167195624567,0.00409970043457503));
#375=CARTESIAN_POINT('',(0.00860044636052682,-0.00389227677203153,0.00409970043457503));
#376=CARTESIAN_POINT('',(0.0094919398406686,-0.00201380376191721,0.00409970043457503));
#377=CARTESIAN_POINT('',(0.0097143178328667,-0.00103530660478091,0.00409970043457503));
#378=CARTESIAN_POINT('',(0.00973157617030266,0.000917660709018624,0.00409970043457503));
#379=CARTESIAN_POINT('',(0.00952662395990776,0.0018971157432834,0.00409970043457503));
#380=CARTESIAN_POINT('',(0.00867100615152907,0.00378224481929184,0.00409970043457503));
#381=CARTESIAN_POINT('',(0.00801574763882254,0.00468763159924794,0.00409970043457503));
#382=CARTESIAN_POINT('',(0.00628012754916482,0.00626098386297609,0.00409970043457503));
#383=CARTESIAN_POINT('',(0.00519933801050559,0.00692485868474998,0.00409970043457503));
#384=CARTESIAN_POINT('',(0.00277245354290535,0.00784193656707171,0.00409970043457503));
#385=CARTESIAN_POINT('',(0.00142898361728353,0.00809289472011823,0.00409970043457503));
#386=CARTESIAN_POINT('',(-0.00126659983462707,0.0081118618085248,0.00409970043457503));
#387=CARTESIAN_POINT('',(-0.00261557693362709,0.00787983046329118,0.00409970043457503));
#388=CARTESIAN_POINT('',(-0.00506260735257907,0.00699548490935849,0.00409970043457503));
#389=CARTESIAN_POINT('',(-0.00615798365808194,0.0063453167931978,0.00409970043457503));
#390=CARTESIAN_POINT('',(-0.00792678527283423,0.00479167201169318,0.00409970043457503));
#391=CARTESIAN_POINT('',(-0.00860044636052571,0.00389227677202499,0.00409970043457503));
#392=CARTESIAN_POINT('',(-0.00949193984066971,0.00201380376192375,0.00409970043457503));
#393=CARTESIAN_POINT('',(-0.00971431783286363,0.0010353066047792,0.00409970043457503));
#394=CARTESIAN_POINT('',(-0.00973157617030574,-0.0009176607090169,0.00409970043457503));
#395=CARTESIAN_POINT('',(-0.00952662395990882,-0.00189711574328014,0.00409970043457503));
#396=CARTESIAN_POINT('',(-0.00867100615152801,-0.0037822448192951,0.00409970043457503));
#397=CARTESIAN_POINT('',(-0.00801574763882011,-0.00468763159925037,0.00409970043457503));
#398=CARTESIAN_POINT('',(-0.00628012754916724,-0.00626098386297365,0.00409970043457503));
#399=CARTESIAN_POINT('',(-0.00519933801049885,-0.00692485868475502,0.00409970043457503));
#400=CARTESIAN_POINT('',(-0.00277245354291208,-0.00784193656706667,0.00409970043457503));
#401=CARTESIAN_POINT('',(-0.0014289836172852,-0.00809289472011828,0.00409970043457503));
#402=CARTESIAN_POINT('',(0.00126659983462877,-0.00811186180852476,0.00409970043457503));
#403=CARTESIAN_POINT('',(0.00261557693362708,-0.00787983046329119,0.00409970043457503));
#404=CARTESIAN_POINT('',(0.00506260735257905,-0.00699548490935849,0.00409970043457503));
#405=CARTESIAN_POINT('',(0.00615798359553678,-0.00634531684864531,0.00409970043457503));
#406=CARTESIAN_POINT('',(0.00792678533537939,-0.00479167195624567,0.00409970043457503));
#407=CARTESIAN_POINT('',(0.00633306068321018,-0.00660587996918348,0.00292036258687776));
#408=CARTESIAN_POINT('',(0.0081625913682878,-0.0049988931937113,0.00292036258687776));
#409=CARTESIAN_POINT('',(0.00886284144822304,-0.00406546105908986,0.00292036258687776));
#410=CARTESIAN_POINT('',(0.00979202783737086,-0.00210756502012539,0.00292036258687776));
#411=CARTESIAN_POINT('',(0.0100252087186272,-0.00108372225727876,0.00292036258687776));
#412=CARTESIAN_POINT('',(0.0100432741332187,0.000960574554933218,0.00292036258687776));
#413=CARTESIAN_POINT('',(0.00982831561118785,0.00198564136112991,0.00292036258687776));
#414=CARTESIAN_POINT('',(0.0089362632048452,0.00395104450282228,0.00292036258687776));
#415=CARTESIAN_POINT('',(0.00825487881463123,0.00489103547413952,0.00292036258687776));
#416=CARTESIAN_POINT('',(0.00645915836435832,0.00651886915298341,0.00292036258687776));
#417=CARTESIAN_POINT('',(0.00534448287626411,0.00720280267992702,0.00292036258687776));
#418=CARTESIAN_POINT('',(0.00284739404462384,0.00814640958348908,0.00292036258687776));
#419=CARTESIAN_POINT('',(0.00146753567932243,0.00840393773932779,0.00292036258687776));
#420=CARTESIAN_POINT('',(-0.00130077107644749,0.00842341653488317,0.00292036258687776));
#421=CARTESIAN_POINT('',(-0.00268617578657022,0.00818532861093563,0.00292036258687776));
#422=CARTESIAN_POINT('',(-0.00520362287045277,0.00727553479769046,0.00292036258687776));
#423=CARTESIAN_POINT('',(-0.00633306074792093,0.00660587991186221,0.00292036258687776));
#424=CARTESIAN_POINT('',(-0.00816259130357704,0.00499889325103256,0.00292036258687776));
#425=CARTESIAN_POINT('',(-0.00886284144822511,0.00406546105908315,0.00292036258687776));
#426=CARTESIAN_POINT('',(-0.00979202783736877,0.0021075650201321,0.00292036258687776));
#427=CARTESIAN_POINT('',(-0.0100252087186256,0.00108372225727793,0.00292036258687776));
#428=CARTESIAN_POINT('',(-0.0100432741332203,-0.000960574554932363,0.00292036258687776));
#429=CARTESIAN_POINT('',(-0.00982831561118882,-0.00198564136112761,0.00292036258687776));
#430=CARTESIAN_POINT('',(-0.00893626320484421,-0.00395104450282458,0.00292036258687776));
#431=CARTESIAN_POINT('',(-0.00825487881462719,-0.00489103547414275,0.00292036258687776));
#432=CARTESIAN_POINT('',(-0.00645915836436237,-0.00651886915298017,0.00292036258687776));
#433=CARTESIAN_POINT('',(-0.00534448287625738,-0.00720280267993206,0.00292036258687776));
#434=CARTESIAN_POINT('',(-0.00284739404463057,-0.00814640958348403,0.00292036258687776));
#435=CARTESIAN_POINT('',(-0.00146753567932433,-0.00840393773932442,0.00292036258687776));
#436=CARTESIAN_POINT('',(0.00130077107644943,-0.00842341653488654,0.00292036258687776));
#437=CARTESIAN_POINT('',(0.00268617578657105,-0.00818532861093395,0.00292036258687776));
#438=CARTESIAN_POINT('',(0.00520362287045191,-0.00727553479769216,0.00292036258687776));
#439=CARTESIAN_POINT('',(0.00633306068321018,-0.00660587996918348,0.00292036258687776));
#440=CARTESIAN_POINT('',(0.0081625913682878,-0.0049988931937113,0.00292036258687776));
#441=CARTESIAN_POINT('',(0.00686598863825196,-0.00739902413689292,0.0021523823036597));
#442=CARTESIAN_POINT('',(0.0088803759086545,-0.00562966671063088,0.0021523823036597));
#443=CARTESIAN_POINT('',(0.00966156205386392,-0.00459262740149298,0.0021523823036597));
#444=CARTESIAN_POINT('',(0.0107054842155811,-0.00239297070206268,0.0021523823036597));
#445=CARTESIAN_POINT('',(0.0109715486777399,-0.00123109765071573,0.0021523823036597));
#446=CARTESIAN_POINT('',(0.010992070804297,0.00109120265967345,0.0021523823036597));
#447=CARTESIAN_POINT('',(0.0107466534525699,0.00225510995416509,0.0021523823036597));
#448=CARTESIAN_POINT('',(0.00974369552430616,0.00446486427987441,0.0021523823036597));
#449=CARTESIAN_POINT('',(0.0089827849627333,0.00551018908546653,0.0021523823036597));
#450=CARTESIAN_POINT('',(0.00700412131467722,0.00730386210703168,0.0021523823036597));
#451=CARTESIAN_POINT('',(0.00578629829324156,0.00804885356490344,0.0021523823036597));
#452=CARTESIAN_POINT('',(0.00307551006403714,0.00907321379391827,0.0021523823036597));
#453=CARTESIAN_POINT('',(0.00158488668086472,0.00935074078682381,0.0021523823036597));
#454=CARTESIAN_POINT('',(-0.00140478702888963,0.00937177719937503,0.0021523823036597));
#455=CARTESIAN_POINT('',(-0.00290107599325732,0.00911525328158311,0.0021523823036597));
#456=CARTESIAN_POINT('',(-0.00563286871049024,0.00812799594084966,0.0021523823036597));
#457=CARTESIAN_POINT('',(-0.00686598870955418,0.00739902407387112,0.0021523823036597));
#458=CARTESIAN_POINT('',(-0.00888037583735228,0.00562966677365269,0.0021523823036597));
#459=CARTESIAN_POINT('',(-0.0096615620538647,0.00459262740148573,0.0021523823036597));
#460=CARTESIAN_POINT('',(-0.0107054842155803,0.00239297070206993,0.0021523823036597));
#461=CARTESIAN_POINT('',(-0.0109715486777398,0.00123109765071446,0.0021523823036597));
#462=CARTESIAN_POINT('',(-0.010992070804297,-0.00109120265967216,0.0021523823036597));
#463=CARTESIAN_POINT('',(-0.0107466534525722,-0.00225510995416105,0.0021523823036597));
#464=CARTESIAN_POINT('',(-0.00974369552430389,-0.00446486427987845,0.0021523823036597));
#465=CARTESIAN_POINT('',(-0.00898278496273006,-0.00551018908546653,0.0021523823036597));
#466=CARTESIAN_POINT('',(-0.00700412131468046,-0.00730386210703168,0.0021523823036597));
#467=CARTESIAN_POINT('',(-0.00578629829323567,-0.00804885356490512,0.0021523823036597));
#468=CARTESIAN_POINT('',(-0.00307551006404302,-0.00907321379391659,0.0021523823036597));
#469=CARTESIAN_POINT('',(-0.0015848866808669,-0.00935074078682216,0.0021523823036597));
#470=CARTESIAN_POINT('',(0.00140478702889184,-0.00937177719937668,0.0021523823036597));
#471=CARTESIAN_POINT('',(0.0029010759932573,-0.00911525328158312,0.0021523823036597));
#472=CARTESIAN_POINT('',(0.00563286871049023,-0.00812799594084967,0.0021523823036597));
#473=CARTESIAN_POINT('',(0.00686598863825196,-0.00739902413689292,0.0021523823036597));
#474=CARTESIAN_POINT('',(0.0088803759086545,-0.00562966671063088,0.0021523823036597));
#475=CARTESIAN_POINT('',(0.00686598863825197,-0.00739902413689292,0.0021523823036597));
#476=CARTESIAN_POINT('',(0.0088803759086545,-0.00562966671063088,0.0021523823036597));
#477=CARTESIAN_POINT('',(0.00966156205386237,-0.00459262740149259,0.0021523823036597));
#478=CARTESIAN_POINT('',(0.0107054842155827,-0.00239297070206307,0.0021523823036597));
#479=CARTESIAN_POINT('',(0.0109715486777399,-0.00123109765071497,0.0021523823036597));
#480=CARTESIAN_POINT('',(0.010992070804297,0.00109120265967269,0.0021523823036597));
#481=CARTESIAN_POINT('',(0.0107466534525699,0.00225510995416432,0.0021523823036597));
#482=CARTESIAN_POINT('',(0.00974369552430616,0.00446486427987519,0.0021523823036597));
#483=CARTESIAN_POINT('',(0.0089827849627333,0.00551018908546653,0.0021523823036597));
#484=CARTESIAN_POINT('',(0.00700412131467722,0.00730386210703168,0.0021523823036597));
#485=CARTESIAN_POINT('',(0.00578629829324156,0.00804885356490344,0.0021523823036597));
#486=CARTESIAN_POINT('',(0.00307551006403714,0.00907321379391827,0.0021523823036597));
#487=CARTESIAN_POINT('',(0.00158488668086472,0.00935074078682382,0.0021523823036597));
#488=CARTESIAN_POINT('',(-0.00140478702888963,0.00937177719937503,0.0021523823036597));
#489=CARTESIAN_POINT('',(-0.00290107599325732,0.00911525328158311,0.0021523823036597));
#490=CARTESIAN_POINT('',(-0.00563286871049024,0.00812799594084967,0.0021523823036597));
#491=CARTESIAN_POINT('',(-0.00686598870955418,0.00739902407387112,0.0021523823036597));
#492=CARTESIAN_POINT('',(-0.00888037583735228,0.00562966677365269,0.0021523823036597));
#493=CARTESIAN_POINT('',(-0.0096615620538647,0.00459262740148534,0.0021523823036597));
#494=CARTESIAN_POINT('',(-0.0107054842155803,0.00239297070207031,0.0021523823036597));
#495=CARTESIAN_POINT('',(-0.0109715486777383,0.0012310976507137,0.0021523823036597));
#496=CARTESIAN_POINT('',(-0.0109920708042985,-0.0010912026596714,0.0021523823036597));
#497=CARTESIAN_POINT('',(-0.0107466534525722,-0.00225510995416106,0.0021523823036597));
#498=CARTESIAN_POINT('',(-0.00974369552430389,-0.00446486427987846,0.0021523823036597));
#499=CARTESIAN_POINT('',(-0.00898278496273006,-0.00551018908546653,0.0021523823036597));
#500=CARTESIAN_POINT('',(-0.00700412131468046,-0.00730386210703168,0.0021523823036597));
#501=CARTESIAN_POINT('',(-0.00578629829323483,-0.00804885356490681,0.0021523823036597));
#502=CARTESIAN_POINT('',(-0.00307551006404387,-0.00907321379391491,0.0021523823036597));
#503=CARTESIAN_POINT('',(-0.00158488668086689,-0.00935074078682216,0.0021523823036597));
#504=CARTESIAN_POINT('',(0.00140478702889185,-0.00937177719937668,0.0021523823036597));
#505=CARTESIAN_POINT('',(0.0029010759932573,-0.00911525328158144,0.0021523823036597));
#506=CARTESIAN_POINT('',(0.00563286871049023,-0.00812799594085136,0.0021523823036597));
#507=CARTESIAN_POINT('',(0.00686598863825197,-0.00739902413689292,0.0021523823036597));
#508=CARTESIAN_POINT('',(0.0088803759086545,-0.00562966671063088,0.0021523823036597));
#509=CARTESIAN_POINT('',(0.00787318227345324,-0.0065143454237619,0.0021523823036597));
#510=CARTESIAN_POINT('',(0.00640831592537737,-0.006717880579866,0.00523531428136199));
#511=CARTESIAN_POINT('',(0.00826395037732107,-0.00508796529683397,0.00523531428136199));
#512=CARTESIAN_POINT('',(0.00897562951278696,-0.00413990269868582,0.00523531428136199));
#513=CARTESIAN_POINT('',(0.00992101784493435,-0.00214786741655064,0.00523531428136199));
#514=CARTESIAN_POINT('',(0.0101588422466148,-0.00110453327088279,0.00523531428136199));
#515=CARTESIAN_POINT('',(0.0101772545757419,0.00097902066863925,0.00523531428136199));
#516=CARTESIAN_POINT('',(0.00995799493461335,0.00202369326670842,0.00523531428136199));
#517=CARTESIAN_POINT('',(0.00905028145845705,0.00402360146176288,0.00523531428136199));
#518=CARTESIAN_POINT('',(0.00835766710511594,0.00497846671980532,0.00523531428136199));
#519=CARTESIAN_POINT('',(0.00653611307917589,0.00662971872335636,0.00523531428136199));
#520=CARTESIAN_POINT('',(0.00540687203390445,0.0073222742963656,0.00523531428136199));
#521=CARTESIAN_POINT('',(0.00287960651559773,0.00827728445060404,0.00523531428136199));
#522=CARTESIAN_POINT('',(0.00148410692118806,0.008537636660446,0.00523531428136199));
#523=CARTESIAN_POINT('',(-0.001315459263878,0.00855733540852099,0.00523531428136199));
#524=CARTESIAN_POINT('',(-0.00271652204058636,0.008316644121081,0.00523531428136199));
#525=CARTESIAN_POINT('',(-0.00526423706667892,0.007395911612529,0.00523531428136199));
#526=CARTESIAN_POINT('',(-0.00640831599101926,0.00671788052173987,0.00523531428136199));
#527=CARTESIAN_POINT('',(-0.00826395031167918,0.0050879653549601,0.00523531428136199));
#528=CARTESIAN_POINT('',(-0.00897562951278907,0.00413990269867903,0.00523531428136199));
#529=CARTESIAN_POINT('',(-0.00992101784493224,0.00214786741655743,0.00523531428136199));
#530=CARTESIAN_POINT('',(-0.0101588422466132,0.001104533270882,0.00523531428136199));
#531=CARTESIAN_POINT('',(-0.0101772545757434,-0.000979020668638441,0.00523531428136199));
#532=CARTESIAN_POINT('',(-0.00995799493461429,-0.00202369326670543,0.00523531428136199));
#533=CARTESIAN_POINT('',(-0.0090502814584561,-0.00402360146176587,0.00523531428136199));
#534=CARTESIAN_POINT('',(-0.00835766710511189,-0.00497846671980694,0.00523531428136199));
#535=CARTESIAN_POINT('',(-0.00653611307917993,-0.00662971872335474,0.00523531428136199));
#536=CARTESIAN_POINT('',(-0.00540687203389772,-0.00732227429637065,0.00523531428136199));
#537=CARTESIAN_POINT('',(-0.00287960651560445,-0.008277284450599,0.00523531428136199));
#538=CARTESIAN_POINT('',(-0.00148410692118988,-0.00853763666044605,0.00523531428136199));
#539=CARTESIAN_POINT('',(0.00131545926387986,-0.00855733540852094,0.00523531428136199));
#540=CARTESIAN_POINT('',(0.00271652204058634,-0.00831664412107933,0.00523531428136199));
#541=CARTESIAN_POINT('',(0.0052642370666789,-0.00739591161253069,0.00523531428136199));
#542=CARTESIAN_POINT('',(0.00640831592537737,-0.006717880579866,0.00523531428136199));
#543=CARTESIAN_POINT('',(0.00826395037732107,-0.00508796529683397,0.00523531428136199));
#544=CARTESIAN_POINT('',(0.00733613315134922,-0.00590292293834999,0.00523531428136199));
#545=CARTESIAN_POINT('',(0.00630359420293997,-0.0065620256981734,0.00550830052442583));
#546=CARTESIAN_POINT('',(0.00812290385743969,-0.00496401666825332,0.00550830052442583));
#547=CARTESIAN_POINT('',(0.0088186788466099,-0.00403631314804383,0.00550830052442583));
#548=CARTESIAN_POINT('',(0.00974152130249666,-0.00209178446139079,0.00550830052442583));
#549=CARTESIAN_POINT('',(0.00997288399542534,-0.00107557362465067,0.00550830052442583));
#550=CARTESIAN_POINT('',(0.00999081357429269,0.000953351907979729,0.00550830052442583));
#551=CARTESIAN_POINT('',(0.00977753917202829,0.00197074199076441,0.00550830052442583));
#552=CARTESIAN_POINT('',(0.00889161891796792,0.00392263454575485,0.00550830052442583));
#553=CARTESIAN_POINT('',(0.00821463166311856,0.00485680143274638,0.00550830052442583));
#554=CARTESIAN_POINT('',(0.00642902644901899,0.00647546557624507,0.00550830052442583));
#555=CARTESIAN_POINT('',(0.00532005416100485,0.00715602310780562,0.00550830052442583));
#556=CARTESIAN_POINT('',(0.00283478112739592,0.0080951650245877,0.00550830052442583));
#557=CARTESIAN_POINT('',(0.00146104714566864,0.00835158741118984,0.00550830052442583));
#558=CARTESIAN_POINT('',(-0.00129501986001923,0.00837098008349528,0.00550830052442583));
#559=CARTESIAN_POINT('',(-0.0026742935937878,0.00813391151655796,0.00550830052442583));
#560=CARTESIAN_POINT('',(-0.00517988914818068,0.00722840079164344,0.00550830052442583));
#561=CARTESIAN_POINT('',(-0.00630359426728634,0.00656202564116721,0.00550830052442583));
#562=CARTESIAN_POINT('',(-0.00812290379309331,0.0049640167252595,0.00550830052442583));
#563=CARTESIAN_POINT('',(-0.00881867884661041,0.00403631314803791,0.00550830052442583));
#564=CARTESIAN_POINT('',(-0.00974152130249616,0.00209178446139668,0.00550830052442583));
#565=CARTESIAN_POINT('',(-0.00997288399542532,0.00107557362464829,0.00550830052442583));
#566=CARTESIAN_POINT('',(-0.00999081357429271,-0.000953351907977331,0.00550830052442583));
#567=CARTESIAN_POINT('',(-0.00977753917203239,-0.00197074199076208,0.00550830052442583));
#568=CARTESIAN_POINT('',(-0.00889161891796383,-0.00392263454575718,0.00550830052442583));
#569=CARTESIAN_POINT('',(-0.00821463166311452,-0.00485680143274962,0.00550830052442583));
#570=CARTESIAN_POINT('',(-0.00642902644902303,-0.00647546557624183,0.00550830052442583));
#571=CARTESIAN_POINT('',(-0.00532005416099812,-0.00715602310780562,0.00550830052442583));
#572=CARTESIAN_POINT('',(-0.00283478112740265,-0.0080951650245877,0.00550830052442583));
#573=CARTESIAN_POINT('',(-0.00146104714567015,-0.00835158741118989,0.00550830052442583));
#574=CARTESIAN_POINT('',(0.00129501986002077,-0.00837098008349523,0.00550830052442583));
#575=CARTESIAN_POINT('',(0.00267429359378862,-0.00813391151655628,0.00550830052442583));
#576=CARTESIAN_POINT('',(0.00517988914817982,-0.00722840079164513,0.00550830052442583));
#577=CARTESIAN_POINT('',(0.00630359420293997,-0.0065620256981734,0.00550830052442583));
#578=CARTESIAN_POINT('',(0.00812290385743969,-0.00496401666825332,0.00550830052442583));
#579=CARTESIAN_POINT('',(0.00639096637355578,-0.0066920596490826,0.00550830052442584));
#580=CARTESIAN_POINT('',(0.00824058279083585,-0.00506743036764521,0.00550830052442584));
#581=CARTESIAN_POINT('',(0.00894962704020568,-0.004122740717053,0.00550830052442584));
#582=CARTESIAN_POINT('',(0.0098912801315711,-0.00213857599052919,0.00550830052442584));
#583=CARTESIAN_POINT('',(0.0101280340031997,-0.00109973544220582,0.00550830052442584));
#584=CARTESIAN_POINT('',(0.0101463663536902,0.000974768050530364,0.00550830052442584));
#585=CARTESIAN_POINT('',(0.00992809830446347,0.00201492067507621,0.00550830052442584));
#586=CARTESIAN_POINT('',(0.00902399537468762,0.0040068739796243,0.00550830052442584));
#587=CARTESIAN_POINT('',(0.00833397000812868,0.00495831007843574,0.00550830052442584));
#588=CARTESIAN_POINT('',(0.00651837172622589,0.00660416315659233,0.00550830052442584));
#589=CARTESIAN_POINT('',(0.00539248866481963,0.00729473097923752,0.00550830052442584));
#590=CARTESIAN_POINT('',(0.00287218016338228,0.00824711219650164,0.00550830052442584));
#591=CARTESIAN_POINT('',(0.0014802865412232,0.00850681334111719,0.00550830052442584));
#592=CARTESIAN_POINT('',(-0.00131207300849456,0.00852646138073096,0.00550830052442584));
#593=CARTESIAN_POINT('',(-0.00270952593119212,0.00828637027991361,0.00550830052442584));
#594=CARTESIAN_POINT('',(-0.00525026290211285,0.00736815960845754,0.00550830052442584));
#595=CARTESIAN_POINT('',(-0.00639096643898249,0.0066920595911424,0.00550830052442584));
#596=CARTESIAN_POINT('',(-0.00824058272540912,0.00506743042558542,0.00550830052442584));
#597=CARTESIAN_POINT('',(-0.00894962704020623,0.004122740717047,0.00550830052442584));
#598=CARTESIAN_POINT('',(-0.00989128013157055,0.00213857599053519,0.00550830052442584));
#599=CARTESIAN_POINT('',(-0.0101280340031997,0.00109973544220502,0.00550830052442584));
#600=CARTESIAN_POINT('',(-0.0101463663536903,-0.000974768050529544,0.00550830052442584));
#601=CARTESIAN_POINT('',(-0.00992809830446441,-0.00201492067507165,0.00550830052442584));
#602=CARTESIAN_POINT('',(-0.00902399537468668,-0.00400687397962886,0.00550830052442584));
#603=CARTESIAN_POINT('',(-0.00833397000812544,-0.00495831007843897,0.00550830052442584));
#604=CARTESIAN_POINT('',(-0.00651837172622912,-0.00660416315658908,0.00550830052442584));
#605=CARTESIAN_POINT('',(-0.00539248866481374,-0.00729473097924089,0.00550830052442584));
#606=CARTESIAN_POINT('',(-0.00287218016338817,-0.00824711219649828,0.00550830052442584));
#607=CARTESIAN_POINT('',(-0.00148028654122333,-0.00850681334111724,0.00550830052442584));
#608=CARTESIAN_POINT('',(0.00131207300849472,-0.00852646138073092,0.00550830052442584));
#609=CARTESIAN_POINT('',(0.0027095259311921,-0.00828637027991361,0.00550830052442584));
#610=CARTESIAN_POINT('',(0.00525026290211284,-0.00736815960845754,0.00550830052442584));
#611=CARTESIAN_POINT('',(0.00639096637355578,-0.0066920596490826,0.00550830052442584));
#612=CARTESIAN_POINT('',(0.00824058279083585,-0.00506743036764521,0.00550830052442584));
#613=CARTESIAN_POINT('',(0.00644020075778529,-0.00676533402760407,0.00537995743315928));
#614=CARTESIAN_POINT('',(0.0083068950935028,-0.00512570418383371,0.00537995743315928));
#615=CARTESIAN_POINT('',(0.00902341659622035,-0.00417144281648152,0.00537995743315928));
#616=CARTESIAN_POINT('',(0.00997566951643266,-0.00216494310614568,0.00537995743315928));
#617=CARTESIAN_POINT('',(0.010215461327509,-0.00111335067232701,0.00537995743315928));
#618=CARTESIAN_POINT('',(0.0102340206405734,0.000986836087567205,0.00537995743315928));
#619=CARTESIAN_POINT('',(0.0100129386617893,0.00203981544766418,0.00537995743315928));
#620=CARTESIAN_POINT('',(0.00909858975968844,0.00405434306074402,0.00537995743315928));
#621=CARTESIAN_POINT('',(0.00840121739239445,0.00501551039324326,0.00537995743315928));
#622=CARTESIAN_POINT('',(0.00656871795977026,0.00667668448776003,0.00537995743315928));
#623=CARTESIAN_POINT('',(0.00543330564541277,0.00737289312846347,0.00537995743315928));
#624=CARTESIAN_POINT('',(0.00289325459125186,0.00833273471671304,0.00537995743315928));
#625=CARTESIAN_POINT('',(0.0014911279771893,0.00859428344770403,0.00537995743315928));
#626=CARTESIAN_POINT('',(-0.00132168249007563,0.00861407538728005,0.00537995743315928));
#627=CARTESIAN_POINT('',(-0.00272937942029336,0.00837228108287793,0.00537995743315928));
#628=CARTESIAN_POINT('',(-0.00528991864622846,0.00744691396740108,0.00537995743315928));
#629=CARTESIAN_POINT('',(-0.00644020082382134,0.006765333969137,0.00537995743315928));
#630=CARTESIAN_POINT('',(-0.00830689502746675,0.00512570424230077,0.00537995743315928));
#631=CARTESIAN_POINT('',(-0.00902341659622093,0.00417144281647469,0.00537995743315928));
#632=CARTESIAN_POINT('',(-0.00997566951643208,0.00216494310615249,0.00537995743315928));
#633=CARTESIAN_POINT('',(-0.0102154613275105,0.00111335067232624,0.00537995743315928));
#634=CARTESIAN_POINT('',(-0.010234020640572,-0.000986836087566415,0.00537995743315928));
#635=CARTESIAN_POINT('',(-0.0100129386617933,-0.002039815447662,0.00537995743315928));
#636=CARTESIAN_POINT('',(-0.00909858975968441,-0.00405434306074621,0.00537995743315928));
#637=CARTESIAN_POINT('',(-0.00840121739239121,-0.00501551039324487,0.00537995743315928));
#638=CARTESIAN_POINT('',(-0.00656871795977349,-0.00667668448775841,0.00537995743315928));
#639=CARTESIAN_POINT('',(-0.00543330564540604,-0.00737289312846684,0.00537995743315928));
#640=CARTESIAN_POINT('',(-0.00289325459125859,-0.00833273471670969,0.00537995743315928));
#641=CARTESIAN_POINT('',(-0.00149112797719108,-0.00859428344770408,0.00537995743315928));
#642=CARTESIAN_POINT('',(0.00132168249007745,-0.00861407538727999,0.00537995743315928));
#643=CARTESIAN_POINT('',(0.00272937942029418,-0.00837228108287625,0.00537995743315928));
#644=CARTESIAN_POINT('',(0.0052899186462276,-0.00744691396740277,0.00537995743315928));
#645=CARTESIAN_POINT('',(0.00644020075778529,-0.00676533402760407,0.00537995743315928));
#646=CARTESIAN_POINT('',(0.0083068950935028,-0.00512570418383371,0.00537995743315928));
#647=CARTESIAN_POINT('',(0.00640831592537737,-0.006717880579866,0.00523531428136199));
#648=CARTESIAN_POINT('',(0.00826395037732107,-0.00508796529683397,0.00523531428136199));
#649=CARTESIAN_POINT('',(0.00897562951278696,-0.00413990269868582,0.00523531428136199));
#650=CARTESIAN_POINT('',(0.00992101784493435,-0.00214786741655064,0.00523531428136199));
#651=CARTESIAN_POINT('',(0.0101588422466148,-0.00110453327088279,0.00523531428136199));
#652=CARTESIAN_POINT('',(0.0101772545757419,0.00097902066863925,0.00523531428136199));
#653=CARTESIAN_POINT('',(0.00995799493461335,0.00202369326670842,0.00523531428136199));
#654=CARTESIAN_POINT('',(0.00905028145845705,0.00402360146176288,0.00523531428136199));
#655=CARTESIAN_POINT('',(0.00835766710511594,0.00497846671980532,0.00523531428136199));
#656=CARTESIAN_POINT('',(0.00653611307917589,0.00662971872335636,0.00523531428136199));
#657=CARTESIAN_POINT('',(0.00540687203390445,0.0073222742963656,0.00523531428136199));
#658=CARTESIAN_POINT('',(0.00287960651559773,0.00827728445060404,0.00523531428136199));
#659=CARTESIAN_POINT('',(0.00148410692118806,0.008537636660446,0.00523531428136199));
#660=CARTESIAN_POINT('',(-0.001315459263878,0.00855733540852099,0.00523531428136199));
#661=CARTESIAN_POINT('',(-0.00271652204058636,0.008316644121081,0.00523531428136199));
#662=CARTESIAN_POINT('',(-0.00526423706667892,0.007395911612529,0.00523531428136199));
#663=CARTESIAN_POINT('',(-0.00640831599101926,0.00671788052173987,0.00523531428136199));
#664=CARTESIAN_POINT('',(-0.00826395031167918,0.0050879653549601,0.00523531428136199));
#665=CARTESIAN_POINT('',(-0.00897562951278907,0.00413990269867903,0.00523531428136199));
#666=CARTESIAN_POINT('',(-0.00992101784493224,0.00214786741655743,0.00523531428136199));
#667=CARTESIAN_POINT('',(-0.0101588422466132,0.001104533270882,0.00523531428136199));
#668=CARTESIAN_POINT('',(-0.0101772545757434,-0.000979020668638441,0.00523531428136199));
#669=CARTESIAN_POINT('',(-0.00995799493461429,-0.00202369326670543,0.00523531428136199));
#670=CARTESIAN_POINT('',(-0.0090502814584561,-0.00402360146176587,0.00523531428136199));
#671=CARTESIAN_POINT('',(-0.00835766710511189,-0.00497846671980694,0.00523531428136199));
#672=CARTESIAN_POINT('',(-0.00653611307917993,-0.00662971872335474,0.00523531428136199));
#673=CARTESIAN_POINT('',(-0.00540687203389772,-0.00732227429637065,0.00523531428136199));
#674=CARTESIAN_POINT('',(-0.00287960651560445,-0.008277284450599,0.00523531428136199));
#675=CARTESIAN_POINT('',(-0.00148410692118988,-0.00853763666044605,0.00523531428136199));
#676=CARTESIAN_POINT('',(0.00131545926387986,-0.00855733540852094,0.00523531428136199));
#677=CARTESIAN_POINT('',(0.00271652204058634,-0.00831664412107933,0.00523531428136199));
#678=CARTESIAN_POINT('',(0.0052642370666789,-0.00739591161253069,0.00523531428136199));
#679=CARTESIAN_POINT('',(0.00640831592537737,-0.006717880579866,0.00523531428136199));
#680=CARTESIAN_POINT('',(0.00826395037732107,-0.00508796529683397,0.00523531428136199));
#681=CARTESIAN_POINT('',(0.00630359420293997,-0.0065620256981734,0.00550830052442583));
#682=CARTESIAN_POINT('',(0.00812290385743969,-0.00496401666825332,0.00550830052442583));
#683=CARTESIAN_POINT('',(0.0088186788466099,-0.00403631314804383,0.00550830052442583));
#684=CARTESIAN_POINT('',(0.00974152130249666,-0.00209178446139079,0.00550830052442583));
#685=CARTESIAN_POINT('',(0.00997288399542534,-0.00107557362465067,0.00550830052442583));
#686=CARTESIAN_POINT('',(0.00999081357429269,0.000953351907979729,0.00550830052442583));
#687=CARTESIAN_POINT('',(0.00977753917202829,0.00197074199076441,0.00550830052442583));
#688=CARTESIAN_POINT('',(0.00889161891796792,0.00392263454575485,0.00550830052442583));
#689=CARTESIAN_POINT('',(0.00821463166311856,0.00485680143274638,0.00550830052442583));
#690=CARTESIAN_POINT('',(0.00642902644901899,0.00647546557624507,0.00550830052442583));
#691=CARTESIAN_POINT('',(0.00532005416100485,0.00715602310780562,0.00550830052442583));
#692=CARTESIAN_POINT('',(0.00283478112739592,0.0080951650245877,0.00550830052442583));
#693=CARTESIAN_POINT('',(0.00146104714566864,0.00835158741118984,0.00550830052442583));
#694=CARTESIAN_POINT('',(-0.00129501986001923,0.00837098008349528,0.00550830052442583));
#695=CARTESIAN_POINT('',(-0.0026742935937878,0.00813391151655796,0.00550830052442583));
#696=CARTESIAN_POINT('',(-0.00517988914818068,0.00722840079164344,0.00550830052442583));
#697=CARTESIAN_POINT('',(-0.00630359426728634,0.00656202564116721,0.00550830052442583));
#698=CARTESIAN_POINT('',(-0.00812290379309331,0.0049640167252595,0.00550830052442583));
#699=CARTESIAN_POINT('',(-0.00881867884661041,0.00403631314803791,0.00550830052442583));
#700=CARTESIAN_POINT('',(-0.00974152130249616,0.00209178446139668,0.00550830052442583));
#701=CARTESIAN_POINT('',(-0.00997288399542532,0.00107557362464829,0.00550830052442583));
#702=CARTESIAN_POINT('',(-0.00999081357429271,-0.000953351907977331,0.00550830052442583));
#703=CARTESIAN_POINT('',(-0.00977753917203239,-0.00197074199076208,0.00550830052442583));
#704=CARTESIAN_POINT('',(-0.00889161891796383,-0.00392263454575718,0.00550830052442583));
#705=CARTESIAN_POINT('',(-0.00821463166311452,-0.00485680143274962,0.00550830052442583));
#706=CARTESIAN_POINT('',(-0.00642902644902303,-0.00647546557624183,0.00550830052442583));
#707=CARTESIAN_POINT('',(-0.00532005416099812,-0.00715602310780562,0.00550830052442583));
#708=CARTESIAN_POINT('',(-0.00283478112740265,-0.0080951650245877,0.00550830052442583));
#709=CARTESIAN_POINT('',(-0.00146104714567015,-0.00835158741118989,0.00550830052442583));
#710=CARTESIAN_POINT('',(0.00129501986002077,-0.00837098008349523,0.00550830052442583));
#711=CARTESIAN_POINT('',(0.00267429359378862,-0.00813391151655628,0.00550830052442583));
#712=CARTESIAN_POINT('',(0.00517988914817982,-0.00722840079164513,0.00550830052442583));
#713=CARTESIAN_POINT('',(0.00630359420293997,-0.0065620256981734,0.00550830052442583));
#714=CARTESIAN_POINT('',(0.00812290385743969,-0.00496401666825332,0.00550830052442583));
#715=CARTESIAN_POINT('',(0.00721324903018983,-0.00576302118321336,0.00550830052442583));
#716=CARTESIAN_POINT('',(0.00405508131826579,-0.0078962318904781,0.00550830052442583));
#717=CARTESIAN_POINT('',(0.00405508131826579,-0.0078962318904781,0.00744479938956502));
#718=CARTESIAN_POINT('',(0.00742800783015178,-0.0058936634382202,0.00550830052442583));
#719=CARTESIAN_POINT('',(0.00742800783015178,-0.0058936634382202,0.00744479938956502));
#720=CARTESIAN_POINT('',(0.00951238154226607,-0.00310724145592126,0.00550830052442583));
#721=CARTESIAN_POINT('',(0.00951238154226607,-0.00310724145592126,0.00744479938956502));
#722=CARTESIAN_POINT('',(0.0102030664481036,-6.16635663985923E-5,0.00550830052442583));
#723=CARTESIAN_POINT('',(0.0102030664481036,-6.16635663985923E-5,0.00744479938956502));
#724=CARTESIAN_POINT('',(0.00956644537447352,0.00298723057150279,0.00550830052442583));
#725=CARTESIAN_POINT('',(0.00956644537447352,0.00298723057150279,0.00744479938956502));
#726=CARTESIAN_POINT('',(0.00753862632399093,0.00579287088994519,0.00550830052442583));
#727=CARTESIAN_POINT('',(0.00753862632399093,0.00579287088994519,0.00744479938956502));
#728=CARTESIAN_POINT('',(0.00421002366597543,0.00783808689569079,0.00550830052442583));
#729=CARTESIAN_POINT('',(0.00421002366597543,0.00783808689569079,0.00744479938956502));
#730=CARTESIAN_POINT('',(8.57848773096627E-5,0.00860834592447162,0.00550830052442583));
#731=CARTESIAN_POINT('',(8.57848773096627E-5,0.00860834592447162,0.00744479938956502));
#732=CARTESIAN_POINT('',(-0.00405508131826583,0.0078962318904781,0.00550830052442583));
#733=CARTESIAN_POINT('',(-0.00405508131826583,0.0078962318904781,0.00744479938956502));
#734=CARTESIAN_POINT('',(-0.00742800783015176,0.0058936634382202,0.00550830052442583));
#735=CARTESIAN_POINT('',(-0.00742800783015176,0.0058936634382202,0.00744479938956502));
#736=CARTESIAN_POINT('',(-0.00951238154226608,0.00310724145592125,0.00550830052442583));
#737=CARTESIAN_POINT('',(-0.00951238154226608,0.00310724145592125,0.00744479938956502));
#738=CARTESIAN_POINT('',(-0.0102030664481036,6.166356639861E-5,0.00550830052442583));
#739=CARTESIAN_POINT('',(-0.0102030664481036,6.166356639861E-5,0.00744479938956502));
#740=CARTESIAN_POINT('',(-0.00956644537447353,-0.0029872305715028,0.00550830052442583));
#741=CARTESIAN_POINT('',(-0.00956644537447353,-0.0029872305715028,0.00744479938956502));
#742=CARTESIAN_POINT('',(-0.00753862632399092,-0.00579287088994519,0.00550830052442583));
#743=CARTESIAN_POINT('',(-0.00753862632399092,-0.00579287088994519,0.00744479938956502));
#744=CARTESIAN_POINT('',(-0.00421002366597544,-0.00783808689569079,0.00550830052442583));
#745=CARTESIAN_POINT('',(-0.00421002366597544,-0.00783808689569079,0.00744479938956502));
#746=CARTESIAN_POINT('',(-8.5784877309621E-5,-0.00860834592447162,0.00550830052442583));
#747=CARTESIAN_POINT('',(-8.5784877309621E-5,-0.00860834592447162,0.00744479938956502));
#748=CARTESIAN_POINT('',(0.00405508131826579,-0.0078962318904781,0.00550830052442583));
#749=CARTESIAN_POINT('',(0.00405508131826579,-0.0078962318904781,0.00744479938956502));
#750=CARTESIAN_POINT('',(0.00742800783015178,-0.0058936634382202,0.00550830052442583));
#751=CARTESIAN_POINT('',(0.00742800783015178,-0.0058936634382202,0.00744479938956502));
#752=CARTESIAN_POINT('',(0.00951238154226607,-0.00310724145592126,0.00550830052442583));
#753=CARTESIAN_POINT('',(0.00951238154226607,-0.00310724145592126,0.00744479938956502));
#754=CARTESIAN_POINT('',(0.00630359420293997,-0.0065620256981734,0.00744479938956502));
#755=CARTESIAN_POINT('',(0.00812290385743969,-0.00496401666825332,0.00744479938956502));
#756=CARTESIAN_POINT('',(0.0088186788466099,-0.00403631314804383,0.00744479938956502));
#757=CARTESIAN_POINT('',(0.00974152130249666,-0.00209178446139079,0.00744479938956502));
#758=CARTESIAN_POINT('',(0.00997288399542534,-0.00107557362465067,0.00744479938956502));
#759=CARTESIAN_POINT('',(0.00999081357429269,0.000953351907979729,0.00744479938956502));
#760=CARTESIAN_POINT('',(0.00977753917202829,0.00197074199076441,0.00744479938956502));
#761=CARTESIAN_POINT('',(0.00889161891796792,0.00392263454575485,0.00744479938956502));
#762=CARTESIAN_POINT('',(0.00821463166311856,0.00485680143274638,0.00744479938956502));
#763=CARTESIAN_POINT('',(0.00642902644901899,0.00647546557624507,0.00744479938956502));
#764=CARTESIAN_POINT('',(0.00532005416100485,0.00715602310780562,0.00744479938956502));
#765=CARTESIAN_POINT('',(0.00283478112739592,0.0080951650245877,0.00744479938956502));
#766=CARTESIAN_POINT('',(0.00146104714566864,0.00835158741118984,0.00744479938956502));
#767=CARTESIAN_POINT('',(-0.00129501986001923,0.00837098008349528,0.00744479938956502));
#768=CARTESIAN_POINT('',(-0.0026742935937878,0.00813391151655796,0.00744479938956502));
#769=CARTESIAN_POINT('',(-0.00517988914818068,0.00722840079164344,0.00744479938956502));
#770=CARTESIAN_POINT('',(-0.00630359426728634,0.00656202564116721,0.00744479938956502));
#771=CARTESIAN_POINT('',(-0.00812290379309331,0.0049640167252595,0.00744479938956502));
#772=CARTESIAN_POINT('',(-0.00881867884661041,0.00403631314803791,0.00744479938956502));
#773=CARTESIAN_POINT('',(-0.00974152130249616,0.00209178446139668,0.00744479938956502));
#774=CARTESIAN_POINT('',(-0.00997288399542532,0.00107557362464829,0.00744479938956502));
#775=CARTESIAN_POINT('',(-0.00999081357429271,-0.000953351907977331,0.00744479938956502));
#776=CARTESIAN_POINT('',(-0.00977753917203239,-0.00197074199076208,0.00744479938956502));
#777=CARTESIAN_POINT('',(-0.00889161891796383,-0.00392263454575718,0.00744479938956502));
#778=CARTESIAN_POINT('',(-0.00821463166311452,-0.00485680143274962,0.00744479938956502));
#779=CARTESIAN_POINT('',(-0.00642902644902303,-0.00647546557624183,0.00744479938956502));
#780=CARTESIAN_POINT('',(-0.00532005416099812,-0.00715602310780562,0.00744479938956502));
#781=CARTESIAN_POINT('',(-0.00283478112740265,-0.0080951650245877,0.00744479938956502));
#782=CARTESIAN_POINT('',(-0.00146104714567015,-0.00835158741118989,0.00744479938956502));
#783=CARTESIAN_POINT('',(0.00129501986002077,-0.00837098008349523,0.00744479938956502));
#784=CARTESIAN_POINT('',(0.00267429359378862,-0.00813391151655628,0.00744479938956502));
#785=CARTESIAN_POINT('',(0.00517988914817982,-0.00722840079164513,0.00744479938956502));
#786=CARTESIAN_POINT('',(0.00630359420293997,-0.0065620256981734,0.00744479938956502));
#787=CARTESIAN_POINT('',(0.00812290385743969,-0.00496401666825332,0.00744479938956502));
#788=CARTESIAN_POINT('',(-0.00798211993856167,0.00500197412716516,0.00744479938956502));
#789=CARTESIAN_POINT('',(-0.00798211993874072,-0.0050020776013865,0.00744479938956502));
#790=CARTESIAN_POINT('',(0.00630359420293997,-0.0065620256981734,0.00744479938956502));
#791=CARTESIAN_POINT('',(0.00812290385743969,-0.00496401666825332,0.00744479938956502));
#792=CARTESIAN_POINT('',(0.0088186788466099,-0.00403631314804383,0.00744479938956502));
#793=CARTESIAN_POINT('',(0.00974152130249666,-0.00209178446139079,0.00744479938956502));
#794=CARTESIAN_POINT('',(0.00997288399542534,-0.00107557362465067,0.00744479938956502));
#795=CARTESIAN_POINT('',(0.00999081357429269,0.000953351907979729,0.00744479938956502));
#796=CARTESIAN_POINT('',(0.00977753917202829,0.00197074199076441,0.00744479938956502));
#797=CARTESIAN_POINT('',(0.00889161891796792,0.00392263454575485,0.00744479938956502));
#798=CARTESIAN_POINT('',(0.00821463166311856,0.00485680143274638,0.00744479938956502));
#799=CARTESIAN_POINT('',(0.00642902644901899,0.00647546557624507,0.00744479938956502));
#800=CARTESIAN_POINT('',(0.00532005416100485,0.00715602310780562,0.00744479938956502));
#801=CARTESIAN_POINT('',(0.00283478112739592,0.0080951650245877,0.00744479938956502));
#802=CARTESIAN_POINT('',(0.00146104714566864,0.00835158741118984,0.00744479938956502));
#803=CARTESIAN_POINT('',(-0.00129501986001923,0.00837098008349528,0.00744479938956502));
#804=CARTESIAN_POINT('',(-0.0026742935937878,0.00813391151655796,0.00744479938956502));
#805=CARTESIAN_POINT('',(-0.00517988914818068,0.00722840079164344,0.00744479938956502));
#806=CARTESIAN_POINT('',(-0.00630359426728634,0.00656202564116721,0.00744479938956502));
#807=CARTESIAN_POINT('',(-0.00812290379309331,0.0049640167252595,0.00744479938956502));
#808=CARTESIAN_POINT('',(-0.00881867884661041,0.00403631314803791,0.00744479938956502));
#809=CARTESIAN_POINT('',(-0.00974152130249616,0.00209178446139668,0.00744479938956502));
#810=CARTESIAN_POINT('',(-0.00997288399542532,0.00107557362464829,0.00744479938956502));
#811=CARTESIAN_POINT('',(-0.00999081357429271,-0.000953351907977331,0.00744479938956502));
#812=CARTESIAN_POINT('',(-0.00977753917203239,-0.00197074199076208,0.00744479938956502));
#813=CARTESIAN_POINT('',(-0.00889161891796383,-0.00392263454575718,0.00744479938956502));
#814=CARTESIAN_POINT('',(-0.00821463166311452,-0.00485680143274962,0.00744479938956502));
#815=CARTESIAN_POINT('',(-0.00642902644902303,-0.00647546557624183,0.00744479938956502));
#816=CARTESIAN_POINT('',(-0.00532005416099812,-0.00715602310780562,0.00744479938956502));
#817=CARTESIAN_POINT('',(-0.00283478112740265,-0.0080951650245877,0.00744479938956502));
#818=CARTESIAN_POINT('',(-0.00146104714567015,-0.00835158741118989,0.00744479938956502));
#819=CARTESIAN_POINT('',(0.00129501986002077,-0.00837098008349523,0.00744479938956502));
#820=CARTESIAN_POINT('',(0.00267429359378862,-0.00813391151655628,0.00744479938956502));
#821=CARTESIAN_POINT('',(0.00517988914817982,-0.00722840079164513,0.00744479938956502));
#822=CARTESIAN_POINT('',(0.00630359420293997,-0.0065620256981734,0.00744479938956502));
#823=CARTESIAN_POINT('',(0.00812290385743969,-0.00496401666825332,0.00744479938956502));
#824=CARTESIAN_POINT('',(0.00688328240855813,-0.00538735906293909,0.00125));
#825=CARTESIAN_POINT('',(0.,9.63549187631342E-21,0.00125));
#826=CARTESIAN_POINT('',(-0.00315,-0.00184390889145858,0.00125));
#827=CARTESIAN_POINT('',(-0.00315,0.00184390889145858,0.00125));
#828=CARTESIAN_POINT('',(-0.00315,-0.00538735906293909,0.00125));
#829=CARTESIAN_POINT('',(0.00686598863825197,-0.00739902413689292,0.00125));
#830=CARTESIAN_POINT('',(0.0088803759086545,-0.00562966671063088,0.00125));
#831=CARTESIAN_POINT('',(0.00966156205386237,-0.00459262740149259,0.00125));
#832=CARTESIAN_POINT('',(0.0107054842155827,-0.00239297070206307,0.00125));
#833=CARTESIAN_POINT('',(0.0109715486777399,-0.00123109765071497,0.00125));
#834=CARTESIAN_POINT('',(0.010992070804297,0.00109120265967269,0.00125));
#835=CARTESIAN_POINT('',(0.0107466534525699,0.00225510995416432,0.00125));
#836=CARTESIAN_POINT('',(0.00974369552430616,0.00446486427987519,0.00125));
#837=CARTESIAN_POINT('',(0.0089827849627333,0.00551018908546653,0.00125));
#838=CARTESIAN_POINT('',(0.00700412131467722,0.00730386210703168,0.00125));
#839=CARTESIAN_POINT('',(0.00578629829324156,0.00804885356490344,0.00125));
#840=CARTESIAN_POINT('',(0.00307551006403714,0.00907321379391827,0.00125));
#841=CARTESIAN_POINT('',(0.00158488668086472,0.00935074078682382,0.00125));
#842=CARTESIAN_POINT('',(-0.00140478702888963,0.00937177719937503,0.00125));
#843=CARTESIAN_POINT('',(-0.00290107599325732,0.00911525328158311,0.00125));
#844=CARTESIAN_POINT('',(-0.00563286871049024,0.00812799594084967,0.00125));
#845=CARTESIAN_POINT('',(-0.00686598870955418,0.00739902407387112,0.00125));
#846=CARTESIAN_POINT('',(-0.00888037583735228,0.00562966677365269,0.00125));
#847=CARTESIAN_POINT('',(-0.0096615620538647,0.00459262740148534,0.00125));
#848=CARTESIAN_POINT('',(-0.0107054842155803,0.00239297070207031,0.00125));
#849=CARTESIAN_POINT('',(-0.0109715486777383,0.0012310976507137,0.00125));
#850=CARTESIAN_POINT('',(-0.0109920708042985,-0.0010912026596714,0.00125));
#851=CARTESIAN_POINT('',(-0.0107466534525722,-0.00225510995416106,0.00125));
#852=CARTESIAN_POINT('',(-0.00974369552430389,-0.00446486427987846,0.00125));
#853=CARTESIAN_POINT('',(-0.00898278496273006,-0.00551018908546653,0.00125));
#854=CARTESIAN_POINT('',(-0.00700412131468046,-0.00730386210703168,0.00125));
#855=CARTESIAN_POINT('',(-0.00578629829323483,-0.00804885356490681,0.00125));
#856=CARTESIAN_POINT('',(-0.00307551006404387,-0.00907321379391491,0.00125));
#857=CARTESIAN_POINT('',(-0.00158488668086689,-0.00935074078682216,0.00125));
#858=CARTESIAN_POINT('',(0.00140478702889185,-0.00937177719937668,0.00125));
#859=CARTESIAN_POINT('',(0.0029010759932573,-0.00911525328158144,0.00125));
#860=CARTESIAN_POINT('',(0.00563286871049023,-0.00812799594085136,0.00125));
#861=CARTESIAN_POINT('',(0.00686598863825197,-0.00739902413689292,0.00125));
#862=CARTESIAN_POINT('',(0.0088803759086545,-0.00562966671063088,0.00125));
#863=CARTESIAN_POINT('',(0.00787318227345324,-0.0065143454237619,0.00125));
#864=CARTESIAN_POINT('',(0.00439872940871025,-0.00885820422087165,0.00125));
#865=CARTESIAN_POINT('',(0.00439872940871025,-0.00885820422087165,0.0021523823036597));
#866=CARTESIAN_POINT('',(0.0080998003411782,-0.00666837427354157,0.00125));
#867=CARTESIAN_POINT('',(0.0080998003411782,-0.00666837427354157,0.0021523823036597));
#868=CARTESIAN_POINT('',(0.0104411628672963,-0.00355437122753347,0.00125));
#869=CARTESIAN_POINT('',(0.0104411628672963,-0.00355437122753347,0.0021523823036597));
#870=CARTESIAN_POINT('',(0.0112366869979715,-7.09351269914963E-5,0.00125));
#871=CARTESIAN_POINT('',(0.0112366869979715,-7.09351269914963E-5,0.0021523823036597));
#872=CARTESIAN_POINT('',(0.0105029475869283,0.00341842676237262,0.00125));
#873=CARTESIAN_POINT('',(0.0105029475869283,0.00341842676237262,0.0021523823036597));
#874=CARTESIAN_POINT('',(0.00822256958494358,0.00655715077961955,0.00125));
#875=CARTESIAN_POINT('',(0.00822256958494358,0.00655715077961955,0.0021523823036597));
#876=CARTESIAN_POINT('',(0.00456749290552897,0.00879512369664383,0.00125));
#877=CARTESIAN_POINT('',(0.00456749290552897,0.00879512369664383,0.0021523823036597));
#878=CARTESIAN_POINT('',(9.28838647766466E-5,0.00962855651027028,0.00125));
#879=CARTESIAN_POINT('',(9.28838647766466E-5,0.00962855651027028,0.0021523823036597));
#880=CARTESIAN_POINT('',(-0.00439872940871029,0.00885820422087162,0.00125));
#881=CARTESIAN_POINT('',(-0.00439872940871029,0.00885820422087162,0.0021523823036597));
#882=CARTESIAN_POINT('',(-0.00809980034117819,0.00666837427354159,0.00125));
#883=CARTESIAN_POINT('',(-0.00809980034117819,0.00666837427354159,0.0021523823036597));
#884=CARTESIAN_POINT('',(-0.0104411628672964,0.00355437122753347,0.00125));
#885=CARTESIAN_POINT('',(-0.0104411628672964,0.00355437122753347,0.0021523823036597));
#886=CARTESIAN_POINT('',(-0.0112366869979715,7.09351269915144E-5,0.00125));
#887=CARTESIAN_POINT('',(-0.0112366869979715,7.09351269915144E-5,0.0021523823036597));
#888=CARTESIAN_POINT('',(-0.0105029475869283,-0.00341842676237263,0.00125));
#889=CARTESIAN_POINT('',(-0.0105029475869283,-0.00341842676237263,0.0021523823036597));
#890=CARTESIAN_POINT('',(-0.00822256958494357,-0.00655715077961954,0.00125));
#891=CARTESIAN_POINT('',(-0.00822256958494357,-0.00655715077961954,0.0021523823036597));
#892=CARTESIAN_POINT('',(-0.00456749290552898,-0.00879512369664384,0.00125));
#893=CARTESIAN_POINT('',(-0.00456749290552898,-0.00879512369664384,0.0021523823036597));
#894=CARTESIAN_POINT('',(-9.28838647765993E-5,-0.00962855651027026,0.00125));
#895=CARTESIAN_POINT('',(-9.28838647765993E-5,-0.00962855651027026,0.0021523823036597));
#896=CARTESIAN_POINT('',(0.00439872940871025,-0.00885820422087165,0.00125));
#897=CARTESIAN_POINT('',(0.00439872940871025,-0.00885820422087165,0.0021523823036597));
#898=CARTESIAN_POINT('',(0.0080998003411782,-0.00666837427354157,0.00125));
#899=CARTESIAN_POINT('',(0.0080998003411782,-0.00666837427354157,0.0021523823036597));
#900=CARTESIAN_POINT('',(0.0104411628672963,-0.00355437122753347,0.00125));
#901=CARTESIAN_POINT('',(0.0104411628672963,-0.00355437122753347,0.0021523823036597));
#902=CARTESIAN_POINT('',(-0.007982119938563,-0.00500207760158513,0.011444799389565));
#903=CARTESIAN_POINT('',(-0.007982119938563,-0.00500207760158513,0.00744479938956502));
#904=CARTESIAN_POINT('',(-0.00676022857898427,-0.00636770333809602,0.011444799389565));
#905=CARTESIAN_POINT('',(-0.00676022857898427,-0.00636770333809602,0.00744479938956502));
#906=CARTESIAN_POINT('',(-0.00404863412159053,-0.0080166046622208,0.011444799389565));
#907=CARTESIAN_POINT('',(-0.00404863412159053,-0.0080166046622208,0.00744479938956502));
#908=CARTESIAN_POINT('',(0.000307907723147505,-0.00850830355529307,0.011444799389565));
#909=CARTESIAN_POINT('',(0.000307907723147505,-0.00850830355529307,0.00744479938956502));
#910=CARTESIAN_POINT('',(0.00353372849833508,-0.00797298787875911,0.011444799389565));
#911=CARTESIAN_POINT('',(0.00353372849833508,-0.00797298787875911,0.00744479938956502));
#912=CARTESIAN_POINT('',(0.00634396741370669,-0.0066203520464563,0.011444799389565));
#913=CARTESIAN_POINT('',(0.00634396741370669,-0.0066203520464563,0.00744479938956502));
#914=CARTESIAN_POINT('',(0.00844857049840227,-0.00467090358878039,0.011444799389565));
#915=CARTESIAN_POINT('',(0.00844857049840227,-0.00467090358878039,0.00744479938956502));
#916=CARTESIAN_POINT('',(0.00970868844177695,-0.0023916739144605,0.011444799389565));
#917=CARTESIAN_POINT('',(0.00970868844177695,-0.0023916739144605,0.00744479938956502));
#918=CARTESIAN_POINT('',(0.0101188538771437,1.18339801869193E-7,0.011444799389565));
#919=CARTESIAN_POINT('',(0.0101188538771437,1.18339801869193E-7,0.00744479938956502));
#920=CARTESIAN_POINT('',(0.00970861569560681,0.0023916711628891,0.011444799389565));
#921=CARTESIAN_POINT('',(0.00970861569560681,0.0023916711628891,0.00744479938956502));
#922=CARTESIAN_POINT('',(0.00844859741676069,0.00467108574179279,0.011444799389565));
#923=CARTESIAN_POINT('',(0.00844859741676069,0.00467108574179279,0.00744479938956502));
#924=CARTESIAN_POINT('',(0.00634365069397472,0.00662047076718914,0.011444799389565));
#925=CARTESIAN_POINT('',(0.00634365069397472,0.00662047076718914,0.00744479938956502));
#926=CARTESIAN_POINT('',(0.00353347741294426,0.0079728551049128,0.011444799389565));
#927=CARTESIAN_POINT('',(0.00353347741294426,0.0079728551049128,0.00744479938956502));
#928=CARTESIAN_POINT('',(0.000307774010050213,0.00850844446054657,0.011444799389565));
#929=CARTESIAN_POINT('',(0.000307774010050213,0.00850844446054657,0.00744479938956502));
#930=CARTESIAN_POINT('',(-0.00404902690642236,0.00801661505705636,0.011444799389565));
#931=CARTESIAN_POINT('',(-0.00404902690642236,0.00801661505705636,0.00744479938956502));
#932=CARTESIAN_POINT('',(-0.00676015276553316,0.00636770117721045,0.011444799389565));
#933=CARTESIAN_POINT('',(-0.00676015276553316,0.00636770117721045,0.00744479938956502));
#934=CARTESIAN_POINT('',(-0.00798211993856425,0.00500197414242436,0.011444799389565));
#935=CARTESIAN_POINT('',(-0.00798211993856425,0.00500197414242436,0.00744479938956502));
#936=CARTESIAN_POINT('',(-0.00798211993856167,0.00500197414242725,0.013444799389565));
#937=CARTESIAN_POINT('',(-0.00798216248072538,0.00500201219016821,0.0114448154769145));
#938=CARTESIAN_POINT('',(-0.0079821199585666,0.00500197412006881,0.011444799389565));
#939=CARTESIAN_POINT('',(-0.00676015278858985,0.0063677011608432,0.011444799389565));
#940=CARTESIAN_POINT('',(-0.00404902692871377,0.00801661505086568,0.011444799389565));
#941=CARTESIAN_POINT('',(0.000307773997315227,0.00850844446160061,0.011444799389565));
#942=CARTESIAN_POINT('',(0.0035334774086225,0.00797285510701927,0.011444799389565));
#943=CARTESIAN_POINT('',(0.00634365069664283,0.00662047076623894,0.011444799389565));
#944=CARTESIAN_POINT('',(0.00844859742282605,0.0046710857351523,0.011444799389565));
#945=CARTESIAN_POINT('',(0.00970861570086406,0.00239167114989517,0.011444799389565));
#946=CARTESIAN_POINT('',(0.0101188538777838,1.1832080644333E-7,0.011444799389565));
#947=CARTESIAN_POINT('',(0.00970868843395615,-0.00239167393871023,0.011444799389565));
#948=CARTESIAN_POINT('',(0.00844857047779228,-0.00467090361622747,0.011444799389565));
#949=CARTESIAN_POINT('',(0.00634396737693822,-0.00662035207226432,0.011444799389565));
#950=CARTESIAN_POINT('',(0.00353372844541837,-0.00797298789613461,0.011444799389565));
#951=CARTESIAN_POINT('',(0.00030790765815872,-0.00850830355775438,0.011444799389565));
#952=CARTESIAN_POINT('',(-0.00404863419282308,-0.00801660463839664,0.011444799389565));
#953=CARTESIAN_POINT('',(-0.00676022863958406,-0.00636770329339647,0.011444799389565));
#954=CARTESIAN_POINT('',(-0.00798211998749974,-0.00500207754689183,0.011444799389565));
#955=CARTESIAN_POINT('',(-0.00798211993856167,-0.00500197903139194,0.011444727370004));
#956=CARTESIAN_POINT('',(-0.00798211993856167,-0.00500207760158661,0.013444799389565));
#957=CARTESIAN_POINT('',(0.00655331578692643,-0.00501169694266481,0.013444799389565));
#958=CARTESIAN_POINT('',(0.,9.63549187631342E-21,0.013444799389565));
#959=CARTESIAN_POINT('',(-0.00215,0.00154919333848297,0.013444799389565));
#960=CARTESIAN_POINT('',(-0.00215,-0.00154919333848297,0.013444799389565));
#961=CARTESIAN_POINT('',(-0.00215,-0.00501169694266481,0.013444799389565));
#962=CARTESIAN_POINT('',(-0.00722938359023984,0.00281330012682141,0.013444799389565));
#963=CARTESIAN_POINT('',(-0.00795137078078565,0.00107143492107653,0.013444799389565));
#964=CARTESIAN_POINT('',(-0.00807075067764393,0.00010031413307928,0.013444799389565));
#965=CARTESIAN_POINT('',(-0.00775267976269792,-0.00176351491364729,0.013444799389565));
#966=CARTESIAN_POINT('',(-0.0073250749316015,-0.00263929865737026,0.013444799389565));
#967=CARTESIAN_POINT('',(-0.00644766383701842,-0.0037415044409679,0.013444799389565));
#968=CARTESIAN_POINT('',(-0.00611101086218417,-0.00408259678532063,0.013444799389565));
#969=CARTESIAN_POINT('',(-0.00538801020868299,-0.00468405879553012,0.013444799389565));
#970=CARTESIAN_POINT('',(-0.00500113852187722,-0.00494872519876252,0.013444799389565));
#971=CARTESIAN_POINT('',(-0.00418410745901154,-0.00541389752918227,0.013444799389565));
#972=CARTESIAN_POINT('',(-0.00375006705161593,-0.00561476984109428,0.013444799389565));
#973=CARTESIAN_POINT('',(-0.00287253489290252,-0.00593887371557008,0.013444799389565));
#974=CARTESIAN_POINT('',(-0.00242234673644875,-0.00606617111659066,0.013444799389565));
#975=CARTESIAN_POINT('',(-0.00105004777465975,-0.00634944300952794,0.013444799389565));
#976=CARTESIAN_POINT('',(-9.01497884685967E-5,-0.00640649918222744,0.013444799389565));
#977=CARTESIAN_POINT('',(0.00176799263548993,-0.00624339732300563,0.013444799389565));
#978=CARTESIAN_POINT('',(0.00270612212235524,-0.00602839618228,0.013444799389565));
#979=CARTESIAN_POINT('',(0.00444073067412715,-0.00532170218093168,0.013444799389565));
#980=CARTESIAN_POINT('',(0.00526395217708374,-0.00483022729212976,0.013444799389565));
#981=CARTESIAN_POINT('',(0.00666555505540274,-0.0035634578158293,0.013444799389565));
#982=CARTESIAN_POINT('',(0.00723901186605956,-0.00280101105884181,0.013444799389565));
#983=CARTESIAN_POINT('',(0.00778049814828132,-0.00147781048769221,0.013444799389565));
#984=CARTESIAN_POINT('',(0.00789885499938054,-0.00101563964878442,0.013444799389565));
#985=CARTESIAN_POINT('',(0.00800357496319552,-8.75123341193667E-5,0.013444799389565));
#986=CARTESIAN_POINT('',(0.00798823050149267,0.000396226902912768,0.013444799389565));
#987=CARTESIAN_POINT('',(0.00782650419171837,0.00131727911424288,0.013444799389565));
#988=CARTESIAN_POINT('',(0.00768282477354027,0.00176195758018471,0.013444799389565));
#989=CARTESIAN_POINT('',(0.00727761817411341,0.00262162626100079,0.013444799389565));
#990=CARTESIAN_POINT('',(0.00702566992373066,0.00301667241631512,0.013444799389565));
#991=CARTESIAN_POINT('',(0.00643968194630738,0.00375025224850378,0.013444799389565));
#992=CARTESIAN_POINT('',(0.00610261971056205,0.00409032588968508,0.013444799389565));
#993=CARTESIAN_POINT('',(0.00538329439625505,0.00468723047733279,0.013444799389565));
#994=CARTESIAN_POINT('',(0.0049971157479112,0.00495158124086937,0.013444799389565));
#995=CARTESIAN_POINT('',(0.00376803475646777,0.00564964074613652,0.013444799389565));
#996=CARTESIAN_POINT('',(0.00288426358035942,0.00597049371092754,0.013444799389565));
#997=CARTESIAN_POINT('',(0.00105142397129411,0.00634948621496642,0.013444799389565));
#998=CARTESIAN_POINT('',(0.000100136743573422,0.00640635647191904,0.013444799389565));
#999=CARTESIAN_POINT('',(-0.00175793587503572,0.00624527274430854,0.013444799389565));
#1000=CARTESIAN_POINT('',(-0.00269079363168315,0.00603281198992011,0.013444799389565));
#1001=CARTESIAN_POINT('',(-0.00442524309844811,0.00532978462831609,0.013444799389565));
#1002=CARTESIAN_POINT('',(-0.00524736209282515,0.00483957846648454,0.013444799389565));
#1003=CARTESIAN_POINT('',(-0.00664867882961413,0.00358420134418685,0.013444799389565));
#1004=CARTESIAN_POINT('',(-0.00722938359023984,0.00281330012682141,0.013444799389565));
#1005=CARTESIAN_POINT('',(-0.00795137078078565,0.00107143492107653,0.013444799389565));
#1006=CARTESIAN_POINT('',(-0.0079817328926435,-2.58516588124151E-7,0.0134442923487658));
#1007=CARTESIAN_POINT('',(-0.00149565318213449,0.,0.00744479938956502));
#1008=CARTESIAN_POINT('',(-0.00798211993856167,0.,0.00744479938956502));
#1009=CARTESIAN_POINT('',(-0.00798211993856167,0.,0.00744479938956502));
#1010=CARTESIAN_POINT('',(-0.00798211993856167,-0.00500183003057889,0.0114446963682826));
#1011=CARTESIAN_POINT('',(-0.00798211993856167,-0.00456332931925347,0.0117371874495052));
#1012=CARTESIAN_POINT('',(-0.00798211993856167,-0.00393495845134042,0.0121272109557449));
#1013=CARTESIAN_POINT('',(-0.00798211993856167,-0.00326913833748279,0.0124902215924812));
#1014=CARTESIAN_POINT('',(-0.00798211993856167,-0.00288976218596495,0.012679101542751));
#1015=CARTESIAN_POINT('',(-0.00798211993856167,-0.0026556342348855,0.0127902106746278));
#1016=CARTESIAN_POINT('',(-0.00798211993856167,-0.00226794622788528,0.012957796853228));
#1017=CARTESIAN_POINT('',(-0.00798211993856167,-0.00181670183182667,0.0131274266028694));
#1018=CARTESIAN_POINT('',(-0.00798211993856167,-0.00102589632387624,0.013365857913651));
#1019=CARTESIAN_POINT('',(-0.00798211993856167,-0.000400213572032447,0.0134442535061025));
#1020=CARTESIAN_POINT('',(-0.00798211993856167,-2.60429155845871E-7,0.0134433981047896));
#1021=CARTESIAN_POINT('',(-0.00798211993856167,-2.60429155846684E-7,0.0134433981047896));
#1022=CARTESIAN_POINT('',(-0.00798211993856167,0.000405465207150614,0.0134425303575343));
#1023=CARTESIAN_POINT('',(-0.00798211993856167,0.00103561385935174,0.0133629330042611));
#1024=CARTESIAN_POINT('',(-0.00798211993856167,0.00182349494767863,0.0131258556770944));
#1025=CARTESIAN_POINT('',(-0.00798211993856167,0.00227165511298352,0.0129574032382308));
#1026=CARTESIAN_POINT('',(-0.00798211993856167,0.00265381799775703,0.0127919573878957));
#1027=CARTESIAN_POINT('',(-0.00798211993856167,0.0028894581684647,0.012679927802062));
#1028=CARTESIAN_POINT('',(-0.00798211993856167,0.003268432514824,0.012490952854867));
#1029=CARTESIAN_POINT('',(-0.00798211993856167,0.00393477441221545,0.0121274029830618));
#1030=CARTESIAN_POINT('',(-0.00798211993856167,0.00456333218059725,0.0117373205267304));
#1031=CARTESIAN_POINT('',(-0.00798211993856167,0.00500210403377437,0.0114448535167787));
#1032=CARTESIAN_POINT('',(-0.00722938359023984,0.00281330012682141,0.013444799389565));
#1033=CARTESIAN_POINT('',(-0.00795137078078565,0.00107143492107653,0.013444799389565));
#1034=CARTESIAN_POINT('',(-0.00807075067764393,0.00010031413307928,0.013444799389565));
#1035=CARTESIAN_POINT('',(-0.00775267976269792,-0.00176351491364729,0.013444799389565));
#1036=CARTESIAN_POINT('',(-0.0073250749316015,-0.00263929865737026,0.013444799389565));
#1037=CARTESIAN_POINT('',(-0.00644766383701842,-0.0037415044409679,0.013444799389565));
#1038=CARTESIAN_POINT('',(-0.00611101086218417,-0.00408259678532063,0.013444799389565));
#1039=CARTESIAN_POINT('',(-0.00538801020868299,-0.00468405879553012,0.013444799389565));
#1040=CARTESIAN_POINT('',(-0.00500113852187722,-0.00494872519876252,0.013444799389565));
#1041=CARTESIAN_POINT('',(-0.00418410745901154,-0.00541389752918227,0.013444799389565));
#1042=CARTESIAN_POINT('',(-0.00375006705161593,-0.00561476984109428,0.013444799389565));
#1043=CARTESIAN_POINT('',(-0.00287253489290252,-0.00593887371557008,0.013444799389565));
#1044=CARTESIAN_POINT('',(-0.00242234673644875,-0.00606617111659066,0.013444799389565));
#1045=CARTESIAN_POINT('',(-0.00105004777465975,-0.00634944300952794,0.013444799389565));
#1046=CARTESIAN_POINT('',(-9.01497884685967E-5,-0.00640649918222744,0.013444799389565));
#1047=CARTESIAN_POINT('',(0.00176799263548993,-0.00624339732300563,0.013444799389565));
#1048=CARTESIAN_POINT('',(0.00270612212235524,-0.00602839618228,0.013444799389565));
#1049=CARTESIAN_POINT('',(0.00444073067412715,-0.00532170218093168,0.013444799389565));
#1050=CARTESIAN_POINT('',(0.00526395217708374,-0.00483022729212976,0.013444799389565));
#1051=CARTESIAN_POINT('',(0.00666555505540274,-0.0035634578158293,0.013444799389565));
#1052=CARTESIAN_POINT('',(0.00723901186605956,-0.00280101105884181,0.013444799389565));
#1053=CARTESIAN_POINT('',(0.00778049814828132,-0.00147781048769221,0.013444799389565));
#1054=CARTESIAN_POINT('',(0.00789885499938054,-0.00101563964878442,0.013444799389565));
#1055=CARTESIAN_POINT('',(0.00800357496319552,-8.75123341193667E-5,0.013444799389565));
#1056=CARTESIAN_POINT('',(0.00798823050149267,0.000396226902912768,0.013444799389565));
#1057=CARTESIAN_POINT('',(0.00782650419171837,0.00131727911424288,0.013444799389565));
#1058=CARTESIAN_POINT('',(0.00768282477354027,0.00176195758018471,0.013444799389565));
#1059=CARTESIAN_POINT('',(0.00727761817411341,0.00262162626100079,0.013444799389565));
#1060=CARTESIAN_POINT('',(0.00702566992373066,0.00301667241631512,0.013444799389565));
#1061=CARTESIAN_POINT('',(0.00643968194630738,0.00375025224850378,0.013444799389565));
#1062=CARTESIAN_POINT('',(0.00610261971056205,0.00409032588968508,0.013444799389565));
#1063=CARTESIAN_POINT('',(0.00538329439625505,0.00468723047733279,0.013444799389565));
#1064=CARTESIAN_POINT('',(0.0049971157479112,0.00495158124086937,0.013444799389565));
#1065=CARTESIAN_POINT('',(0.00376803475646777,0.00564964074613652,0.013444799389565));
#1066=CARTESIAN_POINT('',(0.00288426358035942,0.00597049371092754,0.013444799389565));
#1067=CARTESIAN_POINT('',(0.00105142397129411,0.00634948621496642,0.013444799389565));
#1068=CARTESIAN_POINT('',(0.000100136743573422,0.00640635647191904,0.013444799389565));
#1069=CARTESIAN_POINT('',(-0.00175793587503572,0.00624527274430854,0.013444799389565));
#1070=CARTESIAN_POINT('',(-0.00269079363168315,0.00603281198992011,0.013444799389565));
#1071=CARTESIAN_POINT('',(-0.00442524309844811,0.00532978462831609,0.013444799389565));
#1072=CARTESIAN_POINT('',(-0.00524736209282515,0.00483957846648454,0.013444799389565));
#1073=CARTESIAN_POINT('',(-0.00664867882961413,0.00358420134418685,0.013444799389565));
#1074=CARTESIAN_POINT('',(-0.00722938359023984,0.00281330012682141,0.013444799389565));
#1075=CARTESIAN_POINT('',(-0.00795137078078565,0.00107143492107653,0.013444799389565));
#1076=CARTESIAN_POINT('',(-0.00894407568467561,0.0038951669436549,0.011444799389565));
#1077=CARTESIAN_POINT('',(-0.00993446100489372,0.00151482412362617,0.011444799389565));
#1078=CARTESIAN_POINT('',(-0.0101073729345179,0.000138205398636299,0.011444799389565));
#1079=CARTESIAN_POINT('',(-0.00965932717682588,-0.00247269173822979,0.011444799389565));
#1080=CARTESIAN_POINT('',(-0.00906919256868984,-0.00366007709268448,0.011444799389565));
#1081=CARTESIAN_POINT('',(-0.00792353826326489,-0.00509852237709565,0.011444799389565));
#1082=CARTESIAN_POINT('',(-0.00748928068772128,-0.00553760657084354,0.011444799389565));
#1083=CARTESIAN_POINT('',(-0.00656925069695929,-0.00630295645062457,0.011444799389565));
#1084=CARTESIAN_POINT('',(-0.00608710864836127,-0.00663184656838085,0.011444799389565));
#1085=CARTESIAN_POINT('',(-0.00507607559030647,-0.0072075218000177,0.011444799389565));
#1086=CARTESIAN_POINT('',(-0.00454304273067092,-0.0074539492965805,0.011444799389565));
#1087=CARTESIAN_POINT('',(-0.00346662109291395,-0.00785150173697294,0.011444799389565));
#1088=CARTESIAN_POINT('',(-0.0029203874833969,-0.00800551518479586,0.011444799389565));
#1089=CARTESIAN_POINT('',(-0.00126658542581251,-0.00834694026919385,0.011444799389565));
#1090=CARTESIAN_POINT('',(-0.000107033378734332,-0.00841579402445439,0.011444799389565));
#1091=CARTESIAN_POINT('',(0.00213142474930715,-0.00821906221970006,0.011444799389565));
#1092=CARTESIAN_POINT('',(0.0032610758679734,-0.00796212041265528,0.011444799389565));
#1093=CARTESIAN_POINT('',(0.0053926301667644,-0.0070932975478866,0.011444799389565));
#1094=CARTESIAN_POINT('',(0.00640751991285201,-0.00649230223688861,0.011444799389565));
#1095=CARTESIAN_POINT('',(0.00820126632269587,-0.00487147782304662,0.011444799389565));
#1096=CARTESIAN_POINT('',(0.00895766169939745,-0.00387860266887729,0.011444799389565));
#1097=CARTESIAN_POINT('',(0.00969978642299702,-0.0020700799914269,0.011444799389565));
#1098=CARTESIAN_POINT('',(0.0098652511519294,-0.00142595174406996,0.011444799389565));
#1099=CARTESIAN_POINT('',(0.0100121927018168,-0.000123590835737663,0.011444799389565));
#1100=CARTESIAN_POINT('',(0.00999071479569549,0.000557608866458799,0.011444799389565));
#1101=CARTESIAN_POINT('',(0.00976381694336585,0.00184727203996403,0.011444799389565));
#1102=CARTESIAN_POINT('',(0.00956463605598911,0.00246069018302178,0.011444799389565));
#1103=CARTESIAN_POINT('',(0.00901411497082915,0.00362813459253409,0.011444799389565));
#1104=CARTESIAN_POINT('',(0.00867823833093869,0.00415238116118684,0.011444799389565));
#1105=CARTESIAN_POINT('',(0.00791312102347004,0.00511015509353511,0.011444799389565));
#1106=CARTESIAN_POINT('',(0.0074785079696067,0.00554751852198397,0.011444799389565));
#1107=CARTESIAN_POINT('',(0.00656336307267932,0.00630690055630789,0.011444799389565));
#1108=CARTESIAN_POINT('',(0.00608128241378115,0.00663582938420987,0.011444799389565));
#1109=CARTESIAN_POINT('',(0.00456290555360951,0.00749836798261216,0.011444799389565));
#1110=CARTESIAN_POINT('',(0.00347627029613722,0.00789038567956833,0.011444799389565));
#1111=CARTESIAN_POINT('',(0.00126904286758186,0.00834680069586177,0.011444799389565));
#1112=CARTESIAN_POINT('',(0.000119145182002537,0.00841563458038436,0.011444799389565));
#1113=CARTESIAN_POINT('',(-0.0021193987230489,0.00822130829694399,0.011444799389565));
#1114=CARTESIAN_POINT('',(-0.00324232135773825,0.00796752347087051,0.011444799389565));
#1115=CARTESIAN_POINT('',(-0.0053735881897555,0.00710322383628558,0.011444799389565));
#1116=CARTESIAN_POINT('',(-0.00638679729501436,0.00650378196130054,0.011444799389565));
#1117=CARTESIAN_POINT('',(-0.00817922538431426,0.00489845339174146,0.011444799389565));
#1118=CARTESIAN_POINT('',(-0.00894407568467561,0.0038951669436549,0.011444799389565));
#1119=CARTESIAN_POINT('',(-0.00993446100489372,0.00151482412362617,0.011444799389565));
#1120=CARTESIAN_POINT('',(-0.00215,-2.16840434497101E-19,0.0619744507243997));
#1121=CARTESIAN_POINT('',(-0.00215,-0.00154919333848297,0.0619744507243997));
#1122=CARTESIAN_POINT('',(-0.00215,0.00154919333848297,0.0619744507243997));
#1123=CARTESIAN_POINT('',(-0.00215,-2.16840434497101E-19,0.0619744507243997));
#1124=CARTESIAN_POINT('',(-0.00215,-0.00154919333848297,0.0619744507243997));
#1125=CARTESIAN_POINT('',(-0.00215,-0.00154919333848297,0.00225));
#1126=CARTESIAN_POINT('',(-0.00215,-2.16840434497101E-19,0.00225));
#1127=CARTESIAN_POINT('',(-0.00215,0.00154919333848297,0.00225));
#1128=CARTESIAN_POINT('',(-0.00215,0.00154919333848297,0.0619744507243997));
#1129=CARTESIAN_POINT('',(0.,9.63549187631342E-21,0.0619744507243997));
#1130=CARTESIAN_POINT('',(0.,9.63549187631342E-21,0.00225));
#1131=CARTESIAN_POINT('',(0.,9.63549187631342E-21,0.00125));
#1132=CARTESIAN_POINT('',(-0.00315,-0.00184390889145858,0.00125));
#1133=CARTESIAN_POINT('',(-0.00281555423673228,-0.00175321955078211,0.00158444576326772));
#1134=CARTESIAN_POINT('',(-0.00248201888478167,-0.00165635197276511,0.00191798111521833));
#1135=CARTESIAN_POINT('',(-0.00215,-0.00154919333848297,0.00225));
#1136=CARTESIAN_POINT('',(-0.00215,0.00154919333848297,0.00225));
#1137=CARTESIAN_POINT('',(-0.00248201888478167,0.00165635197276511,0.00191798111521833));
#1138=CARTESIAN_POINT('',(-0.00281555423673228,0.00175321955078211,0.00158444576326772));
#1139=CARTESIAN_POINT('',(-0.00315,0.00184390889145858,0.00125));
#1140=CARTESIAN_POINT('',(-0.00315,-0.00538735906293909,0.00125));
#1141=MECHANICAL_DESIGN_GEOMETRIC_PRESENTATION_REPRESENTATION('',(#243),
#1142);
#1142=(
GEOMETRIC_REPRESENTATION_CONTEXT(3)
GLOBAL_UNCERTAINTY_ASSIGNED_CONTEXT((#1143))
GLOBAL_UNIT_ASSIGNED_CONTEXT((#1146,#1145,#1144))
REPRESENTATION_CONTEXT('WG','TOP_LEVEL_ASSEMBLY_PART')
);
#1143=UNCERTAINTY_MEASURE_WITH_UNIT(LENGTH_MEASURE(2.E-5),#1146,
'DISTANCE_ACCURACY_VALUE','Maximum Tolerance applied to model');
#1144=(
NAMED_UNIT(*)
SI_UNIT($,.STERADIAN.)
SOLID_ANGLE_UNIT()
);
#1145=(
NAMED_UNIT(*)
PLANE_ANGLE_UNIT()
SI_UNIT($,.RADIAN.)
);
#1146=(
LENGTH_UNIT()
NAMED_UNIT(*)
SI_UNIT($,.METRE.)
);
#1147=PRODUCT_DEFINITION_SHAPE('','',#1148);
#1148=PRODUCT_DEFINITION('','',#1150,#1149);
#1149=PRODUCT_DEFINITION_CONTEXT('',#1156,'design');
#1150=PRODUCT_DEFINITION_FORMATION_WITH_SPECIFIED_SOURCE('','',#1152,
 .NOT_KNOWN.);
#1151=PRODUCT_RELATED_PRODUCT_CATEGORY('','',(#1152));
#1152=PRODUCT('WG','WG','WG',(#1154));
#1153=PRODUCT_CATEGORY('','');
#1154=PRODUCT_CONTEXT('',#1156,'mechanical');
#1155=APPLICATION_PROTOCOL_DEFINITION('international standard',
'ap242_managed_model_based_3d_engineering',2020,#1156);
#1156=APPLICATION_CONTEXT('managed model based 3d engineering');
ENDSEC;
END-ISO-10303-21;
